<svg xmlns="http://www.w3.org/2000/svg" viewBox="0 0 451 300"><g fill="none" stroke-width="2"><path stroke="#800101" d="m140.04 99.5-.15-.08a1.13 1.11 39.5 0 0-.99.09l-45.1 28.14a3.4 3.38-16.2 0 0-1.59 2.87v52.17a3.99 3.98-81.4 0 0 2.8 3.8l47.81 14.93a.6.07 6.3 0 1 .09.02q4.26.74 9.46 2.95a2.13 2.1-42.3 0 0 1.48.06q.8-.28 1.21-.11a1.2 1.2 0 0 0 1.05-.1l36.39-22.99a1.91 1.9 73.9 0 0 .88-1.61l-.01-51.61a3.8 3.8 0 0 0-2.06-3.38l-48.99-25.18a1.41 1.4 48.8 0 0-1.11-.08l-.09.05a1 1 0 0 1-1.08.06m167.01-.01-.15-.08a1.13 1.11 39.5 0 0-.99.09l-45.11 28.15a3.4 3.38-16.2 0 0-1.59 2.87v52.17a3.99 3.98-81.4 0 0 2.8 3.81l47.81 14.93a.6.07 6.3 0 1 .09.02q4.26.74 9.46 2.95a2.13 2.1-42.3 0 0 1.49.06q.8-.28 1.21-.11a1.2 1.2 0 0 0 1.05-.1l36.39-22.99a1.91 1.9 73.9 0 0 .88-1.61v-51.62a3.8 3.8 0 0 0-2.06-3.38l-49-25.19a1.41 1.4 48.8 0 0-1.11-.08l-.09.05a1 .99 41.8 0 1-1.08.06" vector-effect="non-scaling-stroke"/><path stroke="gray" d="m157.27 140 30.01-13.24a.63.63 0 0 0-.1-1.19q-1.57-.4-3.21-1.27-5.69-3.03-35.79-18.48-4.75-2.44-6.1-3.02a.14.14 0 0 0-.19.18l14.54 36.67a.63.63 0 0 0 .84.35m-4.05-.42-14.1-35.54a.83.83 0 0 0-1.22-.4l-39.22 24.5a.33.33 0 0 0 .11.6l54.21 11.1a.19.19 0 0 0 .22-.26m3.3 4a.3.3 0 0 0-.2.31v55.99a.34.34 0 0 0 .52.29l33.54-20.94a.3.3 0 0 0 .16-.29V129.1a.34.34 0 0 0-.48-.31l-33.54 14.79m-61.38 39.66a.3.3 0 0 0 .23.31l57.58 17.73a.33.33 0 0 0 .43-.32v-57.69a.3.3 0 0 0-.26-.32l-57.58-11.87a.33.33 0 0 0-.4.32v51.84M324.27 140l30.01-13.24a.63.63 0 0 0-.1-1.19q-1.57-.4-3.21-1.27-5.69-3.03-35.79-18.48-4.75-2.44-6.1-3.02a.14.14 0 0 0-.19.18l14.54 36.67a.63.63 0 0 0 .84.35m-58.61-11.86a.32.32 0 0 0 .1.58l54.04 11.14a.32.32 0 0 0 .36-.43l-14.26-35.96a.32.32 0 0 0-.47-.16l-39.77 24.83m57.86 15.44a.3.3 0 0 0-.2.31v55.99a.34.34 0 0 0 .52.29l33.46-20.89a.3.3 0 0 0 .16-.29v-49.86a.34.34 0 0 0-.48-.31l-33.46 14.76m-61.38 39.67a.3.3 0 0 0 .22.3l57.61 17.73a.3.3 0 0 0 .4-.3v-57.73a.3.3 0 0 0-.25-.3l-57.61-11.87a.3.3 0 0 0-.37.3v51.87" vector-effect="non-scaling-stroke"/></g><path fill="red" d="M451 0v300H0V0zM140.04 99.5l-.15-.08a1.13 1.11 39.5 0 0-.99.09l-45.1 28.14a3.4 3.38-16.2 0 0-1.59 2.87v52.17a3.99 3.98-81.4 0 0 2.8 3.8l47.81 14.93a.6.07 6.3 0 1 .09.02q4.26.74 9.46 2.95a2.13 2.1-42.3 0 0 1.48.06q.8-.28 1.21-.11a1.2 1.2 0 0 0 1.05-.1l36.39-22.99a1.91 1.9 73.9 0 0 .88-1.61l-.01-51.61a3.8 3.8 0 0 0-2.06-3.38l-48.99-25.18a1.41 1.4 48.8 0 0-1.11-.08l-.09.05a1 1 0 0 1-1.08.06m167.01-.01-.15-.08a1.13 1.11 39.5 0 0-.99.09l-45.11 28.15a3.4 3.38-16.2 0 0-1.59 2.87v52.17a3.99 3.98-81.4 0 0 2.8 3.81l47.81 14.93a.6.07 6.3 0 1 .09.02q4.26.74 9.46 2.95a2.13 2.1-42.3 0 0 1.49.06q.8-.28 1.21-.11a1.2 1.2 0 0 0 1.05-.1l36.39-22.99a1.91 1.9 73.9 0 0 .88-1.61v-51.62a3.8 3.8 0 0 0-2.06-3.38l-49-25.19a1.41 1.4 48.8 0 0-1.11-.08l-.09.05a1 .99 41.8 0 1-1.08.06"/><path fill="#010101" d="M140.04 99.5a1 1 0 0 0 1.08-.06l.09-.05a1.41 1.4 48.8 0 1 1.11.08l48.99 25.18a3.8 3.8 0 0 1 2.06 3.38l.01 51.61a1.91 1.9 73.9 0 1-.88 1.61l-36.39 22.99a1.2 1.2 0 0 1-1.05.1q-.41-.17-1.21.11a2.13 2.1-42.3 0 1-1.48-.06q-5.2-2.21-9.46-2.95a.6.07 6.3 0 0-.09-.02l-47.81-14.93a3.99 3.98-81.4 0 1-2.8-3.8v-52.17a3.4 3.38-16.2 0 1 1.59-2.87l45.1-28.14a1.13 1.11 39.5 0 1 .99-.09zm17.23 40.5 30.01-13.24a.63.63 0 0 0-.1-1.19q-1.57-.4-3.21-1.27-5.69-3.03-35.79-18.48-4.75-2.44-6.1-3.02a.14.14 0 0 0-.19.18l14.54 36.67a.63.63 0 0 0 .84.35m-4.05-.42-14.1-35.54a.83.83 0 0 0-1.22-.4l-39.22 24.5a.33.33 0 0 0 .11.6l54.21 11.1a.19.19 0 0 0 .22-.26m3.3 4a.3.3 0 0 0-.2.31v55.99a.34.34 0 0 0 .52.29l33.54-20.94a.3.3 0 0 0 .16-.29V129.1a.34.34 0 0 0-.48-.31zm-61.38 39.66a.3.3 0 0 0 .23.31l57.58 17.73a.33.33 0 0 0 .43-.32v-57.69a.3.3 0 0 0-.26-.32l-57.58-11.87a.33.33 0 0 0-.4.32zm212.99-83.81.09-.05a1.41 1.4 48.8 0 1 1.11.08l49 25.19a3.8 3.8 0 0 1 2.06 3.38v51.62a1.91 1.9 73.9 0 1-.88 1.61l-36.39 22.99a1.2 1.2 0 0 1-1.05.1q-.41-.17-1.21.11a2.13 2.1-42.3 0 1-1.49-.06q-5.2-2.21-9.46-2.95a.6.07 6.3 0 0-.09-.02l-47.81-14.93a3.99 3.98-81.4 0 1-2.8-3.81v-52.17a3.4 3.38-16.2 0 1 1.59-2.87l45.11-28.15a1.13 1.11 39.5 0 1 .99-.09l.15.08a1 .99 41.8 0 0 1.08-.06M324.27 140l30.01-13.24a.63.63 0 0 0-.1-1.19q-1.57-.4-3.21-1.27-5.69-3.03-35.79-18.48-4.75-2.44-6.1-3.02a.14.14 0 0 0-.19.18l14.54 36.67a.63.63 0 0 0 .84.35m-58.61-11.86a.32.32 0 0 0 .1.58l54.04 11.14a.32.32 0 0 0 .36-.43l-14.26-35.96a.32.32 0 0 0-.47-.16zm57.86 15.44a.3.3 0 0 0-.2.31v55.99a.34.34 0 0 0 .52.29l33.46-20.89a.3.3 0 0 0 .16-.29v-49.86a.34.34 0 0 0-.48-.31zm-61.38 39.67a.3.3 0 0 0 .22.3l57.61 17.73a.3.3 0 0 0 .4-.3v-57.73a.3.3 0 0 0-.25-.3l-57.61-11.87a.3.3 0 0 0-.37.3z"/><path fill="#fff" d="m156.43 139.65-14.54-36.67a.14.14 0 0 1 .19-.18q1.35.58 6.1 3.02 30.1 15.45 35.79 18.48 1.64.87 3.21 1.27a.63.63 0 0 1 .1 1.19L157.27 140a.63.63 0 0 1-.84-.35m167.84.35a.63.63 0 0 1-.84-.35l-14.54-36.67a.14.14 0 0 1 .19-.18q1.35.58 6.1 3.02 30.1 15.45 35.79 18.48 1.64.87 3.21 1.27a.63.63 0 0 1 .1 1.19zm-171.05-.42a.19.19 0 0 1-.22.26l-54.21-11.1a.33.33 0 0 1-.11-.6l39.22-24.5a.83.83 0 0 1 1.22.4zm112.44-11.44 39.77-24.83a.32.32 0 0 1 .47.16l14.26 35.96a.32.32 0 0 1-.36.43l-54.04-11.14a.32.32 0 0 1-.1-.58m-109.14 15.44 33.54-14.79a.34.34 0 0 1 .48.31v49.84a.3.3 0 0 1-.16.29l-33.54 20.94a.34.34 0 0 1-.52-.29v-55.99a.3.3 0 0 1 .2-.31m167 0 33.46-14.76a.34.34 0 0 1 .48.31v49.86a.3.3 0 0 1-.16.29l-33.46 20.89a.34.34 0 0 1-.52-.29v-55.99a.3.3 0 0 1 .2-.31M95.14 183.24V131.4a.33.33 0 0 1 .4-.32l57.58 11.87a.3.3 0 0 1 .26.32v57.69a.33.33 0 0 1-.43.32l-57.58-17.73a.3.3 0 0 1-.23-.31m167 .01v-51.87a.3.3 0 0 1 .37-.3l57.61 11.87a.3.3 0 0 1 .25.3v57.73a.3.3 0 0 1-.4.3l-57.61-17.73a.3.3 0 0 1-.22-.3"/></svg>