<svg xmlns="http://www.w3.org/2000/svg" viewBox="0 0 900 600"><path fill="#1ea01b" d="M0 0h900v600H0z"/><path d="m377 420-2-1-3 1c-3 1-4 1-5 0-2-1-1-3 0-4 1 0 1-1 1-1 0-1-3-2-3-2-1 0-4 1-5 2 0 0-1 2-2 3-1 3-1 3-3 3-1 0-1 0-2-1s0-2 1-4c1-3 2-5 4-6 1-1 1-2 1-2l-4-4s-1 1-2 1c-3 2-7 5-8 8-1 1-1 2-2 2 0 1-2 1-3 0s-1-3 1-6 4-5 7-7c4-3 3-2 3-4-1 0-1-1-1-1-1 0-7 3-9 5q-3 3-3 6c0 1-1 2-1 2-1 1-3 1-4-1-1 0-1-1 0-2 1-6 5-10 14-15l4-2c0-1 1-1 5-1 11 0 18-2 22-5 2-2 3-4 3-5l-3-1c-14-2-26-9-33-21-3-4-5-8-5-14-1-6 1-15 4-23 0-2 1-3 1-4-1 0-6-3-9-4-22-9-49-12-69-9-5 1-8 2-19 5-23 8-31 10-40 10-5 1-9 0-13-2l-2-1h-2c-4 1-5 1-10 1h-8c-6-1-11-4-16-7-2-1-4-2-5-2-2-1-5-3-7-4-2-2-4-3-5-5v-4c0-2 0-2 1-4 2-4 8-10 19-15 13-7 14-8 20-17 7-13 13-21 21-29l2-3v-3c1-18 8-30 21-37q12-6 18 0c2 2 4 5 4 10 1 0 1 1 1 1l2-2c4-5 8-8 12-10 2-1 5-2 7-2s7 1 9 2c4 1 8 5 10 9 0 1 1 2 1 2 1 0 11-2 17-4 7-2 15-5 20-9 2-1 6-4 10-7 3-2 7-5 9-6 9-7 17-11 25-14 9-3 15-3 38-1 13 2 17 2 25 2s12 0 19-1l4-1h51c29 1 54 1 56 1 7-1 13-1 29-3 14-2 15-2 20-2 15 1 27 4 38 7 24 9 42 24 55 46 8 14 14 32 17 47 1 7 1 12 2 30 1 12 2 18 3 25 2 7 4 15 6 20 1 1 1 2 2 7 1 8 2 12 2 19 0 6-1 9-2 15 0 3-2 8-2 8-1 1-7 4-11 5-7 3-12 4-23 4-8 0-16-1-16-2-1 0-1 0-1-1l-1-1c-1 0-2 2-3 4-1 3-3 3-5 2 0 0-1-2-1-3 1-2 3-6 5-7 2-2 2-2 1-3v-1c-1 0-4 3-5 5-1 3-2 3-3 3h-2c-1-1-1-1-1-2 0-3 4-8 8-11 2-2 2-1 3-4 0-1 0-1-1-2 0 0-5 3-8 4-3 3-6 6-6 8 0 1-1 2-1 3h-3c-3-2-1-9 4-13 3-2 8-5 13-7 1-1 2-1 2-1 1-1 3-1 12 0 7 1 11 1 11 1v-1c0-1-8-19-9-20 0-1 0-1-1-1-6-1-13-5-22-13-6-5-5-5-6-5 0 0 1 2 2 5 4 10 6 17 6 22v2l-3 3c-12 13-24 29-33 43-3 5-7 13-9 16 0 1-1 2-1 2s-9 1-19 3c-11 1-20 3-20 3-3 1-4-1-4-4 0-1 0-1-1-2s-1-2-2-2-3 3-5 6c-1 3-3 3-4 2-2-1-2-2 0-5 1-3 3-5 5-6 0-1 1-1 1-1 0-1-3-5-3-5s-3 1-4 3c-2 1-3 3-4 5s-2 2-3 2-1 0-2-1c-1 0-1 0-1-2 1-2 5-8 9-11 1 0 2-1 2-1 0-1-1-3-1-3-1 0-6 3-8 4-4 3-7 6-7 8 0 1-1 2-1 2 0 2-3 2-4 1-1-2-1-4 1-7 0-2 1-3 3-4 1-2 3-3 4-4 4-2 11-6 13-6 0 0 1-1 3-1 4-2 9-3 18-3l7-1v-3c0-2 1-4 1-5 1-6 4-10 8-14 1-1 2-2 2-3 0 0-2 0-4-1-11-2-21-7-29-11-3-2-9-6-11-8l-1-2-2-1c0 1-1 0-2 0h-5c-4-1-8-1-9-1-1-1-4-2-7-3-3-2-6-3-7-3-2-1-3-1-6-1-5 0-6 0-15 3-15 6-27 9-40 9h-4l-3 4c-19 18-34 44-45 74l-1 4h-1c-3 0-35 4-36 4s-2 0-3-1"/><path fill="#fff" d="M386 377v-11c-1-15-5-26-12-35-2-2-6-6-9-8-4-3-10-7-15-9-2-1-2 0-3 1-1 3-1 3 2 4 18 7 28 20 31 38 1 5 2 11 1 16v4h1s1 1 2 1 2 0 2-1m80-43c0-1 1-1 1-1 0-1-1-2-2-3-10-13-15-28-17-46 0-2-1-7-1-11 0-5 0-7-1-7 0-1-3-1-3 0-1 0 0 13 1 21 2 15 6 29 14 40 2 4 6 8 6 8s1 0 2-1m-280-32c4-1 7-3 11-6s5-3 2-3c-4-1-8-2-11-4-1 0-1-1-1-1s-2 1-3 2q-6 4.5-12 6c-2 1-3 1-3 1 0 1 2 1 3 2 4 1 7 2 8 4 1 0 3 0 6-1m-14-19c3-1 6-4 13-12 16-17 31-32 48-46l5-5 1-1v-4c1-2 1-3 1-3-1 0-1 0-3 3l-4 4c-2 2-2 3-7 5-7 3-20 13-38 31-5 5-7 8-8 9s-2 3-3 4c-2 2-7 6-12 8-2 1-2 1-1 4 1 1 2 3 3 3 1 1 3 1 5 0m48-21c2-1 2-1 1-2-2-1-3-2-4-4v-3c0-2-1-2-2 1-1 2-2 7-2 8zm16-7c3-2 6-6 6-6 0-1-7-4-11-4-3 0-4 0-2 2 3 1 4 5 4 8-1 1-1 1-1 2 0 0 1 0 4-2m11-41c16-13 24-16 29-12 2 2 4 4 5 9l1 2h4v-8c0-5-1-7-3-9-3-4-7-7-10-8-4-2-13 1-19 7-4 4-8 9-10 14-1 3-2 7-2 7 1 1 1 0 5-2m-38 10c1-1 4-5 6-8 6-8 8-11 11-13 2-2 2-2 4-2 4 0 8 1 9 3 1 1 1 2 1 2 0 2 0 3 1 2 0 0 1-1 1-3 1-2 1-2 1-5 0-5-1-10-3-12-2-1-3-1-6-1s-5 1-8 2c-10 5-17 14-19 27 0 3-1 9-1 9 1 1 1 0 3-1"/><path fill="#fff" d="M728 325s0-1-1-3c-2-6-4-15-5-23-1-6-2-11-2-23-2-20-3-28-6-38-5-18-13-34-23-46-3-4-9-10-13-13-17-15-39-23-67-24-5 0-8 0-23 2-12 1-20 2-28 2h-54l-51-1-4 1c-7 1-11 1-19 1-9 0-12 0-25-1-15-2-23-2-27-2-12 2-23 7-41 20-9 7-12 9-15 11-9 5-19 9-33 11-2 0-2 0-2 4 1 3 1 8 0 9 1 1 2 1 5 1 5 0 8 0 11 1 2 1 11 5 20 10 20 10 26 13 33 16 9 4 15 5 23 6 4 1 4 1 4 2 0 3-2 7-3 9-2 2-4 3-7 3-2 0-4 0-8-2-3-2-8-4-13-5-14-5-27-7-41-8-6-1-21-1-26 0-11 1-22 3-31 7-4 1-11 5-14 7-6 4-13 10-18 15-2 2-6 7-7 10-3 4-4 9-3 10 0 0 5-2 11-5 6-2 11-5 11-5 1 0 2 2 1 3 0 0-8 5-18 10-17 10-19 12-17 12 0 0 2 0 4-1 1 0 6-1 10-2 10-2 17-5 27-9 7-4 11-7 19-12 6-5 9-7 15-10 8-4 17-7 28-8 4-1 19-1 24 0 19 2 37 10 51 21 4 3 8 7 12 11 4 5 7 8 10 10 4 3 8 5 10 5 7 0 11-10 13-27 0-6 1-9 3-12 3-6 11-10 19-11h3l3 3c11 13 23 20 35 22 2 1 8 1 11 0 14-2 28-12 43-30l3-3s2 1 4 3c17 14 32 22 46 26 3 1 5 2 8 1 5 0 8-3 11-8l2-2c1 0 12 3 15 4 8 3 15 7 17 10 1 0 1 1 2 1l2-2c9-10 14-21 16-34v-4c1 0 5 5 6 8 4 5 7 11 13 23 3 8 6 13 8 17 8 13 17 21 30 26 2 0 3 1 3 0"/><path fill="none" stroke="#fff" stroke-linecap="round" stroke-width="4" d="M543 286c-3 11 2 24 19 42"/></svg>