<svg xmlns="http://www.w3.org/2000/svg" viewBox="0 0 960 634"><g fill="none" stroke-width="2"><path stroke="#f68080" d="m96.67 0 222.32 248.19a.8.79 31.9 0 1 .17.73l-4.39 15.95a.46.46 0 0 0 .44.58h5.62a.38.38 0 0 1 .36.5l-36.71 111.47a.4.4 0 0 0 .39.54h13.7a.38.38 0 0 1 .36.52l-43.41 112.18a.37.37 0 0 0 .34.5h19.78a.38.37-77.8 0 1 .34.53l-48.73 110.84a.34.34 0 0 0 .31.48l195.43-.07" vector-effect="non-scaling-stroke"/><path stroke="#700" d="M422.99 602.94q18.01 9.09 37.61 9.72c48.88 1.56 88.38-35.65 90.85-84.16q.47-9.24-1.75-22.65" vector-effect="non-scaling-stroke"/><path stroke="#f68080" d="M549.7 505.85 664.45 634" vector-effect="non-scaling-stroke"/><path stroke="#82d0e3" d="m125.09 0 200.48 223.86a.32.32 0 0 0 .55-.13q19.01-69.05 21-76.35.29-1.06.66-1.75a1.35 1.33-52.2 0 1 2.15-.29q.42.43.51.76l32.67 118.63a.57.57 0 0 1-.55.72h-5.36a.47.47 80.9 0 0-.44.61l7.55 22.91a3.23 3.11-76.3 0 0 .64 1.1L692.96 634" vector-effect="non-scaling-stroke"/><path stroke="gray" d="M549.7 505.85q-.78-2.03-1.36-4.39-.73-3-1.25-4.42-14.33-39.76-54.07-55.14-.93-.36-.92-.34" vector-effect="non-scaling-stroke"/><path stroke="#f68080" d="m492.1 441.56-90.33-101.13a.25.25 0 0 0-.43.24l12.15 36.84a.34.34 0 0 1-.32.45h-13.94a.3.3 0 0 0-.27.39l26.19 67.67" vector-effect="non-scaling-stroke"/><path stroke="gray" d="m425.15 446.02-4.14 2.23" vector-effect="non-scaling-stroke"/><path stroke="#9ad097" d="M421.01 448.25q-13.12-33.85-26.09-67.43c-2.07-5.36 1.89-7.74 6.62-7.61q1.2.03 5.24.01a.27.27 0 0 0 .26-.36q-1.47-4.6-34.34-104.31-2.1-6.39 4.04-7.69a.5.5 0 0 0 .36-.6l-27.84-101.18a.3.29-44.9 0 0-.57 0l-27.83 101.15a.52.52 0 0 0 .4.65q6.07 1.24 4.1 7.25-20.62 62.87-34.5 104.81a.25.25 0 0 0 .23.33q.28.01 4.93-.06c4.87-.07 9.22 1.95 6.97 7.77q-28.08 72.63-40.6 104.87a.46.46 0 0 0 .44.63q7.15-.12 11.42-.02c4.73.11 7.89 2.91 5.75 7.78l-45.6 103.69a.2.2 0 0 0 .19.28l180.46-.02" vector-effect="non-scaling-stroke"/><path stroke="gray" d="m415.05 598.19 7.94 4.75" vector-effect="non-scaling-stroke"/><path stroke="#82d0e3" d="m266.71 0 284.66 317.85" vector-effect="non-scaling-stroke"/><path stroke="#025063" d="m551.37 317.85.11 95.29a.58.57 0 0 0 .58.57l85.14.02" vector-effect="non-scaling-stroke"/><path stroke="#82d0e3" d="M637.2 413.73 834.43 634" vector-effect="non-scaling-stroke"/><path stroke="#9ad097" d="m295.68 0 255.7 286.08" vector-effect="non-scaling-stroke"/><path stroke="gray" d="m551.38 286.08-.01 31.77" vector-effect="non-scaling-stroke"/><path stroke="#9ad097" d="M960 632.63q-.27 1.06-.99 1.37m-96.07 0-197.2-220.23" vector-effect="non-scaling-stroke"/><path stroke="#1b5017" d="m665.74 413.77 77.46-.13a.5.5 0 0 0 .51-.51V180.69a4.12 4.1 37.3 0 0-.15-1.1c-7.53-26.07-32.56-41.38-59.35-35.36a.45.45 0 0 1-.55-.44V95.3a3.86 3.47 42 0 0-.08-.76q-4.57-20.5-23.26-28.62c-1.48-.64-4.62-1.26-6.36-2.1a.7.69-76.9 0 1-.38-.62V38.09a.4.4 0 0 1 .38-.38h8.61a.6.6 0 0 0 .6-.6V26.18a.56.56 0 0 0-.56-.56h-8.55a.5.5 0 0 1-.49-.49v-8.92a.5.5 0 0 0-.51-.51h-11.12a.46.46 0 0 0-.46.46v8.99a.48.47 0 0 1-.48.47h-8.59a.53.53 0 0 0-.53.53v11.02a.55.54 0 0 0 .55.54h8.5a.56.56 0 0 1 .56.56v24.81a.96.95-7.5 0 1-.71.92q-23.46 6.3-29.22 30.21a4.4 4.25-39.2 0 0-.12 1.01v48.61a.45.44 6.7 0 1-.55.43c-25.02-5.66-48.52 7.31-57.95 30.91q-1.85 4.64-1.6 8.76.12 1.99.12 2.64.08 49.4-.08 99.51" vector-effect="non-scaling-stroke"/><path stroke="gray" d="m665.74 413.77-28.54-.04" vector-effect="non-scaling-stroke"/><path stroke="#807214" d="M647.4 63.42q1.59 0 3.45.09a.55.55 0 0 0 .58-.55V36.22a.53.52 90 0 1 .52-.53h8.72a.3.29-90 0 0 .29-.3v-7.45a.3.3 0 0 0-.3-.3h-8.71a.53.53 0 0 1-.53-.53v-8.86a.57.57 0 0 0-.63-.57q-.43.05-3.4.05t-3.4-.05a.57.57 0 0 0-.63.57v8.86a.53.53 0 0 1-.53.53l-8.71.01a.3.3 0 0 0-.3.3l.01 7.45a.3.29 90 0 0 .29.3l8.72-.01a.53.52 90 0 1 .52.53l.01 26.74a.55.55 0 0 0 .58.55q1.87-.09 3.45-.09m.3 30.85q28.98 0 33.49-.03a.33.32-7.2 0 0 .31-.4q-6.1-23.58-29.95-28.26-.77-.15-3.85-.15t-3.85.15Q620 70.26 613.9 93.84a.33.32 7.2 0 0 .31.41q4.51.02 33.49.02m34.09 2.26a.26.26 0 0 0-.26-.26h-67.72a.26.26 0 0 0-.26.26v48.5a.26.26 0 0 0 .26.26h67.72a.26.26 0 0 0 .26-.26v-48.5" vector-effect="non-scaling-stroke"/><path stroke="gray" d="M599.34 181.88q44.49.02 45.75.06a.51.5-74.6 0 0 .46-.27q.09-.18.04-.36c-5.55-21.33-23.94-36.41-46.24-36.42s-40.71 15.06-46.27 36.38q-.05.18.04.36a.51.5 74.7 0 0 .46.27q1.26-.04 45.76-.02m96.32.01q44.5 0 45.77.04a.51.5-74.7 0 0 .46-.27q.09-.18.04-.36c-5.56-21.33-23.97-36.41-46.27-36.41s-40.72 15.08-46.28 36.41q-.05.18.04.36a.51.5 74.7 0 0 .46.27q1.27-.04 45.78-.04" vector-effect="non-scaling-stroke"/><path stroke="gray" d="m647.5 179.91.09-.01a.2.18-88.7 0 0 .12-.13q6.33-22.06 26.78-32.17a.13.13 0 0 0-.05-.25q-6.74-.04-26.94-.04-20.21.01-26.95.05a.13.13 0 0 0-.05.25q20.45 10.1 26.79 32.16a.2.18 88.6 0 0 .12.13l.09.01m-2.13 4.28a.27.27 0 0 0-.27-.27h-91.38a.27.27 0 0 0-.27.27v227.22a.27.27 0 0 0 .27.27h91.38a.27.27 0 0 0 .27-.27V184.19" vector-effect="non-scaling-stroke"/><path stroke="gray" d="M647.72 183.6a3.55.25-88.8 0 0-.32 3.53 3.55.25-88.8 0 0 .18 3.56 3.55.25-88.8 0 0 .32-3.54 3.55.25-88.8 0 0-.18-3.56" vector-effect="non-scaling-stroke"/><path stroke="gray" d="M741.75 184.38a.46.46 0 0 0-.46-.46h-91.04a.46.46 0 0 0-.46.46v226.84a.46.46 0 0 0 .46.46h91.04a.46.46 0 0 0 .46-.46V184.38m-94.22 228.04h.24a.12.12 0 0 0 .12-.12l-.03-17.06a1.8.21 89.9 0 0-.22-1.8h-.06a1.8.21 89.9 0 0-.2 1.8l.03 17.06a.12.12 0 0 0 .12.12" vector-effect="non-scaling-stroke"/><path stroke="#807214" d="M634.6 104.7a.37.37 0 0 0-.37-.37h-15.24a.37.37 0 0 0-.37.37v32.8a.37.37 0 0 0 .37.37h15.24a.37.37 0 0 0 .37-.37v-32.8m20.79.01a.4.4 0 0 0-.39-.39h-15.18a.4.4 0 0 0-.39.39v32.78a.4.4 0 0 0 .39.39H655a.4.4 0 0 0 .39-.39v-32.78m20.86.07a.45.45 0 0 0-.45-.45h-15.14a.45.45 0 0 0-.45.45v32.62a.45.45 0 0 0 .45.45h15.14a.45.45 0 0 0 .45-.45v-32.62" vector-effect="non-scaling-stroke"/><path stroke="gray" d="M632.61 106.61a.3.3 0 0 0-.28-.28h-11.42a.3.3 0 0 0-.28.28v28.9a.3.3 0 0 0 .28.28h11.42a.3.3 0 0 0 .28-.28v-28.9m20.77-.01a.26.26 0 0 0-.26-.26H641.7a.26.26 0 0 0-.26.26v28.94a.26.26 0 0 0 .26.26h11.42a.26.26 0 0 0 .26-.26V106.6m20.81.05a.3.3 0 0 0-.31-.31h-11.36a.3.3 0 0 0-.31.31v28.84a.3.3 0 0 0 .31.31h11.36a.3.3 0 0 0 .31-.31v-28.84m-74.92 67.17q18.01.01 20.14.03 2.06.01 2.87-1.83a1.54 1.53-40.9 0 0 .07-1.02c-3.07-10.8-11.93-18.04-23.07-18.04-11.14-.01-20.01 7.22-23.09 18.01a1.54 1.53 41 0 0 .07 1.03q.81 1.84 2.86 1.83 2.14-.02 20.15-.01m96.34 0q18.01 0 20.14.02 2.05.01 2.86-1.83a1.54 1.53-41 0 0 .07-1.02c-3.07-10.8-11.93-18.03-23.07-18.03s-20.01 7.23-23.08 18.02a1.54 1.53 41 0 0 .07 1.02q.81 1.84 2.86 1.83l20.15-.01" vector-effect="non-scaling-stroke"/><path stroke="gray" d="M599.29 171.8q13.32.01 20.59-.01a.46.46 0 0 0 .44-.58 21.4 21.4 0 0 0-21.02-16.12 21.4 21.4 0 0 0-21.04 16.09.46.46 0 0 0 .44.58q7.27.03 20.59.04m96.33-.01q13.32 0 20.59-.02a.46.46 0 0 0 .45-.58 21.4 21.4 0 0 0-21.04-16.1 21.4 21.4 0 0 0-21.03 16.1.46.46 0 0 0 .44.58q7.27.02 20.59.02" vector-effect="non-scaling-stroke"/><path stroke="gray" d="M599.25 169.14q8.56 0 9.33-.05c2.21-.13 2.76-2.03 1.89-4.02-2.12-4.86-5.97-7.39-11.22-7.39s-9.09 2.53-11.21 7.38c-.87 2-.33 3.9 1.88 4.03q.78.05 9.33.05m96.34.01q8.55.01 9.33-.03c2.21-.13 2.76-2.04 1.89-4.03-2.11-4.86-5.96-7.4-11.21-7.41s-9.1 2.52-11.23 7.38c-.88 1.99-.33 3.89 1.88 4.03q.78.05 9.34.06" vector-effect="non-scaling-stroke"/><path stroke="gray" d="M589.88 167.09h18.78l.02-.02V167a9.31 7.25 0 0 0-9.31-7.25h-.2a9.31 7.25 0 0 0-9.31 7.25v.07l.02.02m96.34-.02 18.76.04.02-.02V167a9.31 7.23.1 0 0-9.29-7.25h-.18a9.31 7.23.1 0 0-9.33 7.21v.09l.02.02" vector-effect="non-scaling-stroke"/><path stroke="#1b5017" d="M421.01 448.25q-22.42 12.88-34.17 34.41a88 88 0 0 0-5.03 73.77q9.72 25.36 33.24 41.76" vector-effect="non-scaling-stroke"/><path stroke="gray" d="M580.07 205.23a.4.4 0 0 0-.4-.4h-15.02a.4.4 0 0 0-.4.4v95.54a.4.4 0 0 0 .4.4h15.02a.4.4 0 0 0 .4-.4v-95.54m27.1-.02a.4.4 0 0 0-.38-.38h-15.04a.4.4 0 0 0-.38.38v95.58a.4.4 0 0 0 .38.38h15.04a.4.4 0 0 0 .38-.38v-95.58m27.45-.02a.36.36 0 0 0-.36-.36h-15.12a.36.36 0 0 0-.36.36v95.62a.36.36 0 0 0 .36.36h15.12a.36.36 0 0 0 .36-.36v-95.62m41.74-.08a.3.3 0 0 0-.28-.28h-15.22a.3.3 0 0 0-.28.28v95.78a.3.3 0 0 0 .28.28h15.22a.3.3 0 0 0 .28-.28v-95.78m27.09.05a.33.33 0 0 0-.33-.33h-15.1a.33.33 0 0 0-.33.33v95.68a.33.33 0 0 0 .33.33h15.1a.33.33 0 0 0 .33-.33v-95.68m27.49.07a.4.4 0 0 0-.4-.4h-15.02a.4.4 0 0 0-.4.4v95.54a.4.4 0 0 0 .4.4h15.02a.4.4 0 0 0 .4-.4v-95.54" vector-effect="non-scaling-stroke"/><path stroke="#807214" d="M578.02 207.19a.4.4 0 0 0-.38-.38h-10.98a.4.4 0 0 0-.38.38v91.58a.4.4 0 0 0 .38.38h10.98a.4.4 0 0 0 .38-.38v-91.58m27.11.01a.4.4 0 0 0-.39-.39h-11a.4.4 0 0 0-.39.39v91.56a.4.4 0 0 0 .39.39h11a.4.4 0 0 0 .39-.39V207.2m27.48-.08a.33.33 0 0 0-.33-.33h-11.12a.33.33 0 0 0-.33.33v91.66a.33.33 0 0 0 .33.33h11.12a.33.33 0 0 0 .33-.33v-91.66m41.77-.05a.26.26 0 0 0-.26-.26h-11.28a.26.26 0 0 0-.26.26v91.82a.26.26 0 0 0 .26.26h11.28a.26.26 0 0 0 .26-.26v-91.82m27.08.05a.3.3 0 0 0-.31-.31h-11.16a.3.3 0 0 0-.31.31v91.72a.3.3 0 0 0 .31.31h11.16a.3.3 0 0 0 .31-.31v-91.72m27.46.07a.4.4 0 0 0-.38-.38h-10.96a.4.4 0 0 0-.38.38v91.58a.4.4 0 0 0 .38.38h10.96a.4.4 0 0 0 .38-.38v-91.58" vector-effect="non-scaling-stroke"/><path stroke="#700" d="M492.1 441.56q-35.2-10.52-66.95 4.46" vector-effect="non-scaling-stroke"/><path stroke="gray" d="M548.88 524.97a85.14 85.14 0 0 0-85.14-85.14 85.14 85.14 0 0 0-85.14 85.14 85.14 85.14 0 0 0 85.14 85.14 85.14 85.14 0 0 0 85.14-85.14" vector-effect="non-scaling-stroke"/><path stroke="gray" d="M476.91 524.86a13.1 13.1 0 0 0-13.09-13.09 13.1 13.1 0 0 0-13.09 13.09 13.1 13.1 0 0 0 13.09 13.09 13.1 13.1 0 0 0 13.09-13.09" vector-effect="non-scaling-stroke"/></g><path fill="#ed0000" d="m96.67 0 222.32 248.19a.8.79 31.9 0 1 .17.73l-4.39 15.95a.46.46 0 0 0 .44.58h5.62a.38.38 0 0 1 .36.5l-36.71 111.47a.4.4 0 0 0 .39.54h13.7a.38.38 0 0 1 .36.52l-43.41 112.18a.37.37 0 0 0 .34.5h19.78a.38.37-77.8 0 1 .34.53l-48.73 110.84a.34.34 0 0 0 .31.48l195.43-.07q18.01 9.09 37.61 9.72c48.88 1.56 88.38-35.65 90.85-84.16q.47-9.24-1.75-22.65L664.45 634H0V0z"/><path fill="#fff" d="m125.09 0 200.48 223.86a.32.32 0 0 0 .55-.13q19.01-69.05 21-76.35.29-1.06.66-1.75a1.35 1.33-52.2 0 1 2.15-.29q.42.43.51.76l32.67 118.63a.57.57 0 0 1-.55.72h-5.36a.47.47 80.9 0 0-.44.61l7.55 22.91a3.23 3.11-76.3 0 0 .64 1.1L692.96 634h-28.51L549.7 505.85q-.78-2.03-1.36-4.39-.73-3-1.25-4.42-14.33-39.76-54.07-55.14-.93-.36-.92-.34l-90.33-101.13a.25.25 0 0 0-.43.24l12.15 36.84a.34.34 0 0 1-.32.45h-13.94a.3.3 0 0 0-.27.39l26.19 67.67-4.14 2.23q-13.12-33.85-26.09-67.43c-2.07-5.36 1.89-7.74 6.62-7.61q1.2.03 5.24.01a.27.27 0 0 0 .26-.36q-1.47-4.6-34.34-104.31-2.1-6.39 4.04-7.69a.5.5 0 0 0 .36-.6l-27.84-101.18a.3.29-44.9 0 0-.57 0l-27.83 101.15a.52.52 0 0 0 .4.65q6.07 1.24 4.1 7.25-20.62 62.87-34.5 104.81a.25.25 0 0 0 .23.33q.28.01 4.93-.06c4.87-.07 9.22 1.95 6.97 7.77q-28.08 72.63-40.6 104.87a.46.46 0 0 0 .44.63q7.15-.12 11.42-.02c4.73.11 7.89 2.91 5.75 7.78l-45.6 103.69a.2.2 0 0 0 .19.28l180.46-.02 7.94 4.75-195.43.07a.34.34 0 0 1-.31-.48l48.73-110.84a.38.37-77.8 0 0-.34-.53h-19.78a.37.37 0 0 1-.34-.5l43.41-112.18a.38.38 0 0 0-.36-.52h-13.7a.4.4 0 0 1-.39-.54l36.71-111.47a.38.38 0 0 0-.36-.5h-5.62a.46.46 0 0 1-.44-.58l4.39-15.95a.8.79 31.9 0 0-.17-.73L96.67 0z"/><path fill="#04a0c6" d="m266.71 0 284.66 317.85.11 95.29a.58.57 0 0 0 .58.57l85.14.02L834.43 634H692.96L384.95 290.07a3.23 3.11-76.3 0 1-.64-1.1l-7.55-22.91a.47.47 80.9 0 1 .44-.61h5.36a.57.57 0 0 0 .55-.72L350.44 146.1q-.09-.33-.51-.76a1.35 1.33-52.2 0 0-2.15.29q-.37.69-.66 1.75-1.99 7.3-21 76.35a.32.32 0 0 1-.55.13L125.09 0z"/><path fill="#fff" d="m295.68 0 255.7 286.08-.01 31.77L266.71 0z"/><path fill="#35a02e" d="M960 0v632.63q-.27 1.06-.99 1.37h-96.07l-197.2-220.23 77.46-.13a.5.5 0 0 0 .51-.51V180.69a4.12 4.1 37.3 0 0-.15-1.1c-7.53-26.07-32.56-41.38-59.35-35.36a.45.45 0 0 1-.55-.44V95.3a3.86 3.47 42 0 0-.08-.76q-4.57-20.5-23.26-28.62c-1.48-.64-4.62-1.26-6.36-2.1a.7.69-76.9 0 1-.38-.62V38.09a.4.4 0 0 1 .38-.38h8.61a.6.6 0 0 0 .6-.6V26.18a.56.56 0 0 0-.56-.56h-8.55a.5.5 0 0 1-.49-.49v-8.92a.5.5 0 0 0-.51-.51h-11.12a.46.46 0 0 0-.46.46v8.99a.48.47 0 0 1-.48.47h-8.59a.53.53 0 0 0-.53.53v11.02a.55.54 0 0 0 .55.54h8.5a.56.56 0 0 1 .56.56v24.81a.96.95-7.5 0 1-.71.92q-23.46 6.3-29.22 30.21a4.4 4.25-39.2 0 0-.12 1.01v48.61a.45.44 6.7 0 1-.55.43c-25.02-5.66-48.52 7.31-57.95 30.91q-1.85 4.64-1.6 8.76.12 1.99.12 2.64.08 49.4-.08 99.51L295.68 0z"/><path d="m665.74 413.77-28.54-.04-85.14-.02a.58.57 0 0 1-.58-.57l-.11-95.29.01-31.77q.16-50.11.08-99.51 0-.65-.12-2.64-.25-4.12 1.6-8.76c9.43-23.6 32.93-36.57 57.95-30.91a.45.44 6.7 0 0 .55-.43V95.22a4.4 4.25-39.2 0 1 .12-1.01Q617.32 70.3 640.78 64a.96.95-7.5 0 0 .71-.92V38.27a.56.56 0 0 0-.56-.56h-8.5a.55.54 0 0 1-.55-.54V26.15a.53.53 0 0 1 .53-.53H641a.48.47 0 0 0 .48-.47v-8.99a.46.46 0 0 1 .46-.46h11.12a.5.5 0 0 1 .51.51v8.92a.5.5 0 0 0 .49.49h8.55a.56.56 0 0 1 .56.56v10.93a.6.6 0 0 1-.6.6h-8.61a.4.4 0 0 0-.38.38V63.2a.7.69-76.9 0 0 .38.62c1.74.84 4.88 1.46 6.36 2.1q18.69 8.12 23.26 28.62a3.86 3.47 42 0 1 .08.76v48.49a.45.45 0 0 0 .55.44c26.79-6.02 51.82 9.29 59.35 35.36a4.12 4.1 37.3 0 1 .15 1.1v232.44a.5.5 0 0 1-.51.51zM647.4 63.42q1.59 0 3.45.09a.55.55 0 0 0 .58-.55V36.22a.53.52 90 0 1 .52-.53h8.72a.3.29-90 0 0 .29-.3v-7.45a.3.3 0 0 0-.3-.3h-8.71a.53.53 0 0 1-.53-.53v-8.86a.57.57 0 0 0-.63-.57q-.43.05-3.4.05t-3.4-.05a.57.57 0 0 0-.63.57v8.86a.53.53 0 0 1-.53.53l-8.71.01a.3.3 0 0 0-.3.3l.01 7.45a.3.29 90 0 0 .29.3l8.72-.01a.53.52 90 0 1 .52.53l.01 26.74a.55.55 0 0 0 .58.55q1.87-.09 3.45-.09m.3 30.85q28.98 0 33.49-.03a.33.32-7.2 0 0 .31-.4q-6.1-23.58-29.95-28.26-.77-.15-3.85-.15t-3.85.15Q620 70.26 613.9 93.84a.33.32 7.2 0 0 .31.41q4.51.02 33.49.02m34.09 2.26a.26.26 0 0 0-.26-.26h-67.72a.26.26 0 0 0-.26.26v48.5a.26.26 0 0 0 .26.26h67.72a.26.26 0 0 0 .26-.26zm-82.45 85.35q44.49.02 45.75.06a.51.5-74.6 0 0 .46-.27q.09-.18.04-.36c-5.55-21.33-23.94-36.41-46.24-36.42s-40.71 15.06-46.27 36.38q-.05.18.04.36a.51.5 74.7 0 0 .46.27q1.26-.04 45.76-.02m96.32.01q44.5 0 45.77.04a.51.5-74.7 0 0 .46-.27q.09-.18.04-.36c-5.56-21.33-23.97-36.41-46.27-36.41s-40.72 15.08-46.28 36.41q-.05.18.04.36a.51.5 74.7 0 0 .46.27q1.27-.04 45.78-.04m-48.16-1.98.09-.01a.2.18-88.7 0 0 .12-.13q6.33-22.06 26.78-32.17a.13.13 0 0 0-.05-.25q-6.74-.04-26.94-.04-20.21.01-26.95.05a.13.13 0 0 0-.05.25q20.45 10.1 26.79 32.16a.2.18 88.6 0 0 .12.13zm-2.13 4.28a.27.27 0 0 0-.27-.27h-91.38a.27.27 0 0 0-.27.27v227.22a.27.27 0 0 0 .27.27h91.38a.27.27 0 0 0 .27-.27zm2.35-.6a3.55.25-88.8 0 0-.32 3.54 3.55.25-88.8 0 0 .18 3.56 3.55.25-88.8 0 0 .32-3.54 3.55.25-88.8 0 0-.18-3.56m94.03.79a.46.46 0 0 0-.46-.46h-91.04a.46.46 0 0 0-.46.46v226.84a.46.46 0 0 0 .46.46h91.04a.46.46 0 0 0 .46-.46zm-94.22 228.04h.24a.12.12 0 0 0 .12-.12l-.03-17.06a1.8.21 89.9 0 0-.22-1.8h-.06a1.8.21 89.9 0 0-.2 1.8l.03 17.06a.12.12 0 0 0 .12.12"/><path fill="#ffe327" d="M647.39 17.73q2.97 0 3.4-.05a.57.57 0 0 1 .63.57v8.86a.53.53 0 0 0 .53.53h8.71a.3.3 0 0 1 .3.3v7.45a.3.29-90 0 1-.29.3h-8.72a.53.52 90 0 0-.52.53v26.74a.55.55 0 0 1-.58.55q-1.86-.09-3.45-.09-1.58 0-3.45.09a.55.55 0 0 1-.58-.55l-.01-26.74a.53.52 90 0 0-.52-.53l-8.72.01a.3.29 90 0 1-.29-.3l-.01-7.45a.3.3 0 0 1 .3-.3l8.71-.01a.53.53 0 0 0 .53-.53v-8.86a.57.57 0 0 1 .63-.57q.43.05 3.4.05m.31 47.7q3.08 0 3.85.15 23.85 4.68 29.95 28.26a.33.32-7.2 0 1-.31.4q-4.51.03-33.49.03t-33.49-.02a.33.32 7.2 0 1-.31-.41q6.1-23.58 29.95-28.26.76-.15 3.85-.15m34.09 79.6a.26.26 0 0 1-.26.26h-67.72a.26.26 0 0 1-.26-.26v-48.5a.26.26 0 0 1 .26-.26h67.72a.26.26 0 0 1 .26.26zM634.6 104.7a.37.37 0 0 0-.37-.37h-15.24a.37.37 0 0 0-.37.37v32.8a.37.37 0 0 0 .37.37h15.24a.37.37 0 0 0 .37-.37zm20.79.01a.4.4 0 0 0-.39-.39h-15.18a.4.4 0 0 0-.39.39v32.78a.4.4 0 0 0 .39.39H655a.4.4 0 0 0 .39-.39zm20.86.07a.45.45 0 0 0-.45-.45h-15.14a.45.45 0 0 0-.45.45v32.62a.45.45 0 0 0 .45.45h15.14a.45.45 0 0 0 .45-.45z"/><path d="M634.6 137.5a.37.37 0 0 1-.37.37h-15.24a.37.37 0 0 1-.37-.37v-32.8a.37.37 0 0 1 .37-.37h15.24a.37.37 0 0 1 .37.37zm-1.99-30.89a.3.3 0 0 0-.28-.28h-11.42a.3.3 0 0 0-.28.28v28.9a.3.3 0 0 0 .28.28h11.42a.3.3 0 0 0 .28-.28zm22.78 30.88a.4.4 0 0 1-.39.39h-15.18a.4.4 0 0 1-.39-.39v-32.78a.4.4 0 0 1 .39-.39H655a.4.4 0 0 1 .39.39zm-2.01-30.89a.26.26 0 0 0-.26-.26H641.7a.26.26 0 0 0-.26.26v28.94a.26.26 0 0 0 .26.26h11.42a.26.26 0 0 0 .26-.26zm22.87 30.8a.45.45 0 0 1-.45.45h-15.14a.45.45 0 0 1-.45-.45v-32.62a.45.45 0 0 1 .45-.45h15.14a.45.45 0 0 1 .45.45zm-2.06-30.75a.3.3 0 0 0-.31-.31h-11.36a.3.3 0 0 0-.31.31v28.84a.3.3 0 0 0 .31.31h11.36a.3.3 0 0 0 .31-.31z"/><rect width="11.98" height="29.46" x="620.63" y="106.33" fill="#fff" rx=".28"/><rect width="11.94" height="29.46" x="641.44" y="106.34" fill="#fff" rx=".26"/><rect width="11.98" height="29.46" x="662.21" y="106.34" fill="#fff" rx=".31"/><path fill="#fff" d="M599.34 181.88q-44.5-.02-45.76.02a.51.5 74.7 0 1-.46-.27q-.09-.18-.04-.36c5.56-21.32 23.97-36.39 46.27-36.38s40.69 15.09 46.24 36.42q.05.18-.04.36a.51.5-74.6 0 1-.46.27q-1.26-.04-45.75-.06m-.07-8.06q18.01.01 20.14.03 2.06.01 2.87-1.83a1.54 1.53-40.9 0 0 .07-1.02c-3.07-10.8-11.93-18.04-23.07-18.04-11.14-.01-20.01 7.22-23.09 18.01a1.54 1.53 41 0 0 .07 1.03q.81 1.84 2.86 1.83 2.14-.02 20.15-.01m96.39-28.93c22.3 0 40.71 15.08 46.27 36.41q.05.18-.04.36a.51.5-74.7 0 1-.46.27q-1.27-.04-45.77-.04t-45.78.04a.51.5 74.7 0 1-.46-.27q-.09-.18-.04-.36c5.56-21.33 23.97-36.41 46.28-36.41m-.05 28.93q18.01 0 20.14.02 2.05.01 2.86-1.83a1.54 1.53-41 0 0 .07-1.02c-3.07-10.8-11.93-18.03-23.07-18.03s-20.01 7.23-23.08 18.02a1.54 1.53 41 0 0 .07 1.02q.81 1.84 2.86 1.83z"/><path fill="#fff" d="M647.5 147.31q20.2 0 26.94.04a.13.13 0 0 1 .05.25q-20.45 10.11-26.78 32.17a.2.18-88.7 0 1-.12.13l-.09.01-.09-.01a.2.18 88.6 0 1-.12-.13q-6.34-22.06-26.79-32.16a.13.13 0 0 1 .05-.25q6.74-.04 26.95-.05"/><path d="M599.27 173.82q-18.01-.01-20.15.01-2.05.01-2.86-1.83a1.54 1.53 41 0 1-.07-1.03c3.08-10.79 11.95-18.02 23.09-18.01s20 7.24 23.07 18.04a1.54 1.53-40.9 0 1-.07 1.02q-.81 1.84-2.87 1.83-2.13-.02-20.14-.03m.02-2.02q13.32.01 20.59-.01a.46.46 0 0 0 .44-.58 21.4 21.4 0 0 0-21.02-16.12 21.4 21.4 0 0 0-21.04 16.09.46.46 0 0 0 .44.58q7.27.03 20.59.04m96.32-18.84c11.14 0 20 7.23 23.07 18.03a1.54 1.53-41 0 1-.07 1.02q-.81 1.84-2.86 1.83-2.13-.02-20.14-.02l-20.15.01q-2.05.01-2.86-1.83a1.54 1.53 41 0 1-.07-1.02c3.07-10.79 11.94-18.02 23.08-18.02m.01 18.83q13.32 0 20.59-.02a.46.46 0 0 0 .45-.58 21.4 21.4 0 0 0-21.04-16.1 21.4 21.4 0 0 0-21.03 16.1.46.46 0 0 0 .44.58q7.27.02 20.59.02"/><path fill="#fff" d="M599.29 171.8q-13.32-.01-20.59-.04a.46.46 0 0 1-.44-.58 21.4 21.4 0 0 1 21.04-16.09 21.4 21.4 0 0 1 21.02 16.12.46.46 0 0 1-.44.58q-7.27.02-20.59.01m-.04-2.66q8.56 0 9.33-.05c2.21-.13 2.76-2.03 1.89-4.02-2.12-4.86-5.97-7.39-11.22-7.39s-9.09 2.53-11.21 7.38c-.87 2-.33 3.9 1.88 4.03q.78.05 9.33.05m96.37-14.05c10.07 0 18.41 6.4 21.04 16.1a.46.46 0 0 1-.45.58q-7.27.02-20.59.02t-20.59-.02a.46.46 0 0 1-.44-.58 21.4 21.4 0 0 1 21.03-16.1m-.03 14.06q8.55.01 9.33-.03c2.21-.13 2.76-2.04 1.89-4.03-2.11-4.86-5.96-7.4-11.21-7.41s-9.1 2.52-11.23 7.38c-.88 1.99-.33 3.89 1.88 4.03q.78.05 9.34.06"/><path d="M599.25 157.68c5.25 0 9.1 2.53 11.22 7.39.87 1.99.32 3.89-1.89 4.02q-.77.05-9.33.05t-9.33-.05c-2.21-.13-2.75-2.03-1.88-4.03 2.12-4.85 5.96-7.38 11.21-7.38m-9.37 9.41h18.78l.02-.02V167a9.31 7.25 0 0 0-9.31-7.25h-.2a9.31 7.25 0 0 0-9.31 7.25v.07zm105.71 2.06q-8.56-.01-9.34-.06c-2.21-.14-2.76-2.04-1.88-4.03 2.13-4.86 5.98-7.38 11.23-7.38 5.25.01 9.1 2.55 11.21 7.41.87 1.99.32 3.9-1.89 4.03q-.78.04-9.33.03m-9.37-2.08 18.76.04.02-.02V167a9.31 7.23.1 0 0-9.29-7.25h-.18a9.31 7.23.1 0 0-9.33 7.21v.09z"/><path fill="#35a02e" d="M421.01 448.25q-22.42 12.88-34.17 34.41a88 88 0 0 0-5.03 73.77q9.72 25.36 33.24 41.76l-180.46.02a.2.2 0 0 1-.19-.28L280 494.24c2.14-4.87-1.02-7.67-5.75-7.78q-4.27-.1-11.42.02a.46.46 0 0 1-.44-.63q12.52-32.24 40.6-104.87c2.25-5.82-2.1-7.84-6.97-7.77q-4.65.07-4.93.06a.25.25 0 0 1-.23-.33q13.88-41.94 34.5-104.81 1.97-6.01-4.1-7.25a.52.52 0 0 1-.4-.65l27.83-101.15a.3.29-44.9 0 1 .57 0l27.84 101.18a.5.5 0 0 1-.36.6q-6.14 1.3-4.04 7.69 32.87 99.71 34.34 104.31a.27.27 0 0 1-.26.36q-4.04.02-5.24-.01c-4.73-.13-8.69 2.25-6.62 7.61q12.97 33.58 26.09 67.43"/><path fill="#fff" d="m589.88 167.09-.02-.02V167a9.31 7.25 0 0 1 9.31-7.25h.2a9.31 7.25 0 0 1 9.31 7.25v.07l-.02.02zm96.34-.02-.02-.02v-.09a9.31 7.23.1 0 1 9.33-7.21h.18A9.31 7.23.1 0 1 705 167v.09l-.02.02zm-40.85 244.34a.27.27 0 0 1-.27.27h-91.38a.27.27 0 0 1-.27-.27V184.19a.27.27 0 0 1 .27-.27h91.38a.27.27 0 0 1 .27.27zm-65.3-206.18a.4.4 0 0 0-.4-.4h-15.02a.4.4 0 0 0-.4.4v95.54a.4.4 0 0 0 .4.4h15.02a.4.4 0 0 0 .4-.4zm27.1-.02a.4.4 0 0 0-.38-.38h-15.04a.4.4 0 0 0-.38.38v95.58a.4.4 0 0 0 .38.38h15.04a.4.4 0 0 0 .38-.38zm27.45-.02a.36.36 0 0 0-.36-.36h-15.12a.36.36 0 0 0-.36.36v95.62a.36.36 0 0 0 .36.36h15.12a.36.36 0 0 0 .36-.36z"/><ellipse fill="#fff" rx="3.55" ry=".25" transform="rotate(-88.8 419.38 -237.1)"/><path fill="#fff" d="M741.75 411.22a.46.46 0 0 1-.46.46h-91.04a.46.46 0 0 1-.46-.46V184.38a.46.46 0 0 1 .46-.46h91.04a.46.46 0 0 1 .46.46zm-65.39-206.11a.3.3 0 0 0-.28-.28h-15.22a.3.3 0 0 0-.28.28v95.78a.3.3 0 0 0 .28.28h15.22a.3.3 0 0 0 .28-.28zm27.09.05a.33.33 0 0 0-.33-.33h-15.1a.33.33 0 0 0-.33.33v95.68a.33.33 0 0 0 .33.33h15.1a.33.33 0 0 0 .33-.33zm27.49.07a.4.4 0 0 0-.4-.4h-15.02a.4.4 0 0 0-.4.4v95.54a.4.4 0 0 0 .4.4h15.02a.4.4 0 0 0 .4-.4z"/><path d="M580.07 300.77a.4.4 0 0 1-.4.4h-15.02a.4.4 0 0 1-.4-.4v-95.54a.4.4 0 0 1 .4-.4h15.02a.4.4 0 0 1 .4.4zm-2.05-93.58a.4.4 0 0 0-.38-.38h-10.98a.4.4 0 0 0-.38.38v91.58a.4.4 0 0 0 .38.38h10.98a.4.4 0 0 0 .38-.38zm29.15 93.6a.4.4 0 0 1-.38.38h-15.04a.4.4 0 0 1-.38-.38v-95.58a.4.4 0 0 1 .38-.38h15.04a.4.4 0 0 1 .38.38zm-2.04-93.59a.4.4 0 0 0-.39-.39h-11a.4.4 0 0 0-.39.39v91.56a.4.4 0 0 0 .39.39h11a.4.4 0 0 0 .39-.39zm29.49 93.61a.36.36 0 0 1-.36.36h-15.12a.36.36 0 0 1-.36-.36v-95.62a.36.36 0 0 1 .36-.36h15.12a.36.36 0 0 1 .36.36zm-2.01-93.69a.33.33 0 0 0-.33-.33h-11.12a.33.33 0 0 0-.33.33v91.66a.33.33 0 0 0 .33.33h11.12a.33.33 0 0 0 .33-.33zm43.75 93.77a.3.3 0 0 1-.28.28h-15.22a.3.3 0 0 1-.28-.28v-95.78a.3.3 0 0 1 .28-.28h15.22a.3.3 0 0 1 .28.28zm-1.98-93.82a.26.26 0 0 0-.26-.26h-11.28a.26.26 0 0 0-.26.26v91.82a.26.26 0 0 0 .26.26h11.28a.26.26 0 0 0 .26-.26zm29.07 93.77a.33.33 0 0 1-.33.33h-15.1a.33.33 0 0 1-.33-.33v-95.68a.33.33 0 0 1 .33-.33h15.1a.33.33 0 0 1 .33.33zm-1.99-93.72a.3.3 0 0 0-.31-.31h-11.16a.3.3 0 0 0-.31.31v91.72a.3.3 0 0 0 .31.31h11.16a.3.3 0 0 0 .31-.31zm29.48 93.65a.4.4 0 0 1-.4.4h-15.02a.4.4 0 0 1-.4-.4v-95.54a.4.4 0 0 1 .4-.4h15.02a.4.4 0 0 1 .4.4zm-2.02-93.58a.4.4 0 0 0-.38-.38h-10.96a.4.4 0 0 0-.38.38v91.58a.4.4 0 0 0 .38.38h10.96a.4.4 0 0 0 .38-.38z"/><rect width="11.74" height="92.34" x="566.28" y="206.81" fill="#ffe327" rx=".38"/><rect width="11.78" height="92.34" x="593.35" y="206.81" fill="#ffe327" rx=".39"/><rect width="11.78" height="92.32" x="620.83" y="206.79" fill="#ffe327" rx=".33"/><rect width="11.8" height="92.34" x="662.58" y="206.81" fill="#ffe327" rx=".26"/><rect width="11.78" height="92.34" x="689.68" y="206.81" fill="#ffe327" rx=".31"/><rect width="11.72" height="92.34" x="717.2" y="206.81" fill="#ffe327" rx=".38"/><path fill="#ed0000" d="M492.1 441.56q-35.2-10.52-66.95 4.46l-26.19-67.67a.3.3 0 0 1 .27-.39h13.94a.34.34 0 0 0 .32-.45l-12.15-36.84a.25.25 0 0 1 .43-.24z"/><path fill="#fff" d="M647.53 412.42a.12.12 0 0 1-.12-.12l-.03-17.06a1.8.21 89.9 0 1 .2-1.8h.06a1.8.21 89.9 0 1 .22 1.8l.03 17.06a.12.12 0 0 1-.12.12zm18.21 1.35L862.94 634h-28.51L637.2 413.73z"/><path d="M492.1 441.56q-.01-.02.92.34 39.74 15.38 54.07 55.14.52 1.42 1.25 4.42.58 2.36 1.36 4.39 2.22 13.41 1.75 22.65c-2.47 48.51-41.97 85.72-90.85 84.16q-19.6-.63-37.61-9.72l-7.94-4.75q-23.52-16.4-33.24-41.76a88 88 0 0 1 5.03-73.77q11.75-21.53 34.17-34.41l4.14-2.23q31.75-14.98 66.95-4.46m56.78 83.41a85.14 85.14 0 0 0-85.14-85.14 85.14 85.14 0 0 0-85.14 85.14 85.14 85.14 0 0 0 85.14 85.14 85.14 85.14 0 0 0 85.14-85.14"/><path fill="#fff" d="M548.88 524.97a85.14 85.14 0 0 1-85.14 85.14 85.14 85.14 0 0 1-85.14-85.14 85.14 85.14 0 0 1 85.14-85.14 85.14 85.14 0 0 1 85.14 85.14m-71.97-.11a13.1 13.1 0 0 0-13.09-13.09 13.1 13.1 0 0 0-13.09 13.09 13.1 13.1 0 0 0 13.09 13.09 13.1 13.1 0 0 0 13.09-13.09"/><circle cx="463.82" cy="524.86" r="13.09"/><path fill="#fff" d="M960 632.63V634h-.99q.72-.31.99-1.37"/></svg>