<svg xmlns="http://www.w3.org/2000/svg" viewBox="0 0 1280 838"><g fill="none" stroke-width="2"><path stroke="#809ec2" d="M1056.15 0 847.72 136.08" vector-effect="non-scaling-stroke"/><path stroke="#8d8d8d" d="m847.72 136.08-.78.25a4.22 4.19 36.2 0 1-1.25.19l-448.54.19a.3.29 0 0 0-.3.29l-.22 293.72" vector-effect="non-scaling-stroke"/><path stroke="#809ec2" d="M396.63 430.72 0 689.5m1280-545.25L871.19 411.64" vector-effect="non-scaling-stroke"/><path stroke="#0d2b4f" d="m871.19 411.64.01-274.67a.46.45.7 0 0-.45-.45l-23.03-.44" vector-effect="non-scaling-stroke"/><path stroke="#8d8d8d" d="M871.19 411.64q-.02 109.32-.02 218.86 0 19.96-1.51 26.85c-4.66 21.38-19.95 39.39-41.56 44.36q-6.98 1.61-19.83 1.37c-33.65-.62-67.56-1.79-100.64.07q-15.32.87-21.55 1.96-26.49 4.63-44.41 24.12c-5.25 5.71-8.37 11.48-13.31 19.09a.3.3 0 0 1-.5-.02q-3.49-6.62-7.63-13.29-13.39-21.56-37.98-28.72-11.37-3.32-19.27-3.32-26.28 0-88.04.45-12.64.09-15.37-.14-7.49-.64-14.92-3.47-5-1.91-9.36-3.47" vector-effect="non-scaling-stroke"/><path stroke="#0d2b4f" d="M435.29 696.34q-1.86-1.16-7.01-4.11c-14.32-8.21-25.97-22.97-29.76-39.15q-1.47-6.26-1.48-22.28-.03-41.54-.08-199.3 0-.24-.33-.78" vector-effect="non-scaling-stroke"/><path stroke="#8c812a" d="m407.13 148 .08 491c.01 29.7 31.72 53.64 59.79 53.54q24.14-.09 89.58-.49 13.25-.09 19.81 1.27c21.31 4.39 41.61 16.99 52.06 36.43a.23.23 0 0 0 .39.02c15.46-23.48 39.15-34.35 66.7-36.84q2.93-.27 27.44-.35 52.51-.18 90.29-.25 21.05-.03 34.57-15.74 13.02-15.13 13.03-35.27.02-249.35.01-493.5a.26.26 0 0 0-.26-.26H407.58a.45.44 0 0 0-.45.44" vector-effect="non-scaling-stroke"/><path stroke="#809ec2" d="M217.51 838q1.77-.56 2.33-.92l215.45-140.74" vector-effect="non-scaling-stroke"/><path stroke="#8c812a" d="m654.05 413.8 5.75 7.87a1.14 1.06 22.3 0 1 .18.39q2.3 9.08 7.7 16.88.64.92.11 3.35a1.2 1.2 0 0 0 .17.93l25.61 39.07a3.16 3.14-85.4 0 0 .49.58c5.91 5.53 16.62 11.79 25.02 11.83a1.27 1.26-65.7 0 0 .84-.32l6.27-5.6a.85.84-31.9 0 0 .22-.92q-2.28-5.85-2.8-12.76a6.09 6.06-72.6 0 0-2.19-4.22l-14.93-12.32a1.44 1.41-75.4 0 1-.48-.84q-1.62-9.41-4.33-19.88c-2.77-10.7-7.57-20.63-16.94-26.99a1.09 1.07 16.5 0 1-.47-.85q-.31-6.97-2.83-19.43-6.1-30.14-22.87-52.63a.35.35-23.1 0 1 .22-.54c23.24-4.25 38.44-27.23 41.99-49.15q1.76-10.83-.41-21.75a.9.9 0 0 1 .63-1.03l8.43-2.33a8.45 8.27-65.3 0 0 1.47-.56q3.32-1.56 8.3-6.13 8.19-7.52 12.22-14.7a2.18 2.15-89.3 0 1 .87-.86c4.58-2.48 6.51-4.83 10.08-9.4a3.09 3.01 8.6 0 1 1.41-1.01q10.54-3.63 17.12-12.25a1.62 1.36-18.2 0 0 .21-.34l1.27-2.64a1.3 1.3 0 0 1 .76-.65q5.17-1.56 12.55-5.88 8.77-5.12 11.8-12.68a1.36 1.35-.7 0 1 .73-.74q17.93-7.28 17.9-26.84a.4.4 0 0 0-.55-.38c-29.65 10.94-59.7 14.6-91.54 15.9-17.77.72-28.72 13.14-36.17 28.39-5 10.26-10.4 24.57-18.66 35.35a1.7 1.67 12.9 0 1-1.03.63c-8.9 1.63-17.29-.42-21.21-8.7a.98.97-34.8 0 1 .21-1.12c2.65-2.5 7.84-10.14 4.24-13.19a.65.64 34.5 0 1-.15-.8q1.93-3.6.68-7.56-3.89-12.39-12.36-23.92a.36.36 0 0 1 .17-.55c11.46-3.84 19.9 6.23 30.93 5.21q3.23-.3 6.5-3.62a.9.9-33.8 0 0 .2-.98c-2.83-7.18-7.04-17.63-14.09-20.6q-11.41-4.82-21.19 3.84l-6.93 6.14a.55.54-38.7 0 1-.77-.08c-4.38-5.65-10.73-11.08-18.33-11.72-16.14-1.36-18.07 12.44-22.08 25.11a.7.69 24 0 0 .31.8c6.24 3.67 12.87-2.32 17.84-5.78 5.64-3.95 11.97-5.89 15.17 2.22a.84.83 58.4 0 1-.21.91q-8.3 7.65-11.73 20.69-1.29 4.89.31 7.85a2.15 2.12 30.6 0 1 .26.98q.19 11.85 6.39 21.56a.61.6 56.3 0 1-.16.82q-3.98 2.77-8.93 2.82-5.48.06-6.9-.54c-7.84-3.34-12.68-11.02-14.75-19.01-3.06-11.87-4.62-20.21-10-29.4a3.71 3.6-87.9 0 0-1.01-1.12c-12.63-9.29-28.72-14.4-43.65-16.52l-34.4-4.88q-13.31-2.05-25.3-6.58a.65.65 0 0 0-.88.63q.21 5.42 3.75 10.4.97 1.37 5.33 4.74c10.47 8.1 14.59 19.37 27.57 23.04a4.16 4.13 81.6 0 1 2.37 1.77q5.48 8.66 13.78 12.66a3.1 3.07 85.3 0 1 1.18 1.01q4.27 6.2 10.2 11a1.45 1.43-69.2 0 1 .53 1.2q-.17 2.87 1.28 5.19a.6.6 0 0 1-.24.85q-9.88 5.06-20.88 6.57a.47.47 0 0 1-.53-.51q.63-5.65-3.99-6.99c-4.61-1.35-8.82 1.53-10.52 5.81q-1.11 2.83-3.66 11.72-.62 2.18-2.59 2.45-1.44.2-6.54.56a2.64 2.63 8.7 0 0-2.26 1.65q-1.14 2.9-3.38 6.73a2.06 1.77-64.8 0 0 .8 2.87q.66.22 2.49-.16 3.61-.73 4.61-.73a.38.38 0 0 1 .33.58c-3.95 6.53-2.33 15.29-6.87 21.41q-3.09 4.16-3.75 6.57-.45 1.68-2.19 11.19c-.59 3.26-1.82 6.25-2.97 9.06-4.33 10.59-3.83 22.29-2.8 33.57a.23.23 0 0 0 .44.07q7.89-17.83 18.58-34.67a7.64 7.4 69.9 0 0 .89-2c1.42-5.14 1.7-13.31 5.01-17.83q4.75-6.51 5.24-13.45c.43-6.09 2.25-10.14 6.28-14.18a1.55 1.53-67.4 0 1 1.05-.44c2.21-.03 7.22 1.08 8.73-1.6q1.39-2.46 2.87-5.9a.55.53-75.1 0 1 .55-.33l42.99 4.4a.89.87-2.6 0 1 .77.69l1.1 5.08a.85.85 0 0 0 .79.67c5.17.3 14.36-.97 20.18 2.25q2.09 1.15 3.76 4.46c6.83 13.45 8.75 28.49 2.7 42.43a3.69 3.64-8 0 1-1.07 1.4c-5.02 3.96-36.22 30.84-28.59 37.6a.8.8 0 0 1 .21.87q-.51 1.35-1.79 4.59c-3.72 9.47-10.06 33.47 3.49 38.66q2.28.87 8.98.69 16.14-.45 33.2-1.07c3.72-.13 10.5-.66 14.8.2 11.75 2.34 21.34 11.41 27.19 21.83a1.21 1.2-11.3 0 0 .91.6l2.31.23a1.1 1.1 0 0 0 1.01-.49q4.53-7.27 3.84-16.35a.13.13 0 0 1 .23-.08" vector-effect="non-scaling-stroke"/><path stroke="#fef39c" d="m549.13 552.51.21.76" vector-effect="non-scaling-stroke"/><path stroke="#8c812a" d="M549.34 553.27c-5.49 6.22-11.78 13.36-20.31 16.05a.54.53-22 0 0-.32.74q1.66 3.45 7.79 22.3 4.36 13.39 13.08 23.89 1.21 1.46 3.14 3.93a.45.44 59.1 0 1-.17.68c-6.61 2.82-14.18 7.9-15.96 15.06a.5.5 0 0 0 .54.62l5.75-.63a.49.48.9 0 1 .54.55q-.82 5.33.4 9.93a.38.38 0 0 0 .67.13q2.01-2.65 5.54-3.36a.56.55 79 0 1 .66.45q1.2 7.14 6.06 12.42a.36.35 26 0 0 .62-.21q.78-10.45 3.42-16.73 5.6-13.28 18.75-10.43a1.75 1.74 75.2 0 0 1.67-2.87l-2.97-3.32a9.16 9.14-14.4 0 0-4.78-2.82l-7.21-1.66a.79.78 2.3 0 1-.6-.64q-3.29-20.03-11.23-38.04a.44.44 0 0 1 .29-.6c8.36-2.23 13.27-7.02 19.4-12.78a.35.35-29.1 0 1 .57.16c4.55 17.38 10.75 32.9 21.23 47.1a3.35 3.24 22.2 0 1 .58 1.32q3.64 19.09 16.27 33.98a1 1 0 0 1 .07 1.23q-4.37 6.49-10.04 11.06-3.54 2.86-7.94 3.81a.45.44-73.3 0 1-.4-.75q6.54-6.53 4.81-15.63c-1.79-9.45-10.74-13.89-19.79-13.4-9.48.51-14.77 10.05-14.03 18.8q.64 7.59 6.61 12.05a.44.43 52.9 0 1-.1.76c-20.73 7.93-54.17-11.68-63.25-30.77-3.49-7.35-7.03-12.35-13.2-15.66-11.64-6.23-24.76-6.48-38.17-6.46a.25.24-19.7 0 0-.19.4q6.58 7.83 15.6 11.13c4.86 1.77 11.61 1.87 15.75 2.87q3.58.85 6.07 3.66a.33.32-22.1 0 1-.23.54q-.16 0-4.98-1.21-4.55-1.14-8.64-.19a.34.34 0 0 0-.03.65q10.39 3.27 19.39 9.63 2.25 1.59 6.8 6.65 13.61 15.11 32.66 24.34 9.34 4.53 20.7 3.66 13.38-1.03 21.45-4.58a1.75 1.72-50.4 0 1 1.07-.11q22.88 4.71 35.91-14.03c.37-.53.88-1.82 1.52-2.61a.64.64 0 0 1 .8-.16c14.43 7.83 29.06 5.04 42.66-2.82q13.88-8.02 29.91-22.64a.56.56 0 0 1 .86.13c10.72 18.47 33.64 27.76 54.14 31.94 8.55 1.74 14.84 5.73 19.77 13.24a.7.7 61.2 0 0 .84.25c7.54-3.32 14.93-6.77 22.52-8.12q5.69-1.01 9.93 2.32a.34.34 0 0 0 .55-.22q.34-2.51-1.33-4.49a.54.54 0 0 1 .1-.79c2.04-1.43 4.84-1.09 7.42-.84a.54.54 0 0 0 .57-.7c-1.17-3.77-4.7-5.42-8.14-6.6a.46.45-54.5 0 1-.13-.79q3.55-2.77 8.52-2.14a.38.38 0 0 0 .38-.57q-2.91-5.16-9.15-5.09a.35.35 0 0 1-.23-.61q2.77-2.41 6.65-3.28a.44.43-37.4 0 0 .11-.81c-9.72-5.05-26.8 1.68-34.99 7.34a1 1 0 0 1-.96.07q-21.92-10.89-37.79-22.88-8.23-6.21-18.35-16.11a.46.46 0 0 1 .02-.68l10.52-9.42a.58.57 39.1 0 1 .68-.06c8.71 5.45 19.36 6.35 29.2 5.71q4.03-.26 23.5-1.97 3.36-.3 9.29.43a1.44 1.42 74.9 0 1 .94.55q2.55 3.35 6.47 4.64a.52.52 0 0 0 .68-.46q.44-6.02 4.6-9.45c5.27-4.34 13.39-3.99 17.15-10.58q3.16-5.53 5.58-10.45c2.45-4.97 5.72-5.78 10.73-6.99a.39.38 63.3 0 0 .2-.62c-3.13-3.79-11.43-2.13-15.36-.42a3.05 3.02-80.3 0 0-.98.7c-9.89 10.69-22.62 17.99-36.83 17.55q-11.84-.36-24.63-4.3c-15.35-4.72-25.71-8.14-38.91-10.11a2.63 2.57 39.5 0 0-1.19.1c-21.48 6.83-42.62 14.66-62.74 25.03a.45.44-18.9 0 1-.64-.31q-2-10.77-10.15-17.65a.66.65 37.3 0 1-.12-.86c3.81-5.7 6.77-9.96 9.16-15.18 2.83-6.17 2.64-12.22 1.4-18.85a.56.56 0 0 1 .49-.66q10.37-1 27.16-5.4 4.92-1.29 11.43-1.77a3.19 3.17 49 0 1 .97.07l2.37.55a1.6 1.6 0 0 0 1.21-.21q15.7-9.88 19.87-13.22 16.06-12.88 26.7-20.76a1.09 1.08-56.4 0 1 .88-.18q12.13 2.76 23.77-3.01 2.73-1.35 4.54-4a.29.29 0 0 0-.35-.44q-5.54 2.23-10.72 1.48a.32.32 0 0 1-.18-.55q.12-.12 3.38-1.02c4.07-1.14 7.08-3.98 8.17-8.08a.34.34 0 0 0-.49-.39q-3.93 2.13-6.44 2.5a.32.31-80.1 0 1-.32-.46l2.76-2.65q3.28-3.14 4.42-6.35a5.05 5.02 42.6 0 0-.17-3.8l-.33-.7a1.12 1.12 0 0 0-1.99-.08c-4.28 7.64-11.21 14.77-20.67 11.77a1.39 1.38-.8 0 1-.87-.84c-1.71-4.65-.31-5.56 3.09-8.18a.31.31 0 0 0-.1-.54c-10.61-3.38-10.89 8.56-12.93 15.06a.91.9 3.2 0 1-.7.62c-11.19 2.1-26.54 5.26-38.22 10.77q-7.79 3.67-11.58 10.79a.8.8 0 0 1-.81.41c-10.39-1.54-24.88-2.11-34.35 3.16a.3.3 0 0 1-.44-.32q2.31-11.02-.23-22.34c-4.05-18.08-21.61-29.11-37.69-36.1q-10.21-4.43-25.52-11.21c-13.06-5.78-26.33-13.79-33.15-26.43a1.95 1.92-7.2 0 0-1.27-.97l-.94-.21a.39.38-7.7 0 0-.43.56q5.35 9.68 4.31 19.6-1.76 16.79-1.98 19.61a1.5 1.5 0 0 0 .63 1.37c9.36 6.78 7.57 18.76 5.74 28.55a.79.78-71.8 0 0 .42.85q11.19 5.51 9.38 19.69a1.04 1.04 0 0 0 .62 1.09c3.05 1.32 5.54 3.74 6.28 7.05a.47.47 0 0 1-.47.57q-15.37-.45-28.92-5.94a1.42 1.41-87.8 0 1-.82-.89c-3.81-11.95-7.73-25.6-17.21-34.31q-3.44-3.17-9.59-5.14c-15.95-5.09-32.49-4.63-48.94-1.87-22.3 3.74-35.22 6.85-52.78 6.24a.24.24 0 0 0-.16.43q1.32 1.04 4.15 2.83 15.74 9.94 28.88 23.34 4.71 4.8 7.61 10.74a.9.9 0 0 0 .73.48c12.05.42 23.25 4.2 29.82 14.59a.9.9 0 0 0 .71.41q15.18.79 26.52 10.42a1.21 1.2-26.2 0 0 .86.29c11.35-.74 21.15.72 29.02 9.47q.35.38.59-.14" vector-effect="non-scaling-stroke"/><path stroke="#8d8d8d" d="M549.34 553.27q8.24-8.49 13.31-11.39 18.41-10.52 23.07-12.89 7.11-3.61 13.78-4.71a1.1 1.1 0 0 1 1.25 1.03l.14 5.03a1.45 1.43 25.6 0 0 .31.86q2.46 3.08 6.34 2.33a.6.6 0 0 0 .07-1.16q-1.55-.49-2.93-1.73a3.18 3.16-62.6 0 1-.96-3.05l1.14-4.93a1.42 1.39 77.6 0 1 .48-.77q3.09-2.47 7.72-2.46a.8.79 81.6 0 1 .76.57c1.39 4.66 6.35 4.95 10.53 4.32a1.15 1.14-27.7 0 1 .97.3c1.12 1.07 2.39 2.89 3.86 3.45q2.65 1 6.46.04a1 1 0 0 0 .72-.72q.2-.8 1.1-.73c2.34.18 3.94-1.38 3.08-3.75a.44.44 0 0 1 .45-.59c2.44.19 5.6-2.24 3.28-4.86a.49.48-36.9 0 1 .11-.74q.36-.23.76-.39 3.93-1.58 1.96-5.04a.73.72 54.2 0 1 .14-.9q2.18-2.05-.04-4.58a1.32 1.3-60.7 0 1-.3-1.09q.39-2.26-1.72-3.94a.95.94 28.1 0 1-.31-1c.91-2.99-3.31-5.38-5.34-6.68a1.2 1.2 0 0 1-.52-.96c.05-4.13 1.32-7.2-.74-10.85a1.59 1.59 0 0 0-2.93.42l-.86 3.74a1.63 1.63 21.5 0 1-2.4 1.04c-5.42-3.12-3.63-10.04-7.02-14.58a.64.63-33.7 0 0-.84-.16q-2.29 1.39-1.36 4.45 1.18 3.86 1.17 5.56a.93.92 2.6 0 1-1 .91c-4.44-.35-11.36-1.06-13.19 4.23a1.4 1.4 0 0 1-.77.84q-3.48 1.56-5.7 1.92-6.55 1.07-11.72 3.56a.31.31 0 0 0-.04.54q3.19 2.15 3.81 5.74a1 1 0 0 1-.51 1.04l-9.72 5.01a2.34 2.34 70.9 0 0-1.22 2.53c1.2 5.92 7.61 8.36 13.13 10.38a.44.44 0 0 1 .22.66c-5.97 8.67-17.61 6.33-25.49 7.11q-5.14.52-10.53-.47c-7.14-1.32-13.62-3.34-19.31-6.8a1.3 1.3 0 0 1-.55-.79c-3.02-15.24-11.14-35.49-28.28-39.12q-5.23-1.11-11.41-1.29-13.07-.37-26.27.91-24.28 2.36-36.58 3.26a.18.18 0 0 0-.03.36c14.93 3.77 27.9 2.2 46.13 1.29q13.07-.64 25.26 1.78a.16.16 0 0 1 0 .31q-18.14 2.66-32.81 15.11a.17.17 0 0 0 .14.3q2.83-.5 4.69-1.29 5.68-2.41 15.99-7.01c12.26-5.46 24.94-6.54 31.08 7.87a.23.23 0 0 1-.21.32q-1.92 0-3.6-.19c-3.93-.44-8.22.96-11.68 2.6q-7.46 3.52-14.6 8.11a.24.24 36.1 0 0 .07.42q.66.18 1.43-.13c10.1-4 17.46-7.75 25.75-7.44 8.63.31 11.43 8.03 11.16 15.53a.6.6 0 0 1-.58.59c-6.21.26-11.72 5.06-13.53 10.71a.2.2 0 0 0 .32.21c7.3-6.71 14.75-7.29 24.09-5.57q9.81 1.81 20.95 5.34a1.34 1.34 0 0 1 .63 2.12q-1.94 2.36-4.7 4.33-7.5 5.34-12.7 10.05-1.76 1.59-3.02 4.86m48.17-368.52-.61 4.38a.92.92 0 0 0 1.08 1.03c2.78-.54 4.35-4.02 5.03-6.59a.24.24-76.6 0 1 .27-.17h.01a.3.3 0 0 1 .17.27l-.3 2.87a.77.77 0 0 0 1.4.51c3.5-5.14 11.81-1.61 14.64 2.23q.94 1.29 1.31 1.75a.34.34 0 0 0 .6-.13c1.51-6.57-4.63-11.69-10.24-13.77q-11.79-4.36-18.01 5.36c-1.79 2.81-2.66 7.2-3.49 10.72a.64.64 0 0 0 .83.75q3.97-1.43 5.59-5.63 1.02-2.65 1.66-3.6a.03.03 0 0 1 .06.02m56.64 1.43c1.68 3.25 3.03 10.26 8.22 8.5a.66.65-22.1 0 0 .38-.89c-3.51-7.94-8.76-20.71-20-16.54q-9.67 3.6-16.11 12.33a.21.21 0 0 0 .26.32c3.55-1.61 12.14-5.02 15.33-2.72q3.61 2.58 6.72 3.98a.7.69 2.8 0 0 .95-.85q-.99-2.96-3.65-5.82a.35.35 0 0 1 .36-.57c2.81.84 4.37 5.21 5.6 8.05a4.7 4.7.9 0 0 2.29 2.36l.26.13a.81.81 0 0 0 1.15-.94l-2.02-7.23a.14.14 0 0 1 .26-.11M772.13 189c-3.96 1.21-13.21 3.59-14.75 7.68a.44.43 8.9 0 0 .43.58c14.61-.66 37.53-3.32 42.53-20.24a.4.39 89.7 0 0-.49-.49q-20.68 6.34-41.96 9.47a.57.57 67.9 0 0-.37.89c2.94 4.01 10.25 1.98 14.44 1.37a.38.38 0 0 1 .17.74m-278.94-2.08c2.55.24 13.03 3.45 14.12-.95a.6.6 0 0 0-.5-.73q-12.36-1.57-23.28-4.04-4.89-1.11-8.26-2.37a.36.36 0 0 0-.44.52c6.15 10.59 20.97 15.42 32.3 16.21a.4.4 0 0 0 .38-.56c-1.98-4.14-9.78-6.2-14.4-7.66a.22.21 56.2 0 1 .08-.42" vector-effect="non-scaling-stroke"/><path stroke="#8d8d8d" d="m515.85 190.98 7.82.26a3.5 3.5-74 0 0 3.14-1.74l.42-.73a1.02 1.02 0 0 0-.75-1.52c-7.44-.96-15.06-2.87-19.28 2.57a.65.65 0 0 0-.01.77q3.5 4.93 9.58 5.92 7.61 1.25 11.19 1.57a.3.3 0 0 0 .31-.42q-1.79-4.63-6.36-5.31-7.63-1.15-6.57-1.34a2.74 2.39 37.7 0 1 .51-.03m228.24 3.5q-1.07.61-2.7.15-5.87-1.64-9.24 4.88a.26.26 0 0 0 .25.37q9.68-.63 17.2-2.48 4.51-1.1 8.14-5.59a1.02 1.01-37.3 0 0 .15-1.04c-1.62-3.82-7.03-3.96-10.65-3.78q-6.59.31-12.77 1.09a1.26 1.25 65.7 0 0-.78 2.08l.76.84a4.7 4.67 60.4 0 0 4.88 1.36q1.95-.6 4.04-.6a1.46 1.45 30.2 0 1 .72 2.72" vector-effect="non-scaling-stroke"/><path stroke="#8d8d8d" d="M538.7 193.73q20.45 4.01 28.62 22.7 3.46 7.92 9.14 25.64.6 1.87 2.59 3.7a2.79 2.77-40.2 0 0 3.41.28l.28-.19a1.74 1.74 0 0 0 .3-2.67q-2.11-2.19-2.65-4.06-2.9-9.96-5.66-18.61c-2.85-8.92-7.36-19.02-15.81-23.78-6.6-3.73-23.88-10.92-30.71-5.92a1.54 1.53-31.1 0 0-.48 1.91c2.03 4.13 7.01 6.01 11.12 6.67q6.72 1.09 12.01 2.2a.34.34 0 0 0 .36-.5c-2.39-4.23-7.77-5.58-12.56-7.02a.2.2-76.4 0 1-.14-.24.16.15-75.9 0 1 .18-.11m180.94 1.94c-4.87 1.08-12.59 3.01-15.18 7.69a.28.28 0 0 0 .3.41q6.31-1.14 14.45-2.34c5.05-.74 11.37-2.69 13.88-7.7a.92.91-49.9 0 0-.08-.95c-5.3-7.18-25.91-.52-32.64 2.5-7.56 3.4-12.74 11.15-16.64 18.2q-3.7 6.68-13.24 25.49-3.23 6.37-7.9 11.99a1.24 1.24 0 0 0 1.09 2.02l2.02-.23a5.48 5.46-72.5 0 0 3.54-1.85q4.86-5.59 7.5-10.93c3.59-7.25 8.91-21.01 15.56-29.68q10.18-13.25 27.34-15.16a.2.2 0 0 1 .24.18v.01a.31.3-10.7 0 1-.24.35" vector-effect="non-scaling-stroke"/><path stroke="#0d2b4f" d="M637.61 216.5c-3-8.46-7.4-16.36-13.66-22.76a.65.65 0 0 0-.87-.06q-10.66 8.34-13.68 21.72a.51.5-87.5 0 0 .56.62q8.56-1.15 17.12-.3a.5.5 0 0 0 .55-.5c.02-4.15-1.5-6.79-3.79-11.82q-.59-1.31-.43-2.58a.88.88 0 0 1 1.49-.52c3.41 3.31 5.04 10.17 6.53 14.62a2.32 2.3-2.7 0 0 1.68 1.52l3.77.87a.62.62 0 0 0 .73-.81" vector-effect="non-scaling-stroke"/><path stroke="#8d8d8d" d="m509.59 203.08 9.25.61a3.62 3.59 19.4 0 0 3.17-1.5l.15-.21a.87.87 0 0 0-.56-1.41l-29.58-4.11a.12.12 0 0 0-.11.2c8.85 10.55 20.01 13.62 33.43 13.36a.26.26 0 0 0 .22-.39q-2.17-4.01-7.01-4.72-7.82-1.14-9.02-1.45a.19.19 0 0 1 .06-.38m245.05 2.67q-6.3 1.16-10.88 1.74-5.38.69-8.08 4.79a.41.41 0 0 0 .32.63c15.96.55 32.46-2.68 44.03-14.45a.12.12 0 0 0-.1-.21l-39.65 4.34a1 1 0 0 0-.63 1.66l.59.66a3.37 3.34 67.2 0 0 2.68 1.11l11.81-.59a.13.11 69.7 0 1 .1.06.23.23 0 0 1-.19.26" vector-effect="non-scaling-stroke"/><path stroke="#8d8d8d" d="M533.97 205.51q3.9.29 4.69-3.06a.6.6 0 0 0-.48-.72c-5.04-.87-11.59-1.68-14.89 2.57a.7.7 0 0 0 .01.87c4.17 5.27 11.03 5.97 18.04 6a.5.5 0 0 0 .48-.65c-.95-3.08-4.84-4.1-8.05-4.45a.22.21-85.8 0 1-.19-.23.37.36-84.4 0 1 .39-.33" vector-effect="non-scaling-stroke"/><path stroke="#8d8d8d" d="M551.04 206.84c2.8-.09 4.63.29 5.8-1.87a.9.9 0 0 0-.6-1.31q-5.6-1.23-9.9-1.36c-3.28-.1-4.91.73-6.4 3.5a.8.8 39 0 0 .1.9q2.76 3.2 5.28 4.03 5.98 1.96 16.75 2.24a.42.42 0 0 0 .38-.61c-2.35-4.63-6.86-4.5-11.43-5.2a.16.16 0 0 1 .02-.32m174.53 1.57a.21.21 0 0 1-.05.42q-6.15-.05-9.65 4.19a.74.73 20.2 0 0 .56 1.2c7.57.14 16.61-.64 21.84-6.56a.75.74-45.9 0 0-.01-1c-4.34-4.74-12.27-3.52-18.22-2.74a.48.47 82.3 0 0-.41.54q.32 2.04 2.1 3.02a1.4 1.31 65.3 0 0 .27.11l3.57.82" vector-effect="non-scaling-stroke"/><path stroke="#8d8d8d" d="M705.36 209.96c-5 .82-10.21.68-12.59 5.92a.4.4 0 0 0 .37.56q8.01-.16 15.8-1.5 5.67-.98 9.11-5.43a.9.9 0 0 0 .11-.86q-1.69-4.04-5.6-3.94-4.12.1-11.92 1.42a1.32 1.32 0 0 0-.87 2.05l.03.04a3.5 3.5 0 0 0 3.12 1.5q1.54-.11 2.44.02a.11.11 0 0 1 0 .22m-179.96 7.32q4 .1 6.07-2.49a.74.74 0 0 0-.57-1.2q-8.68-.06-19.35-1.83a.48.48 0 0 0-.44.79c4.28 4.92 8.49 9.34 14.4 9.98q4.64.51 10.16.34a.4.39 68.3 0 0 .28-.66c-3.12-3.46-6.83-3.44-10.62-4.45a.24.24 0 0 1 .07-.48" vector-effect="non-scaling-stroke"/><path stroke="#8d8d8d" d="M540.76 217.93c2.14-.44 4.17-.53 4.23-3.37a.51.5 5.2 0 0-.43-.51q-3.92-.61-7.34-.59-3.14.03-3.72 3.09a1.48 1.46-54.8 0 0 .17 1.03c3.18 5.65 9.98 5.81 15.72 5.77a.32.32 0 0 0 .28-.47c-1.95-3.62-5.35-3.73-8.91-4.65a.16.15 45.5 0 1 0-.3" vector-effect="non-scaling-stroke"/><path stroke="#8d8d8d" d="M555.94 218.82c3.12-.11 6.58.44 7.51-2.77a.53.53 0 0 0-.45-.68q-7.06-.79-12.18-.57-3.49.14-4.39 2.92a.9.88-60 0 0 .24.92q4.24 3.94 6.38 4.6 4.18 1.3 12.5 1.97a1.09 1.09 0 0 0 .9-1.82l-1.38-1.54a6.16 6.14-16.9 0 0-3.73-1.98l-5.42-.76a.15.15-41.5 0 1 .02-.29m180.18 2.79q-.7.16-4.78.74-5.19.73-8.43 4.32a.3.3 0 0 0 .22.5q13.36.22 18.69-.91 9.9-2.08 15.9-10.94a.16.15 13.4 0 0-.15-.24q-14.1 1.87-28.45 1.86a.91.9-25.1 0 0-.58 1.6l1.9 1.56a2.3 2.3 0 0 0 1.14.5l4.53.63a.19.19 0 0 1 .01.38m-18.56.21a.16.15-9.7 0 1-.14.19c-3.95.51-9.32 1.35-11.24 5.02a.44.44 0 0 0 .39.64c6.87-.1 15.17-.12 18.96-6.52a1.08 1.05 55.2 0 0 .13-.78q-.59-2.89-2.57-3.24-4.62-.81-10.99.38a.59.58 76.5 0 0-.45.74q1.14 3.9 5.77 3.25a.1.1 0 0 1 .08.06l.06.26" vector-effect="non-scaling-stroke"/><path stroke="#8d8d8d" d="M698.83 222.84a.2.2 0 0 1-.16.19q-5.69.34-8.89 1.53-3.19 1.2-4.46 4.63a.25.25 0 0 0 .24.34c8.16-.12 17.72-.51 23.73-6.72a2.13 2.13 0 0 0-.71-3.45q-2.9-1.21-6.08-1.17-4.7.05-12.24.63a.84.84 0 0 0-.71 1.16c1.32 3.13 6.12 2.91 9.01 2.63a.25.24 84.4 0 1 .27.23m-83.34 2.24c-2.42-1.84-5.97-.54-6.02 2.93-.13 8.19 3.86 17.36 11.54 20.99a1.2 1.19-44.1 0 0 1.01.01q5.01-2.25 8.47-6.28 3.25-3.77 7.61-10.41 2.28-3.48-1.01-5.24a.8.8 0 0 1-.44-.8l.29-4.48a.7.69-80.3 0 0-.5-.72c-8.14-2.35-17.42-1.98-25.63-.83a.66.66 0 0 0-.49.95l.13.26a1.01 1 78.2 0 0 .82.54l5.99.39a1.64 1.64 0 0 1 1.53 1.59l.27 9.47a.66.66 0 0 0 .62.64l4.04.26a1.05 1.04 36.6 0 1 .3 2.02q-1.05.39-2.49.38c-2.54-.01-4.91.39-4.92-3.28q-.01-1.48-.19-3.78a.71.7 89 0 0-.66-.65q-2.68-.15-3.03-.01a.84.84 0 0 1-1-1.26q.79-1.15 3.58-1.83a.49.49 0 0 0 .18-.86m-79.77 3.88 4.16-.66a1.08 1.08 0 0 0-.18-2.14q-7.52.08-11.7-.7a1.29 1.29 0 0 0-1.2 2.12l2.96 3.29a8.03 8 70.9 0 0 5.46 2.66l8.33.55a.38.38 0 0 0 .35-.58q-1.92-3.15-5.6-3.82-2.6-.47-2.65-.51a.13.12 64.3 0 1 .07-.21m14.1.58q2.37-.4 3.25-2.28a.44.44 0 0 0-.36-.63c-2.91-.25-8.62-1.13-10.34 1.2q-.56.76-.08 1.59c3.08 5.18 7.77 5.54 13.19 5.74a.5.5 0 0 0 .5-.59c-.72-3.18-3.03-3.82-6.18-4.66a.19.19 0 0 1 .02-.37m14.33 1.47c2.17.36 4.98.13 4.97-2.55a.71.7-88.2 0 0-.65-.7c-3.45-.3-12.16-1.58-13.85 1.86a1 1 0 0 0 .02.89c2.81 4.87 9.74 5.69 16.56 6a.8.8 0 0 0 .63-1.33l-1.95-2.17a2.31 2.27 74 0 0-1.31-.74l-4.59-.88a.22.21 69.5 0 1 .17-.38m159.14 2.79a.22.21-7.9 0 1-.19.24c-3.91.53-7.36 1.25-9.74 4.48a.38.38 0 0 0 .28.6c8.83.67 17.91.03 22.63-8.34a.33.33 0 0 0-.3-.49l-17.7.5a1.09 1.08 58 0 0-.47 2.05q2.15 1.12 5.23.75a.23.23 0 0 1 .26.2v.01m-15.86.77-4.23.91a5.85 5.82-76.3 0 0-3.27 2l-.71.86a1.09 1.09 0 0 0 .86 1.79c5.46-.14 11.69-.63 15.3-5.67a1.55 1.54 34.8 0 0-.4-2.18c-3.2-2.13-8.69-1.33-12.39-1.16a.52.51 76 0 0-.44.74c.97 1.98 2.99 2.41 5.26 2.47a.12.12 0 0 1 .02.24m-18.3 1.49c-4.21 1.32-7.8.86-10.28 5.46a.28.28 0 0 0 .26.41c7.46-.28 15.78-.51 20.55-5.71a2.1 2.1 0 0 0-.83-3.38q-3.37-1.21-8.09-.89-6.69.44-7.28.34a.7.7 0 0 0-.8.87l.18.71a2.72 2.71 82 0 0 2.7 2.04l3.55-.1a.13.13 0 0 1 .04.25m-145.7 3.6q1.39.01 2.79-.94a.87.87 0 0 0-.49-1.58q-7.97.01-10.41-1.14a1.11 1.11 0 0 0-1.4 1.61l2.17 3.32a7.3 7.3-7.5 0 0 3.83 2.94q4.49 1.5 9.9 1.17a.42.42 0 0 0 .32-.64c-1.72-2.65-3.84-3.19-6.8-4.3a.23.23 0 0 1 .09-.44m12.11.59q2.22-.46 2.99-2.27a.42.42 0 0 0-.36-.58c-2.76-.14-8.19-.78-9.74 1.48q-.5.74-.02 1.51c3.09 4.79 7.54 4.97 12.67 4.98a.47.47-7.1 0 0 .45-.57c-.79-2.99-2.99-3.52-6-4.2a.18.18 0 0 1 .01-.35m19.61 5.76q-1.53-4.04-6.36-4.26a.2.2-88.4 0 1-.17-.19l.02-.29a.2.2 0 0 1 .18-.16q3.2.11 4.04-2.37a.47.47 0 0 0-.38-.61q-3.11-.42-8.45-.42-2.88 0-3.6 2.47a1.18 1.15 38.6 0 0 .12.94c2.63 4.41 5.72 4.62 10.31 5.24q2.4.32 3.93.2a.4.4 0 0 0 .36-.55m138.36-.04q-5.5 1.22-8.11 4.58a.37.37 0 0 0 .26.59c7.97.71 18.32-.4 21.24-9.07a.49.48 3.9 0 0-.55-.63q-7.38 1.44-15.58 1.11a.8.8 0 0 0-.75 1.12l.11.23a2.27 2.24 79.1 0 0 1.88 1.29q1.35.09 1.57.2a.31.31 0 0 1-.07.58m-15.21.88c-3.14.37-5.74 1.13-6.64 4.45a.43.43 0 0 0 .41.55c5.44.11 12.27-.3 15.37-5.43a2.17 2.17 0 0 0-1.86-3.29h-9.62a.53.53 0 0 0-.48.76q.82 1.68 2.88 2.38a.3.3 0 0 1-.06.58m-15.42.37c-2.14.4-6.07.79-7.33 2.67a.27.27 0 0 0 .29.41c3.8-.96 7.39-.16 11.34.36 3.19.42 4.56-1.58 5.88-3.91a1.06 1.04 46.6 0 0 .02-1q-1.05-2.1-3.61-2.02-5.69.18-11.82.66a.66.66 0 0 0-.37 1.17l.9.75a2.45 2.42-27.6 0 0 1.8.55q1.67-.17 2.9.08a.14.14 0 0 1 0 .28" vector-effect="non-scaling-stroke"/><path stroke="#8d8d8d" d="M633.2 244.42c-3.48 3.53-6.72 6.69-11.49 8.18a1.53 1.47-41.5 0 1-1.01-.04q-3.23-1.37-6.71-4.65a.45.45 0 0 0-.74.17q-2.34 6.3-2.13 13.75a.65.65 0 0 0 .65.63h19.63a.62.61-86.9 0 0 .61-.55l1.76-17.22a.33.33 0 0 0-.57-.27" vector-effect="non-scaling-stroke"/><path stroke="#0d2b4f" d="m500.13 251 6.85-.19a.7.7 0 0 0 .67-.76q-.18-1.67-.36-2.76c-.45-2.74-3.71-2.81-5.47-1.23q-1.71 1.52-2.2 4.35a.5.5 0 0 0 .51.59" vector-effect="non-scaling-stroke"/><path stroke="#8d8d8d" d="M496.18 261.65a.19.18 9.4 0 0 .18.25q15.62-.33 28.36-.98 7.08-.37 16.78 1.9 5.73 1.34 8.55 1.32 5.08-.04 9.32-.97a.7.7 0 0 0 .52-.88c-.79-2.65.12-5.99.76-10.66a1.35 1.35 0 0 0-1.15-1.52c-20.08-2.82-39.78 3.48-60.45 4.32a.43.42-80.5 0 0-.38.28l-2.49 6.94" vector-effect="non-scaling-stroke"/><path stroke="#0d2b4f" d="M582.43 270.86q-.5-3.29.59-7.1.22-.77 3.81-12.61a.92.91-76.2 0 0-.7-1.16c-4.59-.86-14.9-1.56-18.88 1.41a1.55 1.55 0 0 0 .35 2.68c2.95 1.19 8.01.22 11.47.17a1 1 0 0 1 .89 1.44l-.09.18a2.6 2.59 13.8 0 1-2.32 1.4q-2.64-.02-7.57-.35-3.3-.23-4.48 2.1c-1 1.99-.38 3.72 2.07 3.78q3.6.09 7.95 0a1.5 1.5 0 0 1 1.52 1.73l-.01.06a1.84 1.84 0 0 1-1.94 1.56l-6.57-.46c-3.59-.25-3.53 2.73-2.77 5.17a.67.65 82.6 0 0 .58.46l14.79.96a1.24 1.24 0 0 0 1.31-1.42m56.48 3.15q3.99-4.49 5.2-8.52a6.27 5.98-36.5 0 0 .24-1.38l.73-11.06a2.93 2.93 0 0 0-2.73-3.11l-1.22-.08a2.74 2.73-82.3 0 0-2.86 2.19c-1.44 7.07-3.05 15.64.08 21.88a.34.34 0 0 0 .56.08m-32.19-21.68c-2.72-.81-4.49-.22-5.53 2.65q-3.17 8.79-3.24 18.37a3.79 3.78 1.8 0 0 3.58 3.81l.25.01a3.6 3.6 1.9 0 0 3.79-3.54q.11-9.47 1.21-17.72c.13-.95.77-2.01.62-2.82a1.01.98-87.7 0 0-.68-.76m-8.99 3.3a2.1 2.1 0 0 0-1.62-3.14l-2.32-.24a3.56 3.55-77.4 0 0-3.71 2.36c-3.05 8.7-4.33 12.92-2.64 20.41.66 2.89 4.58 2.74 6.14.94q.75-.87.87-4.05c.21-5.53.64-11.59 3.28-16.28m50.47 6.08a.24.24 0 0 0 .4.21q4.4-3.75 10.42-5.92a.73.73 0 0 0 .21-1.26q-4.06-3.27-9.31-2.32a1.05 1.04-2.2 0 0-.86.92l-.86 8.37" vector-effect="non-scaling-stroke"/><path stroke="#8d8d8d" d="M701.56 257.52q-.15.04-1.28-.1a1.74 1.74 0 0 0-1.92 2.13q.17.72.47 1.16a1.01 1 72.8 0 0 .83.44q9.85.09 15.68-7.39a.16.16 0 0 0-.13-.26l-21.23.6a.23.23 0 0 0-.17.37q.61.74 1.23.9 2.4.63 6.39.95a.62.61 39 0 1 .13 1.2" vector-effect="non-scaling-stroke"/><path stroke="#8b2e25" d="M675.5 255.89q-19.03 3.85-29.71 18.39-15.38 20.94-8 48.01 1.78 6.5 8.12 8.32c10.59 3.04 22.19-1.03 30.14-8.58 13.83-13.11 20.74-32.12 19.49-51.27q-.67-10.45-8.86-13.97-4.99-2.14-11.18-.9" vector-effect="non-scaling-stroke"/><path stroke="#0d2b4f" d="M482.7 270.11q12.54-1.96 26.12.03a1.2 1.2 0 0 0 1.16-.56l2.1-3.64a.4.4 0 0 0-.39-.6q-8.95.92-18.16-.17-1.6-.19-8.27.79a1.55 1.53 10.5 0 0-1.11.75l-1.73 3a.27.27 0 0 0 .28.4m126.05 33.71c-4.44 2.76-8.12 5.63-10.17 10.44-4.37 10.28 5.13 16.57 13.65 18.68 7.51 1.86 15.12 2.55 21.78-2.01a1.33 1.32-26.1 0 0 .52-1.51c-5.12-16.13-5.38-32.96.89-48.52a1.56 1.53-42.8 0 0 .05-1.01q-.11-.37-.51-.89c-1.8-2.36-2.54-6.49-2.88-9.66a.83.83 0 0 0-.85-.74l-18.92.53a1.9 1.9 0 0 0-1.85 1.96l.17 6.27a2.3 2.3 0 0 1-2.28 2.36q-1.48.01-11.6-.03-4.04-.02-3.9 3.56a2.12 2.01-61.9 0 0 .25.91q3.21 6.07 10.45 5.99 5.38-.05 12.19-.96.58-.07 2.22.14a.32.32 0 0 1 .19.54q-3.73 3.69-9.22 4.53-3.47.53-11.29 1.3a1.07 1.07 0 0 0-.95 1.18l.92 8.41a.45.45 0 0 0 .54.39l10.44-2.26a.22.22 0 0 1 .16.4" vector-effect="non-scaling-stroke"/><path stroke="#8b2e25" d="M491.07 273.25a1.73 1.72-80.8 0 0-1.58 1.15c-1.65 4.64-2 7.74-2.97 14a12.62 12.54-25.2 0 1-1.63 4.49c-3.59 6-6.52 9.65-6.92 14.42l-.39 4.96a13.35 12.96-34.5 0 1-.65 3.23c-1.2 3.65-3.75 8.56-4.63 12.15q-1.57 6.37-1.11 12.51a.14.14 0 0 0 .27.02c2.09-7.56 7.04-15.44 11.22-21.97a8.92 8.81-23.2 0 0 1.22-3q1.1-5.55 1.32-8.47c.31-4.15 3.16-7.08 6.44-12.16a12.39 12.33 66.9 0 0 1.79-4.48c1.01-5.3 1.06-10.92 5.1-16.29a.48.47-72.4 0 0-.39-.76l-7.09.2" vector-effect="non-scaling-stroke"/><path stroke="#0d2b4f" d="M577.17 362.79c2.34-10.26 8.49-17.7 14.36-26.49 1.57-2.35 3.29-6.61.64-8.47a.74.74 0 0 0-.95.08q-8.02 7.97-13.38 14.42c-4.46 5.36-10.99 16.1-1.34 20.78a.48.47-70.2 0 0 .67-.32m11.81-8.49c1.44-4.16 3.97-7.07 7.94-13.13q2.04-3.11 2.54-6.88a1 1 0 0 0-1.79-.72c-4.25 5.72-17.78 27.34-11.45 33.53a1.8 1.8 0 0 0 2.44.06c2.27-2.01 3.55-5.99 4.71-8.77q1.15-2.76 3.13-6.03 4.57-7.59 7.5-13.97a.94.94 0 0 0-1.01-1.32l-.03.01a3.8 3.78-79.2 0 0-2.62 1.79q-4.07 6.82-7.33 13.11-1.24 2.4-2.82 3.31a.84.83-5.6 0 1-1.21-.99m60.18-17.51q-.12.39.2 1.38.64 1.91 2.82 5.4 4.64 7.39 6.87 12.4.51 1.13.22 1.8a1.51 1.29 29.8 0 1-2.13.4q-2.15-1.49-3.59-4.23-1.68-3.21-6.7-13.5-1.28-2.62-3.53-4.58a1.42 1.22 31.5 0 0-2.17.35q-.24.7.15 2 .66 2.21 1.72 4.26c4.19 8.15 8.54 16.43 10.32 25.1.81 3.93 2.18 5.91 6.17 5.76 2.95-.11 7.73-2.14 7.31-5.8-1.13-9.89-6.58-20.25-12.66-27.91q-1.81-2.29-4.17-3.23a.63.63 0 0 0-.83.4m-15.35.72a1.26 1.26 0 0 0-1.57 1.12c-.28 3.41 3.81 10.04 7.67 17.49 1.04 2 2.77 6.37 1.03 7.96a1.42 1.41-44.2 0 1-1.93-.02q-1.53-1.48-2.51-3.84-1.91-4.58-5.48-14.46-1.12-3.11-2.88-5.23a1.37 1.37 0 0 0-2.34.4c-.89 2.46.2 6.22.91 8.61q.33 1.1 6.17 18.75c.92 2.78 1.45 6.13 2.22 9.07a2.63 2.61 87.2 0 0 2.12 1.94c3.72.61 8.52-2.39 11.06-4.93q1.81-1.8.99-5.36-3.27-14.16-9.69-25.04c-1.51-2.56-3.67-5.91-5.77-6.46m-20.52 4.65a.86.85-7 0 0-1.3-1.01q-2.65 1.92-3.68 4.94-1.68 4.97-3.39 12.28-.29 1.24-.92 1.65a1.58 1.46 70.8 0 1-2.29-1.21q-.25-2.1.86-4.25 3.45-6.74 6.73-13.3a1.45 1.44 14.6 0 0-1.23-2.09l-.32.17a1.89 1.78 5.5 0 0-.49.38c-4.57 5.05-15.67 27.88-8.35 32.81 5.54 3.74 7.98-4.59 8.93-8.32 1.99-7.84 3.02-16.05 5.45-22.05m6.72 10.01q1.02 2.7 1.23 6.36.45 7.49.44 20.32a2.54 2.53-3.7 0 0 2.87 2.52l.17-.02a4.1 4.1 0 0 0 3.56-3.62q.54-4.87.13-8.2-1.61-13.26-6.97-26.72-.38-.96-.6-1.29a1.36 1.36 0 0 0-2.23-.04q-2.46 3.42-3.9 9.5-.35 1.53-5.08 24.32a1 1 0 0 0 .27.94q1.22 1.26 3.2 1.6a1.5 1.5 0 0 0 1.49-.64c2.84-4.28 2.26-10.3 2.81-19.29q.17-2.79 1.8-5.79a.45.45 0 0 1 .81.05" vector-effect="non-scaling-stroke"/><path stroke="#8d8d8d" d="M580.12 389.12q4.21-5.34 10.04-12.38a2.7 2.7 48.9 0 0 .21-3.14c-1.98-3.18-5.84-4.74-9.33-5.87q-5.55-1.82-13.87-3.96a.65.64-70.9 0 0-.75.37c-3.74 8.99-7.33 19.89-7.25 29.62.09 11.79 14.56 10.34 22.13 9.7a.79.77 5.4 0 0 .68-.55c2.96-9.38 10.04-15.97 18.52-20.77a.34.34 0 0 0-.01-.59c-8.78-4.72-14.17 2.36-20.37 7.57m108.43 33.17q-2.61-4.5-7.75-8.3a1.76 1.75 14.9 0 1-.7-1.2q-.78-5.8-3.35-17.02-2.47-10.74-6.16-18.08a.7.7 0 0 0-.7-.37q-9.67 1.15-16.98 2.81c-3.59.82-8.29 2.69-8.91 6.83a1.99 1.9 39.6 0 0 .12 1.02q6.43 16.51 19.13 29.08a2.36 2.34 16.2 0 1 .63 1.14q1.68 7.56 5.85 14.35a.3.3 0 0 0 .51-.01l5.7-9.88a.77.76-72.9 0 1 .71-.38l11.44.75a.49.49 0 0 0 .46-.74" vector-effect="non-scaling-stroke"/><path stroke="#0d2b4f" d="M588.56 403.03c22.57-1.66 46.79-2.23 58.52 21.11a.55.54-41.7 0 0 .94.05c6.24-9.43-1.59-26.39-6.71-34.8a2.33 2.32-25.4 0 0-2.76-.98q-6.12 2.17-12.36.71-8.73-2.04-16.84-5.46a1.37 1.34-45.8 0 0-1.14.03c-6.4 3.13-18.93 11.43-20.26 18.66a.57.57 0 0 0 .61.68m88.57 45.67c.29-2.17 1.42-17.22 7.19-12.8a.8.79-59.9 0 1 .24.94c-2.29 5.21-3.74 11.45-2.43 16.99a4.93 4.88-67 0 0 .56 1.41q8.1 13.73 16.26 24.42a5.96 5.86-.5 0 0 1.24 1.2q7.56 5.38 16.84 8.78a.84.83-51.6 0 0 .74-.09l2.76-1.81a1.5 1.5 0 0 0 .57-1.83q-2.29-5.5-2.85-10.5a2.16 2.12-67.6 0 0-.42-1.04c-3.71-4.85-9.86-9.07-15.02-12.3a2.55 2.52-78.8 0 1-1.17-1.77q-1.65-10.84-2.35-14.31-1.3-6.43-2.45-9-4.61-10.33-16.96-9.02a1.07 1.06-75.6 0 0-.77.46q-4.34 6.44-6.46 14.08a.59.57-56.3 0 0 .09.49l4.27 5.73a.07.07 0 0 0 .12-.03" vector-effect="non-scaling-stroke"/><path stroke="#8d8d8d" d="M626.19 225.29q1.1-1.45 6.35-1.56a.74.73.8 0 0 .72-.69l.03-.4a.84.84 0 0 0-.75-.89q-4.06-.45-8.44.67a.9.9 0 0 0-.69.83l-.32 4.93a.53.53 0 0 0 .49.57l6.75.44a.6.6 0 0 0 .61-.61c-.13-2.19-2.57-2.48-4.46-2.64a.41.41 0 0 1-.29-.65m-1.16 14.3-6.77-.24a.36.36 0 0 0-.37.35l-.03.69a2.74 2.73 2 0 0 2.64 2.82l2.02.07a2.74 2.73 2 0 0 2.84-2.63l.02-.69a.36.36 0 0 0-.35-.37" vector-effect="non-scaling-stroke"/><path stroke="#8b2e25" d="M671.73 262.79a.16.16 0 0 0-.16-.28q-21.44 7.69-27.56 29.48-4.51 16.09 1.71 31.29a.34.34 0 0 0 .65-.14c-.94-23.13 6.62-46 25.36-60.35" vector-effect="non-scaling-stroke"/><path stroke="#0d2b4f" d="m617.04 319.23 1.49-2.42a.9.9 0 0 0-.29-1.24l-.46-.28a3.07 2.21 31.6 0 0-3.77.28l-.11.18a3.07 2.21 31.6 0 0 1.45 3.5l.45.27a.9.9 0 0 0 1.24-.29" vector-effect="non-scaling-stroke"/><path stroke="#8c812a" d="M581.73 663.18q.94.06 2.5-.72 5.63-2.8 7.16-7.5a9.44 9.44 0 0 0-8.3-12.44 9.45 9.45 0 0 0-9.86 11.24q.9 4.86 6.11 8.38 1.45.98 2.39 1.04" vector-effect="non-scaling-stroke"/><path stroke="#8d8d8d" d="M628.1 505.18c-1.2-1.83 1.44-3.41 2.23-4.56a1.76 1.74 57.4 0 0 .27-1.25q-.73-4.47-3.03-6.13c-4.33-3.12-15.23-7.65-19.14-1.7a1.26 1.25-79.3 0 1-.77.53l-11.85 2.57a.53.53 0 0 0-.23.93l5.19 4.28a.5.5 0 0 1 .02.76q-.98.87-.08 1.66a1.69 1.66-49.4 0 1 .16 2.34q-.75.9-1.89 1.92a1.33 1.32-26.8 0 0-.43 1.29l.07.34a.83.82-9.8 0 1-.71 1q-1.78.22-2.98-.96a.9.9 0 0 1-.15-1.09l1.77-3.07a.66.66 0 0 0-.84-.94l-9.25 4a.62.61-23.9 0 0-.32.81c4.64 10.52 22.22 8.21 30.63 4.86a2.3 2.3 0 0 1 2.75.87l1.26 1.92a1.41 1.39 67.1 0 0 1.46.6l.86-.19a.8.8 0 0 0 .55-1.14q-1.15-2.28-.29-3.01a.79.78-22.3 0 0 .28-.66q-.16-2.43 2.76-2.3a.28.28 0 0 0 .23-.46q-1.51-1.94 1.14-2.45a.5.5 0 0 0 .33-.77" vector-effect="non-scaling-stroke"/><path stroke="#8d8d8d" d="M620.06 500.21a1.53 1.52-11.4 0 0 1.6-2.4q-3.04-3.98-8.21-5.21-4.18-.99-5.14 2.72-.97 3.74 3.02 4.35 2.13.32 5.64-1.39a.56.55-37.3 0 1 .62.08q1.98 1.72 2.47 1.85" vector-effect="non-scaling-stroke"/><path stroke="#8d8d8d" d="M609.88 495.62a2.38 1.52-179.8 0 0 2.37 1.53 2.38 1.52-179.8 0 0 2.39-1.51 2.38 1.52-179.8 0 0-2.37-1.53 2.38 1.52-179.8 0 0-2.39 1.51" vector-effect="non-scaling-stroke"/></g><path fill="#fff" d="M1056.15 0 847.72 136.08l-.78.25a4.22 4.19 36.2 0 1-1.25.19l-448.54.19a.3.29 0 0 0-.3.29l-.22 293.72L0 689.5V0z"/><path fill="#003c84" d="M1280 0v144.25L871.19 411.64l.01-274.67a.46.45.7 0 0-.45-.45l-23.03-.44L1056.15 0z"/><path fill="#1a1a1a" d="m847.72 136.08 23.03.44a.46.45.7 0 1 .45.45l-.01 274.67q-.02 109.32-.02 218.86 0 19.96-1.51 26.85c-4.66 21.38-19.95 39.39-41.56 44.36q-6.98 1.61-19.83 1.37c-33.65-.62-67.56-1.79-100.64.07q-15.32.87-21.55 1.96-26.49 4.63-44.41 24.12c-5.25 5.71-8.37 11.48-13.31 19.09a.3.3 0 0 1-.5-.02q-3.49-6.62-7.63-13.29-13.39-21.56-37.98-28.72-11.37-3.32-19.27-3.32-26.28 0-88.04.45-12.64.09-15.37-.14-7.49-.64-14.92-3.47-5-1.91-9.36-3.47-1.86-1.16-7.01-4.11c-14.32-8.21-25.97-22.97-29.76-39.15q-1.47-6.26-1.48-22.28-.03-41.54-.08-199.3 0-.24-.33-.78l.22-293.72a.3.29 0 0 1 .3-.29l448.54-.19a4.22 4.19 36.2 0 0 1.25-.19zM407.13 148l.08 491c.01 29.7 31.72 53.64 59.79 53.54q24.14-.09 89.58-.49 13.25-.09 19.81 1.27c21.31 4.39 41.61 16.99 52.06 36.43a.23.23 0 0 0 .39.02c15.46-23.48 39.15-34.35 66.7-36.84q2.93-.27 27.44-.35 52.51-.18 90.29-.25 21.05-.03 34.57-15.74 13.02-15.13 13.03-35.27.02-249.35.01-493.5a.26.26 0 0 0-.26-.26H407.58a.45.44 0 0 0-.45.44"/><path fill="#fff" d="M1280 144.25V838H217.51q1.77-.56 2.33-.92l215.45-140.74q4.36 1.56 9.36 3.47 7.43 2.83 14.92 3.47 2.73.23 15.37.14 61.76-.45 88.04-.45 7.9 0 19.27 3.32 24.59 7.16 37.98 28.72 4.14 6.67 7.63 13.29a.3.3 0 0 0 .5.02c4.94-7.61 8.06-13.38 13.31-19.09q17.92-19.49 44.41-24.12 6.23-1.09 21.55-1.96c33.08-1.86 66.99-.69 100.64-.07q12.85.24 19.83-1.37c21.61-4.97 36.9-22.98 41.56-44.36q1.51-6.89 1.51-26.85 0-109.54.02-218.86z"/><path fill="#fde739" d="M407.13 148a.45.44 0 0 1 .45-.44h453.04a.26.26 0 0 1 .26.26q.01 244.15-.01 493.5-.01 20.14-13.03 35.27-13.52 15.71-34.57 15.74-37.78.07-90.29.25-24.51.08-27.44.35c-27.55 2.49-51.24 13.36-66.7 36.84a.23.23 0 0 1-.39-.02c-10.45-19.44-30.75-32.04-52.06-36.43q-6.56-1.36-19.81-1.27-65.44.4-89.58.49c-28.07.1-59.78-23.84-59.79-53.54zm246.92 265.8 5.75 7.87a1.14 1.06 22.3 0 1 .18.39q2.3 9.08 7.7 16.88.64.92.11 3.35a1.2 1.2 0 0 0 .17.93l25.61 39.07a3.16 3.14-85.4 0 0 .49.58c5.91 5.53 16.62 11.79 25.02 11.83a1.27 1.26-65.7 0 0 .84-.32l6.27-5.6a.85.84-31.9 0 0 .22-.92q-2.28-5.85-2.8-12.76a6.09 6.06-72.6 0 0-2.19-4.22l-14.93-12.32a1.44 1.41-75.4 0 1-.48-.84q-1.62-9.41-4.33-19.88c-2.77-10.7-7.57-20.63-16.94-26.99a1.09 1.07 16.5 0 1-.47-.85q-.31-6.97-2.83-19.43-6.1-30.14-22.87-52.63a.35.35-23.1 0 1 .22-.54c23.24-4.25 38.44-27.23 41.99-49.15q1.76-10.83-.41-21.75a.9.9 0 0 1 .63-1.03l8.43-2.33a8.45 8.27-65.3 0 0 1.47-.56q3.32-1.56 8.3-6.13 8.19-7.52 12.22-14.7a2.18 2.15-89.3 0 1 .87-.86c4.58-2.48 6.51-4.83 10.08-9.4a3.09 3.01 8.6 0 1 1.41-1.01q10.54-3.63 17.12-12.25a1.62 1.36-18.2 0 0 .21-.34l1.27-2.64a1.3 1.3 0 0 1 .76-.65q5.17-1.56 12.55-5.88 8.77-5.12 11.8-12.68a1.36 1.35-.7 0 1 .73-.74q17.93-7.28 17.9-26.84a.4.4 0 0 0-.55-.38c-29.65 10.94-59.7 14.6-91.54 15.9-17.77.72-28.72 13.14-36.17 28.39-5 10.26-10.4 24.57-18.66 35.35a1.7 1.67 12.9 0 1-1.03.63c-8.9 1.63-17.29-.42-21.21-8.7a.98.97-34.8 0 1 .21-1.12c2.65-2.5 7.84-10.14 4.24-13.19a.65.64 34.5 0 1-.15-.8q1.93-3.6.68-7.56-3.89-12.39-12.36-23.92a.36.36 0 0 1 .17-.55c11.46-3.84 19.9 6.23 30.93 5.21q3.23-.3 6.5-3.62a.9.9-33.8 0 0 .2-.98c-2.83-7.18-7.04-17.63-14.09-20.6q-11.41-4.82-21.19 3.84l-6.93 6.14a.55.54-38.7 0 1-.77-.08c-4.38-5.65-10.73-11.08-18.33-11.72-16.14-1.36-18.07 12.44-22.08 25.11a.7.69 24 0 0 .31.8c6.24 3.67 12.87-2.32 17.84-5.78 5.64-3.95 11.97-5.89 15.17 2.22a.84.83 58.4 0 1-.21.91q-8.3 7.65-11.73 20.69-1.29 4.89.31 7.85a2.15 2.12 30.6 0 1 .26.98q.19 11.85 6.39 21.56a.61.6 56.3 0 1-.16.82q-3.98 2.77-8.93 2.82-5.48.06-6.9-.54c-7.84-3.34-12.68-11.02-14.75-19.01-3.06-11.87-4.62-20.21-10-29.4a3.71 3.6-87.9 0 0-1.01-1.12c-12.63-9.29-28.72-14.4-43.65-16.52l-34.4-4.88q-13.31-2.05-25.3-6.58a.65.65 0 0 0-.88.63q.21 5.42 3.75 10.4.97 1.37 5.33 4.74c10.47 8.1 14.59 19.37 27.57 23.04a4.16 4.13 81.6 0 1 2.37 1.77q5.48 8.66 13.78 12.66a3.1 3.07 85.3 0 1 1.18 1.01q4.27 6.2 10.2 11a1.45 1.43-69.2 0 1 .53 1.2q-.17 2.87 1.28 5.19a.6.6 0 0 1-.24.85q-9.88 5.06-20.88 6.57a.47.47 0 0 1-.53-.51q.63-5.65-3.99-6.99c-4.61-1.35-8.82 1.53-10.52 5.81q-1.11 2.83-3.66 11.72-.62 2.18-2.59 2.45-1.44.2-6.54.56a2.64 2.63 8.7 0 0-2.26 1.65q-1.14 2.9-3.38 6.73a2.06 1.77-64.8 0 0 .8 2.87q.66.22 2.49-.16 3.61-.73 4.61-.73a.38.38 0 0 1 .33.58c-3.95 6.53-2.33 15.29-6.87 21.41q-3.09 4.16-3.75 6.57-.45 1.68-2.19 11.19c-.59 3.26-1.82 6.25-2.97 9.06-4.33 10.59-3.83 22.29-2.8 33.57a.23.23 0 0 0 .44.07q7.89-17.83 18.58-34.67a7.64 7.4 69.9 0 0 .89-2c1.42-5.14 1.7-13.31 5.01-17.83q4.75-6.51 5.24-13.45c.43-6.09 2.25-10.14 6.28-14.18a1.55 1.53-67.4 0 1 1.05-.44c2.21-.03 7.22 1.08 8.73-1.6q1.39-2.46 2.87-5.9a.55.53-75.1 0 1 .55-.33l42.99 4.4a.89.87-2.6 0 1 .77.69l1.1 5.08a.85.85 0 0 0 .79.67c5.17.3 14.36-.97 20.18 2.25q2.09 1.15 3.76 4.46c6.83 13.45 8.75 28.49 2.7 42.43a3.69 3.64-8 0 1-1.07 1.4c-5.02 3.96-36.22 30.84-28.59 37.6a.8.8 0 0 1 .21.87q-.51 1.35-1.79 4.59c-3.72 9.47-10.06 33.47 3.49 38.66q2.28.87 8.98.69 16.14-.45 33.2-1.07c3.72-.13 10.5-.66 14.8.2 11.75 2.34 21.34 11.41 27.19 21.83a1.21 1.2-11.3 0 0 .91.6l2.31.23a1.1 1.1 0 0 0 1.01-.49q4.53-7.27 3.84-16.35a.13.13 0 0 1 .23-.08M549.13 552.51l.21.76c-5.49 6.22-11.78 13.36-20.31 16.05a.54.53-22 0 0-.32.74q1.66 3.45 7.79 22.3 4.36 13.39 13.08 23.89 1.21 1.46 3.14 3.93a.45.44 59.1 0 1-.17.68c-6.61 2.82-14.18 7.9-15.96 15.06a.5.5 0 0 0 .54.62l5.75-.63a.49.48.9 0 1 .54.55q-.82 5.33.4 9.93a.38.38 0 0 0 .67.13q2.01-2.65 5.54-3.36a.56.55 79 0 1 .66.45q1.2 7.14 6.06 12.42a.36.35 26 0 0 .62-.21q.78-10.45 3.42-16.73 5.6-13.28 18.75-10.43a1.75 1.74 75.2 0 0 1.67-2.87l-2.97-3.32a9.16 9.14-14.4 0 0-4.78-2.82l-7.21-1.66a.79.78 2.3 0 1-.6-.64q-3.29-20.03-11.23-38.04a.44.44 0 0 1 .29-.6c8.36-2.23 13.27-7.02 19.4-12.78a.35.35-29.1 0 1 .57.16c4.55 17.38 10.75 32.9 21.23 47.1a3.35 3.24 22.2 0 1 .58 1.32q3.64 19.09 16.27 33.98a1 1 0 0 1 .07 1.23q-4.37 6.49-10.04 11.06-3.54 2.86-7.94 3.81a.45.44-73.3 0 1-.4-.75q6.54-6.53 4.81-15.63c-1.79-9.45-10.74-13.89-19.79-13.4-9.48.51-14.77 10.05-14.03 18.8q.64 7.59 6.61 12.05a.44.43 52.9 0 1-.1.76c-20.73 7.93-54.17-11.68-63.25-30.77-3.49-7.35-7.03-12.35-13.2-15.66-11.64-6.23-24.76-6.48-38.17-6.46a.25.24-19.7 0 0-.19.4q6.58 7.83 15.6 11.13c4.86 1.77 11.61 1.87 15.75 2.87q3.58.85 6.07 3.66a.33.32-22.1 0 1-.23.54q-.16 0-4.98-1.21-4.55-1.14-8.64-.19a.34.34 0 0 0-.03.65q10.39 3.27 19.39 9.63 2.25 1.59 6.8 6.65 13.61 15.11 32.66 24.34 9.34 4.53 20.7 3.66 13.38-1.03 21.45-4.58a1.75 1.72-50.4 0 1 1.07-.11q22.88 4.71 35.91-14.03c.37-.53.88-1.82 1.52-2.61a.64.64 0 0 1 .8-.16c14.43 7.83 29.06 5.04 42.66-2.82q13.88-8.02 29.91-22.64a.56.56 0 0 1 .86.13c10.72 18.47 33.64 27.76 54.14 31.94 8.55 1.74 14.84 5.73 19.77 13.24a.7.7 61.2 0 0 .84.25c7.54-3.32 14.93-6.77 22.52-8.12q5.69-1.01 9.93 2.32a.34.34 0 0 0 .55-.22q.34-2.51-1.33-4.49a.54.54 0 0 1 .1-.79c2.04-1.43 4.84-1.09 7.42-.84a.54.54 0 0 0 .57-.7c-1.17-3.77-4.7-5.42-8.14-6.6a.46.45-54.5 0 1-.13-.79q3.55-2.77 8.52-2.14a.38.38 0 0 0 .38-.57q-2.91-5.16-9.15-5.09a.35.35 0 0 1-.23-.61q2.77-2.41 6.65-3.28a.44.43-37.4 0 0 .11-.81c-9.72-5.05-26.8 1.68-34.99 7.34a1 1 0 0 1-.96.07q-21.92-10.89-37.79-22.88-8.23-6.21-18.35-16.11a.46.46 0 0 1 .02-.68l10.52-9.42a.58.57 39.1 0 1 .68-.06c8.71 5.45 19.36 6.35 29.2 5.71q4.03-.26 23.5-1.97 3.36-.3 9.29.43a1.44 1.42 74.9 0 1 .94.55q2.55 3.35 6.47 4.64a.52.52 0 0 0 .68-.46q.44-6.02 4.6-9.45c5.27-4.34 13.39-3.99 17.15-10.58q3.16-5.53 5.58-10.45c2.45-4.97 5.72-5.78 10.73-6.99a.39.38 63.3 0 0 .2-.62c-3.13-3.79-11.43-2.13-15.36-.42a3.05 3.02-80.3 0 0-.98.7c-9.89 10.69-22.62 17.99-36.83 17.55q-11.84-.36-24.63-4.3c-15.35-4.72-25.71-8.14-38.91-10.11a2.63 2.57 39.5 0 0-1.19.1c-21.48 6.83-42.62 14.66-62.74 25.03a.45.44-18.9 0 1-.64-.31q-2-10.77-10.15-17.65a.66.65 37.3 0 1-.12-.86c3.81-5.7 6.77-9.96 9.16-15.18 2.83-6.17 2.64-12.22 1.4-18.85a.56.56 0 0 1 .49-.66q10.37-1 27.16-5.4 4.92-1.29 11.43-1.77a3.19 3.17 49 0 1 .97.07l2.37.55a1.6 1.6 0 0 0 1.21-.21q15.7-9.88 19.87-13.22 16.06-12.88 26.7-20.76a1.09 1.08-56.4 0 1 .88-.18q12.13 2.76 23.77-3.01 2.73-1.35 4.54-4a.29.29 0 0 0-.35-.44q-5.54 2.23-10.72 1.48a.32.32 0 0 1-.18-.55q.12-.12 3.38-1.02c4.07-1.14 7.08-3.98 8.17-8.08a.34.34 0 0 0-.49-.39q-3.93 2.13-6.44 2.5a.32.31-80.1 0 1-.32-.46l2.76-2.65q3.28-3.14 4.42-6.35a5.05 5.02 42.6 0 0-.17-3.8l-.33-.7a1.12 1.12 0 0 0-1.99-.08c-4.28 7.64-11.21 14.77-20.67 11.77a1.39 1.38-.8 0 1-.87-.84c-1.71-4.65-.31-5.56 3.09-8.18a.31.31 0 0 0-.1-.54c-10.61-3.38-10.89 8.56-12.93 15.06a.91.9 3.2 0 1-.7.62c-11.19 2.1-26.54 5.26-38.22 10.77q-7.79 3.67-11.58 10.79a.8.8 0 0 1-.81.41c-10.39-1.54-24.88-2.11-34.35 3.16a.3.3 0 0 1-.44-.32q2.31-11.02-.23-22.34c-4.05-18.08-21.61-29.11-37.69-36.1q-10.21-4.43-25.52-11.21c-13.06-5.78-26.33-13.79-33.15-26.43a1.95 1.92-7.2 0 0-1.27-.97l-.94-.21a.39.38-7.7 0 0-.43.56q5.35 9.68 4.31 19.6-1.76 16.79-1.98 19.61a1.5 1.5 0 0 0 .63 1.37c9.36 6.78 7.57 18.76 5.74 28.55a.79.78-71.8 0 0 .42.85q11.19 5.51 9.38 19.69a1.04 1.04 0 0 0 .62 1.09c3.05 1.32 5.54 3.74 6.28 7.05a.47.47 0 0 1-.47.57q-15.37-.45-28.92-5.94a1.42 1.41-87.8 0 1-.82-.89c-3.81-11.95-7.73-25.6-17.21-34.31q-3.44-3.17-9.59-5.14c-15.95-5.09-32.49-4.63-48.94-1.87-22.3 3.74-35.22 6.85-52.78 6.24a.24.24 0 0 0-.16.43q1.32 1.04 4.15 2.83 15.74 9.94 28.88 23.34 4.71 4.8 7.61 10.74a.9.9 0 0 0 .73.48c12.05.42 23.25 4.2 29.82 14.59a.9.9 0 0 0 .71.41q15.18.79 26.52 10.42a1.21 1.2-26.2 0 0 .86.29c11.35-.74 21.15.72 29.02 9.47q.35.38.59-.14"/><path fill="#1a1a1a" d="M653.82 413.88q.69 9.08-3.84 16.35a1.1 1.1 0 0 1-1.01.49l-2.31-.23a1.21 1.2-11.3 0 1-.91-.6c-5.85-10.42-15.44-19.49-27.19-21.83-4.3-.86-11.08-.33-14.8-.2q-17.06.62-33.2 1.07-6.7.18-8.98-.69c-13.55-5.19-7.21-29.19-3.49-38.66q1.28-3.24 1.79-4.59a.8.8 0 0 0-.21-.87c-7.63-6.76 23.57-33.64 28.59-37.6a3.69 3.64-8 0 0 1.07-1.4c6.05-13.94 4.13-28.98-2.7-42.43q-1.67-3.31-3.76-4.46c-5.82-3.22-15.01-1.95-20.18-2.25a.85.85 0 0 1-.79-.67l-1.1-5.08a.89.87-2.6 0 0-.77-.69l-42.99-4.4a.55.53-75.1 0 0-.55.33q-1.48 3.44-2.87 5.9c-1.51 2.68-6.52 1.57-8.73 1.6a1.55 1.53-67.4 0 0-1.05.44c-4.03 4.04-5.85 8.09-6.28 14.18q-.49 6.94-5.24 13.45c-3.31 4.52-3.59 12.69-5.01 17.83a7.64 7.4 69.9 0 1-.89 2q-10.69 16.84-18.58 34.67a.23.23 0 0 1-.44-.07c-1.03-11.28-1.53-22.98 2.8-33.57 1.15-2.81 2.38-5.8 2.97-9.06q1.74-9.51 2.19-11.19.66-2.41 3.75-6.57c4.54-6.12 2.92-14.88 6.87-21.41a.38.38 0 0 0-.33-.58q-1 0-4.61.73-1.83.38-2.49.16a2.06 1.77-64.8 0 1-.8-2.87q2.24-3.83 3.38-6.73a2.64 2.63 8.7 0 1 2.26-1.65q5.1-.36 6.54-.56 1.97-.27 2.59-2.45 2.55-8.89 3.66-11.72c1.7-4.28 5.91-7.16 10.52-5.81q4.62 1.34 3.99 6.99a.47.47 0 0 0 .53.51q11-1.51 20.88-6.57a.6.6 0 0 0 .24-.85q-1.45-2.32-1.28-5.19a1.45 1.43-69.2 0 0-.53-1.2q-5.93-4.8-10.2-11a3.1 3.07 85.3 0 0-1.18-1.01q-8.3-4-13.78-12.66a4.16 4.13 81.6 0 0-2.37-1.77c-12.98-3.67-17.1-14.94-27.57-23.04q-4.36-3.37-5.33-4.74-3.54-4.98-3.75-10.4a.65.65 0 0 1 .88-.63q11.99 4.53 25.3 6.58l34.4 4.88c14.93 2.12 31.02 7.23 43.65 16.52a3.71 3.6-87.9 0 1 1.01 1.12c5.38 9.19 6.94 17.53 10 29.4 2.07 7.99 6.91 15.67 14.75 19.01q1.42.6 6.9.54 4.95-.05 8.93-2.82a.61.6 56.3 0 0 .16-.82q-6.2-9.71-6.39-21.56a2.15 2.12 30.6 0 0-.26-.98q-1.6-2.96-.31-7.85 3.43-13.04 11.73-20.69a.84.83 58.4 0 0 .21-.91c-3.2-8.11-9.53-6.17-15.17-2.22-4.97 3.46-11.6 9.45-17.84 5.78a.7.69 24 0 1-.31-.8c4.01-12.67 5.94-26.47 22.08-25.11 7.6.64 13.95 6.07 18.33 11.72a.55.54-38.7 0 0 .77.08l6.93-6.14q9.78-8.66 21.19-3.84c7.05 2.97 11.26 13.42 14.09 20.6a.9.9-33.8 0 1-.2.98q-3.27 3.32-6.5 3.62c-11.03 1.02-19.47-9.05-30.93-5.21a.36.36 0 0 0-.17.55q8.47 11.53 12.36 23.92 1.25 3.96-.68 7.56a.65.64 34.5 0 0 .15.8c3.6 3.05-1.59 10.69-4.24 13.19a.98.97-34.8 0 0-.21 1.12c3.92 8.28 12.31 10.33 21.21 8.7a1.7 1.67 12.9 0 0 1.03-.63c8.26-10.78 13.66-25.09 18.66-35.35 7.45-15.25 18.4-27.67 36.17-28.39 31.84-1.3 61.89-4.96 91.54-15.9a.4.4 0 0 1 .55.38q.03 19.56-17.9 26.84a1.36 1.35-.7 0 0-.73.74q-3.03 7.56-11.8 12.68-7.38 4.32-12.55 5.88a1.3 1.3 0 0 0-.76.65l-1.27 2.64a1.62 1.36-18.2 0 1-.21.34q-6.58 8.62-17.12 12.25a3.09 3.01 8.6 0 0-1.41 1.01c-3.57 4.57-5.5 6.92-10.08 9.4a2.18 2.15-89.3 0 0-.87.86q-4.03 7.18-12.22 14.7-4.98 4.57-8.3 6.13a8.45 8.27-65.3 0 1-1.47.56l-8.43 2.33a.9.9 0 0 0-.63 1.03q2.17 10.92.41 21.75c-3.55 21.92-18.75 44.9-41.99 49.15a.35.35-23.1 0 0-.22.54q16.77 22.49 22.87 52.63 2.52 12.46 2.83 19.43a1.09 1.07 16.5 0 0 .47.85c9.37 6.36 14.17 16.29 16.94 26.99q2.71 10.47 4.33 19.88a1.44 1.41-75.4 0 0 .48.84l14.93 12.32a6.09 6.06-72.6 0 1 2.19 4.22q.52 6.91 2.8 12.76a.85.84-31.9 0 1-.22.92l-6.27 5.6a1.27 1.26-65.7 0 1-.84.32c-8.4-.04-19.11-6.3-25.02-11.83a3.16 3.14-85.4 0 1-.49-.58l-25.61-39.07a1.2 1.2 0 0 1-.17-.93q.53-2.43-.11-3.35-5.4-7.8-7.7-16.88a1.14 1.06 22.3 0 0-.18-.39l-5.75-7.87a.13.13 0 0 0-.23.08M597.3 183.99l-.61 4.38a.92.92 0 0 0 1.08 1.03c2.78-.54 4.35-4.02 5.03-6.59a.24.24-76.6 0 1 .27-.17h.01a.3.3 0 0 1 .17.27l-.3 2.87a.77.77 0 0 0 1.4.51c3.5-5.14 11.81-1.61 14.64 2.23q.94 1.29 1.31 1.75a.34.34 0 0 0 .6-.13c1.51-6.57-4.63-11.69-10.24-13.77q-11.79-4.36-18.01 5.36c-1.79 2.81-2.66 7.2-3.49 10.72a.64.64 0 0 0 .83.75q3.97-1.43 5.59-5.63 1.02-2.65 1.66-3.6a.03.03 0 0 1 .06.02m56.64 1.43c1.68 3.25 3.03 10.26 8.22 8.5a.66.65-22.1 0 0 .38-.89c-3.51-7.94-8.76-20.71-20-16.54q-9.67 3.6-16.11 12.33a.21.21 0 0 0 .26.32c3.55-1.61 12.14-5.02 15.33-2.72q3.61 2.58 6.72 3.98a.7.69 2.8 0 0 .95-.85q-.99-2.96-3.65-5.82a.35.35 0 0 1 .36-.57c2.81.84 4.37 5.21 5.6 8.05a4.7 4.7.9 0 0 2.29 2.36l.26.13a.81.81 0 0 0 1.15-.94l-2.02-7.23a.14.14 0 0 1 .26-.11M772.13 189c-3.96 1.21-13.21 3.59-14.75 7.68a.44.43 8.9 0 0 .43.58c14.61-.66 37.53-3.32 42.53-20.24a.4.39 89.7 0 0-.49-.49q-20.68 6.34-41.96 9.47a.57.57 67.9 0 0-.37.89c2.94 4.01 10.25 1.98 14.44 1.37a.38.38 0 0 1 .17.74m-278.94-2.08c2.55.24 13.03 3.45 14.12-.95a.6.6 0 0 0-.5-.73q-12.36-1.57-23.28-4.04-4.89-1.11-8.26-2.37a.36.36 0 0 0-.44.52c6.15 10.59 20.97 15.42 32.3 16.21a.4.4 0 0 0 .38-.56c-1.98-4.14-9.78-6.2-14.4-7.66a.22.21 56.2 0 1 .08-.42m22.66 4.06 7.82.26a3.5 3.5-74 0 0 3.14-1.74l.42-.73a1.02 1.02 0 0 0-.75-1.52c-7.44-.96-15.06-2.87-19.28 2.57a.65.65 0 0 0-.01.77q3.5 4.93 9.58 5.92 7.61 1.25 11.19 1.57a.3.3 0 0 0 .31-.42q-1.79-4.63-6.36-5.31-7.63-1.15-6.57-1.34a2.74 2.39 37.7 0 1 .51-.03m228.24 3.5q-1.07.61-2.7.15-5.87-1.64-9.24 4.88a.26.26 0 0 0 .25.37q9.68-.63 17.2-2.48 4.51-1.1 8.14-5.59a1.02 1.01-37.3 0 0 .15-1.04c-1.62-3.82-7.03-3.96-10.65-3.78q-6.59.31-12.77 1.09a1.26 1.25 65.7 0 0-.78 2.08l.76.84a4.7 4.67 60.4 0 0 4.88 1.36q1.95-.6 4.04-.6a1.46 1.45 30.2 0 1 .72 2.72m-205.39-.75q20.45 4.01 28.62 22.7 3.46 7.92 9.14 25.64.6 1.87 2.59 3.7a2.79 2.77-40.2 0 0 3.41.28l.28-.19a1.74 1.74 0 0 0 .3-2.67q-2.11-2.19-2.65-4.06-2.9-9.96-5.66-18.61c-2.85-8.92-7.36-19.02-15.81-23.78-6.6-3.73-23.88-10.92-30.71-5.92a1.54 1.53-31.1 0 0-.48 1.91c2.03 4.13 7.01 6.01 11.12 6.67q6.72 1.09 12.01 2.2a.34.34 0 0 0 .36-.5c-2.39-4.23-7.77-5.58-12.56-7.02a.2.2-76.4 0 1-.14-.24.16.15-75.9 0 1 .18-.11m180.94 1.94c-4.87 1.08-12.59 3.01-15.18 7.69a.28.28 0 0 0 .3.41q6.31-1.14 14.45-2.34c5.05-.74 11.37-2.69 13.88-7.7a.92.91-49.9 0 0-.08-.95c-5.3-7.18-25.91-.52-32.64 2.5-7.56 3.4-12.74 11.15-16.64 18.2q-3.7 6.68-13.24 25.49-3.23 6.37-7.9 11.99a1.24 1.24 0 0 0 1.09 2.02l2.02-.23a5.48 5.46-72.5 0 0 3.54-1.85q4.86-5.59 7.5-10.93c3.59-7.25 8.91-21.01 15.56-29.68q10.18-13.25 27.34-15.16a.2.2 0 0 1 .24.18v.01a.31.3-10.7 0 1-.24.35m-82.03 20.83c-3-8.46-7.4-16.36-13.66-22.76a.65.65 0 0 0-.87-.06q-10.66 8.34-13.68 21.72a.51.5-87.5 0 0 .56.62q8.56-1.15 17.12-.3a.5.5 0 0 0 .55-.5c.02-4.15-1.5-6.79-3.79-11.82q-.59-1.31-.43-2.58a.88.88 0 0 1 1.49-.52c3.41 3.31 5.04 10.17 6.53 14.62a2.32 2.3-2.7 0 0 1.68 1.52l3.77.87a.62.62 0 0 0 .73-.81m-128.02-13.42 9.25.61a3.62 3.59 19.4 0 0 3.17-1.5l.15-.21a.87.87 0 0 0-.56-1.41l-29.58-4.11a.12.12 0 0 0-.11.2c8.85 10.55 20.01 13.62 33.43 13.36a.26.26 0 0 0 .22-.39q-2.17-4.01-7.01-4.72-7.82-1.14-9.02-1.45a.19.19 0 0 1 .06-.38m245.05 2.67q-6.3 1.16-10.88 1.74-5.38.69-8.08 4.79a.41.41 0 0 0 .32.63c15.96.55 32.46-2.68 44.03-14.45a.12.12 0 0 0-.1-.21l-39.65 4.34a1 1 0 0 0-.63 1.66l.59.66a3.37 3.34 67.2 0 0 2.68 1.11l11.81-.59a.13.11 69.7 0 1 .1.06.23.23 0 0 1-.19.26m-220.67-.24q3.9.29 4.69-3.06a.6.6 0 0 0-.48-.72c-5.04-.87-11.59-1.68-14.89 2.57a.7.7 0 0 0 .01.87c4.17 5.27 11.03 5.97 18.04 6a.5.5 0 0 0 .48-.65c-.95-3.08-4.84-4.1-8.05-4.45a.22.21-85.8 0 1-.19-.23.37.36-84.4 0 1 .39-.33m17.07 1.33c2.8-.09 4.63.29 5.8-1.87a.9.9 0 0 0-.6-1.31q-5.6-1.23-9.9-1.36c-3.28-.1-4.91.73-6.4 3.5a.8.8 39 0 0 .1.9q2.76 3.2 5.28 4.03 5.98 1.96 16.75 2.24a.42.42 0 0 0 .38-.61c-2.35-4.63-6.86-4.5-11.43-5.2a.16.16 0 0 1 .02-.32m174.53 1.57a.21.21 0 0 1-.05.42q-6.15-.05-9.65 4.19a.74.73 20.2 0 0 .56 1.2c7.57.14 16.61-.64 21.84-6.56a.75.74-45.9 0 0-.01-1c-4.34-4.74-12.27-3.52-18.22-2.74a.48.47 82.3 0 0-.41.54q.32 2.04 2.1 3.02a1.4 1.31 65.3 0 0 .27.11zm-20.21 1.55c-5 .82-10.21.68-12.59 5.92a.4.4 0 0 0 .37.56q8.01-.16 15.8-1.5 5.67-.98 9.11-5.43a.9.9 0 0 0 .11-.86q-1.69-4.04-5.6-3.94-4.12.1-11.92 1.42a1.32 1.32 0 0 0-.87 2.05l.03.04a3.5 3.5 0 0 0 3.12 1.5q1.54-.11 2.44.02a.11.11 0 0 1 0 .22m-179.96 7.32q4 .1 6.07-2.49a.74.74 0 0 0-.57-1.2q-8.68-.06-19.35-1.83a.48.48 0 0 0-.44.79c4.28 4.92 8.49 9.34 14.4 9.98q4.64.51 10.16.34a.4.39 68.3 0 0 .28-.66c-3.12-3.46-6.83-3.44-10.62-4.45a.24.24 0 0 1 .07-.48m15.36.65c2.14-.44 4.17-.53 4.23-3.37a.51.5 5.2 0 0-.43-.51q-3.92-.61-7.34-.59-3.14.03-3.72 3.09a1.48 1.46-54.8 0 0 .17 1.03c3.18 5.65 9.98 5.81 15.72 5.77a.32.32 0 0 0 .28-.47c-1.95-3.62-5.35-3.73-8.91-4.65a.16.15 45.5 0 1 0-.3m15.18.89c3.12-.11 6.58.44 7.51-2.77a.53.53 0 0 0-.45-.68q-7.06-.79-12.18-.57-3.49.14-4.39 2.92a.9.88-60 0 0 .24.92q4.24 3.94 6.38 4.6 4.18 1.3 12.5 1.97a1.09 1.09 0 0 0 .9-1.82l-1.38-1.54a6.16 6.14-16.9 0 0-3.73-1.98l-5.42-.76a.15.15-41.5 0 1 .02-.29m180.18 2.79q-.7.16-4.78.74-5.19.73-8.43 4.32a.3.3 0 0 0 .22.5q13.36.22 18.69-.91 9.9-2.08 15.9-10.94a.16.15 13.4 0 0-.15-.24q-14.1 1.87-28.45 1.86a.91.9-25.1 0 0-.58 1.6l1.9 1.56a2.3 2.3 0 0 0 1.14.5l4.53.63a.19.19 0 0 1 .01.38m-18.56.21a.16.15-9.7 0 1-.14.19c-3.95.51-9.32 1.35-11.24 5.02a.44.44 0 0 0 .39.64c6.87-.1 15.17-.12 18.96-6.52a1.08 1.05 55.2 0 0 .13-.78q-.59-2.89-2.57-3.24-4.62-.81-10.99.38a.59.58 76.5 0 0-.45.74q1.14 3.9 5.77 3.25a.1.1 0 0 1 .08.06zm-18.73 1.02a.2.2 0 0 1-.16.19q-5.69.34-8.89 1.53-3.19 1.2-4.46 4.63a.25.25 0 0 0 .24.34c8.16-.12 17.72-.51 23.73-6.72a2.13 2.13 0 0 0-.71-3.45q-2.9-1.21-6.08-1.17-4.7.05-12.24.63a.84.84 0 0 0-.71 1.16c1.32 3.13 6.12 2.91 9.01 2.63a.25.24 84.4 0 1 .27.23m-83.34 2.24c-2.42-1.84-5.97-.54-6.02 2.93-.13 8.19 3.86 17.36 11.54 20.99a1.2 1.19-44.1 0 0 1.01.01q5.01-2.25 8.47-6.28 3.25-3.77 7.61-10.41 2.28-3.48-1.01-5.24a.8.8 0 0 1-.44-.8l.29-4.48a.7.69-80.3 0 0-.5-.72c-8.14-2.35-17.42-1.98-25.63-.83a.66.66 0 0 0-.49.95l.13.26a1.01 1 78.2 0 0 .82.54l5.99.39a1.64 1.64 0 0 1 1.53 1.59l.27 9.47a.66.66 0 0 0 .62.64l4.04.26a1.05 1.04 36.6 0 1 .3 2.02q-1.05.39-2.49.38c-2.54-.01-4.91.39-4.92-3.28q-.01-1.48-.19-3.78a.71.7 89 0 0-.66-.65q-2.68-.15-3.03-.01a.84.84 0 0 1-1-1.26q.79-1.15 3.58-1.83a.49.49 0 0 0 .18-.86m-79.77 3.88 4.16-.66a1.08 1.08 0 0 0-.18-2.14q-7.52.08-11.7-.7a1.29 1.29 0 0 0-1.2 2.12l2.96 3.29a8.03 8 70.9 0 0 5.46 2.66l8.33.55a.38.38 0 0 0 .35-.58q-1.92-3.15-5.6-3.82-2.6-.47-2.65-.51a.13.12 64.3 0 1 .07-.21m14.1.58q2.37-.4 3.25-2.28a.44.44 0 0 0-.36-.63c-2.91-.25-8.62-1.13-10.34 1.2q-.56.76-.08 1.59c3.08 5.18 7.77 5.54 13.19 5.74a.5.5 0 0 0 .5-.59c-.72-3.18-3.03-3.82-6.18-4.66a.19.19 0 0 1 .02-.37m14.33 1.47c2.17.36 4.98.13 4.97-2.55a.71.7-88.2 0 0-.65-.7c-3.45-.3-12.16-1.58-13.85 1.86a1 1 0 0 0 .02.89c2.81 4.87 9.74 5.69 16.56 6a.8.8 0 0 0 .63-1.33l-1.95-2.17a2.31 2.27 74 0 0-1.31-.74l-4.59-.88a.22.21 69.5 0 1 .17-.38m159.14 2.79a.22.21-7.9 0 1-.19.24c-3.91.53-7.36 1.25-9.74 4.48a.38.38 0 0 0 .28.6c8.83.67 17.91.03 22.63-8.34a.33.33 0 0 0-.3-.49l-17.7.5a1.09 1.08 58 0 0-.47 2.05q2.15 1.12 5.23.75a.23.23 0 0 1 .26.2zm-15.86.77-4.23.91a5.85 5.82-76.3 0 0-3.27 2l-.71.86a1.09 1.09 0 0 0 .86 1.79c5.46-.14 11.69-.63 15.3-5.67a1.55 1.54 34.8 0 0-.4-2.18c-3.2-2.13-8.69-1.33-12.39-1.16a.52.51 76 0 0-.44.74c.97 1.98 2.99 2.41 5.26 2.47a.12.12 0 0 1 .02.24m-18.3 1.49c-4.21 1.32-7.8.86-10.28 5.46a.28.28 0 0 0 .26.41c7.46-.28 15.78-.51 20.55-5.71a2.1 2.1 0 0 0-.83-3.38q-3.37-1.21-8.09-.89-6.69.44-7.28.34a.7.7 0 0 0-.8.87l.18.71a2.72 2.71 82 0 0 2.7 2.04l3.55-.1a.13.13 0 0 1 .04.25m-145.7 3.6q1.39.01 2.79-.94a.87.87 0 0 0-.49-1.58q-7.97.01-10.41-1.14a1.11 1.11 0 0 0-1.4 1.61l2.17 3.32a7.3 7.3-7.5 0 0 3.83 2.94q4.49 1.5 9.9 1.17a.42.42 0 0 0 .32-.64c-1.72-2.65-3.84-3.19-6.8-4.3a.23.23 0 0 1 .09-.44m12.11.59q2.22-.46 2.99-2.27a.42.42 0 0 0-.36-.58c-2.76-.14-8.19-.78-9.74 1.48q-.5.74-.02 1.51c3.09 4.79 7.54 4.97 12.67 4.98a.47.47-7.1 0 0 .45-.57c-.79-2.99-2.99-3.52-6-4.2a.18.18 0 0 1 .01-.35m19.61 5.76q-1.53-4.04-6.36-4.26a.2.2-88.4 0 1-.17-.19l.02-.29a.2.2 0 0 1 .18-.16q3.2.11 4.04-2.37a.47.47 0 0 0-.38-.61q-3.11-.42-8.45-.42-2.88 0-3.6 2.47a1.18 1.15 38.6 0 0 .12.94c2.63 4.41 5.72 4.62 10.31 5.24q2.4.32 3.93.2a.4.4 0 0 0 .36-.55m138.36-.04q-5.5 1.22-8.11 4.58a.37.37 0 0 0 .26.59c7.97.71 18.32-.4 21.24-9.07a.49.48 3.9 0 0-.55-.63q-7.38 1.44-15.58 1.11a.8.8 0 0 0-.75 1.12l.11.23a2.27 2.24 79.1 0 0 1.88 1.29q1.35.09 1.57.2a.31.31 0 0 1-.07.58m-15.21.88c-3.14.37-5.74 1.13-6.64 4.45a.43.43 0 0 0 .41.55c5.44.11 12.27-.3 15.37-5.43a2.17 2.17 0 0 0-1.86-3.29h-9.62a.53.53 0 0 0-.48.76q.82 1.68 2.88 2.38a.3.3 0 0 1-.06.58m-15.42.37c-2.14.4-6.07.79-7.33 2.67a.27.27 0 0 0 .29.41c3.8-.96 7.39-.16 11.34.36 3.19.42 4.56-1.58 5.88-3.91a1.06 1.04 46.6 0 0 .02-1q-1.05-2.1-3.61-2.02-5.69.18-11.82.66a.66.66 0 0 0-.37 1.17l.9.75a2.45 2.42-27.6 0 0 1.8.55q1.67-.17 2.9.08a.14.14 0 0 1 0 .28m-49.68-2.8c-3.48 3.53-6.72 6.69-11.49 8.18a1.53 1.47-41.5 0 1-1.01-.04q-3.23-1.37-6.71-4.65a.45.45 0 0 0-.74.17q-2.34 6.3-2.13 13.75a.65.65 0 0 0 .65.63h19.63a.62.61-86.9 0 0 .61-.55l1.76-17.22a.33.33 0 0 0-.57-.27M500.13 251l6.85-.19a.7.7 0 0 0 .67-.76q-.18-1.67-.36-2.76c-.45-2.74-3.71-2.81-5.47-1.23q-1.71 1.52-2.2 4.35a.5.5 0 0 0 .51.59m-3.95 10.65a.19.18 9.4 0 0 .18.25q15.62-.33 28.36-.98 7.08-.37 16.78 1.9 5.73 1.34 8.55 1.32 5.08-.04 9.32-.97a.7.7 0 0 0 .52-.88c-.79-2.65.12-5.99.76-10.66a1.35 1.35 0 0 0-1.15-1.52c-20.08-2.82-39.78 3.48-60.45 4.32a.43.42-80.5 0 0-.38.28zm86.25 9.21q-.5-3.29.59-7.1.22-.77 3.81-12.61a.92.91-76.2 0 0-.7-1.16c-4.59-.86-14.9-1.56-18.88 1.41a1.55 1.55 0 0 0 .35 2.68c2.95 1.19 8.01.22 11.47.17a1 1 0 0 1 .89 1.44l-.09.18a2.6 2.59 13.8 0 1-2.32 1.4q-2.64-.02-7.57-.35-3.3-.23-4.48 2.1c-1 1.99-.38 3.72 2.07 3.78q3.6.09 7.95 0a1.5 1.5 0 0 1 1.52 1.73l-.01.06a1.84 1.84 0 0 1-1.94 1.56l-6.57-.46c-3.59-.25-3.53 2.73-2.77 5.17a.67.65 82.6 0 0 .58.46l14.79.96a1.24 1.24 0 0 0 1.31-1.42m56.48 3.15q3.99-4.49 5.2-8.52a6.27 5.98-36.5 0 0 .24-1.38l.73-11.06a2.93 2.93 0 0 0-2.73-3.11l-1.22-.08a2.74 2.73-82.3 0 0-2.86 2.19c-1.44 7.07-3.05 15.64.08 21.88a.34.34 0 0 0 .56.08m-32.19-21.68c-2.72-.81-4.49-.22-5.53 2.65q-3.17 8.79-3.24 18.37a3.79 3.78 1.8 0 0 3.58 3.81l.25.01a3.6 3.6 1.9 0 0 3.79-3.54q.11-9.47 1.21-17.72c.13-.95.77-2.01.62-2.82a1.01.98-87.7 0 0-.68-.76m-8.99 3.3a2.1 2.1 0 0 0-1.62-3.14l-2.32-.24a3.56 3.55-77.4 0 0-3.71 2.36c-3.05 8.7-4.33 12.92-2.64 20.41.66 2.89 4.58 2.74 6.14.94q.75-.87.87-4.05c.21-5.53.64-11.59 3.28-16.28m50.47 6.08a.24.24 0 0 0 .4.21q4.4-3.75 10.42-5.92a.73.73 0 0 0 .21-1.26q-4.06-3.27-9.31-2.32a1.05 1.04-2.2 0 0-.86.92zm53.36-4.19q-.15.04-1.28-.1a1.74 1.74 0 0 0-1.92 2.13q.17.72.47 1.16a1.01 1 72.8 0 0 .83.44q9.85.09 15.68-7.39a.16.16 0 0 0-.13-.26l-21.23.6a.23.23 0 0 0-.17.37q.61.74 1.23.9 2.4.63 6.39.95a.62.61 39 0 1 .13 1.2m-26.06-1.63q-19.03 3.85-29.71 18.39-15.38 20.94-8 48.01 1.78 6.5 8.12 8.32c10.59 3.04 22.19-1.03 30.14-8.58 13.83-13.11 20.74-32.12 19.49-51.27q-.67-10.45-8.86-13.97-4.99-2.14-11.18-.9m-192.8 14.22q12.54-1.96 26.12.03a1.2 1.2 0 0 0 1.16-.56l2.1-3.64a.4.4 0 0 0-.39-.6q-8.95.92-18.16-.17-1.6-.19-8.27.79a1.55 1.53 10.5 0 0-1.11.75l-1.73 3a.27.27 0 0 0 .28.4m126.05 33.71c-4.44 2.76-8.12 5.63-10.17 10.44-4.37 10.28 5.13 16.57 13.65 18.68 7.51 1.86 15.12 2.55 21.78-2.01a1.33 1.32-26.1 0 0 .52-1.51c-5.12-16.13-5.38-32.96.89-48.52a1.56 1.53-42.8 0 0 .05-1.01q-.11-.37-.51-.89c-1.8-2.36-2.54-6.49-2.88-9.66a.83.83 0 0 0-.85-.74l-18.92.53a1.9 1.9 0 0 0-1.85 1.96l.17 6.27a2.3 2.3 0 0 1-2.28 2.36q-1.48.01-11.6-.03-4.04-.02-3.9 3.56a2.12 2.01-61.9 0 0 .25.91q3.21 6.07 10.45 5.99 5.38-.05 12.19-.96.58-.07 2.22.14a.32.32 0 0 1 .19.54q-3.73 3.69-9.22 4.53-3.47.53-11.29 1.3a1.07 1.07 0 0 0-.95 1.18l.92 8.41a.45.45 0 0 0 .54.39l10.44-2.26a.22.22 0 0 1 .16.4m-117.68-30.57a1.73 1.72-80.8 0 0-1.58 1.15c-1.65 4.64-2 7.74-2.97 14a12.62 12.54-25.2 0 1-1.63 4.49c-3.59 6-6.52 9.65-6.92 14.42l-.39 4.96a13.35 12.96-34.5 0 1-.65 3.23c-1.2 3.65-3.75 8.56-4.63 12.15q-1.57 6.37-1.11 12.51a.14.14 0 0 0 .27.02c2.09-7.56 7.04-15.44 11.22-21.97a8.92 8.81-23.2 0 0 1.22-3q1.1-5.55 1.32-8.47c.31-4.15 3.16-7.08 6.44-12.16a12.39 12.33 66.9 0 0 1.79-4.48c1.01-5.3 1.06-10.92 5.1-16.29a.48.47-72.4 0 0-.39-.76zm86.1 89.54c2.34-10.26 8.49-17.7 14.36-26.49 1.57-2.35 3.29-6.61.64-8.47a.74.74 0 0 0-.95.08q-8.02 7.97-13.38 14.42c-4.46 5.36-10.99 16.1-1.34 20.78a.48.47-70.2 0 0 .67-.32m11.81-8.49c1.44-4.16 3.97-7.07 7.94-13.13q2.04-3.11 2.54-6.88a1 1 0 0 0-1.79-.72c-4.25 5.72-17.78 27.34-11.45 33.53a1.8 1.8 0 0 0 2.44.06c2.27-2.01 3.55-5.99 4.71-8.77q1.15-2.76 3.13-6.03 4.57-7.59 7.5-13.97a.94.94 0 0 0-1.01-1.32l-.03.01a3.8 3.78-79.2 0 0-2.62 1.79q-4.07 6.82-7.33 13.11-1.24 2.4-2.82 3.31a.84.83-5.6 0 1-1.21-.99m60.18-17.51q-.12.39.2 1.38.64 1.91 2.82 5.4 4.64 7.39 6.87 12.4.51 1.13.22 1.8a1.51 1.29 29.8 0 1-2.13.4q-2.15-1.49-3.59-4.23-1.68-3.21-6.7-13.5-1.28-2.62-3.53-4.58a1.42 1.22 31.5 0 0-2.17.35q-.24.7.15 2 .66 2.21 1.72 4.26c4.19 8.15 8.54 16.43 10.32 25.1.81 3.93 2.18 5.91 6.17 5.76 2.95-.11 7.73-2.14 7.31-5.8-1.13-9.89-6.58-20.25-12.66-27.91q-1.81-2.29-4.17-3.23a.63.63 0 0 0-.83.4m-15.35.72a1.26 1.26 0 0 0-1.57 1.12c-.28 3.41 3.81 10.04 7.67 17.49 1.04 2 2.77 6.37 1.03 7.96a1.42 1.41-44.2 0 1-1.93-.02q-1.53-1.48-2.51-3.84-1.91-4.58-5.48-14.46-1.12-3.11-2.88-5.23a1.37 1.37 0 0 0-2.34.4c-.89 2.46.2 6.22.91 8.61q.33 1.1 6.17 18.75c.92 2.78 1.45 6.13 2.22 9.07a2.63 2.61 87.2 0 0 2.12 1.94c3.72.61 8.52-2.39 11.06-4.93q1.81-1.8.99-5.36-3.27-14.16-9.69-25.04c-1.51-2.56-3.67-5.91-5.77-6.46m-20.52 4.65a.86.85-7 0 0-1.3-1.01q-2.65 1.92-3.68 4.94-1.68 4.97-3.39 12.28-.29 1.24-.92 1.65a1.58 1.46 70.8 0 1-2.29-1.21q-.25-2.1.86-4.25 3.45-6.74 6.73-13.3a1.45 1.44 14.6 0 0-1.23-2.09l-.32.17a1.89 1.78 5.5 0 0-.49.38c-4.57 5.05-15.67 27.88-8.35 32.81 5.54 3.74 7.98-4.59 8.93-8.32 1.99-7.84 3.02-16.05 5.45-22.05m6.72 10.01q1.02 2.7 1.23 6.36.45 7.49.44 20.32a2.54 2.53-3.7 0 0 2.87 2.52l.17-.02a4.1 4.1 0 0 0 3.56-3.62q.54-4.87.13-8.2-1.61-13.26-6.97-26.72-.38-.96-.6-1.29a1.36 1.36 0 0 0-2.23-.04q-2.46 3.42-3.9 9.5-.35 1.53-5.08 24.32a1 1 0 0 0 .27.94q1.22 1.26 3.2 1.6a1.5 1.5 0 0 0 1.49-.64c2.84-4.28 2.26-10.3 2.81-19.29q.17-2.79 1.8-5.79a.45.45 0 0 1 .81.05m-39.89 36.95q4.21-5.34 10.04-12.38a2.7 2.7 48.9 0 0 .21-3.14c-1.98-3.18-5.84-4.74-9.33-5.87q-5.55-1.82-13.87-3.96a.65.64-70.9 0 0-.75.37c-3.74 8.99-7.33 19.89-7.25 29.62.09 11.79 14.56 10.34 22.13 9.7a.79.77 5.4 0 0 .68-.55c2.96-9.38 10.04-15.97 18.52-20.77a.34.34 0 0 0-.01-.59c-8.78-4.72-14.17 2.36-20.37 7.57m108.43 33.17q-2.61-4.5-7.75-8.3a1.76 1.75 14.9 0 1-.7-1.2q-.78-5.8-3.35-17.02-2.47-10.74-6.16-18.08a.7.7 0 0 0-.7-.37q-9.67 1.15-16.98 2.81c-3.59.82-8.29 2.69-8.91 6.83a1.99 1.9 39.6 0 0 .12 1.02q6.43 16.51 19.13 29.08a2.36 2.34 16.2 0 1 .63 1.14q1.68 7.56 5.85 14.35a.3.3 0 0 0 .51-.01l5.7-9.88a.77.76-72.9 0 1 .71-.38l11.44.75a.49.49 0 0 0 .46-.74m-99.99-19.26c22.57-1.66 46.79-2.23 58.52 21.11a.55.54-41.7 0 0 .94.05c6.24-9.43-1.59-26.39-6.71-34.8a2.33 2.32-25.4 0 0-2.76-.98q-6.12 2.17-12.36.71-8.73-2.04-16.84-5.46a1.37 1.34-45.8 0 0-1.14.03c-6.4 3.13-18.93 11.43-20.26 18.66a.57.57 0 0 0 .61.68m88.57 45.67c.29-2.17 1.42-17.22 7.19-12.8a.8.79-59.9 0 1 .24.94c-2.29 5.21-3.74 11.45-2.43 16.99a4.93 4.88-67 0 0 .56 1.41q8.1 13.73 16.26 24.42a5.96 5.86-.5 0 0 1.24 1.2q7.56 5.38 16.84 8.78a.84.83-51.6 0 0 .74-.09l2.76-1.81a1.5 1.5 0 0 0 .57-1.83q-2.29-5.5-2.85-10.5a2.16 2.12-67.6 0 0-.42-1.04c-3.71-4.85-9.86-9.07-15.02-12.3a2.55 2.52-78.8 0 1-1.17-1.77q-1.65-10.84-2.35-14.31-1.3-6.43-2.45-9-4.61-10.33-16.96-9.02a1.07 1.06-75.6 0 0-.77.46q-4.34 6.44-6.46 14.08a.59.57-56.3 0 0 .09.49l4.27 5.73a.07.07 0 0 0 .12-.03"/><path fill="#fff" d="M597.24 183.97q-.64.95-1.66 3.6-1.62 4.2-5.59 5.63a.64.64 0 0 1-.83-.75c.83-3.52 1.7-7.91 3.49-10.72q6.22-9.72 18.01-5.36c5.61 2.08 11.75 7.2 10.24 13.77a.34.34 0 0 1-.6.13q-.37-.46-1.31-1.75c-2.83-3.84-11.14-7.37-14.64-2.23a.77.77 0 0 1-1.4-.51l.3-2.87a.3.3 0 0 0-.17-.27h-.01a.24.24-76.6 0 0-.27.17c-.68 2.57-2.25 6.05-5.03 6.59a.92.92 0 0 1-1.08-1.03l.61-4.38a.03.03 0 0 0-.06-.02m56.44 1.56 2.02 7.23a.81.81 0 0 1-1.15.94l-.26-.13a4.7 4.7.9 0 1-2.29-2.36c-1.23-2.84-2.79-7.21-5.6-8.05a.35.35 0 0 0-.36.57q2.66 2.86 3.65 5.82a.7.69 2.8 0 1-.95.85q-3.11-1.4-6.72-3.98c-3.19-2.3-11.78 1.11-15.33 2.72a.21.21 0 0 1-.26-.32q6.44-8.73 16.11-12.33c11.24-4.17 16.49 8.6 20 16.54a.66.65-22.1 0 1-.38.89c-5.19 1.76-6.54-5.25-8.22-8.5a.14.14 0 0 0-.26.11m118.28 2.73c-4.19.61-11.5 2.64-14.44-1.37a.57.57 67.9 0 1 .37-.89q21.28-3.13 41.96-9.47a.4.39 89.7 0 1 .49.49c-5 16.92-27.92 19.58-42.53 20.24a.44.43 8.9 0 1-.43-.58c1.54-4.09 10.79-6.47 14.75-7.68a.38.38 0 0 0-.17-.74m-278.85-.92c4.62 1.46 12.42 3.52 14.4 7.66a.4.4 0 0 1-.38.56c-11.33-.79-26.15-5.62-32.3-16.21a.36.36 0 0 1 .44-.52q3.37 1.26 8.26 2.37 10.92 2.47 23.28 4.04a.6.6 0 0 1 .5.73c-1.09 4.4-11.57 1.19-14.12.95a.22.21 56.2 0 0-.08.42"/><path fill="#fff" d="M515.34 191.01q-1.06.19 6.57 1.34 4.57.68 6.36 5.31a.3.3 0 0 1-.31.42q-3.58-.32-11.19-1.57-6.08-.99-9.58-5.92a.65.65 0 0 1 .01-.77c4.22-5.44 11.84-3.53 19.28-2.57a1.02 1.02 0 0 1 .75 1.52l-.42.73a3.5 3.5-74 0 1-3.14 1.74l-7.82-.26a2.74 2.39 37.7 0 0-.51.03m228.03.75q-2.09 0-4.04.6a4.7 4.67 60.4 0 1-4.88-1.36l-.76-.84a1.26 1.25 65.7 0 1 .78-2.08q6.18-.78 12.77-1.09c3.62-.18 9.03-.04 10.65 3.78a1.02 1.01-37.3 0 1-.15 1.04q-3.63 4.49-8.14 5.59-7.52 1.85-17.2 2.48a.26.26 0 0 1-.25-.37q3.37-6.52 9.24-4.88 1.63.46 2.7-.15a1.46 1.45 30.2 0 0-.72-2.72"/><path fill="#fff" d="M538.7 193.73a.16.15-75.9 0 0-.18.11.2.2-76.4 0 0 .14.24c4.79 1.44 10.17 2.79 12.56 7.02a.34.34 0 0 1-.36.5q-5.29-1.11-12.01-2.2c-4.11-.66-9.09-2.54-11.12-6.67a1.54 1.53-31.1 0 1 .48-1.91c6.83-5 24.11 2.19 30.71 5.92 8.45 4.76 12.96 14.86 15.81 23.78q2.76 8.65 5.66 18.61.54 1.87 2.65 4.06a1.74 1.74 0 0 1-.3 2.67l-.28.19a2.79 2.77-40.2 0 1-3.41-.28q-1.99-1.83-2.59-3.7-5.68-17.72-9.14-25.64-8.17-18.69-28.62-22.7m180.94 1.94a.31.3-10.7 0 0 .24-.35v-.01a.2.2 0 0 0-.24-.18q-17.16 1.91-27.34 15.16c-6.65 8.67-11.97 22.43-15.56 29.68q-2.64 5.34-7.5 10.93a5.48 5.46-72.5 0 1-3.54 1.85l-2.02.23a1.24 1.24 0 0 1-1.09-2.02q4.67-5.62 7.9-11.99 9.54-18.81 13.24-25.49c3.9-7.05 9.08-14.8 16.64-18.2 6.73-3.02 27.34-9.68 32.64-2.5a.92.91-49.9 0 1 .08.95c-2.51 5.01-8.83 6.96-13.88 7.7q-8.14 1.2-14.45 2.34a.28.28 0 0 1-.3-.41c2.59-4.68 10.31-6.61 15.18-7.69"/><path fill="#003c84" d="M637.61 216.5a.62.62 0 0 1-.73.81l-3.77-.87a2.32 2.3-2.7 0 1-1.68-1.52c-1.49-4.45-3.12-11.31-6.53-14.62a.88.88 0 0 0-1.49.52q-.16 1.27.43 2.58c2.29 5.03 3.81 7.67 3.79 11.82a.5.5 0 0 1-.55.5q-8.56-.85-17.12.3a.51.5-87.5 0 1-.56-.62q3.02-13.38 13.68-21.72a.65.65 0 0 1 .87.06c6.26 6.4 10.66 14.3 13.66 22.76"/><path fill="#fff" d="M509.53 203.46q1.2.31 9.02 1.45 4.84.71 7.01 4.72a.26.26 0 0 1-.22.39c-13.42.26-24.58-2.81-33.43-13.36a.12.12 0 0 1 .11-.2l29.58 4.11a.87.87 0 0 1 .56 1.41l-.15.21a3.62 3.59 19.4 0 1-3.17 1.5l-9.25-.61a.19.19 0 0 0-.06.38m245.11 2.29a.23.23 0 0 0 .19-.26.13.11 69.7 0 0-.1-.06l-11.81.59a3.37 3.34 67.2 0 1-2.68-1.11l-.59-.66a1 1 0 0 1 .63-1.66l39.65-4.34a.12.12 0 0 1 .1.21c-11.57 11.77-28.07 15-44.03 14.45a.41.41 0 0 1-.32-.63q2.7-4.1 8.08-4.79 4.58-.58 10.88-1.74"/><path fill="#fff" d="M533.97 205.51a.37.36-84.4 0 0-.39.33.22.21-85.8 0 0 .19.23c3.21.35 7.1 1.37 8.05 4.45a.5.5 0 0 1-.48.65c-7.01-.03-13.87-.73-18.04-6a.7.7 0 0 1-.01-.87c3.3-4.25 9.85-3.44 14.89-2.57a.6.6 0 0 1 .48.72q-.79 3.35-4.69 3.06"/><path fill="#fff" d="M551.02 207.16c4.57.7 9.08.57 11.43 5.2a.42.42 0 0 1-.38.61q-10.77-.28-16.75-2.24-2.52-.83-5.28-4.03a.8.8 39 0 1-.1-.9c1.49-2.77 3.12-3.6 6.4-3.5q4.3.13 9.9 1.36a.9.9 0 0 1 .6 1.31c-1.17 2.16-3 1.78-5.8 1.87a.16.16 0 0 0-.02.32m174.55 1.25-3.57-.82a1.4 1.31 65.3 0 1-.27-.11q-1.78-.98-2.1-3.02a.48.47 82.3 0 1 .41-.54c5.95-.78 13.88-2 18.22 2.74a.75.74-45.9 0 1 .01 1c-5.23 5.92-14.27 6.7-21.84 6.56a.74.73 20.2 0 1-.56-1.2q3.5-4.24 9.65-4.19a.21.21 0 0 0 .05-.42"/><path fill="#fff" d="M705.36 209.74q-.9-.13-2.44-.02a3.5 3.5 0 0 1-3.12-1.5l-.03-.04a1.32 1.32 0 0 1 .87-2.05q7.8-1.32 11.92-1.42 3.91-.1 5.6 3.94a.9.9 0 0 1-.11.86q-3.44 4.45-9.11 5.43-7.79 1.34-15.8 1.5a.4.4 0 0 1-.37-.56c2.38-5.24 7.59-5.1 12.59-5.92a.11.11 0 0 0 0-.22m-180.03 8.02c3.79 1.01 7.5.99 10.62 4.45a.4.39 68.3 0 1-.28.66q-5.52.17-10.16-.34c-5.91-.64-10.12-5.06-14.4-9.98a.48.48 0 0 1 .44-.79q10.67 1.77 19.35 1.83a.74.74 0 0 1 .57 1.2q-2.07 2.59-6.07 2.49a.24.24 0 0 0-.07.48m15.43.47c3.56.92 6.96 1.03 8.91 4.65a.32.32 0 0 1-.28.47c-5.74.04-12.54-.12-15.72-5.77a1.48 1.46-54.8 0 1-.17-1.03q.58-3.06 3.72-3.09 3.42-.02 7.34.59a.51.5 5.2 0 1 .43.51c-.06 2.84-2.09 2.93-4.23 3.37a.16.15 45.5 0 0 0 .3"/><path fill="#fff" d="m555.92 219.11 5.42.76a6.16 6.14-16.9 0 1 3.73 1.98l1.38 1.54a1.09 1.09 0 0 1-.9 1.82q-8.32-.67-12.5-1.97-2.14-.66-6.38-4.6a.9.88-60 0 1-.24-.92q.9-2.78 4.39-2.92 5.12-.22 12.18.57a.53.53 0 0 1 .45.68c-.93 3.21-4.39 2.66-7.51 2.77a.15.15-41.5 0 0-.02.29m180.19 2.12-4.53-.63a2.3 2.3 0 0 1-1.14-.5l-1.9-1.56a.91.9-25.1 0 1 .58-1.6q14.35.01 28.45-1.86a.16.15 13.4 0 1 .15.24q-6 8.86-15.9 10.94-5.33 1.13-18.69.91a.3.3 0 0 1-.22-.5q3.24-3.59 8.43-4.32 4.08-.58 4.78-.74a.19.19 0 0 0-.01-.38m-18.69.27q-4.63.65-5.77-3.25a.59.58 76.5 0 1 .45-.74q6.37-1.19 10.99-.38 1.98.35 2.57 3.24a1.08 1.05 55.2 0 1-.13.78c-3.79 6.4-12.09 6.42-18.96 6.52a.44.44 0 0 1-.39-.64c1.92-3.67 7.29-4.51 11.24-5.02a.16.15-9.7 0 0 .14-.19l-.06-.26a.1.1 0 0 0-.08-.06"/><path fill="#fff" d="M698.56 222.61c-2.89.28-7.69.5-9.01-2.63a.84.84 0 0 1 .71-1.16q7.54-.58 12.24-.63 3.18-.04 6.08 1.17a2.13 2.13 0 0 1 .71 3.45c-6.01 6.21-15.57 6.6-23.73 6.72a.25.25 0 0 1-.24-.34q1.27-3.43 4.46-4.63 3.2-1.19 8.89-1.53a.2.2 0 0 0 .16-.19.25.24 84.4 0 0-.27-.23m-83.07 2.47a.49.49 0 0 1-.18.86q-2.79.68-3.58 1.83a.84.84 0 0 0 1 1.26q.35-.14 3.03.01a.71.7 89 0 1 .66.65q.18 2.3.19 3.78c.01 3.67 2.38 3.27 4.92 3.28q1.44.01 2.49-.38a1.05 1.04 36.6 0 0-.3-2.02l-4.04-.26a.66.66 0 0 1-.62-.64l-.27-9.47a1.64 1.64 0 0 0-1.53-1.59l-5.99-.39a1.01 1 78.2 0 1-.82-.54l-.13-.26a.66.66 0 0 1 .49-.95c8.21-1.15 17.49-1.52 25.63.83a.7.69-80.3 0 1 .5.72l-.29 4.48a.8.8 0 0 0 .44.8q3.29 1.76 1.01 5.24-4.36 6.64-7.61 10.41-3.46 4.03-8.47 6.28a1.2 1.19-44.1 0 1-1.01-.01c-7.68-3.63-11.67-12.8-11.54-20.99.05-3.47 3.6-4.77 6.02-2.93m10.7.21q1.1-1.45 6.35-1.56a.74.73.8 0 0 .72-.69l.03-.4a.84.84 0 0 0-.75-.89q-4.06-.45-8.44.67a.9.9 0 0 0-.69.83l-.32 4.93a.53.53 0 0 0 .49.57l6.75.44a.6.6 0 0 0 .61-.61c-.13-2.19-2.57-2.48-4.46-2.64a.41.41 0 0 1-.29-.65m-1.16 14.3-6.77-.24a.36.36 0 0 0-.37.35l-.03.69a2.74 2.73 2 0 0 2.64 2.82l2.02.07a2.74 2.73 2 0 0 2.84-2.63l.02-.69a.36.36 0 0 0-.35-.37"/><path fill="#1a1a1a" d="M626.19 225.29a.41.41 0 0 0 .29.65c1.89.16 4.33.45 4.46 2.64a.6.6 0 0 1-.61.61l-6.75-.44a.53.53 0 0 1-.49-.57l.32-4.93a.9.9 0 0 1 .69-.83q4.38-1.12 8.44-.67a.84.84 0 0 1 .75.89l-.03.4a.74.73.8 0 1-.72.69q-5.25.11-6.35 1.56"/><path fill="#fff" d="M535.65 229.17q.05.04 2.65.51 3.68.67 5.6 3.82a.38.38 0 0 1-.35.58l-8.33-.55a8.03 8 70.9 0 1-5.46-2.66l-2.96-3.29a1.29 1.29 0 0 1 1.2-2.12q4.18.78 11.7.7a1.08 1.08 0 0 1 .18 2.14l-4.16.66a.13.12 64.3 0 0-.07.21m14.15.74c3.15.84 5.46 1.48 6.18 4.66a.5.5 0 0 1-.5.59c-5.42-.2-10.11-.56-13.19-5.74q-.48-.83.08-1.59c1.72-2.33 7.43-1.45 10.34-1.2a.44.44 0 0 1 .36.63q-.88 1.88-3.25 2.28a.19.19 0 0 0-.02.37m14.18 1.48 4.59.88a2.31 2.27 74 0 1 1.31.74l1.95 2.17a.8.8 0 0 1-.63 1.33c-6.82-.31-13.75-1.13-16.56-6a1 1 0 0 1-.02-.89c1.69-3.44 10.4-2.16 13.85-1.86a.71.7-88.2 0 1 .65.7c.01 2.68-2.8 2.91-4.97 2.55a.22.21 69.5 0 0-.17.38m159.05 2.2q-3.08.37-5.23-.75a1.09 1.08 58 0 1 .47-2.05l17.7-.5a.33.33 0 0 1 .3.49c-4.72 8.37-13.8 9.01-22.63 8.34a.38.38 0 0 1-.28-.6c2.38-3.23 5.83-3.95 9.74-4.48a.22.21-7.9 0 0 .19-.24v-.01a.23.23 0 0 0-.26-.2m-15.62.74c-2.27-.06-4.29-.49-5.26-2.47a.52.51 76 0 1 .44-.74c3.7-.17 9.19-.97 12.39 1.16a1.55 1.54 34.8 0 1 .4 2.18c-3.61 5.04-9.84 5.53-15.3 5.67a1.09 1.09 0 0 1-.86-1.79l.71-.86a5.85 5.82-76.3 0 1 3.27-2l4.23-.91a.12.12 0 0 0-.02-.24"/><path fill="#fff" d="m689.09 235.81-3.55.1a2.72 2.71 82 0 1-2.7-2.04l-.18-.71a.7.7 0 0 1 .8-.87q.59.1 7.28-.34 4.72-.32 8.09.89a2.1 2.1 0 0 1 .83 3.38c-4.77 5.2-13.09 5.43-20.55 5.71a.28.28 0 0 1-.26-.41c2.48-4.6 6.07-4.14 10.28-5.46a.13.13 0 0 0-.04-.25m-145.75 4.29c2.96 1.11 5.08 1.65 6.8 4.3a.42.42 0 0 1-.32.64q-5.41.33-9.9-1.17a7.3 7.3-7.5 0 1-3.83-2.94l-2.17-3.32a1.11 1.11 0 0 1 1.4-1.61q2.44 1.15 10.41 1.14a.87.87 0 0 1 .49 1.58q-1.4.95-2.79.94a.23.23 0 0 0-.09.44m12.2.15a.18.18 0 0 0-.01.35c3.01.68 5.21 1.21 6 4.2a.47.47-7.1 0 1-.45.57c-5.13-.01-9.58-.19-12.67-4.98q-.48-.77.02-1.51c1.55-2.26 6.98-1.62 9.74-1.48a.42.42 0 0 1 .36.58q-.77 1.81-2.99 2.27m19.25 6.31q-1.53.12-3.93-.2c-4.59-.62-7.68-.83-10.31-5.24a1.18 1.15 38.6 0 1-.12-.94q.72-2.47 3.6-2.47 5.34 0 8.45.42a.47.47 0 0 1 .38.61q-.84 2.48-4.04 2.37a.2.2 0 0 0-.18.16l-.02.29a.2.2-88.4 0 0 .17.19q4.83.22 6.36 4.26a.4.4 0 0 1-.36.55"/><path fill="#1a1a1a" d="M625.03 239.59a.36.36 0 0 1 .35.37l-.02.69a2.74 2.73 2 0 1-2.84 2.63l-2.02-.07a2.74 2.73 2 0 1-2.64-2.82l.03-.69a.36.36 0 0 1 .37-.35z"/><path fill="#fff" d="M713.58 245.39q-.22-.11-1.57-.2a2.27 2.24 79.1 0 1-1.88-1.29l-.11-.23a.8.8 0 0 1 .75-1.12q8.2.33 15.58-1.11a.49.48 3.9 0 1 .55.63c-2.92 8.67-13.27 9.78-21.24 9.07a.37.37 0 0 1-.26-.59q2.61-3.36 8.11-4.58a.31.31 0 0 0 .07-.58m-15.22.88q-2.06-.7-2.88-2.38a.53.53 0 0 1 .48-.76h9.62a2.17 2.17 0 0 1 1.86 3.29c-3.1 5.13-9.93 5.54-15.37 5.43a.43.43 0 0 1-.41-.55c.9-3.32 3.5-4.08 6.64-4.45a.3.3 0 0 0 .06-.58m-15.48.67q-1.23-.25-2.9-.08a2.45 2.42-27.6 0 1-1.8-.55l-.9-.75a.66.66 0 0 1 .37-1.17q6.13-.48 11.82-.66 2.56-.08 3.61 2.02a1.06 1.04 46.6 0 1-.02 1c-1.32 2.33-2.69 4.33-5.88 3.91-3.95-.52-7.54-1.32-11.34-.36a.27.27 0 0 1-.29-.41c1.26-1.88 5.19-2.27 7.33-2.67a.14.14 0 0 0 0-.28m-49.11-2.25-1.76 17.22a.62.61-86.9 0 1-.61.55h-19.63a.65.65 0 0 1-.65-.63q-.21-7.45 2.13-13.75a.45.45 0 0 1 .74-.17q3.48 3.28 6.71 4.65a1.53 1.47-41.5 0 0 1.01.04c4.77-1.49 8.01-4.65 11.49-8.18a.33.33 0 0 1 .57.27"/><path fill="#003c84" d="M500.13 251a.5.5 0 0 1-.51-.59q.49-2.83 2.2-4.35c1.76-1.58 5.02-1.51 5.47 1.23q.18 1.09.36 2.76a.7.7 0 0 1-.67.76z"/><path fill="#fff" d="m496.18 261.65 2.49-6.94a.43.42-80.5 0 1 .38-.28c20.67-.84 40.37-7.14 60.45-4.32a1.35 1.35 0 0 1 1.15 1.52c-.64 4.67-1.55 8.01-.76 10.66a.7.7 0 0 1-.52.88q-4.24.93-9.32.97-2.82.02-8.55-1.32-9.7-2.27-16.78-1.9-12.74.65-28.36.98a.19.18 9.4 0 1-.18-.25"/><path fill="#003c84" d="M582.43 270.86a1.24 1.24 0 0 1-1.31 1.42l-14.79-.96a.67.65 82.6 0 1-.58-.46c-.76-2.44-.82-5.42 2.77-5.17l6.57.46a1.84 1.84 0 0 0 1.94-1.56l.01-.06a1.5 1.5 0 0 0-1.52-1.73q-4.35.09-7.95 0c-2.45-.06-3.07-1.79-2.07-3.78q1.18-2.33 4.48-2.1 4.93.33 7.57.35a2.6 2.59 13.8 0 0 2.32-1.4l.09-.18a1 1 0 0 0-.89-1.44c-3.46.05-8.52 1.02-11.47-.17a1.55 1.55 0 0 1-.35-2.68c3.98-2.97 14.29-2.27 18.88-1.41a.92.91-76.2 0 1 .7 1.16q-3.59 11.84-3.81 12.61-1.09 3.81-.59 7.1m56.48 3.15a.34.34 0 0 1-.56-.08c-3.13-6.24-1.52-14.81-.08-21.88a2.74 2.73-82.3 0 1 2.86-2.19l1.22.08a2.93 2.93 0 0 1 2.73 3.11l-.73 11.06a6.27 5.98-36.5 0 1-.24 1.38q-1.21 4.03-5.2 8.52m-31.51-20.92c.15.81-.49 1.87-.62 2.82q-1.1 8.25-1.21 17.72a3.6 3.6 1.9 0 1-3.79 3.54l-.25-.01a3.79 3.78 1.8 0 1-3.58-3.81q.07-9.58 3.24-18.37c1.04-2.87 2.81-3.46 5.53-2.65a1.01.98-87.7 0 1 .68.76m-9.67 2.54c-2.64 4.69-3.07 10.75-3.28 16.28q-.12 3.18-.87 4.05c-1.56 1.8-5.48 1.95-6.14-.94-1.69-7.49-.41-11.71 2.64-20.41a3.56 3.55-77.4 0 1 3.71-2.36l2.32.24a2.1 2.1 0 0 1 1.62 3.14m50.47 6.08.86-8.37a1.05 1.04-2.2 0 1 .86-.92q5.25-.95 9.31 2.32a.73.73 0 0 1-.21 1.26q-6.02 2.17-10.42 5.92a.24.24 0 0 1-.4-.21"/><path fill="#fff" d="M701.43 256.32q-3.99-.32-6.39-.95-.62-.16-1.23-.9a.23.23 0 0 1 .17-.37l21.23-.6a.16.16 0 0 1 .13.26q-5.83 7.48-15.68 7.39a1.01 1 72.8 0 1-.83-.44q-.3-.44-.47-1.16a1.74 1.74 0 0 1 1.92-2.13q1.13.14 1.28.1a.62.61 39 0 0-.13-1.2"/><path fill="#fb4230" d="M686.68 256.79q8.19 3.52 8.86 13.97c1.25 19.15-5.66 38.16-19.49 51.27-7.95 7.55-19.55 11.62-30.14 8.58q-6.34-1.82-8.12-8.32-7.38-27.07 8-48.01 10.68-14.54 29.71-18.39 6.19-1.24 11.18.9m-14.95 6a.16.16 0 0 0-.16-.28q-21.44 7.69-27.56 29.48-4.51 16.09 1.71 31.29a.34.34 0 0 0 .65-.14c-.94-23.13 6.62-46 25.36-60.35"/><path fill="#1a1a1a" d="M671.73 262.79c-18.74 14.35-26.3 37.22-25.36 60.35a.34.34 0 0 1-.65.14q-6.22-15.2-1.71-31.29 6.12-21.79 27.56-29.48a.16.16 0 0 1 .16.28"/><path fill="#003c84" d="M482.7 270.11a.27.27 0 0 1-.28-.4l1.73-3a1.55 1.53 10.5 0 1 1.11-.75q6.67-.98 8.27-.79 9.21 1.09 18.16.17a.4.4 0 0 1 .39.6l-2.1 3.64a1.2 1.2 0 0 1-1.16.56q-13.58-1.99-26.12-.03m126.05 33.71a.22.22 0 0 0-.16-.4l-10.44 2.26a.45.45 0 0 1-.54-.39l-.92-8.41a1.07 1.07 0 0 1 .95-1.18q7.82-.77 11.29-1.3 5.49-.84 9.22-4.53a.32.32 0 0 0-.19-.54q-1.64-.21-2.22-.14-6.81.91-12.19.96-7.24.08-10.45-5.99a2.12 2.01-61.9 0 1-.25-.91q-.14-3.58 3.9-3.56 10.12.04 11.6.03a2.3 2.3 0 0 0 2.28-2.36l-.17-6.27a1.9 1.9 0 0 1 1.85-1.96l18.92-.53a.83.83 0 0 1 .85.74c.34 3.17 1.08 7.3 2.88 9.66q.4.52.51.89a1.56 1.53-42.8 0 1-.05 1.01c-6.27 15.56-6.01 32.39-.89 48.52a1.33 1.32-26.1 0 1-.52 1.51c-6.66 4.56-14.27 3.87-21.78 2.01-8.52-2.11-18.02-8.4-13.65-18.68 2.05-4.81 5.73-7.68 10.17-10.44m8.29 15.41 1.49-2.42a.9.9 0 0 0-.29-1.24l-.46-.28a3.07 2.21 31.6 0 0-3.77.28l-.11.18a3.07 2.21 31.6 0 0 1.45 3.5l.45.27a.9.9 0 0 0 1.24-.29"/><path fill="#fb4230" d="M498.55 273.81c-4.04 5.37-4.09 10.99-5.1 16.29a12.39 12.33 66.9 0 1-1.79 4.48c-3.28 5.08-6.13 8.01-6.44 12.16q-.22 2.92-1.32 8.47a8.92 8.81-23.2 0 1-1.22 3c-4.18 6.53-9.13 14.41-11.22 21.97a.14.14 0 0 1-.27-.02q-.46-6.14 1.11-12.51c.88-3.59 3.43-8.5 4.63-12.15a13.35 12.96-34.5 0 0 .65-3.23l.39-4.96c.4-4.77 3.33-8.42 6.92-14.42a12.62 12.54-25.2 0 0 1.63-4.49c.97-6.26 1.32-9.36 2.97-14a1.73 1.72-80.8 0 1 1.58-1.15l7.09-.2a.48.47-72.4 0 1 .39.76"/><path fill="#1a1a1a" d="M617.04 319.23a.9.9 0 0 1-1.24.29l-.45-.27a3.07 2.21 31.6 0 1-1.45-3.5l.11-.18a3.07 2.21 31.6 0 1 3.77-.28l.46.28a.9.9 0 0 1 .29 1.24z"/><path fill="#003c84" d="M577.17 362.79a.48.47-70.2 0 1-.67.32c-9.65-4.68-3.12-15.42 1.34-20.78q5.36-6.45 13.38-14.42a.74.74 0 0 1 .95-.08c2.65 1.86.93 6.12-.64 8.47-5.87 8.79-12.02 16.23-14.36 26.49m11.81-8.49a.84.83-5.6 0 0 1.21.99q1.58-.91 2.82-3.31 3.26-6.29 7.33-13.11a3.8 3.78-79.2 0 1 2.62-1.79l.03-.01a.94.94 0 0 1 1.01 1.32q-2.93 6.38-7.5 13.97-1.98 3.27-3.13 6.03c-1.16 2.78-2.44 6.76-4.71 8.77a1.8 1.8 0 0 1-2.44-.06c-6.33-6.19 7.2-27.81 11.45-33.53a1 1 0 0 1 1.79.72q-.5 3.77-2.54 6.88c-3.97 6.06-6.5 8.97-7.94 13.13m60.18-17.51a.63.63 0 0 1 .83-.4q2.36.94 4.17 3.23c6.08 7.66 11.53 18.02 12.66 27.91.42 3.66-4.36 5.69-7.31 5.8-3.99.15-5.36-1.83-6.17-5.76-1.78-8.67-6.13-16.95-10.32-25.1q-1.06-2.05-1.72-4.26-.39-1.3-.15-2a1.42 1.22 31.5 0 1 2.17-.35q2.25 1.96 3.53 4.58 5.02 10.29 6.7 13.5 1.44 2.74 3.59 4.23a1.51 1.29 29.8 0 0 2.13-.4q.29-.67-.22-1.8-2.23-5.01-6.87-12.4-2.18-3.49-2.82-5.4-.32-.99-.2-1.38m-15.35.72c2.1.55 4.26 3.9 5.77 6.46q6.42 10.88 9.69 25.04.82 3.56-.99 5.36c-2.54 2.54-7.34 5.54-11.06 4.93a2.63 2.61 87.2 0 1-2.12-1.94c-.77-2.94-1.3-6.29-2.22-9.07q-5.84-17.65-6.17-18.75c-.71-2.39-1.8-6.15-.91-8.61a1.37 1.37 0 0 1 2.34-.4q1.76 2.12 2.88 5.23 3.57 9.88 5.48 14.46.98 2.36 2.51 3.84a1.42 1.41-44.2 0 0 1.93.02c1.74-1.59.01-5.96-1.03-7.96-3.86-7.45-7.95-14.08-7.67-17.49a1.26 1.26 0 0 1 1.57-1.12m-20.52 4.65c-2.43 6-3.46 14.21-5.45 22.05-.95 3.73-3.39 12.06-8.93 8.32-7.32-4.93 3.78-27.76 8.35-32.81a1.89 1.78 5.5 0 1 .49-.38l.32-.17a1.45 1.44 14.6 0 1 1.23 2.09q-3.28 6.56-6.73 13.3-1.11 2.15-.86 4.25a1.58 1.46 70.8 0 0 2.29 1.21q.63-.41.92-1.65 1.71-7.31 3.39-12.28 1.03-3.02 3.68-4.94a.86.85-7 0 1 1.3 1.01m6.72 10.01a.45.45 0 0 0-.81-.05q-1.63 3-1.8 5.79c-.55 8.99.03 15.01-2.81 19.29a1.5 1.5 0 0 1-1.49.64q-1.98-.34-3.2-1.6a1 1 0 0 1-.27-.94q4.73-22.79 5.08-24.32 1.44-6.08 3.9-9.5a1.36 1.36 0 0 1 2.23.04q.22.33.6 1.29 5.36 13.46 6.97 26.72.41 3.33-.13 8.2a4.1 4.1 0 0 1-3.56 3.62l-.17.02a2.54 2.53-3.7 0 1-2.87-2.52q.01-12.83-.44-20.32-.21-3.66-1.23-6.36"/><path fill="#fff" d="M580.12 389.12c6.2-5.21 11.59-12.29 20.37-7.57a.34.34 0 0 1 .01.59c-8.48 4.8-15.56 11.39-18.52 20.77a.79.77 5.4 0 1-.68.55c-7.57.64-22.04 2.09-22.13-9.7-.08-9.73 3.51-20.63 7.25-29.62a.65.64-70.9 0 1 .75-.37q8.32 2.14 13.87 3.96c3.49 1.13 7.35 2.69 9.33 5.87a2.7 2.7 48.9 0 1-.21 3.14q-5.83 7.04-10.04 12.38m107.97 33.91-11.44-.75a.77.76-72.9 0 0-.71.38l-5.7 9.88a.3.3 0 0 1-.51.01q-4.17-6.79-5.85-14.35a2.36 2.34 16.2 0 0-.63-1.14q-12.7-12.57-19.13-29.08a1.99 1.9 39.6 0 1-.12-1.02c.62-4.14 5.32-6.01 8.91-6.83q7.31-1.66 16.98-2.81a.7.7 0 0 1 .7.37q3.69 7.34 6.16 18.08 2.57 11.22 3.35 17.02a1.76 1.75 14.9 0 0 .7 1.2q5.14 3.8 7.75 8.3a.49.49 0 0 1-.46.74"/><path fill="#003c84" d="M587.95 402.35c1.33-7.23 13.86-15.53 20.26-18.66a1.37 1.34-45.8 0 1 1.14-.03q8.11 3.42 16.84 5.46 6.24 1.46 12.36-.71a2.33 2.32-25.4 0 1 2.76.98c5.12 8.41 12.95 25.37 6.71 34.8a.55.54-41.7 0 1-.94-.05c-11.73-23.34-35.95-22.77-58.52-21.11a.57.57 0 0 1-.61-.68"/><path fill="#1a1a1a" d="M549.34 553.27q8.24-8.49 13.31-11.39 18.41-10.52 23.07-12.89 7.11-3.61 13.78-4.71a1.1 1.1 0 0 1 1.25 1.03l.14 5.03a1.45 1.43 25.6 0 0 .31.86q2.46 3.08 6.34 2.33a.6.6 0 0 0 .07-1.16q-1.55-.49-2.93-1.73a3.18 3.16-62.6 0 1-.96-3.05l1.14-4.93a1.42 1.39 77.6 0 1 .48-.77q3.09-2.47 7.72-2.46a.8.79 81.6 0 1 .76.57c1.39 4.66 6.35 4.95 10.53 4.32a1.15 1.14-27.7 0 1 .97.3c1.12 1.07 2.39 2.89 3.86 3.45q2.65 1 6.46.04a1 1 0 0 0 .72-.72q.2-.8 1.1-.73c2.34.18 3.94-1.38 3.08-3.75a.44.44 0 0 1 .45-.59c2.44.19 5.6-2.24 3.28-4.86a.49.48-36.9 0 1 .11-.74q.36-.23.76-.39 3.93-1.58 1.96-5.04a.73.72 54.2 0 1 .14-.9q2.18-2.05-.04-4.58a1.32 1.3-60.7 0 1-.3-1.09q.39-2.26-1.72-3.94a.95.94 28.1 0 1-.31-1c.91-2.99-3.31-5.38-5.34-6.68a1.2 1.2 0 0 1-.52-.96c.05-4.13 1.32-7.2-.74-10.85a1.59 1.59 0 0 0-2.93.42l-.86 3.74a1.63 1.63 21.5 0 1-2.4 1.04c-5.42-3.12-3.63-10.04-7.02-14.58a.64.63-33.7 0 0-.84-.16q-2.29 1.39-1.36 4.45 1.18 3.86 1.17 5.56a.93.92 2.6 0 1-1 .91c-4.44-.35-11.36-1.06-13.19 4.23a1.4 1.4 0 0 1-.77.84q-3.48 1.56-5.7 1.92-6.55 1.07-11.72 3.56a.31.31 0 0 0-.04.54q3.19 2.15 3.81 5.74a1 1 0 0 1-.51 1.04l-9.72 5.01a2.34 2.34 70.9 0 0-1.22 2.53c1.2 5.92 7.61 8.36 13.13 10.38a.44.44 0 0 1 .22.66c-5.97 8.67-17.61 6.33-25.49 7.11q-5.14.52-10.53-.47c-7.14-1.32-13.62-3.34-19.31-6.8a1.3 1.3 0 0 1-.55-.79c-3.02-15.24-11.14-35.49-28.28-39.12q-5.23-1.11-11.41-1.29-13.07-.37-26.27.91-24.28 2.36-36.58 3.26a.18.18 0 0 0-.03.36c14.93 3.77 27.9 2.2 46.13 1.29q13.07-.64 25.26 1.78a.16.16 0 0 1 0 .31q-18.14 2.66-32.81 15.11a.17.17 0 0 0 .14.3q2.83-.5 4.69-1.29 5.68-2.41 15.99-7.01c12.26-5.46 24.94-6.54 31.08 7.87a.23.23 0 0 1-.21.32q-1.92 0-3.6-.19c-3.93-.44-8.22.96-11.68 2.6q-7.46 3.52-14.6 8.11a.24.24 36.1 0 0 .07.42q.66.18 1.43-.13c10.1-4 17.46-7.75 25.75-7.44 8.63.31 11.43 8.03 11.16 15.53a.6.6 0 0 1-.58.59c-6.21.26-11.72 5.06-13.53 10.71a.2.2 0 0 0 .32.21c7.3-6.71 14.75-7.29 24.09-5.57q9.81 1.81 20.95 5.34a1.34 1.34 0 0 1 .63 2.12q-1.94 2.36-4.7 4.33-7.5 5.34-12.7 10.05-1.76 1.59-3.02 4.86-.24.52-.59.14c-7.87-8.75-17.67-10.21-29.02-9.47a1.21 1.2-26.2 0 1-.86-.29q-11.34-9.63-26.52-10.42a.9.9 0 0 1-.71-.41c-6.57-10.39-17.77-14.17-29.82-14.59a.9.9 0 0 1-.73-.48q-2.9-5.94-7.61-10.74-13.14-13.4-28.88-23.34-2.83-1.79-4.15-2.83a.24.24 0 0 1 .16-.43c17.56.61 30.48-2.5 52.78-6.24 16.45-2.76 32.99-3.22 48.94 1.87q6.15 1.97 9.59 5.14c9.48 8.71 13.4 22.36 17.21 34.31a1.42 1.41-87.8 0 0 .82.89q13.55 5.49 28.92 5.94a.47.47 0 0 0 .47-.57c-.74-3.31-3.23-5.73-6.28-7.05a1.04 1.04 0 0 1-.62-1.09q1.81-14.18-9.38-19.69a.79.78-71.8 0 1-.42-.85c1.83-9.79 3.62-21.77-5.74-28.55a1.5 1.5 0 0 1-.63-1.37q.22-2.82 1.98-19.61 1.04-9.92-4.31-19.6a.39.38-7.7 0 1 .43-.56l.94.21a1.95 1.92-7.2 0 1 1.27.97c6.82 12.64 20.09 20.65 33.15 26.43q15.31 6.78 25.52 11.21c16.08 6.99 33.64 18.02 37.69 36.1q2.54 11.32.23 22.34a.3.3 0 0 0 .44.32c9.47-5.27 23.96-4.7 34.35-3.16a.8.8 0 0 0 .81-.41q3.79-7.12 11.58-10.79c11.68-5.51 27.03-8.67 38.22-10.77a.91.9 3.2 0 0 .7-.62c2.04-6.5 2.32-18.44 12.93-15.06a.31.31 0 0 1 .1.54c-3.4 2.62-4.8 3.53-3.09 8.18a1.39 1.38-.8 0 0 .87.84c9.46 3 16.39-4.13 20.67-11.77a1.12 1.12 0 0 1 1.99.08l.33.7a5.05 5.02 42.6 0 1 .17 3.8q-1.14 3.21-4.42 6.35l-2.76 2.65a.32.31-80.1 0 0 .32.46q2.51-.37 6.44-2.5a.34.34 0 0 1 .49.39c-1.09 4.1-4.1 6.94-8.17 8.08q-3.26.9-3.38 1.02a.32.32 0 0 0 .18.55q5.18.75 10.72-1.48a.29.29 0 0 1 .35.44q-1.81 2.65-4.54 4-11.64 5.77-23.77 3.01a1.09 1.08-56.4 0 0-.88.18q-10.64 7.88-26.7 20.76-4.17 3.34-19.87 13.22a1.6 1.6 0 0 1-1.21.21l-2.37-.55a3.19 3.17 49 0 0-.97-.07q-6.51.48-11.43 1.77-16.79 4.4-27.16 5.4a.56.56 0 0 0-.49.66c1.24 6.63 1.43 12.68-1.4 18.85-2.39 5.22-5.35 9.48-9.16 15.18a.66.65 37.3 0 0 .12.86q8.15 6.88 10.15 17.65a.45.44-18.9 0 0 .64.31c20.12-10.37 41.26-18.2 62.74-25.03a2.63 2.57 39.5 0 1 1.19-.1c13.2 1.97 23.56 5.39 38.91 10.11q12.79 3.94 24.63 4.3c14.21.44 26.94-6.86 36.83-17.55a3.05 3.02-80.3 0 1 .98-.7c3.93-1.71 12.23-3.37 15.36.42a.39.38 63.3 0 1-.2.62c-5.01 1.21-8.28 2.02-10.73 6.99q-2.42 4.92-5.58 10.45c-3.76 6.59-11.88 6.24-17.15 10.58q-4.16 3.43-4.6 9.45a.52.52 0 0 1-.68.46q-3.92-1.29-6.47-4.64a1.44 1.42 74.9 0 0-.94-.55q-5.93-.73-9.29-.43-19.47 1.71-23.5 1.97c-9.84.64-20.49-.26-29.2-5.71a.58.57 39.1 0 0-.68.06l-10.52 9.42a.46.46 0 0 0-.02.68q10.12 9.9 18.35 16.11 15.87 11.99 37.79 22.88a1 1 0 0 0 .96-.07c8.19-5.66 25.27-12.39 34.99-7.34a.44.43-37.4 0 1-.11.81q-3.88.87-6.65 3.28a.35.35 0 0 0 .23.61q6.24-.07 9.15 5.09a.38.38 0 0 1-.38.57q-4.97-.63-8.52 2.14a.46.45-54.5 0 0 .13.79c3.44 1.18 6.97 2.83 8.14 6.6a.54.54 0 0 1-.57.7c-2.58-.25-5.38-.59-7.42.84a.54.54 0 0 0-.1.79q1.67 1.98 1.33 4.49a.34.34 0 0 1-.55.22q-4.24-3.33-9.93-2.32c-7.59 1.35-14.98 4.8-22.52 8.12a.7.7 61.2 0 1-.84-.25c-4.93-7.51-11.22-11.5-19.77-13.24-20.5-4.18-43.42-13.47-54.14-31.94a.56.56 0 0 0-.86-.13q-16.03 14.62-29.91 22.64c-13.6 7.86-28.23 10.65-42.66 2.82a.64.64 0 0 0-.8.16c-.64.79-1.15 2.08-1.52 2.61q-13.03 18.74-35.91 14.03a1.75 1.72-50.4 0 0-1.07.11q-8.07 3.55-21.45 4.58-11.36.87-20.7-3.66-19.05-9.23-32.66-24.34-4.55-5.06-6.8-6.65-9-6.36-19.39-9.63a.34.34 0 0 1 .03-.65q4.09-.95 8.64.19 4.82 1.21 4.98 1.21a.33.32-22.1 0 0 .23-.54q-2.49-2.81-6.07-3.66c-4.14-1-10.89-1.1-15.75-2.87q-9.02-3.3-15.6-11.13a.25.24-19.7 0 1 .19-.4c13.41-.02 26.53.23 38.17 6.46 6.17 3.31 9.71 8.31 13.2 15.66 9.08 19.09 42.52 38.7 63.25 30.77a.44.43 52.9 0 0 .1-.76q-5.97-4.46-6.61-12.05c-.74-8.75 4.55-18.29 14.03-18.8 9.05-.49 18 3.95 19.79 13.4q1.73 9.1-4.81 15.63a.45.44-73.3 0 0 .4.75q4.4-.95 7.94-3.81 5.67-4.57 10.04-11.06a1 1 0 0 0-.07-1.23q-12.63-14.89-16.27-33.98a3.35 3.24 22.2 0 0-.58-1.32c-10.48-14.2-16.68-29.72-21.23-47.1a.35.35-29.1 0 0-.57-.16c-6.13 5.76-11.04 10.55-19.4 12.78a.44.44 0 0 0-.29.6q7.94 18.01 11.23 38.04a.79.78 2.3 0 0 .6.64l7.21 1.66a9.16 9.14-14.4 0 1 4.78 2.82l2.97 3.32a1.75 1.74 75.2 0 1-1.67 2.87q-13.15-2.85-18.75 10.43-2.64 6.28-3.42 16.73a.36.35 26 0 1-.62.21q-4.86-5.28-6.06-12.42a.56.55 79 0 0-.66-.45q-3.53.71-5.54 3.36a.38.38 0 0 1-.67-.13q-1.22-4.6-.4-9.93a.49.48.9 0 0-.54-.55l-5.75.63a.5.5 0 0 1-.54-.62c1.78-7.16 9.35-12.24 15.96-15.06a.45.44 59.1 0 0 .17-.68q-1.93-2.47-3.14-3.93-8.72-10.5-13.08-23.89-6.13-18.85-7.79-22.3a.54.53-22 0 1 .32-.74c8.53-2.69 14.82-9.83 20.31-16.05m32.39 109.91q.94.06 2.5-.72 5.63-2.8 7.16-7.5a9.44 9.44 0 0 0-8.3-12.44 9.45 9.45 0 0 0-9.86 11.24q.9 4.86 6.11 8.38 1.45.98 2.39 1.04"/><path fill="#003c84" d="M677.13 448.7a.07.07 0 0 1-.12.03l-4.27-5.73a.59.57-56.3 0 1-.09-.49q2.12-7.64 6.46-14.08a1.07 1.06-75.6 0 1 .77-.46q12.35-1.31 16.96 9.02 1.15 2.57 2.45 9 .7 3.47 2.35 14.31a2.55 2.52-78.8 0 0 1.17 1.77c5.16 3.23 11.31 7.45 15.02 12.3a2.16 2.12-67.6 0 1 .42 1.04q.56 5 2.85 10.5a1.5 1.5 0 0 1-.57 1.83l-2.76 1.81a.84.83-51.6 0 1-.74.09q-9.28-3.4-16.84-8.78a5.96 5.86-.5 0 1-1.24-1.2q-8.16-10.69-16.26-24.42a4.93 4.88-67 0 1-.56-1.41c-1.31-5.54.14-11.78 2.43-16.99a.8.79-59.9 0 0-.24-.94c-5.77-4.42-6.9 10.63-7.19 12.8m-280.5-17.98q.33.54.33.78.05 157.76.08 199.3.01 16.02 1.48 22.28c3.79 16.18 15.44 30.94 29.76 39.15q5.15 2.95 7.01 4.11L219.84 837.08q-.56.36-2.33.92H0V689.5z"/><path fill="#fff" d="m549.34 553.27-.21-.76q1.26-3.27 3.02-4.86 5.2-4.71 12.7-10.05 2.76-1.97 4.7-4.33a1.34 1.34 0 0 0-.63-2.12q-11.14-3.53-20.95-5.34c-9.34-1.72-16.79-1.14-24.09 5.57a.2.2 0 0 1-.32-.21c1.81-5.65 7.32-10.45 13.53-10.71a.6.6 0 0 0 .58-.59c.27-7.5-2.53-15.22-11.16-15.53-8.29-.31-15.65 3.44-25.75 7.44q-.77.31-1.43.13a.24.24 36.1 0 1-.07-.42q7.14-4.59 14.6-8.11c3.46-1.64 7.75-3.04 11.68-2.6q1.68.19 3.6.19a.23.23 0 0 0 .21-.32c-6.14-14.41-18.82-13.33-31.08-7.87q-10.31 4.6-15.99 7.01-1.86.79-4.69 1.29a.17.17 0 0 1-.14-.3q14.67-12.45 32.81-15.11a.16.16 0 0 0 0-.31q-12.19-2.42-25.26-1.78c-18.23.91-31.2 2.48-46.13-1.29a.18.18 0 0 1 .03-.36q12.3-.9 36.58-3.26 13.2-1.28 26.27-.91 6.18.18 11.41 1.29c17.14 3.63 25.26 23.88 28.28 39.12a1.3 1.3 0 0 0 .55.79c5.69 3.46 12.17 5.48 19.31 6.8q5.39.99 10.53.47c7.88-.78 19.52 1.56 25.49-7.11a.44.44 0 0 0-.22-.66c-5.52-2.02-11.93-4.46-13.13-10.38a2.34 2.34 70.9 0 1 1.22-2.53l9.72-5.01a1 1 0 0 0 .51-1.04q-.62-3.59-3.81-5.74a.31.31 0 0 1 .04-.54q5.17-2.49 11.72-3.56 2.22-.36 5.7-1.92a1.4 1.4 0 0 0 .77-.84c1.83-5.29 8.75-4.58 13.19-4.23a.93.92 2.6 0 0 1-.91q.01-1.7-1.17-5.56-.93-3.06 1.36-4.45a.64.63-33.7 0 1 .84.16c3.39 4.54 1.6 11.46 7.02 14.58a1.63 1.63 21.5 0 0 2.4-1.04l.86-3.74a1.59 1.59 0 0 1 2.93-.42c2.06 3.65.79 6.72.74 10.85a1.2 1.2 0 0 0 .52.96c2.03 1.3 6.25 3.69 5.34 6.68a.95.94 28.1 0 0 .31 1q2.11 1.68 1.72 3.94a1.32 1.3-60.7 0 0 .3 1.09q2.22 2.53.04 4.58a.73.72 54.2 0 0-.14.9q1.97 3.46-1.96 5.04-.4.16-.76.39a.49.48-36.9 0 0-.11.74c2.32 2.62-.84 5.05-3.28 4.86a.44.44 0 0 0-.45.59c.86 2.37-.74 3.93-3.08 3.75q-.9-.07-1.1.73a1 1 0 0 1-.72.72q-3.81.96-6.46-.04c-1.47-.56-2.74-2.38-3.86-3.45a1.15 1.14-27.7 0 0-.97-.3c-4.18.63-9.14.34-10.53-4.32a.8.79 81.6 0 0-.76-.57q-4.63-.01-7.72 2.46a1.42 1.39 77.6 0 0-.48.77l-1.14 4.93a3.18 3.16-62.6 0 0 .96 3.05q1.38 1.24 2.93 1.73a.6.6 0 0 1-.07 1.16q-3.88.75-6.34-2.33a1.45 1.43 25.6 0 1-.31-.86l-.14-5.03a1.1 1.1 0 0 0-1.25-1.03q-6.67 1.1-13.78 4.71-4.66 2.37-23.07 12.89-5.07 2.9-13.31 11.39m78.76-48.09c-1.2-1.83 1.44-3.41 2.23-4.56a1.76 1.74 57.4 0 0 .27-1.25q-.73-4.47-3.03-6.13c-4.33-3.12-15.23-7.65-19.14-1.7a1.26 1.25-79.3 0 1-.77.53l-11.85 2.57a.53.53 0 0 0-.23.93l5.19 4.28a.5.5 0 0 1 .02.76q-.98.87-.08 1.66a1.69 1.66-49.4 0 1 .16 2.34q-.75.9-1.89 1.92a1.33 1.32-26.8 0 0-.43 1.29l.07.34a.83.82-9.8 0 1-.71 1q-1.78.22-2.98-.96a.9.9 0 0 1-.15-1.09l1.77-3.07a.66.66 0 0 0-.84-.94l-9.25 4a.62.61-23.9 0 0-.32.81c4.64 10.52 22.22 8.21 30.63 4.86a2.3 2.3 0 0 1 2.75.87l1.26 1.92a1.41 1.39 67.1 0 0 1.46.6l.86-.19a.8.8 0 0 0 .55-1.14q-1.15-2.28-.29-3.01a.79.78-22.3 0 0 .28-.66q-.16-2.43 2.76-2.3a.28.28 0 0 0 .23-.46q-1.51-1.94 1.14-2.45a.5.5 0 0 0 .33-.77"/><path fill="#1a1a1a" d="M628.1 505.18a.5.5 0 0 1-.33.77q-2.65.51-1.14 2.45a.28.28 0 0 1-.23.46q-2.92-.13-2.76 2.3a.79.78-22.3 0 1-.28.66q-.86.73.29 3.01a.8.8 0 0 1-.55 1.14l-.86.19a1.41 1.39 67.1 0 1-1.46-.6l-1.26-1.92a2.3 2.3 0 0 0-2.75-.87c-8.41 3.35-25.99 5.66-30.63-4.86a.62.61-23.9 0 1 .32-.81l9.25-4a.66.66 0 0 1 .84.94l-1.77 3.07a.9.9 0 0 0 .15 1.09q1.2 1.18 2.98.96a.83.82-9.8 0 0 .71-1l-.07-.34a1.33 1.32-26.8 0 1 .43-1.29q1.14-1.02 1.89-1.92a1.69 1.66-49.4 0 0-.16-2.34q-.9-.79.08-1.66a.5.5 0 0 0-.02-.76l-5.19-4.28a.53.53 0 0 1 .23-.93l11.85-2.57a1.26 1.25-79.3 0 0 .77-.53c3.91-5.95 14.81-1.42 19.14 1.7q2.3 1.66 3.03 6.13a1.76 1.74 57.4 0 1-.27 1.25c-.79 1.15-3.43 2.73-2.23 4.56m-8.04-4.97a1.53 1.52-11.4 0 0 1.6-2.4q-3.04-3.98-8.21-5.21-4.18-.99-5.14 2.72-.97 3.74 3.02 4.35 2.13.32 5.64-1.39a.56.55-37.3 0 1 .62.08q1.98 1.72 2.47 1.85"/><path fill="#fff" d="M620.06 500.21q-.49-.13-2.47-1.85a.56.55-37.3 0 0-.62-.08q-3.51 1.71-5.64 1.39-3.99-.61-3.02-4.35.96-3.71 5.14-2.72 5.17 1.23 8.21 5.21a1.53 1.52-11.4 0 1-1.6 2.4m-10.18-4.59a2.38 1.52-179.8 0 0 2.37 1.53 2.38 1.52-179.8 0 0 2.39-1.51 2.38 1.52-179.8 0 0-2.37-1.53 2.38 1.52-179.8 0 0-2.39 1.51"/><ellipse fill="#1a1a1a" rx="2.38" ry="1.52" transform="rotate(180.2 306.56 247.28)"/><path fill="#fde739" d="M583.09 642.52a9.44 9.44 0 0 1 8.3 12.44q-1.53 4.7-7.16 7.5-1.56.78-2.5.72t-2.39-1.04q-5.21-3.52-6.11-8.38a9.45 9.45 0 0 1 9.86-11.24"/></svg>