<svg xmlns="http://www.w3.org/2000/svg" viewBox="0 0 600 385"><g fill="none" stroke-width="2"><path stroke="#933c62" d="M145.39 0v385M448.32 0l-.3 385" vector-effect="non-scaling-stroke"/><path stroke="#a4a63c" d="m244.19 56.48 67.67 91.51a.16.15 30.7 0 0 .28-.07q.04-.39-.15-.93-7.59-21.29-14.99-43.54" vector-effect="non-scaling-stroke"/><path stroke="#a18d3d" d="m297 103.45 59.07 22.91a.2.2 0 0 0 .19-.36l-123.1-85.16a.15.15 0 0 0-.23.17q.18.6.62 1.2 5.21 7.21 10.64 14.27" vector-effect="non-scaling-stroke"/><path stroke="#fcdc01" d="M297 103.45q-21.89-21.23-43.67-42.94-1.34-1.33-2.5-2.2c-2.08-1.56-4.05-3.03-6.64-1.83" vector-effect="non-scaling-stroke"/><path stroke="#a4abbc" d="M358.07 59.39a.1.1 0 0 1 .11.11l2.8 30.53a.12.12 0 0 0 .22.05l.24-.42.01-.05 2-30.12a.1.1 0 0 1 .1-.11l9.58-1.66a.12.12 0 0 0 0-.24l-9.86-1.45a.1.1 0 0 1-.1-.1l-2.32-13.33a.12.12 0 0 0-.24 0l-1.91 13.02a.1.1 0 0 1-.1.1l-20.84 1.9a.1.1 0 0 0-.11.11v.19a.12.12 0 0 0 .11.13l20.31 1.34m-104.29 99.83a1.3 1.3 0 0 0-1.3-1.3h-1.4a1.3 1.3 0 0 0-1.3 1.3l.08 44.8a1.3 1.3 0 0 0 1.3 1.3h1.4a1.3 1.3 0 0 0 1.3-1.3l-.08-44.8m61.43 3.95a1.4 1.4 0 0 0-1.38-1.38h-1.2a1.4 1.4 0 0 0-1.38 1.38v32.34a1.4 1.4 0 0 0 1.38 1.38h1.2a1.4 1.4 0 0 0 1.38-1.38v-32.34m-6.57.37a1.4 1.4 0 0 0-1.41-1.41h-1.12a1.4 1.4 0 0 0-1.4 1.41l.05 32.5a1.4 1.4 0 0 0 1.41 1.41h1.12a1.4 1.4 0 0 0 1.4-1.41l-.05-32.5m-61.31 2.76a1.53 1.53 0 0 0-1.53-1.54h-.8a1.53 1.53 0 0 0-1.53 1.52l-.1 26.88a1.53 1.53 0 0 0 1.53 1.54h.8a1.53 1.53 0 0 0 1.53-1.52l.1-26.88m12.8.19a1.1 1.1 0 0 0-1.11-1.11h-1.76a1.1 1.1 0 0 0-1.11 1.11l.08 48.74a1.1 1.1 0 0 0 1.11 1.11h1.76a1.1 1.1 0 0 0 1.11-1.11l-.08-48.74m41.51 1.43a1.3 1.3 0 0 0-1.3-1.3h-1.44a1.3 1.3 0 0 0-1.3 1.3l-.06 33.24a1.3 1.3 0 0 0 1.3 1.3h1.44a1.3 1.3 0 0 0 1.3-1.3l.06-33.24m19.68.16a1.5 1.5 0 0 0-1.51-1.51h-.64a1.5 1.5 0 0 0-1.5 1.51l.05 30.8a1.5 1.5 0 0 0 1.5 1.51h.65a1.5 1.5 0 0 0 1.5-1.51l-.05-30.8M240.56 171a1.34 1.34 0 0 0-1.33-1.34h-1.34a1.34 1.34 0 0 0-1.35 1.34l-.02 15.62a1.34 1.34 0 0 0 1.33 1.34h1.34a1.34 1.34 0 0 0 1.35-1.34l.02-15.62m54.4.97a1.14 1.14 0 0 0-1.14-1.14h-1.7a1.14 1.14 0 0 0-1.14 1.14l-.06 34.68a1.14 1.14 0 0 0 1.14 1.14h1.7a1.14 1.14 0 0 0 1.14-1.14l.06-34.68m-6.73 3.48a1.2 1.2 0 0 0-1.2-1.2l-1.65.01a1.2 1.2 0 0 0-1.19 1.2l.06 34.97a1.2 1.2 0 0 0 1.2 1.2l1.65-.01a1.2 1.2 0 0 0 1.19-1.2l-.06-34.97m40.47.47a1.26 1.26 0 0 0-1.26-1.25h-1.56a1.26 1.26 0 0 0-1.25 1.27l.14 27.94a1.26 1.26 0 0 0 1.27 1.25h1.56a1.26 1.26 0 0 0 1.25-1.27l-.14-27.94m-61.55.17a.9.9 0 0 0-.88-.88h-2.26a.9.9 0 0 0-.88.88v48.84a.9.9 0 0 0 .88.88h2.26a.9.9 0 0 0 .88-.88v-48.84m13.76 4.17a.85.85 0 0 0-.85-.85h-2.26a.85.85 0 0 0-.85.85v35.66a.85.85 0 0 0 .85.85h2.26a.85.85 0 0 0 .85-.85v-35.66m53.85 2.61a1.4 1.4 0 0 0-1.38-1.38h-.92a1.4 1.4 0 0 0-1.38 1.38l.04 25.7a1.4 1.4 0 0 0 1.38 1.38h.92a1.4 1.4 0 0 0 1.38-1.38l-.04-25.7m-60.84 2.54a1.36 1.36 0 0 0-1.36-1.36h-1.04a1.36 1.36 0 0 0-1.36 1.36l-.06 33.78a1.36 1.36 0 0 0 1.36 1.36h1.04a1.36 1.36 0 0 0 1.36-1.36l.06-33.78m85.93 2.05a.83.83 0 0 0-.84-.82l-1.46.02a.83.83 0 0 0-.82.84l.18 17.8a.83.83 0 0 0 .84.82l1.46-.02a.83.83 0 0 0 .82-.84l-.18-17.8m-19.04 3.11a1.3 1.3 0 0 0-1.32-1.32h-.96a1.3 1.3 0 0 0-1.32 1.32l-.04 22.52a1.3 1.3 0 0 0 1.32 1.32h.96a1.3 1.3 0 0 0 1.32-1.32l.04-22.52m12.48.17a1.05 1.05 0 0 0-1.06-1.04h-.88a1.05 1.05 0 0 0-1.04 1.06l.06 19.86a1.05 1.05 0 0 0 1.06 1.04h.88a1.05 1.05 0 0 0 1.04-1.06l-.06-19.86m12.09.54a1.05 1.05 0 0 0-1.05-1.05h-.16a1.05 1.05 0 0 0-1.05 1.05l-.04 9.58a1.05 1.05 0 0 0 1.05 1.05h.16a1.05 1.05 0 0 0 1.05-1.05l.04-9.58m-18.06 5.5a1.2 1.2 0 0 0-1.21-1.21h-1.34a1.2 1.2 0 0 0-1.2 1.21l.03 21.4a1.2 1.2 0 0 0 1.21 1.21h1.34a1.2 1.2 0 0 0 1.2-1.21l-.03-21.4m23.82 1.08a.85.85 0 0 0-.82-.87l-1.28-.05a.85.85 0 0 0-.88.82l-.28 7.84a.85.85 0 0 0 .82.87l1.28.05a.85.85 0 0 0 .88-.82l.28-7.84" vector-effect="non-scaling-stroke"/><path stroke="#a18d3d" d="m303.05 345.28 2.8 1.5a1.18 1.15 43.8 0 0 1.1-.01l53.2-29.17" vector-effect="non-scaling-stroke"/><path stroke="#a4a63c" d="m360.15 317.6 2.6-1.33a1.16 1.15 76.6 0 0 .63-1.03V260.9a1.17 1.15-74 0 0-.53-.98l-54.62-35.44a1.38 1.36-44.2 0 0-1.48-.01l-55.67 35.35a1.56 1.55-16.4 0 0-.72 1.31v54.68a.88.87-75.6 0 0 .45.77l52.24 28.7" vector-effect="non-scaling-stroke"/><path stroke="#fcdc01" d="M360.15 317.6q-4.79-1.02-9.41.47-5.67 1.83-5.74 1.84c-4.97 1.16-11.21 1.82-16.13 3.95a4.66 4.61-79 0 0-1.42.97q-5.74 5.75-16.34 17.04c-.92.99-2.03 3.6-3.45 3.91a1 1 0 0 1-1.23-1.01l.64-28.51a1.48 1.46-20.7 0 1 .49-1.07l25.18-22.77a3.54 3.5 74.2 0 0 1.11-2.01l5.04-28.07a.67.67 0 0 0-1.24-.45L307.56 314a.34.34 0 0 1-.63-.17v-35.9a1.1 1.09 15.5 0 0-.54-.94q-11.85-6.95-22.69-13.43-1.01-.6-4.4-2.08a.58.58 0 0 1 .23-1.12h56.83a.28.28 0 0 0 .21-.47l-.52-.59-.02-.02-27.7-4.06a1.04 1.04 0 0 1-.89-1.03v-27.55a.75.74-20.4 0 0-1.23-.56q-2.57 2.21-4.97 5.17-7.52 9.3-22.85 27.78a2.95 2.91-14.4 0 0-.46.77c-.66 1.68-1.77 2.95-2.64 4.71q-5.13 10.35-23.19 46.61-.51 1.02-.74 2.47a.66.66 0 0 0 1.02.64l30.8-21.17a1 1 0 0 0 .42-.99l-5.03-28.91a.25.24-25.8 0 1 .08-.22q.26-.22.71-.02a.44.42-1.4 0 1 .21.19c1.07 2.01 1.73 4.2 2.81 6.22q13.38 25.13 20.52 38.98.65 1.25.94 3.26a1.08 1.07 19.5 0 0 .27.56l1.94 2.15a1.28 1.28 0 0 1-.45 2.04l-17.81 7.55a.74.73 58.3 0 0-.27 1.15l16.3 19.18a.58.58 0 0 1-.28.94l-.49.14" vector-effect="non-scaling-stroke"/><path stroke="#fcdc01" d="M360.42 308.34q-.21-2.03-.87-4.16-6.73-21.85-7.68-24.56a2.18 2.17 51.7 0 1 .22-1.89l9.61-14.8a1.96 1.96 0 0 0-1.16-2.97q-7.67-1.96-15.73-2.75-2.5-.25-3.72-1.31-7.37-6.42-21.56-20.42-.21-.2-5.94-5.1a.3.3 0 0 0-.37.01l2.11 2.53a1.45.06 47.4 0 0 .11.13l23.22 27.32a11.24 11.15 13.6 0 1 1.75 2.84l19.23 45.33a.41.41 0 0 0 .78-.2m-84.21-50.63a2.8 2.8-21.7 0 0-2.73-1.17c-8.6 1.42-12.84 1.92-16.41 3.09a.25.25 0 0 0 .08.49h19.2a.81.8 72.8 0 0 .66-1.26l-.8-1.15" vector-effect="non-scaling-stroke"/></g><path fill="#dc214c" d="M145.39 0v385H0V0z"/><path fill="#495678" d="m448.32 0-.3 385H145.39V0zM244.19 56.48l67.67 91.51a.16.15 30.7 0 0 .28-.07q.04-.39-.15-.93-7.59-21.29-14.99-43.54l59.07 22.91a.2.2 0 0 0 .19-.36l-123.1-85.16a.15.15 0 0 0-.23.17q.18.6.62 1.2 5.21 7.21 10.64 14.27m113.88 2.91a.1.1 0 0 1 .11.11l2.8 30.53a.12.12 0 0 0 .22.05l.24-.42.01-.05 2-30.12a.1.1 0 0 1 .1-.11l9.58-1.66a.12.12 0 0 0 0-.24l-9.86-1.45a.1.1 0 0 1-.1-.1l-2.32-13.33a.12.12 0 0 0-.24 0l-1.91 13.02a.1.1 0 0 1-.1.1l-20.84 1.9a.1.1 0 0 0-.11.11v.19a.12.12 0 0 0 .11.13zm-104.29 99.83a1.3 1.3 0 0 0-1.3-1.3h-1.4a1.3 1.3 0 0 0-1.3 1.3l.08 44.8a1.3 1.3 0 0 0 1.3 1.3h1.4a1.3 1.3 0 0 0 1.3-1.3zm61.43 3.95a1.4 1.4 0 0 0-1.38-1.38h-1.2a1.4 1.4 0 0 0-1.38 1.38v32.34a1.4 1.4 0 0 0 1.38 1.38h1.2a1.4 1.4 0 0 0 1.38-1.38zm-6.57.37a1.4 1.4 0 0 0-1.41-1.41h-1.12a1.4 1.4 0 0 0-1.4 1.41l.05 32.5a1.4 1.4 0 0 0 1.41 1.41h1.12a1.4 1.4 0 0 0 1.4-1.41zm-61.31 2.76a1.53 1.53 0 0 0-1.53-1.54h-.8a1.53 1.53 0 0 0-1.53 1.52l-.1 26.88a1.53 1.53 0 0 0 1.53 1.54h.8a1.53 1.53 0 0 0 1.53-1.52zm12.8.19a1.1 1.1 0 0 0-1.11-1.11h-1.76a1.1 1.1 0 0 0-1.11 1.11l.08 48.74a1.1 1.1 0 0 0 1.11 1.11h1.76a1.1 1.1 0 0 0 1.11-1.11zm41.5 1.43a1.3 1.3 0 0 0-1.29-1.3h-1.44a1.3 1.3 0 0 0-1.3 1.3l-.06 33.24a1.3 1.3 0 0 0 1.3 1.3h1.44a1.3 1.3 0 0 0 1.3-1.3zm19.7.16a1.5 1.5 0 0 0-1.52-1.51h-.64a1.5 1.5 0 0 0-1.5 1.51l.05 30.8a1.5 1.5 0 0 0 1.5 1.51h.65a1.5 1.5 0 0 0 1.5-1.51zM240.55 171a1.34 1.34 0 0 0-1.33-1.34h-1.34a1.34 1.34 0 0 0-1.35 1.34l-.02 15.62a1.34 1.34 0 0 0 1.33 1.34h1.34a1.34 1.34 0 0 0 1.35-1.34zm54.4.97a1.14 1.14 0 0 0-1.14-1.14h-1.7a1.14 1.14 0 0 0-1.14 1.14l-.06 34.68a1.14 1.14 0 0 0 1.14 1.14h1.7a1.14 1.14 0 0 0 1.14-1.14zm-6.73 3.48a1.2 1.2 0 0 0-1.2-1.2l-1.65.01a1.2 1.2 0 0 0-1.19 1.2l.06 34.97a1.2 1.2 0 0 0 1.2 1.2l1.65-.01a1.2 1.2 0 0 0 1.19-1.2zm40.48.47a1.26 1.26 0 0 0-1.27-1.25h-1.56a1.26 1.26 0 0 0-1.25 1.27l.14 27.94a1.26 1.26 0 0 0 1.27 1.25h1.56a1.26 1.26 0 0 0 1.25-1.27zm-61.55.17a.9.9 0 0 0-.88-.88h-2.26a.9.9 0 0 0-.88.88v48.84a.9.9 0 0 0 .88.88h2.26a.9.9 0 0 0 .88-.88zm13.76 4.17a.85.85 0 0 0-.85-.85h-2.26a.85.85 0 0 0-.85.85v35.66a.85.85 0 0 0 .85.85h2.26a.85.85 0 0 0 .85-.85zm53.85 2.6a1.4 1.4 0 0 0-1.38-1.37h-.92a1.4 1.4 0 0 0-1.38 1.38l.04 25.7a1.4 1.4 0 0 0 1.38 1.38h.92a1.4 1.4 0 0 0 1.38-1.38zm-60.84 2.55a1.36 1.36 0 0 0-1.36-1.36h-1.04a1.36 1.36 0 0 0-1.36 1.36l-.06 33.78a1.36 1.36 0 0 0 1.36 1.36h1.04a1.36 1.36 0 0 0 1.36-1.36zm85.93 2.05a.83.83 0 0 0-.84-.82l-1.46.02a.83.83 0 0 0-.82.84l.18 17.8a.83.83 0 0 0 .84.82l1.46-.02a.83.83 0 0 0 .82-.84zm-19.04 3.11a1.3 1.3 0 0 0-1.32-1.32h-.96a1.3 1.3 0 0 0-1.32 1.32l-.04 22.52a1.3 1.3 0 0 0 1.32 1.32h.96a1.3 1.3 0 0 0 1.32-1.32zm12.48.17a1.05 1.05 0 0 0-1.06-1.04h-.88a1.05 1.05 0 0 0-1.04 1.06l.06 19.86a1.05 1.05 0 0 0 1.06 1.04h.88a1.05 1.05 0 0 0 1.04-1.06zm12.09.54a1.05 1.05 0 0 0-1.05-1.05h-.16a1.05 1.05 0 0 0-1.05 1.05l-.04 9.58a1.05 1.05 0 0 0 1.05 1.05h.16a1.05 1.05 0 0 0 1.05-1.05zm-18.06 5.5a1.2 1.2 0 0 0-1.21-1.21h-1.34a1.2 1.2 0 0 0-1.2 1.21l.03 21.4a1.2 1.2 0 0 0 1.21 1.21h1.34a1.2 1.2 0 0 0 1.2-1.21zm23.82 1.08a.85.85 0 0 0-.82-.87l-1.28-.05a.85.85 0 0 0-.88.82l-.28 7.84a.85.85 0 0 0 .82.87l1.28.05a.85.85 0 0 0 .88-.82zm-68.1 147.42 2.8 1.5a1.18 1.15 43.8 0 0 1.1-.01l53.2-29.17 2.6-1.33a1.16 1.15 76.6 0 0 .63-1.03V260.9a1.17 1.15-74 0 0-.53-.98l-54.62-35.44a1.38 1.36-44.2 0 0-1.48-.01l-55.67 35.35a1.56 1.55-16.4 0 0-.72 1.31v54.68a.88.87-75.6 0 0 .45.77z"/><path fill="#dc214c" d="M600 0v385H448.02l.3-385z"/><path fill="#f8c301" d="M297 103.45q-21.89-21.23-43.67-42.94-1.34-1.33-2.5-2.2c-2.08-1.56-4.05-3.03-6.64-1.83q-5.43-7.06-10.64-14.27-.44-.6-.62-1.2a.15.15 0 0 1 .23-.17L356.26 126a.2.2 0 0 1-.19.36z"/><path fill="#fff" d="m358.07 59.39-20.31-1.34a.12.12 0 0 1-.11-.13v-.19a.1.1 0 0 1 .11-.11l20.84-1.9a.1.1 0 0 0 .1-.1l1.91-13.02a.12.12 0 0 1 .24 0l2.32 13.33a.1.1 0 0 0 .1.1l9.86 1.45a.12.12 0 0 1 0 .24l-9.58 1.66a.1.1 0 0 0-.1.11l-2 30.12-.01.05-.24.42a.12.12 0 0 1-.22-.05l-2.8-30.53a.1.1 0 0 0-.11-.11"/><path fill="#fff500" d="M297 103.45q7.4 22.25 14.99 43.54.19.54.15.93a.16.15 30.7 0 1-.28.07l-67.67-91.51c2.59-1.2 4.56.27 6.64 1.83q1.16.87 2.5 2.2 21.78 21.71 43.67 42.94"/><rect width="4" height="47.4" x="-2" y="-23.7" fill="#fff" rx="1.3" transform="rotate(-.1 104186.48 -144191.39)"/><rect width="3.96" height="35.1" x="311.25" y="161.79" fill="#fff" rx="1.38"/><rect width="3.94" height="35.32" x="-1.97" y="-17.66" fill="#fff" rx="1.41" transform="rotate(-.1 103165.4 -175636.22)"/><rect width="3.86" height="29.94" x="-1.93" y="-14.97" fill="#fff" rx="1.53" transform="rotate(.2 -51366.12 70377.4)"/><rect width="3.98" height="50.96" x="-1.99" y="-25.48" fill="#fff" rx="1.11" transform="rotate(-.1 109483.79 -147830.78)"/><rect width="4.04" height="35.84" x="-2.02" y="-17.92" fill="#fff" rx="1.3" transform="rotate(.1 -105583.81 171744.65)"/><rect width="3.66" height="33.82" x="-1.83" y="-16.91" fill="#fff" rx="1.51" transform="rotate(-.1 105286.03 -182979.69)"/><rect width="4.02" height="18.3" x="-2.01" y="-9.15" fill="#fff" rx="1.34" transform="rotate(.1 -102331.29 136762.72)"/><rect width="3.98" height="36.96" x="-1.99" y="-18.48" fill="#fff" rx="1.14" transform="rotate(.1 -108320.14 167936.87)"/><rect width="4.04" height="37.36" x="-2.02" y="-18.68" fill="#fff" rx="1.19" transform="rotate(-.1 110689.57 -163906.93)"/><rect width="4.08" height="30.46" x="-2.04" y="-15.23" fill="#fff" rx="1.26" transform="rotate(-.3 36431.52 -62307.65)"/><rect width="4.02" height="50.6" x="263.14" y="175.21" fill="#fff" rx=".88"/><rect width="3.96" height="37.36" x="276.96" y="179.41" fill="#fff" rx=".85"/><rect width="3.68" height="28.46" x="-1.84" y="-14.23" fill="#fff" rx="1.38" transform="rotate(-.1 112305.75 -190668.39)"/><rect width="3.76" height="36.5" x="-1.88" y="-18.25" fill="#fff" rx="1.36" transform="rotate(.1 -115773.32 155957.09)"/><rect width="3.12" height="19.46" x="-1.56" y="-9.73" fill="#fff" rx=".83" transform="rotate(-.6 18931.93 -34125.22)"/><rect width="3.6" height="25.16" x="-1.8" y="-12.58" fill="#fff" rx="1.32" transform="rotate(.1 -115470.54 194333.56)"/><rect width="2.98" height="21.96" x="-1.49" y="-10.98" fill="#fff" rx="1.05" transform="rotate(-.2 57666.45 -100694.3)"/><rect width="2.26" height="11.68" x="-1.13" y="-5.84" fill="#fff" rx="1.05" transform="rotate(.2 -55987.74 104445)"/><rect width="3.76" height="23.82" x="-1.88" y="-11.91" fill="#fff" rx="1.21" transform="rotate(-.1 119049.99 -197835.94)"/><rect width="2.98" height="9.54" x="-1.49" y="-4.77" fill="#fff" rx=".85" transform="rotate(2 -5593.8 10685.76)"/><path fill="#fff500" d="M360.15 317.6q-4.79-1.02-9.41.47-5.67 1.83-5.74 1.84c-4.97 1.16-11.21 1.82-16.13 3.95a4.66 4.61-79 0 0-1.42.97q-5.74 5.75-16.34 17.04c-.92.99-2.03 3.6-3.45 3.91a1 1 0 0 1-1.23-1.01l.64-28.51a1.48 1.46-20.7 0 1 .49-1.07l25.18-22.77a3.54 3.5 74.2 0 0 1.11-2.01l5.04-28.07a.67.67 0 0 0-1.24-.45L307.56 314a.34.34 0 0 1-.63-.17v-35.9a1.1 1.09 15.5 0 0-.54-.94q-11.85-6.95-22.69-13.43-1.01-.6-4.4-2.08a.58.58 0 0 1 .23-1.12h56.83a.28.28 0 0 0 .21-.47l-.52-.59-.02-.02-27.7-4.06a1.04 1.04 0 0 1-.89-1.03v-27.55a.75.74-20.4 0 0-1.23-.56q-2.57 2.21-4.97 5.17-7.52 9.3-22.85 27.78a2.95 2.91-14.4 0 0-.46.77c-.66 1.68-1.77 2.95-2.64 4.71q-5.13 10.35-23.19 46.61-.51 1.02-.74 2.47a.66.66 0 0 0 1.02.64l30.8-21.17a1 1 0 0 0 .42-.99l-5.03-28.91a.25.24-25.8 0 1 .08-.22q.26-.22.71-.02a.44.42-1.4 0 1 .21.19c1.07 2.01 1.73 4.2 2.81 6.22q13.38 25.13 20.52 38.98.65 1.25.94 3.26a1.08 1.07 19.5 0 0 .27.56l1.94 2.15a1.28 1.28 0 0 1-.45 2.04l-17.81 7.55a.74.73 58.3 0 0-.27 1.15l16.3 19.18a.58.58 0 0 1-.28.94l-.49.14-52.24-28.7a.88.87-75.6 0 1-.45-.77v-54.68a1.56 1.55-16.4 0 1 .72-1.31l55.67-35.35a1.38 1.36-44.2 0 1 1.48.01l54.62 35.44a1.17 1.15-74 0 1 .53.98v54.34a1.16 1.15 76.6 0 1-.63 1.03zm.27-9.26q-.21-2.03-.87-4.16-6.73-21.85-7.68-24.56a2.18 2.17 51.7 0 1 .22-1.89l9.61-14.8a1.96 1.96 0 0 0-1.16-2.97q-7.67-1.96-15.73-2.75-2.5-.25-3.72-1.31-7.37-6.42-21.56-20.42-.21-.2-5.94-5.1a.3.3 0 0 0-.37.01l2.11 2.53a1.45.06 47.4 0 0 .11.13l23.22 27.32a11.24 11.15 13.6 0 1 1.75 2.84l19.23 45.33a.41.41 0 0 0 .78-.2m-84.21-50.63a2.8 2.8-21.7 0 0-2.73-1.17c-8.6 1.42-12.84 1.92-16.41 3.09a.25.25 0 0 0 .08.49h19.2a.81.8 72.8 0 0 .66-1.26z"/><path fill="#f8c301" d="m360.15 317.6-53.2 29.17a1.18 1.15 43.8 0 1-1.1.01l-2.8-1.5.49-.14a.58.58 0 0 0 .28-.94l-16.3-19.18a.74.73 58.3 0 1 .27-1.15l17.81-7.55a1.28 1.28 0 0 0 .45-2.04l-1.94-2.15a1.08 1.07 19.5 0 1-.27-.56q-.29-2.01-.94-3.26-7.14-13.85-20.52-38.98c-1.08-2.02-1.74-4.21-2.81-6.22a.44.42-1.4 0 0-.21-.19q-.45-.2-.71.02a.25.24-25.8 0 0-.08.22l5.03 28.91a1 1 0 0 1-.42.99l-30.8 21.17a.66.66 0 0 1-1.02-.64q.23-1.45.74-2.47 18.06-36.26 23.19-46.61c.87-1.76 1.98-3.03 2.64-4.71a2.95 2.91-14.4 0 1 .46-.77q15.33-18.48 22.85-27.78 2.4-2.96 4.97-5.17a.75.74-20.4 0 1 1.23.56v27.55a1.04 1.04 0 0 0 .89 1.03l27.7 4.06.02.02.52.59a.28.28 0 0 1-.21.47h-56.83a.58.58 0 0 0-.23 1.12q3.39 1.48 4.4 2.08 10.84 6.48 22.69 13.43a1.1 1.09 15.5 0 1 .54.94v35.9a.34.34 0 0 0 .63.17l30.09-52.11a.67.67 0 0 1 1.24.45l-5.04 28.07a3.54 3.5 74.2 0 1-1.11 2.01l-25.18 22.77a1.48 1.46-20.7 0 0-.49 1.07l-.64 28.51a1 1 0 0 0 1.23 1.01c1.42-.31 2.53-2.92 3.45-3.91q10.6-11.29 16.34-17.04a4.66 4.61-79 0 1 1.42-.97c4.92-2.13 11.16-2.79 16.13-3.95q.07-.01 5.74-1.84 4.62-1.49 9.41-.47"/><path fill="#f8c301" d="M360.42 308.34a.41.41 0 0 1-.78.2l-19.23-45.33a11.24 11.15 13.6 0 0-1.75-2.84l-23.22-27.32a1.45.06 47.4 0 1-.11-.13l-2.11-2.53a.3.3 0 0 1 .37-.01q5.73 4.9 5.94 5.1 14.19 14 21.56 20.42 1.22 1.06 3.72 1.31 8.06.79 15.73 2.75a1.96 1.96 0 0 1 1.16 2.97l-9.61 14.8a2.18 2.17 51.7 0 0-.22 1.89q.95 2.71 7.68 24.56.66 2.13.87 4.16m-84.21-50.63.8 1.15a.81.8 72.8 0 1-.66 1.26h-19.2a.25.25 0 0 1-.08-.49c3.57-1.17 7.81-1.67 16.41-3.09a2.8 2.8-21.7 0 1 2.73 1.17"/></svg>