<svg xmlns="http://www.w3.org/2000/svg" viewBox="0 0 800 533"><g fill="none" stroke-width="2"><path stroke="#80c5e9" d="M800 390.87q-4.37-2.95-10.18-3.97-8.08-1.42-15.7 1.72c-4.37 1.81-9.29 5.16-13.77 6.75q-12.05 4.25-24.05-2.47-6.85-3.83-10.61-5.1c-10.1-3.41-18.5-.09-27.61 5.03-9.74 5.48-20.26 5.44-29.92-.04-7.93-4.5-14.67-7.58-23.99-5.91-5.14.92-9.42 3.4-14.37 6.17q-10.81 6.04-22.7 2.73c-4.81-1.34-10.59-5.43-14.77-7.12q-11.83-4.81-23.34.63l-9 4.62q-8.84 4.54-18.51 2.43c-4.77-1.04-8.39-3.2-13.36-5.93q-12.17-6.67-24.6-2.15c-3.68 1.34-8.12 4.27-11.48 5.83q-11.62 5.41-22.95.82c-4.53-1.83-9.68-5.55-14.31-7q-12.63-3.96-24.49 2.94-6.52 3.8-10.27 4.89-11.45 3.32-21.94-2.36-6.04-3.26-7.49-3.95-13.88-6.58-27.55 1.13-6.56 3.71-10.43 4.98-10.93 3.62-21.46-1.73l-8.72-4.43q-10.92-5.36-22.17-1.2c-2.87 1.07-5.13 2.34-8.49 4.25-7.91 4.52-16.44 5.9-25.1 2.93-4.13-1.42-7.88-3.98-11.69-5.83q-11.83-5.71-23.83-.9-1.8.72-6.96 3.65c-9.04 5.12-18.27 6.43-27.98 1.99-4.38-2-8.85-5.11-13.83-6.63q-10.33-3.18-20.7 1.81c-4.59 2.21-8.54 4.98-13.36 6.39q-9.92 2.91-20.24-1.7l-8.52-4.38q-9.26-4.76-18.67-2.81c-4.91 1.02-8.4 3.1-13.83 6.11q-12.21 6.78-25.28 1.76c-3.3-1.27-7.64-4.05-10.92-5.59q-11.89-5.57-24.03-.18c-4.84 2.15-8.88 5.25-14.33 6.7q-5.93 1.59-12.5 1.26" vector-effect="non-scaling-stroke"/><path stroke="#81ca9f" d="M368.48 148.68q-.53.3-.3 1.08 4.77 15.93 7.59 25.61a.38.38 0 0 1-.56.43l-16.99-9.81a2.29 2.28-81 0 1-1.09-1.51l-6.43-31.57a1.2 1.19 78.5 0 0-1.41-.94l-1.64.33a1.52 1.51-11.7 0 0-1.18 1.78l5.61 27.55a.45.44 9.6 0 1-.67.47q-3.3-1.98-8.56-4.94-2.69-1.51-3.19-2.9-11.64-32.35-33.14-91.93a1.03 1.03 0 0 0-1.33-.62l-11.49 4.35a.91.9-20.4 0 0-.53 1.14l26.77 75.97a.37.37 0 0 1-.53.44l-18.95-10.94a5.3 5.3 4.7 0 1-2.29-2.7l-16.3-43a.98.97-20.4 0 0-1.26-.57l-12.72 4.83a.8.8 0 0 0-.47 1.03l10.12 26.71a.23.23 0 0 1-.29.3q-.11-.04-.27-.13-2.91-1.73-20.45-11.85a.9.9 0 0 0-1.2.32l-4.04 7.02-4.06 7a.9.9 0 0 0 .33 1.2q17.53 10.13 20.49 11.79.15.09.24.17a.23.23 0 0 1-.11.4l-28.19 4.59a.8.8 0 0 0-.66.92l2.18 13.43a.98.97 80.4 0 0 1.12.81l45.39-7.39a5.3 5.3 55.2 0 1 3.49.63l18.95 10.94a.37.37 0 0 1-.12.68l-79.17 14.81a.91.9 80.4 0 0-.73 1.03l1.98 12.13a1.03 1.03 0 0 0 1.2.84q62.35-11.18 96.19-17.28 1.45-.26 4.1 1.31 5.2 3.08 8.56 4.94a.45.44 50.4 0 1-.07.82l-26.66 8.92a1.52 1.51 71.7 0 0-.95 1.91l.53 1.59a1.2 1.19-18.5 0 0 1.52.75l30.55-10.22a2.29 2.28-39 0 1 1.86.19l16.99 9.8a.38.38 0 0 1-.09.7q-9.8 2.4-25.97 6.24-.79.19-.79.8t.79.8q16.17 3.84 25.97 6.23a.38.38 0 0 1 .09.7l-16.99 9.81a2.29 2.28 39 0 1-1.85.19l-30.56-10.21a1.2 1.19 18.5 0 0-1.52.75l-.53 1.58a1.52 1.51-71.7 0 0 .95 1.91l26.66 8.92a.45.44-50.4 0 1 .07.82q-3.36 1.86-8.55 4.94-2.66 1.57-4.11 1.31-33.84-6.09-96.18-17.26a1.03 1.03 0 0 0-1.21.84l-1.97 12.12a.91.9-80.4 0 0 .72 1.03l79.18 14.8a.37.37 0 0 1 .11.68l-18.95 10.95a5.3 5.3-55.3 0 1-3.48.63l-45.39-7.39a.98.97-80.4 0 0-1.12.81l-2.18 13.43a.8.8 0 0 0 .66.92l28.19 4.59a.23.23 0 0 1 .11.41l-.24.16q-2.96 1.66-20.49 11.79a.9.9 0 0 0-.32 1.2l4.05 7.01 4.04 7.01a.9.9 0 0 0 1.2.32q17.54-10.12 20.45-11.85.16-.09.27-.13a.23.23 0 0 1 .29.3l-10.11 26.71a.8.8 0 0 0 .47 1.03l12.72 4.83a.98.97 20.4 0 0 1.26-.57l16.29-43a5.3 5.3-4.8 0 1 2.29-2.7l18.95-10.95a.37.37 0 0 1 .53.44l-26.76 75.98a.91.9 20.4 0 0 .53 1.14l11.49 4.35a1.03 1.03 0 0 0 1.33-.62q21.49-59.59 33.13-91.94.5-1.39 3.19-2.9 5.26-2.96 8.56-4.94a.45.44-9.6 0 1 .67.47l-5.61 27.55a1.52 1.51 11.7 0 0 1.18 1.78l1.64.33a1.2 1.19-78.5 0 0 1.41-.94l6.42-31.57a2.29 2.28 81 0 1 1.09-1.51l16.99-9.81a.38.38 0 0 1 .56.43q-2.82 9.68-7.58 25.61-.23.77.3 1.08.53.3 1.09-.28 11.41-12.1 18.38-19.38a.38.38 0 0 1 .65.27v19.62a2.29 2.28-21 0 1-.76 1.7l-24.13 21.35a1.2 1.19-41.5 0 0-.1 1.69l1.1 1.26a1.52 1.51 48.3 0 0 2.13.13l21.06-18.63a.45.44 69.6 0 1 .74.34q-.07 3.85 0 9.89.04 3.08-.92 4.21-22.19 26.25-63.04 74.66a1.03 1.03 0 0 0 .13 1.47l9.51 7.77a.91.9 39.6 0 0 1.25-.11l52.41-61.17a.37.37 0 0 1 .65.24v21.88a5.3 5.3 64.7 0 1-1.2 3.33l-29.09 35.62a.98.97 39.6 0 0 .14 1.38l10.54 8.6a.8.8 0 0 0 1.13-.11l18.07-22.12a.23.23 0 0 1 .41.1q.02.12.02.3-.04 3.39-.04 23.64a.9.9 0 0 0 .88.88l8.1-.02 8.09.01a.9.9 0 0 0 .88-.88q0-20.25-.04-23.63 0-.18.02-.3a.23.23 0 0 1 .41-.1l18.07 22.12a.8.8 0 0 0 1.13.1l10.54-8.6a.98.97-39.6 0 0 .14-1.37l-29.1-35.62a5.3 5.3-64.8 0 1-1.19-3.33v-21.88a.37.37 0 0 1 .64-.24l52.42 61.16a.91.9-39.6 0 0 1.25.11l9.51-7.78a1.03 1.03 0 0 0 .13-1.46q-40.86-48.4-63.06-74.65-.95-1.13-.91-4.22.06-6.03 0-9.88a.45.44-69.6 0 1 .74-.34l21.06 18.63a1.52 1.51-48.3 0 0 2.13-.14l1.1-1.25a1.2 1.19 41.5 0 0-.11-1.69l-24.12-21.35a2.29 2.28 21 0 1-.77-1.7v-19.62a.38.38 0 0 1 .65-.27q6.98 7.28 18.39 19.37.56.59 1.09.28t.29-1.08q-4.76-15.93-7.58-25.61a.38.38 0 0 1 .56-.43l16.99 9.81a2.29 2.28-81 0 1 1.09 1.51l6.43 31.57a1.2 1.19 78.5 0 0 1.41.94l1.64-.33a1.52 1.51-11.7 0 0 1.18-1.78l-5.61-27.55a.45.44 9.6 0 1 .67-.47q3.3 1.98 8.56 4.94 2.69 1.51 3.19 2.9 11.64 32.35 33.14 91.93a1.03 1.03 0 0 0 1.33.62l11.49-4.35a.91.9-20.4 0 0 .53-1.14l-26.77-75.97a.37.37 0 0 1 .53-.44l18.95 10.94a5.3 5.3 4.7 0 1 2.29 2.7l16.3 43a.98.97-20.4 0 0 1.26.57l12.72-4.83a.8.8 0 0 0 .47-1.03l-10.12-26.71a.23.23 0 0 1 .29-.3q.11.04.27.13 2.91 1.73 20.45 11.85a.9.9 0 0 0 1.2-.32l4.04-7.01 4.05-7.01a.9.9 0 0 0-.32-1.2q-17.53-10.13-20.49-11.78l-.25-.17a.23.23 0 0 1 .12-.4l28.19-4.6a.8.8 0 0 0 .66-.92l-2.18-13.43a.98.97 80.4 0 0-1.13-.81l-45.38 7.39a5.3 5.3 55.2 0 1-3.49-.63l-18.95-10.94a.37.37 0 0 1 .12-.68L564 223.54a.91.9 80.4 0 0 .73-1.03l-1.98-12.12a1.03 1.03 0 0 0-1.21-.85q-62.34 11.18-96.18 17.28-1.45.26-4.1-1.31-5.2-3.07-8.56-4.94a.45.44 50.4 0 1 .07-.82l26.66-8.92a1.52 1.51 71.7 0 0 .95-1.91l-.53-1.58a1.2 1.19-18.5 0 0-1.52-.76l-30.56 10.23a2.29 2.28-39 0 1-1.85-.19l-16.99-9.81a.38.38 0 0 1 .09-.7q9.8-2.4 25.97-6.24.79-.19.79-.8t-.79-.8q-16.18-3.83-25.97-6.23a.38.38 0 0 1-.09-.7l16.99-9.81a2.29 2.28 39 0 1 1.85-.19l30.56 10.22a1.2 1.19 18.5 0 0 1.52-.75l.53-1.59a1.52 1.51-71.7 0 0-.95-1.91l-26.66-8.92a.45.44-50.4 0 1-.08-.81q3.37-1.87 8.56-4.95 2.65-1.57 4.11-1.31 33.83 6.1 96.18 17.27a1.03 1.03 0 0 0 1.2-.85l1.98-12.12a.91.9-80.4 0 0-.72-1.03l-79.18-14.8a.37.37 0 0 1-.11-.68l18.95-10.94a5.3 5.3-55.3 0 1 3.48-.64l45.39 7.39a.98.97-80.4 0 0 1.12-.81l2.18-13.43a.8.8 0 0 0-.66-.92l-28.19-4.59a.23.23 0 0 1-.11-.4q.09-.08.24-.17 2.96-1.66 20.49-11.79a.9.9 0 0 0 .32-1.2l-4.05-7-4.04-7.02a.9.9 0 0 0-1.2-.32q-17.54 10.12-20.45 11.85-.16.09-.27.13a.23.23 0 0 1-.29-.3l10.11-26.71a.8.8 0 0 0-.47-1.03l-12.72-4.83a.98.97 20.4 0 0-1.26.57l-16.29 43.01a5.3 5.3-4.8 0 1-2.29 2.7l-18.95 10.94a.37.37 0 0 1-.53-.44l26.76-75.97a.91.9 20.4 0 0-.53-1.14l-11.49-4.35a1.03 1.03 0 0 0-1.33.62q-21.49 59.58-33.13 91.93-.5 1.39-3.19 2.9-5.26 2.96-8.56 4.94a.45.44-9.6 0 1-.67-.47l5.61-27.55a1.52 1.51 11.7 0 0-1.18-1.78l-1.64-.33a1.2 1.19-78.5 0 0-1.41.94l-6.43 31.57a2.29 2.28 81 0 1-1.09 1.51l-16.98 9.82a.38.38 0 0 1-.56-.43q2.81-9.68 7.58-25.61.23-.78-.3-1.09-.53-.3-1.09.29-11.41 12.09-18.38 19.37a.38.38 0 0 1-.66-.27l.01-19.62a2.29 2.28-21 0 1 .76-1.7l24.12-21.35a1.2 1.19-41.5 0 0 .11-1.69l-1.1-1.26a1.52 1.51 48.3 0 0-2.13-.13l-21.06 18.64a.45.44 69.6 0 1-.74-.35q.06-3.85 0-9.88-.04-3.09.91-4.22 22.2-26.25 63.05-74.66a1.03 1.03 0 0 0-.13-1.46l-9.51-7.78a.91.9 39.6 0 0-1.25.11l-52.41 61.17a.37.37 0 0 1-.65-.24V81.76a5.3 5.3 64.7 0 1 1.19-3.33l29.09-35.62a.98.97 39.6 0 0-.13-1.37l-10.55-8.61a.8.8 0 0 0-1.12.11l-18.07 22.12a.23.23 0 0 1-.41-.1q-.02-.11-.02-.3.04-3.38.04-23.63a.9.9 0 0 0-.88-.88l-8.1.01-8.09-.01a.9.9 0 0 0-.88.88q0 20.25.04 23.63 0 .19-.02.3a.23.23 0 0 1-.41.1l-18.07-22.11a.8.8 0 0 0-1.13-.11l-10.54 8.6a.98.97-39.6 0 0-.14 1.38l29.1 35.61a5.3 5.3-64.8 0 1 1.19 3.33v21.88a.37.37 0 0 1-.64.24l-52.42-61.16a.91.9-39.6 0 0-1.25-.11l-9.51 7.78a1.03 1.03 0 0 0-.13 1.46q40.85 48.4 63.05 74.66.96 1.12.92 4.21-.06 6.03 0 9.88a.45.44-69.6 0 1-.74.35l-21.06-18.63a1.52 1.51-48.3 0 0-2.13.13l-1.11 1.25a1.2 1.19 41.5 0 0 .11 1.7l24.13 21.35a2.29 2.28 21 0 1 .77 1.69v19.62a.38.38 0 0 1-.65.27q-6.98-7.28-18.39-19.37-.56-.59-1.09-.28" vector-effect="non-scaling-stroke"/><path stroke="#81ca9f" d="M397.6 192.48q-.32 0-.6-.48-4.93-8.46-10.84-18.79a.6.6 0 0 0-.76-.24q-1.08.5-2.21 1.15t-2.1 1.33a.6.6 0 0 0-.17.78q5.99 10.29 10.85 18.79.28.48.12.76-.16.27-.72.28-9.79.04-21.69-.01a.6.6 0 0 0-.59.54q-.11 1.18-.11 2.49 0 1.3.11 2.48a.6.6 0 0 0 .59.54q11.9-.05 21.69 0 .56 0 .72.27.16.28-.12.76-4.86 8.5-10.85 18.79a.6.6 0 0 0 .17.78q.97.68 2.1 1.33t2.21 1.15a.6.6 0 0 0 .76-.24q5.91-10.33 10.84-18.79.28-.48.6-.48t.6.48q4.93 8.46 10.84 18.79a.6.6 0 0 0 .76.24q1.08-.5 2.21-1.15t2.1-1.33a.6.6 0 0 0 .17-.78q-5.99-10.29-10.85-18.79-.28-.48-.12-.76.16-.27.72-.27 9.79-.05 21.69 0a.6.6 0 0 0 .59-.54q.11-1.18.11-2.48 0-1.31-.11-2.49a.6.6 0 0 0-.59-.54q-11.9.05-21.69.01-.56-.01-.72-.28-.16-.28.12-.76 4.86-8.5 10.85-18.78a.6.6 0 0 0-.17-.79q-.97-.68-2.1-1.33t-2.21-1.15a.6.6 0 0 0-.76.24q-5.91 10.33-10.84 18.79-.28.48-.6.48" vector-effect="non-scaling-stroke"/><path stroke="#80c5e9" d="M800 532.39q-.28.24-.4.61" vector-effect="non-scaling-stroke"/></g><path fill="#fff" d="M800 0v390.87q-4.37-2.95-10.18-3.97-8.08-1.42-15.7 1.72c-4.37 1.81-9.29 5.16-13.77 6.75q-12.05 4.25-24.05-2.47-6.85-3.83-10.61-5.1c-10.1-3.41-18.5-.09-27.61 5.03-9.74 5.48-20.26 5.44-29.92-.04-7.93-4.5-14.67-7.58-23.99-5.91-5.14.92-9.42 3.4-14.37 6.17q-10.81 6.04-22.7 2.73c-4.81-1.34-10.59-5.43-14.77-7.12q-11.83-4.81-23.34.63l-9 4.62q-8.84 4.54-18.51 2.43c-4.77-1.04-8.39-3.2-13.36-5.93q-12.17-6.67-24.6-2.15c-3.68 1.34-8.12 4.27-11.48 5.83q-11.62 5.41-22.95.82c-4.53-1.83-9.68-5.55-14.31-7q-12.63-3.96-24.49 2.94-6.52 3.8-10.27 4.89-11.45 3.32-21.94-2.36-6.04-3.26-7.49-3.95-13.88-6.58-27.55 1.13-6.56 3.71-10.43 4.98-10.93 3.62-21.46-1.73l-8.72-4.43q-10.92-5.36-22.17-1.2c-2.87 1.07-5.13 2.34-8.49 4.25-7.91 4.52-16.44 5.9-25.1 2.93-4.13-1.42-7.88-3.98-11.69-5.83q-11.83-5.71-23.83-.9-1.8.72-6.96 3.65c-9.04 5.12-18.27 6.43-27.98 1.99-4.38-2-8.85-5.11-13.83-6.63q-10.33-3.18-20.7 1.81c-4.59 2.21-8.54 4.98-13.36 6.39q-9.92 2.91-20.24-1.7l-8.52-4.38q-9.26-4.76-18.67-2.81c-4.91 1.02-8.4 3.1-13.83 6.11q-12.21 6.78-25.28 1.76c-3.3-1.27-7.64-4.05-10.92-5.59q-11.89-5.57-24.03-.18c-4.84 2.15-8.88 5.25-14.33 6.7q-5.93 1.59-12.5 1.26V0zM368.48 148.68q-.53.3-.3 1.08 4.77 15.93 7.59 25.61a.38.38 0 0 1-.56.43l-16.99-9.81a2.29 2.28-81 0 1-1.09-1.51l-6.43-31.57a1.2 1.19 78.5 0 0-1.41-.94l-1.64.33a1.52 1.51-11.7 0 0-1.18 1.78l5.61 27.55a.45.44 9.6 0 1-.67.47q-3.3-1.98-8.56-4.94-2.69-1.51-3.19-2.9-11.64-32.35-33.14-91.93a1.03 1.03 0 0 0-1.33-.62l-11.49 4.35a.91.9-20.4 0 0-.53 1.14l26.77 75.97a.37.37 0 0 1-.53.44l-18.95-10.94a5.3 5.3 4.7 0 1-2.29-2.7l-16.3-43a.98.97-20.4 0 0-1.26-.57l-12.72 4.83a.8.8 0 0 0-.47 1.03l10.12 26.71a.23.23 0 0 1-.29.3q-.11-.04-.27-.13-2.91-1.73-20.45-11.85a.9.9 0 0 0-1.2.32l-4.04 7.02-4.06 7a.9.9 0 0 0 .33 1.2q17.53 10.13 20.49 11.79.15.09.24.17a.23.23 0 0 1-.11.4l-28.19 4.59a.8.8 0 0 0-.66.92l2.18 13.43a.98.97 80.4 0 0 1.12.81l45.39-7.39a5.3 5.3 55.2 0 1 3.49.63l18.95 10.94a.37.37 0 0 1-.12.68l-79.17 14.81a.91.9 80.4 0 0-.73 1.03l1.98 12.13a1.03 1.03 0 0 0 1.2.84q62.35-11.18 96.19-17.28 1.45-.26 4.1 1.31 5.2 3.08 8.56 4.94a.45.44 50.4 0 1-.07.82l-26.66 8.92a1.52 1.51 71.7 0 0-.95 1.91l.53 1.59a1.2 1.19-18.5 0 0 1.52.75l30.55-10.22a2.29 2.28-39 0 1 1.86.19l16.99 9.8a.38.38 0 0 1-.09.7q-9.8 2.4-25.97 6.24-.79.19-.79.8t.79.8q16.17 3.84 25.97 6.23a.38.38 0 0 1 .09.7l-16.99 9.81a2.29 2.28 39 0 1-1.85.19l-30.56-10.21a1.2 1.19 18.5 0 0-1.52.75l-.53 1.58a1.52 1.51-71.7 0 0 .95 1.91l26.66 8.92a.45.44-50.4 0 1 .07.82q-3.36 1.86-8.55 4.94-2.66 1.57-4.11 1.31-33.84-6.09-96.18-17.26a1.03 1.03 0 0 0-1.21.84l-1.97 12.12a.91.9-80.4 0 0 .72 1.03l79.18 14.8a.37.37 0 0 1 .11.68l-18.95 10.95a5.3 5.3-55.3 0 1-3.48.63l-45.39-7.39a.98.97-80.4 0 0-1.12.81l-2.18 13.43a.8.8 0 0 0 .66.92l28.19 4.59a.23.23 0 0 1 .11.41l-.24.16q-2.96 1.66-20.49 11.79a.9.9 0 0 0-.32 1.2l4.05 7.01 4.04 7.01a.9.9 0 0 0 1.2.32q17.54-10.12 20.45-11.85.16-.09.27-.13a.23.23 0 0 1 .29.3l-10.11 26.71a.8.8 0 0 0 .47 1.03l12.72 4.83a.98.97 20.4 0 0 1.26-.57l16.29-43a5.3 5.3-4.8 0 1 2.29-2.7l18.95-10.95a.37.37 0 0 1 .53.44l-26.76 75.98a.91.9 20.4 0 0 .53 1.14l11.49 4.35a1.03 1.03 0 0 0 1.33-.62q21.49-59.59 33.13-91.94.5-1.39 3.19-2.9 5.26-2.96 8.56-4.94a.45.44-9.6 0 1 .67.47l-5.61 27.55a1.52 1.51 11.7 0 0 1.18 1.78l1.64.33a1.2 1.19-78.5 0 0 1.41-.94l6.42-31.57a2.29 2.28 81 0 1 1.09-1.51l16.99-9.81a.38.38 0 0 1 .56.43q-2.82 9.68-7.58 25.61-.23.77.3 1.08.53.3 1.09-.28 11.41-12.1 18.38-19.38a.38.38 0 0 1 .65.27v19.62a2.29 2.28-21 0 1-.76 1.7l-24.13 21.35a1.2 1.19-41.5 0 0-.1 1.69l1.1 1.26a1.52 1.51 48.3 0 0 2.13.13l21.06-18.63a.45.44 69.6 0 1 .74.34q-.07 3.85 0 9.89.04 3.08-.92 4.21-22.19 26.25-63.04 74.66a1.03 1.03 0 0 0 .13 1.47l9.51 7.77a.91.9 39.6 0 0 1.25-.11l52.41-61.17a.37.37 0 0 1 .65.24v21.88a5.3 5.3 64.7 0 1-1.2 3.33l-29.09 35.62a.98.97 39.6 0 0 .14 1.38l10.54 8.6a.8.8 0 0 0 1.13-.11l18.07-22.12a.23.23 0 0 1 .41.1q.02.12.02.3-.04 3.39-.04 23.64a.9.9 0 0 0 .88.88l8.1-.02 8.09.01a.9.9 0 0 0 .88-.88q0-20.25-.04-23.63 0-.18.02-.3a.23.23 0 0 1 .41-.1l18.07 22.12a.8.8 0 0 0 1.13.1l10.54-8.6a.98.97-39.6 0 0 .14-1.37l-29.1-35.62a5.3 5.3-64.8 0 1-1.19-3.33v-21.88a.37.37 0 0 1 .64-.24l52.42 61.16a.91.9-39.6 0 0 1.25.11l9.51-7.78a1.03 1.03 0 0 0 .13-1.46q-40.86-48.4-63.06-74.65-.95-1.13-.91-4.22.06-6.03 0-9.88a.45.44-69.6 0 1 .74-.34l21.06 18.63a1.52 1.51-48.3 0 0 2.13-.14l1.1-1.25a1.2 1.19 41.5 0 0-.11-1.69l-24.12-21.35a2.29 2.28 21 0 1-.77-1.7v-19.62a.38.38 0 0 1 .65-.27q6.98 7.28 18.39 19.37.56.59 1.09.28t.29-1.08q-4.76-15.93-7.58-25.61a.38.38 0 0 1 .56-.43l16.99 9.81a2.29 2.28-81 0 1 1.09 1.51l6.43 31.57a1.2 1.19 78.5 0 0 1.41.94l1.64-.33a1.52 1.51-11.7 0 0 1.18-1.78l-5.61-27.55a.45.44 9.6 0 1 .67-.47q3.3 1.98 8.56 4.94 2.69 1.51 3.19 2.9 11.64 32.35 33.14 91.93a1.03 1.03 0 0 0 1.33.62l11.49-4.35a.91.9-20.4 0 0 .53-1.14l-26.77-75.97a.37.37 0 0 1 .53-.44l18.95 10.94a5.3 5.3 4.7 0 1 2.29 2.7l16.3 43a.98.97-20.4 0 0 1.26.57l12.72-4.83a.8.8 0 0 0 .47-1.03l-10.12-26.71a.23.23 0 0 1 .29-.3q.11.04.27.13 2.91 1.73 20.45 11.85a.9.9 0 0 0 1.2-.32l4.04-7.01 4.05-7.01a.9.9 0 0 0-.32-1.2q-17.53-10.13-20.49-11.78l-.25-.17a.23.23 0 0 1 .12-.4l28.19-4.6a.8.8 0 0 0 .66-.92l-2.18-13.43a.98.97 80.4 0 0-1.13-.81l-45.38 7.39a5.3 5.3 55.2 0 1-3.49-.63l-18.95-10.94a.37.37 0 0 1 .12-.68L564 223.54a.91.9 80.4 0 0 .73-1.03l-1.98-12.12a1.03 1.03 0 0 0-1.21-.85q-62.34 11.18-96.18 17.28-1.45.26-4.1-1.31-5.2-3.07-8.56-4.94a.45.44 50.4 0 1 .07-.82l26.66-8.92a1.52 1.51 71.7 0 0 .95-1.91l-.53-1.58a1.2 1.19-18.5 0 0-1.52-.76l-30.56 10.23a2.29 2.28-39 0 1-1.85-.19l-16.99-9.81a.38.38 0 0 1 .09-.7q9.8-2.4 25.97-6.24.79-.19.79-.8t-.79-.8q-16.18-3.83-25.97-6.23a.38.38 0 0 1-.09-.7l16.99-9.81a2.29 2.28 39 0 1 1.85-.19l30.56 10.22a1.2 1.19 18.5 0 0 1.52-.75l.53-1.59a1.52 1.51-71.7 0 0-.95-1.91l-26.66-8.92a.45.44-50.4 0 1-.08-.81q3.37-1.87 8.56-4.95 2.65-1.57 4.11-1.31 33.83 6.1 96.18 17.27a1.03 1.03 0 0 0 1.2-.85l1.98-12.12a.91.9-80.4 0 0-.72-1.03l-79.18-14.8a.37.37 0 0 1-.11-.68l18.95-10.94a5.3 5.3-55.3 0 1 3.48-.64l45.39 7.39a.98.97-80.4 0 0 1.12-.81l2.18-13.43a.8.8 0 0 0-.66-.92l-28.19-4.59a.23.23 0 0 1-.11-.4q.09-.08.24-.17 2.96-1.66 20.49-11.79a.9.9 0 0 0 .32-1.2l-4.05-7-4.04-7.02a.9.9 0 0 0-1.2-.32q-17.54 10.12-20.45 11.85-.16.09-.27.13a.23.23 0 0 1-.29-.3l10.11-26.71a.8.8 0 0 0-.47-1.03l-12.72-4.83a.98.97 20.4 0 0-1.26.57l-16.29 43.01a5.3 5.3-4.8 0 1-2.29 2.7l-18.95 10.94a.37.37 0 0 1-.53-.44l26.76-75.97a.91.9 20.4 0 0-.53-1.14l-11.49-4.35a1.03 1.03 0 0 0-1.33.62q-21.49 59.58-33.13 91.93-.5 1.39-3.19 2.9-5.26 2.96-8.56 4.94a.45.44-9.6 0 1-.67-.47l5.61-27.55a1.52 1.51 11.7 0 0-1.18-1.78l-1.64-.33a1.2 1.19-78.5 0 0-1.41.94l-6.43 31.57a2.29 2.28 81 0 1-1.09 1.51l-16.98 9.82a.38.38 0 0 1-.56-.43q2.81-9.68 7.58-25.61.23-.78-.3-1.09-.53-.3-1.09.29-11.41 12.09-18.38 19.37a.38.38 0 0 1-.66-.27l.01-19.62a2.29 2.28-21 0 1 .76-1.7l24.12-21.35a1.2 1.19-41.5 0 0 .11-1.69l-1.1-1.26a1.52 1.51 48.3 0 0-2.13-.13l-21.06 18.64a.45.44 69.6 0 1-.74-.35q.06-3.85 0-9.88-.04-3.09.91-4.22 22.2-26.25 63.05-74.66a1.03 1.03 0 0 0-.13-1.46l-9.51-7.78a.91.9 39.6 0 0-1.25.11l-52.41 61.17a.37.37 0 0 1-.65-.24V81.76a5.3 5.3 64.7 0 1 1.19-3.33l29.09-35.62a.98.97 39.6 0 0-.13-1.37l-10.55-8.61a.8.8 0 0 0-1.12.11l-18.07 22.12a.23.23 0 0 1-.41-.1q-.02-.11-.02-.3.04-3.38.04-23.63a.9.9 0 0 0-.88-.88l-8.1.01-8.09-.01a.9.9 0 0 0-.88.88q0 20.25.04 23.63 0 .19-.02.3a.23.23 0 0 1-.41.1l-18.07-22.11a.8.8 0 0 0-1.13-.11l-10.54 8.6a.98.97-39.6 0 0-.14 1.38l29.1 35.61a5.3 5.3-64.8 0 1 1.19 3.33v21.88a.37.37 0 0 1-.64.24l-52.42-61.16a.91.9-39.6 0 0-1.25-.11l-9.51 7.78a1.03 1.03 0 0 0-.13 1.46q40.85 48.4 63.05 74.66.96 1.12.92 4.21-.06 6.03 0 9.88a.45.44-69.6 0 1-.74.35l-21.06-18.63a1.52 1.51-48.3 0 0-2.13.13l-1.11 1.25a1.2 1.19 41.5 0 0 .11 1.7l24.13 21.35a2.29 2.28 21 0 1 .77 1.69v19.62a.38.38 0 0 1-.65.27q-6.98-7.28-18.39-19.37-.56-.59-1.09-.28"/><path fill="#02943f" d="m397.57 30.16 8.1-.01a.9.9 0 0 1 .88.88q0 20.25-.04 23.63 0 .19.02.3a.23.23 0 0 0 .41.1l18.07-22.12a.8.8 0 0 1 1.12-.11l10.55 8.61a.98.97 39.6 0 1 .13 1.37l-29.09 35.62a5.3 5.3 64.7 0 0-1.19 3.33v21.88a.37.37 0 0 0 .65.24l52.41-61.17a.91.9 39.6 0 1 1.25-.11l9.51 7.78a1.03 1.03 0 0 1 .13 1.46q-40.85 48.41-63.05 74.66-.95 1.13-.91 4.22.06 6.03 0 9.88a.45.44 69.6 0 0 .74.35l21.06-18.64a1.52 1.51 48.3 0 1 2.13.13l1.1 1.26a1.2 1.19-41.5 0 1-.11 1.69l-24.12 21.35a2.29 2.28-21 0 0-.76 1.7l-.01 19.62a.38.38 0 0 0 .66.27q6.97-7.28 18.38-19.37.56-.59 1.09-.29.53.31.3 1.09-4.77 15.93-7.58 25.61a.38.38 0 0 0 .56.43l16.98-9.82a2.29 2.28 81 0 0 1.09-1.51l6.43-31.57a1.2 1.19-78.5 0 1 1.41-.94l1.64.33a1.52 1.51 11.7 0 1 1.18 1.78l-5.61 27.55a.45.44-9.6 0 0 .67.47q3.3-1.98 8.56-4.94 2.69-1.51 3.19-2.9 11.64-32.35 33.13-91.93a1.03 1.03 0 0 1 1.33-.62l11.49 4.35a.91.9 20.4 0 1 .53 1.14l-26.76 75.97a.37.37 0 0 0 .53.44l18.95-10.94a5.3 5.3-4.8 0 0 2.29-2.7l16.29-43.01a.98.97 20.4 0 1 1.26-.57l12.72 4.83a.8.8 0 0 1 .47 1.03l-10.11 26.71a.23.23 0 0 0 .29.3q.11-.04.27-.13 2.91-1.73 20.45-11.85a.9.9 0 0 1 1.2.32l4.04 7.02 4.05 7a.9.9 0 0 1-.32 1.2q-17.53 10.13-20.49 11.79-.15.09-.24.17a.23.23 0 0 0 .11.4l28.19 4.59a.8.8 0 0 1 .66.92l-2.18 13.43a.98.97-80.4 0 1-1.12.81l-45.39-7.39a5.3 5.3-55.3 0 0-3.48.64l-18.95 10.94a.37.37 0 0 0 .11.68l79.18 14.8a.91.9-80.4 0 1 .72 1.03l-1.98 12.12a1.03 1.03 0 0 1-1.2.85q-62.35-11.17-96.18-17.27-1.46-.26-4.11 1.31-5.19 3.08-8.56 4.95a.45.44-50.4 0 0 .08.81l26.66 8.92a1.52 1.51-71.7 0 1 .95 1.91l-.53 1.59a1.2 1.19 18.5 0 1-1.52.75l-30.56-10.22a2.29 2.28 39 0 0-1.85.19l-16.99 9.81a.38.38 0 0 0 .09.7q9.79 2.4 25.97 6.23.79.19.79.8t-.79.8q-16.17 3.84-25.97 6.24a.38.38 0 0 0-.09.7l16.99 9.81a2.29 2.28-39 0 0 1.85.19l30.56-10.23a1.2 1.19-18.5 0 1 1.52.76l.53 1.58a1.52 1.51 71.7 0 1-.95 1.91l-26.66 8.92a.45.44 50.4 0 0-.07.82q3.36 1.87 8.56 4.94 2.65 1.57 4.1 1.31 33.84-6.1 96.18-17.28a1.03 1.03 0 0 1 1.21.85l1.98 12.12a.91.9 80.4 0 1-.73 1.03l-79.17 14.81a.37.37 0 0 0-.12.68l18.95 10.94a5.3 5.3 55.2 0 0 3.49.63l45.38-7.39a.98.97 80.4 0 1 1.13.81l2.18 13.43a.8.8 0 0 1-.66.92l-28.19 4.6a.23.23 0 0 0-.12.4l.25.17q2.96 1.65 20.49 11.78a.9.9 0 0 1 .32 1.2l-4.05 7.01-4.04 7.01a.9.9 0 0 1-1.2.32q-17.54-10.12-20.45-11.85-.16-.09-.27-.13a.23.23 0 0 0-.29.3l10.12 26.71a.8.8 0 0 1-.47 1.03l-12.72 4.83a.98.97-20.4 0 1-1.26-.57l-16.3-43a5.3 5.3 4.7 0 0-2.29-2.7l-18.95-10.94a.37.37 0 0 0-.53.44L502 330.95a.91.9-20.4 0 1-.53 1.14l-11.49 4.35a1.03 1.03 0 0 1-1.33-.62q-21.5-59.58-33.14-91.93-.5-1.39-3.19-2.9-5.26-2.96-8.56-4.94a.45.44 9.6 0 0-.67.47l5.61 27.55a1.52 1.51-11.7 0 1-1.18 1.78l-1.64.33a1.2 1.19 78.5 0 1-1.41-.94l-6.43-31.57a2.29 2.28-81 0 0-1.09-1.51l-16.99-9.81a.38.38 0 0 0-.56.43q2.82 9.68 7.58 25.61.24.78-.29 1.08t-1.09-.28q-11.41-12.09-18.39-19.37a.38.38 0 0 0-.65.27v19.62a2.29 2.28 21 0 0 .77 1.7l24.12 21.35a1.2 1.19 41.5 0 1 .11 1.69l-1.1 1.25a1.52 1.51-48.3 0 1-2.13.14l-21.06-18.63a.45.44-69.6 0 0-.74.34q.06 3.85 0 9.88-.04 3.09.91 4.22 22.2 26.25 63.06 74.65a1.03 1.03 0 0 1-.13 1.46l-9.51 7.78a.91.9-39.6 0 1-1.25-.11l-52.42-61.16a.37.37 0 0 0-.64.24v21.88a5.3 5.3-64.8 0 0 1.19 3.33l29.1 35.62a.98.97-39.6 0 1-.14 1.37l-10.54 8.6a.8.8 0 0 1-1.13-.1l-18.07-22.12a.23.23 0 0 0-.41.1q-.02.12-.02.3.04 3.38.04 23.63a.9.9 0 0 1-.88.88l-8.09-.01-8.1.02a.9.9 0 0 1-.88-.88q0-20.25.04-23.64 0-.18-.02-.3a.23.23 0 0 0-.41-.1l-18.07 22.12a.8.8 0 0 1-1.13.11l-10.54-8.6a.98.97 39.6 0 1-.14-1.38l29.09-35.62a5.3 5.3 64.7 0 0 1.2-3.33v-21.88a.37.37 0 0 0-.65-.24l-52.41 61.17a.91.9 39.6 0 1-1.25.11l-9.51-7.77a1.03 1.03 0 0 1-.13-1.47q40.85-48.41 63.04-74.66.96-1.13.92-4.21-.07-6.04 0-9.89a.45.44 69.6 0 0-.74-.34l-21.06 18.63a1.52 1.51 48.3 0 1-2.13-.13l-1.1-1.26a1.2 1.19-41.5 0 1 .1-1.69l24.13-21.35a2.29 2.28-21 0 0 .76-1.7v-19.62a.38.38 0 0 0-.65-.27q-6.97 7.28-18.38 19.38-.56.58-1.09.28-.53-.31-.3-1.08 4.76-15.93 7.58-25.61a.38.38 0 0 0-.56-.43l-16.99 9.81a2.29 2.28 81 0 0-1.09 1.51l-6.42 31.57a1.2 1.19-78.5 0 1-1.41.94l-1.64-.33a1.52 1.51 11.7 0 1-1.18-1.78l5.61-27.55a.45.44-9.6 0 0-.67-.47q-3.3 1.98-8.56 4.94-2.69 1.51-3.19 2.9-11.64 32.35-33.13 91.94a1.03 1.03 0 0 1-1.33.62l-11.49-4.35a.91.9 20.4 0 1-.53-1.14l26.76-75.98a.37.37 0 0 0-.53-.44l-18.95 10.95a5.3 5.3-4.8 0 0-2.29 2.7l-16.29 43a.98.97 20.4 0 1-1.26.57l-12.72-4.83a.8.8 0 0 1-.47-1.03l10.11-26.71a.23.23 0 0 0-.29-.3q-.11.04-.27.13-2.91 1.73-20.45 11.85a.9.9 0 0 1-1.2-.32l-4.04-7.01-4.05-7.01a.9.9 0 0 1 .32-1.2q17.53-10.13 20.49-11.79l.24-.16a.23.23 0 0 0-.11-.41L240 258.39a.8.8 0 0 1-.66-.92l2.18-13.43a.98.97-80.4 0 1 1.12-.81l45.39 7.39a5.3 5.3-55.3 0 0 3.48-.63l18.95-10.95a.37.37 0 0 0-.11-.68l-79.18-14.8a.91.9-80.4 0 1-.72-1.03l1.97-12.12a1.03 1.03 0 0 1 1.21-.84q62.34 11.17 96.18 17.26 1.45.26 4.11-1.31 5.19-3.08 8.55-4.94a.45.44-50.4 0 0-.07-.82l-26.66-8.92a1.52 1.51-71.7 0 1-.95-1.91l.53-1.58a1.2 1.19 18.5 0 1 1.52-.75l30.56 10.21a2.29 2.28 39 0 0 1.85-.19l16.99-9.81a.38.38 0 0 0-.09-.7q-9.8-2.39-25.97-6.23-.79-.19-.79-.8t.79-.8q16.17-3.84 25.97-6.24a.38.38 0 0 0 .09-.7l-16.99-9.8a2.29 2.28-39 0 0-1.86-.19l-30.55 10.22a1.2 1.19-18.5 0 1-1.52-.75l-.53-1.59a1.52 1.51 71.7 0 1 .95-1.91l26.66-8.92a.45.44 50.4 0 0 .07-.82q-3.36-1.86-8.56-4.94-2.65-1.57-4.1-1.31-33.84 6.1-96.19 17.28a1.03 1.03 0 0 1-1.2-.84l-1.98-12.13a.91.9 80.4 0 1 .73-1.03l79.17-14.81a.37.37 0 0 0 .12-.68l-18.95-10.94a5.3 5.3 55.2 0 0-3.49-.63l-45.39 7.39a.98.97 80.4 0 1-1.12-.81l-2.18-13.43a.8.8 0 0 1 .66-.92l28.19-4.59a.23.23 0 0 0 .11-.4q-.09-.08-.24-.17-2.96-1.66-20.49-11.79a.9.9 0 0 1-.33-1.2l4.06-7 4.04-7.02a.9.9 0 0 1 1.2-.32q17.54 10.12 20.45 11.85.16.09.27.13a.23.23 0 0 0 .29-.3l-10.12-26.71a.8.8 0 0 1 .47-1.03l12.72-4.83a.98.97-20.4 0 1 1.26.57l16.3 43a5.3 5.3 4.7 0 0 2.29 2.7l18.95 10.94a.37.37 0 0 0 .53-.44L293.17 67.2a.91.9-20.4 0 1 .53-1.14l11.49-4.35a1.03 1.03 0 0 1 1.33.62q21.5 59.58 33.14 91.93.5 1.39 3.19 2.9 5.26 2.96 8.56 4.94a.45.44 9.6 0 0 .67-.47l-5.61-27.55a1.52 1.51-11.7 0 1 1.18-1.78l1.64-.33a1.2 1.19 78.5 0 1 1.41.94l6.43 31.57a2.29 2.28-81 0 0 1.09 1.51l16.99 9.81a.38.38 0 0 0 .56-.43q-2.82-9.68-7.59-25.61-.23-.78.3-1.08t1.09.28q11.41 12.09 18.39 19.37a.38.38 0 0 0 .65-.27v-19.62a2.29 2.28 21 0 0-.77-1.69l-24.13-21.35a1.2 1.19 41.5 0 1-.11-1.7l1.11-1.25a1.52 1.51-48.3 0 1 2.13-.13l21.06 18.63a.45.44-69.6 0 0 .74-.35q-.06-3.85 0-9.88.04-3.09-.92-4.21-22.2-26.26-63.05-74.66a1.03 1.03 0 0 1 .13-1.46l9.51-7.78a.91.9-39.6 0 1 1.25.11l52.42 61.16a.37.37 0 0 0 .64-.24V81.76a5.3 5.3-64.8 0 0-1.19-3.33l-29.1-35.61a.98.97-39.6 0 1 .14-1.38l10.54-8.6a.8.8 0 0 1 1.13.11l18.07 22.11a.23.23 0 0 0 .41-.1q.02-.11.02-.3-.04-3.38-.04-23.63a.9.9 0 0 1 .88-.88zm.03 162.32q-.32 0-.6-.48-4.93-8.46-10.84-18.79a.6.6 0 0 0-.76-.24q-1.08.5-2.21 1.15t-2.1 1.33a.6.6 0 0 0-.17.78q5.99 10.29 10.85 18.79.28.48.12.76-.16.27-.72.28-9.79.04-21.69-.01a.6.6 0 0 0-.59.54q-.11 1.18-.11 2.49 0 1.3.11 2.48a.6.6 0 0 0 .59.54q11.9-.05 21.69 0 .56 0 .72.27.16.28-.12.76-4.86 8.5-10.85 18.79a.6.6 0 0 0 .17.78q.97.68 2.1 1.33t2.21 1.15a.6.6 0 0 0 .76-.24q5.91-10.33 10.84-18.79.28-.48.6-.48t.6.48q4.93 8.46 10.84 18.79a.6.6 0 0 0 .76.24q1.08-.5 2.21-1.15t2.1-1.33a.6.6 0 0 0 .17-.78q-5.99-10.29-10.85-18.79-.28-.48-.12-.76.16-.27.72-.27 9.79-.05 21.69 0a.6.6 0 0 0 .59-.54q.11-1.18.11-2.48 0-1.31-.11-2.49a.6.6 0 0 0-.59-.54q-11.9.05-21.69.01-.56-.01-.72-.28-.16-.28.12-.76 4.86-8.5 10.85-18.78a.6.6 0 0 0-.17-.79q-.97-.68-2.1-1.33t-2.21-1.15a.6.6 0 0 0-.76.24q-5.91 10.33-10.84 18.79-.28.48-.6.48"/><path fill="#fff" d="M412.01 174.12q1.13.65 2.1 1.33a.6.6 0 0 1 .17.79q-5.99 10.28-10.85 18.78-.28.48-.12.76.16.27.72.28 9.79.04 21.69-.01a.6.6 0 0 1 .59.54q.11 1.18.11 2.49 0 1.3-.11 2.48a.6.6 0 0 1-.59.54q-11.9-.05-21.69 0-.56 0-.72.27-.16.28.12.76 4.86 8.5 10.85 18.79a.6.6 0 0 1-.17.78q-.97.68-2.1 1.33t-2.21 1.15a.6.6 0 0 1-.76-.24q-5.91-10.33-10.84-18.79-.28-.48-.6-.48t-.6.48q-4.93 8.46-10.84 18.79a.6.6 0 0 1-.76.24q-1.08-.5-2.21-1.15t-2.1-1.33a.6.6 0 0 1-.17-.78q5.99-10.29 10.85-18.79.28-.48.12-.76-.16-.27-.72-.27-9.79-.05-21.69 0a.6.6 0 0 1-.59-.54q-.11-1.18-.11-2.48 0-1.31.11-2.49a.6.6 0 0 1 .59-.54q11.9.05 21.69.01.56-.01.72-.28.16-.28-.12-.76-4.86-8.5-10.85-18.79a.6.6 0 0 1 .17-.78q.97-.68 2.1-1.33t2.21-1.15a.6.6 0 0 1 .76.24Q392.07 183.54 397 192q.28.48.6.48t.6-.48q4.93-8.46 10.84-18.79a.6.6 0 0 1 .76-.24q1.08.5 2.21 1.15"/><path fill="#008ad2" d="M800 390.87v141.52q-.28.24-.4.61H0V397.01q6.57.33 12.5-1.26c5.45-1.45 9.49-4.55 14.33-6.7q12.14-5.39 24.03.18c3.28 1.54 7.62 4.32 10.92 5.59q13.07 5.02 25.28-1.76c5.43-3.01 8.92-5.09 13.83-6.11q9.41-1.95 18.67 2.81l8.52 4.38q10.32 4.61 20.24 1.7c4.82-1.41 8.77-4.18 13.36-6.39q10.37-4.99 20.7-1.81c4.98 1.52 9.45 4.63 13.83 6.63 9.71 4.44 18.94 3.13 27.98-1.99q5.16-2.93 6.96-3.65 12-4.81 23.83.9c3.81 1.85 7.56 4.41 11.69 5.83 8.66 2.97 17.19 1.59 25.1-2.93 3.36-1.91 5.62-3.18 8.49-4.25q11.25-4.16 22.17 1.2l8.72 4.43q10.53 5.35 21.46 1.73 3.87-1.27 10.43-4.98 13.67-7.71 27.55-1.13 1.45.69 7.49 3.95 10.49 5.68 21.94 2.36 3.75-1.09 10.27-4.89 11.86-6.9 24.49-2.94c4.63 1.45 9.78 5.17 14.31 7q11.33 4.59 22.95-.82c3.36-1.56 7.8-4.49 11.48-5.83q12.43-4.52 24.6 2.15c4.97 2.73 8.59 4.89 13.36 5.93q9.67 2.11 18.51-2.43l9-4.62q11.51-5.44 23.34-.63c4.18 1.69 9.96 5.78 14.77 7.12q11.89 3.31 22.7-2.73c4.95-2.77 9.23-5.25 14.37-6.17 9.32-1.67 16.06 1.41 23.99 5.91 9.66 5.48 20.18 5.52 29.92.04 9.11-5.12 17.51-8.44 27.61-5.03q3.76 1.27 10.61 5.1 12 6.72 24.05 2.47c4.48-1.59 9.4-4.94 13.77-6.75q7.62-3.14 15.7-1.72 5.81 1.02 10.18 3.97"/><path fill="#fff" d="M800 532.39v.61h-.4q.12-.37.4-.61"/></svg>