<svg xmlns="http://www.w3.org/2000/svg" viewBox="0 0 1280 854"><g fill="none" stroke-width="2"><path stroke="#80c6e9" d="M1280 695.49q-3.26 1.95-4.39 2.86-3.91 3.18-7.97 7.01-5.95 5.61-7.99 7.02c-18.13 12.57-39.26 12-57.51-.14-4.99-3.32-10.16-9.19-15.17-12.46-18.04-11.75-40.4-12.67-58.14-.16-3.75 2.64-7.41 6.48-11.55 10.4q-8.32 7.9-19.68 11.81c-21.28 7.34-40.48-1.55-55.44-17.07-10.44-10.82-25.63-15.47-40.44-13.79-12.41 1.4-22.68 6.93-31.83 15.52-17.33 16.26-44.35 21.21-63.68 5.57l-15.76-12.73q-16.73-13.29-38.93-9.45c-12.81 2.22-20.94 9.85-32.13 19.26q-6.45 5.43-11.64 8.1-7.31 3.76-16.85 4.17-19.66.84-35.5-11.73c-3.09-2.45-7.27-6.77-10.63-9.13-17.49-12.26-39.94-13.63-58.02-1.67q-3.66 2.41-8.95 7.82c-21.83 22.31-52.11 23.91-74.66 1.89q-7.67-7.49-11.01-9.68a51.3 51.3 0 0 0-57.89 1.35q-3.22 2.34-9.69 8.28c-17.27 15.85-45.53 17.8-63.78 2.4q-7.55-6.37-14.45-11.99c-10.6-8.62-22.97-11.21-36.39-9.39-14.38 1.96-23.66 11.03-35.53 20.81-18.92 15.6-44.28 14.1-62.73-1.04-3.92-3.21-7.2-6.68-11.45-9.49-17.52-11.65-39.05-12.56-57.07-1.11q-3.08 1.96-8.99 7.9c-10.69 10.75-23.97 17.79-38.94 17.75-16.36-.05-28.92-8.64-40-19.77-17.14-17.24-43.69-18.05-63.48-5.14-5.66 3.69-10.89 9.63-16.82 13.45-21.7 13.97-46.85 10.77-64.72-7.67q-4.33-4.46-9.43-8.14a.24.24 0 0 0-.38.2L.38 852.96" vector-effect="non-scaling-stroke"/><path stroke="#e0949b" d="M.38 852.96q.2-.11-.16.31" vector-effect="non-scaling-stroke"/><path stroke="#f4f9ef" stroke-opacity=".54" d="M.22 853.27q-.02.31.18.42a.2.06-9.7 0 0 .08.01h1278.93a.3.3 0 0 0 .26-.16q.06-.11.05-.26" vector-effect="non-scaling-stroke"/><path stroke="#80c6e9" d="m1279.72 853.28.28-.04" vector-effect="non-scaling-stroke"/><path stroke="#e0949b" d="M572.91 598.24c14.9 5.81 31.87-.37 42.17-11.58q5.7-6.19 7.79-15.77 3.21-14.72 3.23-32.74.02-17.35.52-40.03.16-7.06 1.67-15.59c1.18-6.71 4.67-16.57 13.6-15.58 12.15 1.34 13.17 21.8 13.5 31.06q.41 11.52.28 39.73-.09 19.58 2.95 33.14 2 8.96 6.31 14.19c10.28 12.47 28.21 19.34 43.98 13q6.43-2.58 11.81-6.37 9.13-6.43 16.69-13.54c14.75-13.85 24.16-22.98 36.34-32.71 3.46-2.76 5.69-4.17 10.37-7.31q6.98-4.69 35.2-21.06c19.98-11.6 41-26.79 34.78-53.53q-2.19-9.45-8.48-17.95-6.72-9.07-17.81-13.42c-15.56-6.09-29.98-8.92-48.36-13.13q-12.17-2.79-22.54-6.96c-7.09-2.85-15.7-8.73-11.8-17.85 2.79-6.54 9.42-7.85 15.73-7.09q10.04 1.2 21.37 5.67 26.31 10.36 34.8 13.66 7.88 3.06 17.48 5.3c13.44 3.13 27.44-1.55 37.72-10.51q15.78-13.73 12.93-33.68c-1.52-10.59-5.36-20.3-10.15-30.61q-10.43-22.42-14.5-31.47-3.28-7.31-8.27-23.41c-3.89-12.53-6.94-30.84-9.81-43.26-3.96-17.1-9.96-38.2-28.32-44.93-16.64-6.09-36.27-1.76-47.92 11.49q-6.43 7.32-11.09 14.7c-10.61 16.82-16.36 27.45-25.79 40.17-5.43 7.32-15.41 18.95-25.78 13.03-10.86-6.19-1.57-20.3 3.2-26.86q4.68-6.42 5.77-7.71 13.28-15.67 25-29.74c7.42-8.91 15.28-19.88 16.78-31.98.97-7.77-1.12-18.37-4.99-25.98-11.03-21.72-34.89-22.22-56.53-19.77l-34.24 3.88q-15.49 1.64-35.98-.19c-14.83-1.32-35.04-4.33-52.76-4.56q-11.6-.14-21.33 4.02c-13.82 5.92-20.75 19.32-22.25 33.98a40 40 0 0 0 5.77 25.43q6.27 10.26 15.08 20.42 16.01 18.47 21.37 24.91c5.45 6.55 19.48 23.55 10.97 31.9-5.36 5.26-11.51 5.01-17.24.9q-3.11-2.22-4.41-3.67-7.72-8.53-14.87-20.35-9.11-15.08-16.7-27.07a125 125 0 0 0-10.7-14.31q-13.08-14.92-33.44-15.29c-23.58-.42-35.09 15.13-41.02 35.97-3.71 13.04-5.89 24.71-10.14 44.64-4.88 22.89-16 44.47-26 66.22-7.79 16.92-16.04 38.68-3.76 55.56q9.44 12.99 24.75 17.22c8.79 2.43 19.59 1.39 28.81-.73 17.64-4.04 38.43-13.19 51.75-18.22 7.76-2.93 26.28-9.9 29.38 2.81 2.99 12.25-16.42 17.4-24.76 19.55q-28.42 7.29-32.13 8.35c-15.82 4.51-35.75 11.39-45.26 25.79q-3.4 5.15-5.4 11.21c-9.5 28.71 12.87 45.15 34.1 57.53q23.98 13.99 29.7 17.57c15.2 9.5 28.31 20.92 41.14 33.34q10.47 10.14 18.86 17.14c6.26 5.22 13.11 10 20.88 13.03" vector-effect="non-scaling-stroke"/><path stroke="#e0949b" d="M655.55 285.37a15.4 15.4 0 0 0-15.42-15.42 15.4 15.4 0 0 0-15.42 15.42 15.4 15.4 0 0 0 15.42 15.42 15.4 15.4 0 0 0 15.42-15.42m-44.58 14.72a15.4 15.4 0 0 0-15.42-15.42 15.4 15.4 0 0 0-15.42 15.42 15.4 15.4 0 0 0 15.42 15.42 15.4 15.4 0 0 0 15.42-15.42m89.24 0a15.4 15.4 0 0 0-15.42-15.42 15.4 15.4 0 0 0-15.42 15.42 15.4 15.4 0 0 0 15.42 15.42 15.4 15.4 0 0 0 15.42-15.42m-8.36 60.66a51.7 51.7 0 0 0-51.69-51.69 51.7 51.7 0 0 0-51.69 51.69 51.7 51.7 0 0 0 51.69 51.69 51.7 51.7 0 0 0 51.69-51.69m-107.57-24.37a15.4 15.4 0 0 0-15.42-15.42 15.4 15.4 0 0 0-15.42 15.42 15.4 15.4 0 0 0 15.42 15.42 15.4 15.4 0 0 0 15.42-15.42m142.63 0a15.4 15.4 0 0 0-15.42-15.42 15.4 15.4 0 0 0-15.42 15.42 15.4 15.4 0 0 0 15.42 15.42 15.4 15.4 0 0 0 15.42-15.42m-142.59 48.86a15.43 15.43 0 0 0-15.43-15.43 15.43 15.43 0 0 0-15.43 15.43 15.43 15.43 0 0 0 15.43 15.43 15.43 15.43 0 0 0 15.43-15.43m142.57 0a15.43 15.43 0 0 0-15.43-15.43 15.43 15.43 0 0 0-15.43 15.43 15.43 15.43 0 0 0 15.43 15.43 15.43 15.43 0 0 0 15.43-15.43m-115.95 36.37a15.4 15.4 0 0 0-15.42-15.42 15.4 15.4 0 0 0-15.42 15.42 15.4 15.4 0 0 0 15.42 15.42 15.4 15.4 0 0 0 15.42-15.42m89.31 0a15.4 15.4 0 0 0-15.42-15.42 15.4 15.4 0 0 0-15.42 15.42 15.4 15.4 0 0 0 15.42 15.42 15.4 15.4 0 0 0 15.42-15.42m-44.7 14.52a15.4 15.4 0 0 0-15.42-15.42 15.4 15.4 0 0 0-15.42 15.42 15.4 15.4 0 0 0 15.42 15.42 15.4 15.4 0 0 0 15.42-15.42" vector-effect="non-scaling-stroke"/><path stroke="#068ec5" stroke-opacity=".54" d="m1279.72 853.28-3.01-.17" vector-effect="non-scaling-stroke"/><path stroke="#615b84" d="m1276.71 853.11-1.17-.01" vector-effect="non-scaling-stroke"/><path stroke="#068ec5" stroke-opacity=".54" d="m1275.54 853.1-.33.02" vector-effect="non-scaling-stroke"/><path stroke="#615b84" d="m1275.21 853.12-.67-.01" vector-effect="non-scaling-stroke"/><path stroke="#068ec5" stroke-opacity=".54" d="m1274.54 853.11-.83.02" vector-effect="non-scaling-stroke"/><path stroke="#615b84" d="m1273.71 853.13-1.17-.01" vector-effect="non-scaling-stroke"/><path stroke="#068ec5" stroke-opacity=".54" d="m1272.54 853.12-.37-.01" vector-effect="non-scaling-stroke"/><path stroke="#615b84" d="M1272.17 853.11H4.99" vector-effect="non-scaling-stroke"/><path stroke="#068ec5" stroke-opacity=".54" d="m4.99 853.11-3.03-.01" vector-effect="non-scaling-stroke"/><path stroke="#615b84" d="m1.96 853.1-1.58-.14" vector-effect="non-scaling-stroke"/><path stroke="#ba3133" stroke-opacity=".54" d="m1.96 853.1-1.74.17m1271.95-.16H4.99m1267.55.01 1.17.01m.83-.02.67.01m.33-.02 1.17.01" vector-effect="non-scaling-stroke"/></g><path fill="#fff" d="M1280 0v695.49q-3.26 1.95-4.39 2.86-3.91 3.18-7.97 7.01-5.95 5.61-7.99 7.02c-18.13 12.57-39.26 12-57.51-.14-4.99-3.32-10.16-9.19-15.17-12.46-18.04-11.75-40.4-12.67-58.14-.16-3.75 2.64-7.41 6.48-11.55 10.4q-8.32 7.9-19.68 11.81c-21.28 7.34-40.48-1.55-55.44-17.07-10.44-10.82-25.63-15.47-40.44-13.79-12.41 1.4-22.68 6.93-31.83 15.52-17.33 16.26-44.35 21.21-63.68 5.57l-15.76-12.73q-16.73-13.29-38.93-9.45c-12.81 2.22-20.94 9.85-32.13 19.26q-6.45 5.43-11.64 8.1-7.31 3.76-16.85 4.17-19.66.84-35.5-11.73c-3.09-2.45-7.27-6.77-10.63-9.13-17.49-12.26-39.94-13.63-58.02-1.67q-3.66 2.41-8.95 7.82c-21.83 22.31-52.11 23.91-74.66 1.89q-7.67-7.49-11.01-9.68a51.3 51.3 0 0 0-57.89 1.35q-3.22 2.34-9.69 8.28c-17.27 15.85-45.53 17.8-63.78 2.4q-7.55-6.37-14.45-11.99c-10.6-8.62-22.97-11.21-36.39-9.39-14.38 1.96-23.66 11.03-35.53 20.81-18.92 15.6-44.28 14.1-62.73-1.04-3.92-3.21-7.2-6.68-11.45-9.49-17.52-11.65-39.05-12.56-57.07-1.11q-3.08 1.96-8.99 7.9c-10.69 10.75-23.97 17.79-38.94 17.75-16.36-.05-28.92-8.64-40-19.77-17.14-17.24-43.69-18.05-63.48-5.14-5.66 3.69-10.89 9.63-16.82 13.45-21.7 13.97-46.85 10.77-64.72-7.67q-4.33-4.46-9.43-8.14a.24.24 0 0 0-.38.2L.38 852.96q.2-.11-.16.31-.02.31.18.42a.2.06-9.7 0 0 .08.01h1278.93a.3.3 0 0 0 .26-.16q.06-.11.05-.26l.28-.04v.76H0V0zM572.91 598.24c14.9 5.81 31.87-.37 42.17-11.58q5.7-6.19 7.79-15.77 3.21-14.72 3.23-32.74.02-17.35.52-40.03.16-7.06 1.67-15.59c1.18-6.71 4.67-16.57 13.6-15.58 12.15 1.34 13.17 21.8 13.5 31.06q.41 11.52.28 39.73-.09 19.58 2.95 33.14 2 8.96 6.31 14.19c10.28 12.47 28.21 19.34 43.98 13q6.43-2.58 11.81-6.37 9.13-6.43 16.69-13.54c14.75-13.85 24.16-22.98 36.34-32.71 3.46-2.76 5.69-4.17 10.37-7.31q6.98-4.69 35.2-21.06c19.98-11.6 41-26.79 34.78-53.53q-2.19-9.45-8.48-17.95-6.72-9.07-17.81-13.42c-15.56-6.09-29.98-8.92-48.36-13.13q-12.17-2.79-22.54-6.96c-7.09-2.85-15.7-8.73-11.8-17.85 2.79-6.54 9.42-7.85 15.73-7.09q10.04 1.2 21.37 5.67 26.31 10.36 34.8 13.66 7.88 3.06 17.48 5.3c13.44 3.13 27.44-1.55 37.72-10.51q15.78-13.73 12.93-33.68c-1.52-10.59-5.36-20.3-10.15-30.61q-10.43-22.42-14.5-31.47-3.28-7.31-8.27-23.41c-3.89-12.53-6.94-30.84-9.81-43.26-3.96-17.1-9.96-38.2-28.32-44.93-16.64-6.09-36.27-1.76-47.92 11.49q-6.43 7.32-11.09 14.7c-10.61 16.82-16.36 27.45-25.79 40.17-5.43 7.32-15.41 18.95-25.78 13.03-10.86-6.19-1.57-20.3 3.2-26.86q4.68-6.42 5.77-7.71 13.28-15.67 25-29.74c7.42-8.91 15.28-19.88 16.78-31.98.97-7.77-1.12-18.37-4.99-25.98-11.03-21.72-34.89-22.22-56.53-19.77l-34.24 3.88q-15.49 1.64-35.98-.19c-14.83-1.32-35.04-4.33-52.76-4.56q-11.6-.14-21.33 4.02c-13.82 5.92-20.75 19.32-22.25 33.98a40 40 0 0 0 5.77 25.43q6.27 10.26 15.08 20.42 16.01 18.47 21.37 24.91c5.45 6.55 19.48 23.55 10.97 31.9-5.36 5.26-11.51 5.01-17.24.9q-3.11-2.22-4.41-3.67-7.72-8.53-14.87-20.35-9.11-15.08-16.7-27.07a125 125 0 0 0-10.7-14.31q-13.08-14.92-33.44-15.29c-23.58-.42-35.09 15.13-41.02 35.97-3.71 13.04-5.89 24.71-10.14 44.64-4.88 22.89-16 44.47-26 66.22-7.79 16.92-16.04 38.68-3.76 55.56q9.44 12.99 24.75 17.22c8.79 2.43 19.59 1.39 28.81-.73 17.64-4.04 38.43-13.19 51.75-18.22 7.76-2.93 26.28-9.9 29.38 2.81 2.99 12.25-16.42 17.4-24.76 19.55q-28.42 7.29-32.13 8.35c-15.82 4.51-35.75 11.39-45.26 25.79q-3.4 5.15-5.4 11.21c-9.5 28.71 12.87 45.15 34.1 57.53q23.98 13.99 29.7 17.57c15.2 9.5 28.31 20.92 41.14 33.34q10.47 10.14 18.86 17.14c6.26 5.22 13.11 10 20.88 13.03"/><path fill="#c12936" d="M572.91 598.24c-7.77-3.03-14.62-7.81-20.88-13.03q-8.39-7-18.86-17.14c-12.83-12.42-25.94-23.84-41.14-33.34q-5.72-3.58-29.7-17.57c-21.23-12.38-43.6-28.82-34.1-57.53q2-6.06 5.4-11.21c9.51-14.4 29.44-21.28 45.26-25.79q3.71-1.06 32.13-8.35c8.34-2.15 27.75-7.3 24.76-19.55-3.1-12.71-21.62-5.74-29.38-2.81-13.32 5.03-34.11 14.18-51.75 18.22-9.22 2.12-20.02 3.16-28.81.73q-15.31-4.23-24.75-17.22c-12.28-16.88-4.03-38.64 3.76-55.56 10-21.75 21.12-43.33 26-66.22 4.25-19.93 6.43-31.6 10.14-44.64 5.93-20.84 17.44-36.39 41.02-35.97q20.36.37 33.44 15.29c3.58 4.09 7.74 9.63 10.7 14.31q7.59 11.99 16.7 27.07 7.15 11.82 14.87 20.35 1.3 1.45 4.41 3.67c5.73 4.11 11.88 4.36 17.24-.9 8.51-8.35-5.52-25.35-10.97-31.9q-5.36-6.44-21.37-24.91-8.81-10.16-15.08-20.42a40 40 0 0 1-5.77-25.43c1.5-14.66 8.43-28.06 22.25-33.98q9.73-4.16 21.33-4.02c17.72.23 37.93 3.24 52.76 4.56q20.49 1.83 35.98.19l34.24-3.88c21.64-2.45 45.5-1.95 56.53 19.77 3.87 7.61 5.96 18.21 4.99 25.98-1.5 12.1-9.36 23.07-16.78 31.98q-11.72 14.07-25 29.74-1.09 1.29-5.77 7.71c-4.77 6.56-14.06 20.67-3.2 26.86 10.37 5.92 20.35-5.71 25.78-13.03 9.43-12.72 15.18-23.35 25.79-40.17q4.66-7.38 11.09-14.7c11.65-13.25 31.28-17.58 47.92-11.49 18.36 6.73 24.36 27.83 28.32 44.93 2.87 12.42 5.92 30.73 9.81 43.26q4.99 16.1 8.27 23.41 4.07 9.05 14.5 31.47c4.79 10.31 8.63 20.02 10.15 30.61q2.85 19.95-12.93 33.68c-10.28 8.96-24.28 13.64-37.72 10.51q-9.6-2.24-17.48-5.3-8.49-3.3-34.8-13.66-11.33-4.47-21.37-5.67c-6.31-.76-12.94.55-15.73 7.09-3.9 9.12 4.71 15 11.8 17.85q10.37 4.17 22.54 6.96c18.38 4.21 32.8 7.04 48.36 13.13q11.09 4.35 17.81 13.42 6.29 8.5 8.48 17.95c6.22 26.74-14.8 41.93-34.78 53.53q-28.22 16.37-35.2 21.06c-4.68 3.14-6.91 4.55-10.37 7.31-12.18 9.73-21.59 18.86-36.34 32.71q-7.56 7.11-16.69 13.54-5.38 3.79-11.81 6.37c-15.77 6.34-33.7-.53-43.98-13q-4.31-5.23-6.31-14.19-3.04-13.56-2.95-33.14.13-28.21-.28-39.73c-.33-9.26-1.35-29.72-13.5-31.06-8.93-.99-12.42 8.87-13.6 15.58q-1.51 8.53-1.67 15.59-.5 22.68-.52 40.03-.02 18.02-3.23 32.74-2.09 9.58-7.79 15.77c-10.3 11.21-27.27 17.39-42.17 11.58m82.64-312.87a15.4 15.4 0 0 0-15.42-15.42 15.4 15.4 0 0 0-15.42 15.42 15.4 15.4 0 0 0 15.42 15.42 15.4 15.4 0 0 0 15.42-15.42m-44.58 14.72a15.4 15.4 0 0 0-15.42-15.42 15.4 15.4 0 0 0-15.42 15.42 15.4 15.4 0 0 0 15.42 15.42 15.4 15.4 0 0 0 15.42-15.42m89.24 0a15.4 15.4 0 0 0-15.42-15.42 15.4 15.4 0 0 0-15.42 15.42 15.4 15.4 0 0 0 15.42 15.42 15.4 15.4 0 0 0 15.42-15.42m-8.36 60.66a51.7 51.7 0 0 0-51.69-51.69 51.7 51.7 0 0 0-51.69 51.69 51.7 51.7 0 0 0 51.69 51.69 51.7 51.7 0 0 0 51.69-51.69m-107.57-24.37a15.4 15.4 0 0 0-15.42-15.42 15.4 15.4 0 0 0-15.42 15.42 15.4 15.4 0 0 0 15.42 15.42 15.4 15.4 0 0 0 15.42-15.42m142.63 0a15.4 15.4 0 0 0-15.42-15.42 15.4 15.4 0 0 0-15.42 15.42 15.4 15.4 0 0 0 15.42 15.42 15.4 15.4 0 0 0 15.42-15.42m-142.59 48.86a15.43 15.43 0 0 0-15.43-15.43 15.43 15.43 0 0 0-15.43 15.43 15.43 15.43 0 0 0 15.43 15.43 15.43 15.43 0 0 0 15.43-15.43m142.57 0a15.43 15.43 0 0 0-15.43-15.43 15.43 15.43 0 0 0-15.43 15.43 15.43 15.43 0 0 0 15.43 15.43 15.43 15.43 0 0 0 15.43-15.43m-115.95 36.37a15.4 15.4 0 0 0-15.42-15.42 15.4 15.4 0 0 0-15.42 15.42 15.4 15.4 0 0 0 15.42 15.42 15.4 15.4 0 0 0 15.42-15.42m89.31 0a15.4 15.4 0 0 0-15.42-15.42 15.4 15.4 0 0 0-15.42 15.42 15.4 15.4 0 0 0 15.42 15.42 15.4 15.4 0 0 0 15.42-15.42m-44.7 14.52a15.4 15.4 0 0 0-15.42-15.42 15.4 15.4 0 0 0-15.42 15.42 15.4 15.4 0 0 0 15.42 15.42 15.4 15.4 0 0 0 15.42-15.42"/><circle cx="640.13" cy="285.37" r="15.42" fill="#fff"/><circle cx="595.55" cy="300.09" r="15.42" fill="#fff"/><circle cx="684.79" cy="300.09" r="15.42" fill="#fff"/><circle cx="640.16" cy="360.75" r="51.69" fill="#fff"/><circle cx="568.86" cy="336.38" r="15.42" fill="#fff"/><circle cx="711.49" cy="336.38" r="15.42" fill="#fff"/><circle cx="568.89" cy="385.24" r="15.43" fill="#fff"/><circle cx="711.46" cy="385.24" r="15.43" fill="#fff"/><circle cx="595.52" cy="421.61" r="15.42" fill="#fff"/><circle cx="684.83" cy="421.61" r="15.42" fill="#fff"/><circle cx="640.13" cy="436.13" r="15.42" fill="#fff"/><path fill="#008dd2" d="M1280 695.49v157.75l-.28.04-3.01-.17-1.17-.01-.33.02-.67-.01-.83.02-1.17-.01-.37-.01H4.99l-3.03-.01-1.58-.14.01-155.65a.24.24 0 0 1 .38-.2q5.1 3.68 9.43 8.14c17.87 18.44 43.02 21.64 64.72 7.67 5.93-3.82 11.16-9.76 16.82-13.45 19.79-12.91 46.34-12.1 63.48 5.14 11.08 11.13 23.64 19.72 40 19.77 14.97.04 28.25-7 38.94-17.75q5.91-5.94 8.99-7.9c18.02-11.45 39.55-10.54 57.07 1.11 4.25 2.81 7.53 6.28 11.45 9.49 18.45 15.14 43.81 16.64 62.73 1.04 11.87-9.78 21.15-18.85 35.53-20.81 13.42-1.82 25.79.77 36.39 9.39q6.9 5.62 14.45 11.99c18.25 15.4 46.51 13.45 63.78-2.4q6.47-5.94 9.69-8.28a51.3 51.3 0 0 1 57.89-1.35q3.34 2.19 11.01 9.68c22.55 22.02 52.83 20.42 74.66-1.89q5.29-5.41 8.95-7.82c18.08-11.96 40.53-10.59 58.02 1.67 3.36 2.36 7.54 6.68 10.63 9.13q15.84 12.57 35.5 11.73 9.54-.41 16.85-4.17 5.19-2.67 11.64-8.1c11.19-9.41 19.32-17.04 32.13-19.26q22.2-3.84 38.93 9.45l15.76 12.73c19.33 15.64 46.35 10.69 63.68-5.57 9.15-8.59 19.42-14.12 31.83-15.52 14.81-1.68 30 2.97 40.44 13.79 14.96 15.52 34.16 24.41 55.44 17.07q11.36-3.91 19.68-11.81c4.14-3.92 7.8-7.76 11.55-10.4 17.74-12.51 40.1-11.59 58.14.16 5.01 3.27 10.18 9.14 15.17 12.46 18.25 12.14 39.38 12.71 57.51.14q2.04-1.41 7.99-7.02 4.06-3.83 7.97-7.01 1.13-.91 4.39-2.86"/><path fill="#c12936" d="m.38 852.96 1.58.14-1.74.17q.36-.42.16-.31m1271.79.15H4.99z"/><path fill="#5b9f08" fill-opacity=".07" d="m1272.54 853.12 1.17.01.83-.02.67.01.33-.02 1.17.01 3.01.17q.01.15-.05.26a.3.3 0 0 1-.26.16H.48a.2.06-9.7 0 1-.08-.01q-.2-.11-.18-.42l1.74-.17 3.03.01h1267.18z"/><path fill="#c12936" d="m1273.71 853.13-1.17-.01zm1.5-.01-.67-.01zm1.5-.01-1.17-.01z"/></svg>