<svg xmlns="http://www.w3.org/2000/svg" viewBox="0 0 798 532"><g fill="none" stroke-width="2"><path stroke="#828784" d="m1.9 103.13.18 27.14" vector-effect="non-scaling-stroke"/><path stroke="#035e7c" d="m2.08 130.27.02 26.99" vector-effect="non-scaling-stroke"/><path stroke="#828784" d="m2.1 157.26-.07 27.72" vector-effect="non-scaling-stroke"/><path stroke="#035e7c" d="m2.03 184.98-.01 344.78a.77.76 90 0 0 .76.77h793.15a1.27 1.27 0 0 0 1.27-1.27l.01-343.75" vector-effect="non-scaling-stroke"/><path stroke="#828784" d="m797.21 185.51-.02-27.91" vector-effect="non-scaling-stroke"/><path stroke="#035e7c" d="m797.19 157.6.03-26.8" vector-effect="non-scaling-stroke"/><path stroke="#828784" d="m797.22 130.8-.08-28.03" vector-effect="non-scaling-stroke"/><path stroke="#14602b" d="m797.14 102.77.28-101.34a.54.54 0 0 0-.54-.54H1.84a.16.15-90 0 0-.15.16l.21 102.08" vector-effect="non-scaling-stroke"/><path stroke="#91d8a6" d="M797.14 102.77q-2.57-.35-4.53-1.48c-10.06-5.78-18.44-12.09-30.06-13.14-8.58-.77-15.95-.29-23.74 2.32-6.44 2.15-12.44 6.78-18.25 10.1q-9.27 5.29-19.79 5.68-7.72.28-12.55-.4c-9.15-1.28-16.32-5.72-24.54-10.81q-10.58-6.55-21.71-7.09c-9.49-.46-19.34.28-27.99 5.06q-2.49 1.39-12.78 7.61c-8.23 4.98-17.54 5.94-27.44 5.63q-10.4-.33-19.26-5.53c-10.45-6.13-16.84-10.71-26.32-12.2q-5.84-.91-14.4-.54-11.93.51-23 7.55-8.26 5.25-11.82 6.92-8.21 3.85-20.22 3.96-14.94.13-26.52-7.39c-8.98-5.83-17-10.41-27.71-10.97-10.97-.59-20.29.47-29.78 6.2-9.7 5.85-17.78 11.35-29.43 11.98-6.9.37-13.8.17-20.1-1.91s-10.66-4.9-17.52-9.18c-10.28-6.39-21.17-8.2-33.57-7.03-11.09 1.05-19.02 6.43-28.76 12.26-10.01 5.99-20.36 6.71-32.31 5.44-10.74-1.14-19.47-7.89-27.47-12.57-8.59-5.02-20.44-6.06-30.48-5.1-11.23 1.08-18.74 6.43-29.63 12.82q-8.15 4.79-19.2 5.28-10.38.46-15-.77-8.96-2.39-13.67-5.37-9.73-6.14-12.41-7.53-8.03-4.16-18.93-4.63c-11-.48-19.94 1.34-29.11 7.06q-9.46 5.91-15.24 8.13" vector-effect="non-scaling-stroke"/><path stroke="#80d6f7" d="M797.22 130.8q-6.98-3.08-13.34-7.06-4.93-3.08-7.34-4.24-4.53-2.19-7.92-3.01-13.71-3.33-28.06.54c-5.68 1.53-10.45 4.73-15.5 7.84-9.35 5.77-17.05 8.72-28.05 8.89q-11.06.16-20-3.81c-5.66-2.52-12.54-7.52-17.31-9.9q-7.71-3.85-16.56-4.86-5.66-.65-15.04.45c-10.52 1.24-20.02 8.34-27.09 12.35-11.88 6.75-26.88 7.38-39.56 3.27-5.85-1.9-10.02-4.98-16.63-9.05-16.78-10.32-38.18-9.75-54.78 1.09q-6.76 4.41-10.88 6.32c-13.92 6.45-32.87 5.55-45.79-2.71-5.8-3.7-13.33-8.63-21.08-10.43q-21.23-4.92-39.04 5.75c-3.43 2.06-7 4.7-9.88 6.15q-16.06 8.1-34.3 4.15-4.23-.92-8.51-2.87-6.28-2.87-8.06-4.19-17.18-12.66-38.43-10.24c-10.47 1.19-18.41 5.62-26.88 11.25-6.72 4.46-14.61 6.61-22.56 7.16q-15.8 1.11-28.55-6.97c-2.81-1.78-8.96-5.81-13.05-7.51q-18.17-7.53-37.81-1.8-1.71.5-3.11 1.25c-2.77 1.48-5.21 2.58-7.45 4.01-5.35 3.42-10.69 6.97-16.28 8.7q-16.36 5.07-32.43-.06c-5.83-1.86-10.39-5.01-16.23-8.71-13.87-8.77-33.42-10.34-47.59-3.17q-7.76 3.93-12.36 7.12-3.83 2.66-7.69 3.77m795.11 27.33q-6.38-2.73-17.62-9.69c-11.26-6.97-30.21-7.73-42.81-2.64-5.67 2.28-11.57 6.68-16.18 9.31-14.91 8.52-34.55 8.36-49.26-.68q-9.64-5.92-14.65-8.3c-7.57-3.58-18.94-4.16-27.05-3.14q-9.83 1.25-16.88 5.51c-9.67 5.85-15.6 10.15-24.84 11.87q-13.97 2.61-26.67-1.74c-5.86-2.01-11.89-6.18-16.88-9.18-11.41-6.85-23.87-8.03-36.68-5.98-8.12 1.3-14.85 5.53-22.12 10.05q-5.2 3.24-8.83 4.61c-13.71 5.17-29.67 4.39-42.54-3.28-7.28-4.34-14.9-9.62-23.9-11.31-7.66-1.43-17.5-1.45-25.31.87-6.29 1.87-11.88 5.28-17.57 9-13.06 8.58-29.15 10.25-43.79 5.05-10.38-3.69-18.28-12.03-29.32-14.42q-10.68-2.3-22.78-.81c-9.4 1.17-17.21 6.11-24.02 10.49-15.36 9.9-35.9 10.28-51.34.44-5.32-3.4-13.43-8.54-20.37-10.11-11.91-2.7-26.76-2.23-37.84 4.19q-6.24 3.62-11.57 6.87c-14.17 8.64-34.88 8.24-48.83-.37-9.42-5.82-16.83-10.46-26.83-11.69q-7.9-.97-15.44-.03-8.57 1.08-16.82 5.72c-5.12 2.89-10.43 7.17-16.35 9.05m795.11 28.25q-6.59-3.02-12.76-6.73-8.51-5.12-10.4-5.84c-11.65-4.43-25.65-4.55-36.8-.03-6.21 2.52-13.38 7.8-18.52 10.33-9.88 4.87-19.85 5.75-30.63 4.46-8.03-.95-14.54-4.36-22.05-9.24-9-5.86-17.1-8.64-28.61-8.83q-13.14-.22-23.63 5.73-7.09 4.01-9.44 5.55c-7.95 5.17-15.66 7.1-25.86 7.33q-15.31.34-26.49-6.76-3.3-2.1-10.49-6.24c-13.86-7.99-34.15-7.46-47.78.52q-2.77 1.63-9.75 5.97c-9.27 5.78-20.94 7.3-31.73 6.24-11.21-1.11-18.46-6.05-28.89-12.34-10.51-6.33-25.62-7.56-37-4.55-7.84 2.07-12.16 5.45-21.19 10.83-12.9 7.68-30.21 8.3-44.39 2.64-5.08-2.03-9.94-5.71-15.06-8.75-12.66-7.5-30.84-8.36-44.28-2.27-6.26 2.83-13.05 8.06-18.64 10.54-9.01 4.01-18.48 4.71-27.94 3.89-9.75-.85-16.83-4.74-24.86-9.83q-4.71-2.99-7.17-4.07c-13.81-6.04-32.27-6.58-45.78 1.85-9.14 5.69-17.18 10.9-27.9 12.04-11.05 1.17-21.95-.17-31.74-5.96-8.84-5.22-16.06-10.36-26.39-11.79-8.4-1.16-17.51-.8-25.38 2.25-8.16 3.17-14.59 9.04-23.63 12.53" vector-effect="non-scaling-stroke"/><path stroke="#035e7c" d="M506.72 324.62q1.73-1.99 4.24-3.2a1.21.89-72 0 0 .21-.15l2.03-1.82a1.96 1.95-61.7 0 0-1.01-3.39q-9.95-1.49-19.2 1.96c-3.84 1.44-7.57 2.46-10.52 1.82q-33.77-7.33-68.71-10.58-4.2-.39-7.63.04a.46.46 0 0 1-.33-.82q.7-.53 1.17-.51a1.27 1.27 0 0 0 .98-2.13q-10.7-11.65-22.1-21.68-2.35-2.06-6.16-4.97a2.4 2.4 0 0 0-2.58-.18q-6.07 3.38-10.72 7.57a.66.6 16.9 0 1-.34.16l-.24.08a.43.32 8 0 0-.09.05l-23.8 21.34a1.07 1.04-68.1 0 1-.63.28q-14.72 1.31-27.39 3.17-44.17 6.46-84.08 23.68-5.5 2.37-9.9 4.71c-4.73 2.51-10.21 4.92-14.25 9.05a1.63 1.61 70.5 0 0-.45.96c-.17 1.79 1.18 2.59 3.03 2.61q3.3.04 7.11.72a4.05 3.99-24.1 0 1 1.31.49l2.58 1.54a2.4 2.32 89.4 0 1 .79.8q.62 1.04 1.56 1.68a.69.69-32.8 0 1-.27 1.24c-5.08.88-9.26-1.32-13.49-3.25a2.27 2.07-78.6 0 0-2.94 2.16c-.04 6.15 21.39 13.42 25.88 14.86q8.45 2.7 21.47 6.03l21.89 5.6q7.12 1.69 26.39 5.01 4.5.77 10.97 1.47 2.61.29 11 1.38 5.08.65 30.74 2.4c4 .27 8.37.08 12.89.12a4.72 4.7-26.5 0 1 2.71.9q2.18 1.6 8.17 5.15 11.89 7.04 26.08 8a.83.82-84.9 0 0 .87-.73c.33-3.02-2.03-5.82-4.32-8.13q-1.93-1.95-3.34-3.64a.5.5 0 0 1 .24-.79c3.3-.89 6.71-.65 9.96-1.01q27.63-3.06 54.28-11.72a6.55 6.5 45.6 0 1 4.19.06q2.47.89 6.06 2.74 11.91 6.15 24.32 10.89 3.58 1.37 6.09-2.34 7.36-10.91 12.46-22.43a1.42 1.41 19.5 0 0-.93-1.94l-7.24-1.93a.33.33 0 0 1-.01-.64q8.92-2.71 18.27-3.01c3.54-.11 6.54.35 10.03.34 4.91-.03 10.98 1.76 15.47 2.49a3.73 3.47-27.1 0 1 .88.25q8.87 3.89 18.65 10.62c11.97 8.24 23.44 14.76 37.64 15.76a.49.48-85.3 0 0 .52-.45q.25-3.76-.75-7.55-2.21-8.38-5.74-18.54a1.09 1.05 17.4 0 0-.18-.33c-.7-.91-.46-2.11-.89-3.29q-2.3-6.28-3.55-13.07a6.58 6.55-42.4 0 1 .14-2.99c1.56-5.47 2.73-9.64 4.83-14.87q3.5-8.67 5.9-15.23 1.05-2.88.96-5.49a2.9 2.77 53.2 0 1 .1-.82q1.57-5.38-.59-10.92a.7.7 0 0 0-.74-.43c-3.88.54-7.74 2.17-11.57 3.57q-3.89 1.42-17.2 7.9c-1.31.63-2.55 1.74-4.2 2.31a3.12 3.01 17.4 0 0-.78.39q-2.42 1.65-10.95 6.79c-5 3.02-9.11 6.11-14.7 10.27a7.34 7.28-65.8 0 1-3.69 1.42c-3.98.39-7.19.2-11.72-.82q-10.57-2.39-24.85-6.08a.6.6 0 0 1-.29-.96" vector-effect="non-scaling-stroke"/><path stroke="#6c716f" d="M346.57 308.02q2.06.34 2.89-.3" vector-effect="non-scaling-stroke"/><path stroke="#828784" d="M349.46 307.72q1.36.45 2.05.07" vector-effect="non-scaling-stroke"/><path stroke="#6c716f" d="m351.51 307.79 38.5-.11" vector-effect="non-scaling-stroke"/><path stroke="#828784" d="M390.01 307.68q4.27.21 7.75.54 4.78.45 9.04-1.55a.3.3 0 0 0 .1-.5q-13.32-14.38-27.18-25.83a2.3 2.3 0 0 0-2.6-.2c-12.7 7.51-23.38 19.69-33.64 27.88a.22.22 0 0 0 .17.39l2.92-.39" vector-effect="non-scaling-stroke"/><path stroke="#e9e9ea" d="M390.01 307.68q2.83-.61 8.7-1.42.71-.1 1.25-.95a.3.3 0 0 0-.32-.46l-7.53 1.65a.45.45 0 0 1-.34-.82q1.84-1.13 5.77-1.96a.28.28 0 0 0 .19-.4l-.44-.93a.07.06 63.3 0 0-.08-.03l-11.6 4.6a.1.1 0 0 1-.13-.04l-.16-.24a.56.55 59.8 0 1 .21-.82l7.56-3.67a.6.6 0 0 0 .32-.65l-.08-.36a.35.35-18.7 0 0-.48-.23l-10.25 4.98a.16.16 0 0 1-.23-.11l-.1-.44a.31.3 68.8 0 1 .14-.33l10.42-6.3a.46.44 72.9 0 0 .21-.42l-.01-.02a.43.43 0 0 0-.54-.22q-7.23 2.84-14.8 7.62a.19.18-4 0 1-.27-.23q.39-.87 1.15-1.4 5.83-4.05 10.14-6.46a.42.41 65.3 0 0 .18-.5l-.1-.27a.36.36 0 0 0-.5-.19l-5.49 2.72a1.48 1.44 8.9 0 0-.31.22q-2.02 1.88-3.36 2.35c-2.43.86-3.91 2.55-6.48 3.41a.4.4 0 0 1-.35-.72l15.63-10.32a.1.1 0 0 0 .04-.13l-.14-.28a.22.22 0 0 0-.31-.09l-20.14 11.62a.2.2 0 0 1-.28-.06l-.16-.21a.12.12 0 0 1 .03-.17l17.54-12.17a5.46 4.04-75.3 0 0 .56-.45l1.38-1.33a.33.33 0 0 0 .02-.46h-.01a.25.25 0 0 0-.36 0q-.91.97-2.85 1.97-7.39 3.85-16.22 10.53a5.74 5.47-76.1 0 1-.8.51q-2.31 1.21-3.78 2.34a.04.03-38 0 1-.05 0l-.38-.27a.34.34 0 0 1-.01-.55l20.06-14.62a.17.16 68.4 0 0 .07-.17l-.1-.44a.37.37 0 0 0-.57-.23l-23.3 15.89a.41.38 30.4 0 1-.27.06q-.62-.11-.86-.51a.31.31 0 0 1 .27-.47q.6.01 1.16-.41 6.58-4.91 9.38-7.16c3.49-2.81 8.36-5.57 11.37-8.51.61-.6 1.77-.9 2.8-1.56a.04.04 0 0 0 .02-.06l-.3-.82a.24.24 0 0 0-.36-.11l-26.6 18.33a.82.3-19.9 0 0-.12.1l-3.15 3.36m-2.05-.07 4.7-4.08a1.35 1.34 11.6 0 1 .26-.17q2.79-1.33 5.87-4.16 6.57-6.03 16.69-12.71a.12.12 0 0 0 .04-.17l-.13-.24a.5.49 59.7 0 0-.67-.18q-7.09 4.07-11.74 7.99-2.56 2.15-6.25 4.24-1.94 1.1-8.48 6.47a.13.12 49.6 0 0-.01.18l.2.23a.24.24 0 0 0 .35.01q.61-.61 1.29-.79a.24.24 0 0 1 .24.4q-1.08 1.12-2.31.75a1.07 1.05-55.5 0 0-.97.19q-1.18.94-1.97 2.34" vector-effect="non-scaling-stroke"/><path stroke="#828784" d="M547.78 334.45q4.99 3.27 6.51 8.53 3.4 11.8-5.79 19.66" vector-effect="non-scaling-stroke"/><path stroke="#6c716f" d="m548.5 362.64-3.8 2.03a.23.22 35.9 0 0 .07.42c9.52 1.91 17.56 7.27 25.72 12.74 7 4.68 12.82 8.21 18.68 10.75q7.68 3.32 16.42 4.2a.78.78 0 0 0 .85-.86q-.59-5.69-2.34-11.03-3.86-11.77-6.88-21.33c-.81-2.58-2.52-9.03-2.04-11.17q2.2-9.72 6.19-19.26 3.12-7.47 4.17-12.28" vector-effect="non-scaling-stroke"/><path stroke="#828784" d="M605.54 316.85q2.67-5.72 2-12.53" vector-effect="non-scaling-stroke"/><path stroke="#6c716f" d="m607.54 304.32-1.03-3.12a.57.57-17.4 0 0-.7-.36c-15.23 4.54-29.97 12.07-43.04 20.68l-6.71 4.41q-3.49 2.29-5.11 3.73-2.36 2.1-5.26 3.4a.33.32-46.3 0 0 .01.6l2.08.79" vector-effect="non-scaling-stroke"/><path stroke="#e9e9ea" d="M607.54 304.32q-3.64-.49-5.19 2.7a.2.2 0 0 1-.29.09h-.01a.25.24 31.1 0 1-.09-.34q.63-1.03.58-1.71a.98.98 0 0 0-1.27-.88q-7.28 2.29-14.34 6.25-11.8 6.64-23.39 14.64a1.75 1.73-60.6 0 1-1.08.31q-.68-.04-.93.04a.24.24 0 0 0-.1.38q.22.27.2.42a.33.32-89.8 0 1-.26.27q-1.19.22-4.89 3.23-2.97 2.42-8.7 4.73m57.76-17.6q-5.82 10.34-10.08 21.23c-1.19 3.04-1.59 5.21-2.34 8.44a11.09 11.05-44.9 0 0-.02 4.96q1.03 4.56 3.8 14.14.29.98.62 1.43.63.83.21 1.63a1.03.99 52.6 0 0-.08.7l4.2 16.48a1.33 1.32-3.2 0 1-1.47 1.64q-1.87-.26-4.67-1.66-2.6-1.29-13.36-6.98a.33.33 0 0 1-.14-.44l.21-.41a.46.46 0 0 1 .62-.2l16.2 8.34a.4.4 0 0 0 .52-.17l.17-.33a.4.4 0 0 0-.19-.57c-4.9-2.42-8.72-5.32-13.83-7.74q-3.1-1.46-8.01-4.42-1.94-1.17-3.42-2.58a.29.29 0 0 1 .31-.47l20.11 8.48a.36.36 0 0 0 .46-.17l.13-.24a.53.53 0 0 0-.23-.71q-9.17-4.79-20.83-10.22c-2.26-1.05-4.61-1.58-6.71-2.98a.25.25 0 0 1 .21-.45l24.14 7.77a.42.4-72 0 0 .51-.27l.16-.5a.31.3 20.3 0 0-.18-.38l-28.73-11.25a.05.05 0 0 1 .03-.09q2.13.33 4.26 1.01 2.92.94 4.21 1.19 2.91.55 13.87 3.41c2.5.66 5.23.54 7.31 1.73a.6.59 17.4 0 0 .89-.46q.02-.23-.2-.66a.66.65 67.9 0 0-.75-.32q-.37.1-2.16-.47c-13.56-4.28-20.15-6.48-32.19-9.24a2.21 2.02 47.6 0 0-.54-.05l-2.01.06a.46.46 0 0 0-.29.8q2.2 1.97 4.77 1.75a.3.3 0 0 1 .3.37l-.11.32a.2.2 0 0 1-.27.15l-4.77-1.27a.61.6 87.1 0 0-.72.8l.13.28a.67.67 0 0 1-.38.94l-.14.04a.9.9 0 0 0-.72.93q.07.99-1.06 1.74a.64.64 0 0 0 .06 1.1l5.9 3.03a.55.55 0 0 1 .03.96q-1.44.89-2.11-.48a.91.9-12.2 0 0-.8-.51q-1.39-.02-3.79-1.19a1.73 1.72 53.5 0 0-1.05-.16q-.35.05-1.25.08-1.6.05-1.78-2.1" vector-effect="non-scaling-stroke"/><path stroke="#828784" d="M218.43 349.71q11.52 4.46 17.05 14.38a1.33 1.31 87.5 0 0 .6.56l6.33 2.97" vector-effect="non-scaling-stroke"/><path stroke="#6c716f" d="M242.41 367.62q5.61 1.32 8-2.38 1.22-1.87 1.78-7.24.45-4.29.59-7.5.12-2.57-2.08-4.59" vector-effect="non-scaling-stroke"/><path stroke="#828784" d="m250.7 345.91-1.42-1.35a.27.26-59.5 0 1-.07-.3l.12-.29a.54.54 0 0 1 .82-.25q3.64 2.6 3.63 7.09-.01 3-.99 11.45-.41 3.49-3.38 5.77" vector-effect="non-scaling-stroke"/><path stroke="#6c716f" d="M249.41 368.03q-4.09 1.94-7.18.71-4.36-1.74-8.89-3.79" vector-effect="non-scaling-stroke"/><path stroke="#828784" d="M233.34 364.95q-4.28 1.37-7.56-2.48a.37.36-24.6 0 0-.37-.13q-.32.06-.46.25a.23.22-68.8 0 1-.22.1l-4.51-.62" vector-effect="non-scaling-stroke"/><path stroke="#6c716f" d="m220.22 362.07-8.15-2.41" vector-effect="non-scaling-stroke"/><path stroke="#828784" d="M212.07 359.66q-1.96-1.79-4.74-2.87a1.13 1.13 0 0 0-1.49 1.39q.58 1.89 2.31 3.16 9.6 7.02 21.59 9.88 3.49.83 9.31.69" vector-effect="non-scaling-stroke"/><path stroke="#6c716f" d="m239.05 371.91 9.25-1.33" vector-effect="non-scaling-stroke"/><path stroke="#828784" d="m248.3 370.58 3.1.32" vector-effect="non-scaling-stroke"/><path stroke="#6c716f" d="M251.4 370.9c8.34 1.03 15.53 1.36 20.29-6.69q2.42-4.09 2.92-9.49" vector-effect="non-scaling-stroke"/><path stroke="#828784" d="m274.61 354.72.23-12.3" vector-effect="non-scaling-stroke"/><path stroke="#6c716f" d="M274.84 342.42q.74-4.03-3.48-6.82" vector-effect="non-scaling-stroke"/><path stroke="#828784" d="M271.36 335.6q-2.81-1.66-6.55-2.27a.78.36-20.3 0 0-.13-.01l-5 .1a.17.17 0 0 1-.03-.34l5.93-1.05" vector-effect="non-scaling-stroke"/><path stroke="#6c716f" d="M265.58 332.03q1.56.74 3.02 1.17 2.42.7 3.02 1.08 2.62 1.64 4.06 4.38a1.97 1.96 30.8 0 1 .24.94l.05 11.99" vector-effect="non-scaling-stroke"/><path stroke="#828784" d="M275.97 351.59q.5 7.86-3.36 13.8-4.09 6.3-13.28 7.26-2.06.21-4.36.18a4.46 3.92 48.6 0 1-.86-.11q-6.49-1.53-13.12.38a1.66 1.65-50.9 0 1-.57.06l-4.25-.24a.04.04 0 0 0-.04.04v.34a.31.3 88.3 0 0 .32.31q2.35-.13 4.84 1.11a4.55 4.24-24.4 0 0 1.01.34l10.63 2.08a1.1 1.1 0 0 0 1-.32q.53-.58 1.1-.36.8.3 1.91-.04 4.33-1.29 7.24-3.77a.3.29-42.7 0 1 .4.01l.01.02a.43.42-47.5 0 1 .02.59q-2.33 2.71-5.79 3.93a.39.38-54.3 0 0 .12.75q6.96.04 7.08.03l.58-.1q2.74-.51 6.85-4.66 4.24-4.28 4.25-9.47.01-4.52-.12-8.95" vector-effect="non-scaling-stroke"/><path stroke="#14602b" d="M277.58 354.8q.28-.22.69-.2t.58.31q.15.24.24.64" vector-effect="non-scaling-stroke"/><path stroke="#828784" d="M279.09 355.55c-.01 5.32-.05 9.24-1.24 13.86a2.3 2.3 0 0 1-.69 1.15q-.65.61-2.32 2.94-1.03 1.44-2.51 2.63-4.26 3.4-8.58 3.44-2.26.02-2.48-.07-1.34-.52-2.05-.31a.19.19 0 0 0 0 .36q27.14 7.68 55.55 10.87 25.32 2.85 50.05 3.64a.22.22 0 0 0 .09-.43l-2.95-1.15a1.17 1.17 0 0 1-.2-2.08q3.13-2.01 7.31-1.8 4.91.25 5.44.39 7.8 2.1 14.96 1.94 1.85-.04 3.63 1.25c.81.59 1.41 2.24 2.7 2.18a.1.1 0 0 1 .1.13q-.05.17-.04.29a.1.1 0 0 0 .16.08q1.53-.79 3.23-.86 9.04-.39 17.91-1.87" vector-effect="non-scaling-stroke"/><path stroke="#6c716f" d="M417.16 392.13q24.3-3.65 47.55-11.39 16.92-5.63 33.97-12.42" vector-effect="non-scaling-stroke"/><path stroke="#828784" d="m498.68 368.32 19.33-4.87" vector-effect="non-scaling-stroke"/><path stroke="#6c716f" d="M518.01 363.45q12.56-.45 24.86.93" vector-effect="non-scaling-stroke"/><path stroke="#828784" d="M542.87 364.38q8.61-3.65 10.7-11.06 1.22-4.32-.3-9.23" vector-effect="non-scaling-stroke"/><path stroke="#6c716f" d="M553.27 344.09q-1.31-5.7-6.05-8.69a3.54 3.4 65.3 0 0-1.2-.47q-1.84-.35-3.14-1.14a1.82 1.79-31.1 0 0-1.14-.27q-4.45.43-9.12-.64-5.93-1.36-26.05-6.39-4.86-1.21-16.46-2.05-1.59-.12-4.91-2.1a.96.95 10.1 0 1-.45-.64q-.18-.89-.98-.79-.75.09-1.53-.08-33.07-7.22-66.49-10.35-5.82-.54-10.5-.58a.4.34 49.7 0 1-.12-.02l-.5-.27a.99.86 56.1 0 0-.37-.1q-16.28-.7-20.26-.68-7.17.04-8.51-.07-4.39-.39-8.49-.26-14.71.47-19.49.72-57.49 3.02-110.6 24.17-9.93 3.95-23.33 11.16c-1.96 1.06-3.54 2.5-5.45 3.73a.36.36 0 0 0 .17.66l10.13.77" vector-effect="non-scaling-stroke"/><path stroke="#e9e9ea" d="M553.27 344.09q-4.23-5.49-9.4-7.19-3.57-1.17-8.78.47a.77.76 82.5 0 0-.53.7c-.07 2.02-.7 4.4-3.33 3.55a1.07 1.06-88.4 0 1-.69-.73q-.33-1.19-1.31-1.88a1.42 1.38-29 0 0-.92-.25q-4.39.4-5.06.31-8.36-1.08-18.99-1.52-3.59-.15-9.48-2.96a6.12 5.87-27.1 0 0-1.73-.52c-5.82-.8-11.04-1.67-16.1-4.44a3.63 3.31 62.9 0 0-.83-.31c-3.71-.83-7.79-.48-13.86-.51q-.85-.01-1.95-.88c-1.51-1.21-3.94-2.04-5.31-1.98q-7.82.4-13.44-.71a.92.9 32.1 0 0-.69.15l-1.18.86a1.07 1.06 33.2 0 1-.89.18q-2.21-.53-2.07-2.6a1.39 1.38 89.7 0 0-1.49-1.48l-7.46.77q-.64.06-4.02-.56a1 1 0 0 0-.94.3q-1.44 1.47-3.13.73a.93.89 87.6 0 1-.45-.43l-.96-1.97a.8.8 0 0 0-.74-.45c-4.32.19-7.79 1.96-11.95 1.13a1.8 1.77-51.8 0 0-1.1.14q-.63.3-1.29.85a1.82 1.76-31.9 0 1-2.78-.6q-.23-.51-.41-1.49a.7.7-6.7 0 0-.71-.55l-7.17.34a1.7 1.7 0 0 0-1.27.69q-1.65 2.28-3.9.06a2.66 2.63 73 0 0-1.3-.7q-10.41-2.24-18.25-.09a2.64 2.57 39.4 0 1-.96.08l-7.65-.89a.7.7 0 0 0-.75.85q.56 2.32-.47 3.42a2.09 1.99-26 0 1-3.57-1.14q-.07-1.17-.12-1.46a.6.6 0 0 0-.7-.51l-8.18 1.36a2 2 0 0 1-.66 0q-8.27-1.52-11.16-1.43-1.88.06-8.04 1.36a.81.8 87.5 0 0-.63.69l-.28 2.43a1 1-14.8 0 1-.38.64l-3.75 2.74a1.3 1.3 0 0 1-1.15.18q-1.38-.44-1.83-2.54-.43-1.95 3.1-2.81a.63.63 0 0 0-.02-1.22q-6.45-1.37-11.73 1.39c-2.84 1.49-6.94.96-10.25 1.66a2.51 2.47 17.5 0 0-1.14.58q-.5.45-.87 1.02c-1.14 1.76-2.8.84-4.46 1.16q-4.71.91-6.1.37-5.9-2.3-10.39 2.57a1.06 1 1.7 0 1-.18.16q-1.36.94-3.26.08-1.69-.76-3.81-1.1c-2.27-.37-4.55.6-7.24.95a3.98 3.76-58.8 0 0-1.01.28q-2.36 1.01-5.03 2.67-.89.55-1.64 1.26-.97.93-1.82.98-4.83.33-9.09 2.98a2.53 2.44-64.6 0 1-.9.34q-3.95.65-7.51.46-.33-.01-1.91.75a.99.96-45.7 0 1-.8.02q-.89-.4-1.81.65-1.03 1.17-1.39 1.74a1.4 1.4 0 0 0-.19.95l.5 3.45a.84.84 0 0 1-1.09.92l-2.01-.64a2 2 0 0 0-1.12 0l-5.53 1.79m324.44 14.67-4.51-1.85a5.79 5.74-30.8 0 0-1.73-.43q-6.33-.61-10.26-.29-2.77.23-8.36 1.64m-19.33 4.87q-7.29.88-14.16 3.64-7.59 3.04-9.35 3.54-4 1.13-10.18 3.21-5.88 1.97-16.34 4.47-6.47 1.55-8.51 2.19-6.44 2.05-8.55 2.08-.86.01-5.64 1.58-2.2.72-5.75 1.13-3 .35-3.04 1.97" vector-effect="non-scaling-stroke"/><path stroke="#91d8a6" d="m279.09 355.55-.47-10.73" vector-effect="non-scaling-stroke"/><path stroke="#e9e9ea" d="M278.62 344.82q-.2-.78-.05-1.23.16-.48 1.01-.47 3.78.05 6.41-.21a1.18 1.02-2.1 0 1 1.3 1.05q-.07 1.22 1.05 1.9a1.39 1.37-34.7 0 0 .97.17q2.23-.43 1.82-2.1a.8.8 0 0 1 .72-.99q6.37-.39 9.64-.99 5.3-.97 9.56-1.06 11-.24 17.17.02a5.52 5.18-46.9 0 0 1.08-.07q10.56-1.85 12.94-1.92 9.8-.31 34.47.8 7.99.36 11.08-.15 4.68-.78 11.02-1.64a7.92 7.58-46.3 0 1 1.36-.06q9.86.52 17.65 1.42c8.05.94 14.44.65 20.93.09a1.24 1.23 81.7 0 1 1.32.99q.49 2.42 2.89 1.94a.9.9 0 0 0 .7-.76l.06-.53a1.16 1.16 0 0 1 1.28-1.01l12.69 1.47a.7.69 8.6 0 1 .6.81q-.27 1.57-.11 2.02a2.07 2 51.4 0 0 3.65.47q.45-.75-.06-2.03a.37.36-10.9 0 1 .34-.5h7.04a.9.89 0 0 1 .9.89v2.36a1.19 1.18 90 0 0 1.18 1.19h1.06a1.46 1.45-86.7 0 0 1.44-1.29l.22-1.85a.63.62-86.9 0 1 .62-.56q14.16.07 27.54 1.49c6.87.72 12.79.54 19.64.21q7.52-.36 14.87.86 1.79.3 3.3-.41a.23.23 0 0 0-.06-.43q-12.48-2.1-24.84-1.02-4.22.37-18.8-.93c-3.81-.34-7.49-.05-10.88-.82a.25.25 0 0 1 .05-.5h.65a.86.85 11.4 0 0 .79-.52q.64-1.54.04-2.52a2.05 1.93 44.1 0 0-3.45-.05q-.87 1.64.43 3.22a.44.44 0 0 1-.38.72q-10.82-.87-16.57-1.13-4.94-.22-11.03-1.02-9.92-1.3-11.03-1.19a1.3 1.3 0 0 1-1.14-.51c-.96-1.29-2.3-.31-3.64-.22q-11.84.73-13.04.7-4.07-.1-12.83-1.24-4.59-.6-5.03-.49-.61.15-5.08-.23c-5.48-.46-12.28.81-17.39 1.62q-2.92.46-5.2.32-18.37-1.13-38.83-.69c-3.6.08-7.6.84-10.48 1.42q-2.88.57-7.9.38-10.96-.4-16.8-.08-1.77.1-7.21 1.11-5.23.96-10.44.46a3.91 3.66-46.9 0 0-1.22.08q-2.73.63-9.88.73a.9.9 0 0 1-.91-.77c-.42-2.82-1.61-6.56-4.11-8.45a3.71 3.44 71.9 0 0-.88-.49q-4.03-1.52-7.25-.57" vector-effect="non-scaling-stroke"/><path stroke="#e9e9ea" d="M271.36 335.6q1.17 3.75 2.59 6.98.25.56.8.29.18-.08.09-.45m-.23 12.3q-6.12 16.49-21.69 15.23a1.13 1.11 24.7 0 0-.87.31l-.65.64m-3.1-.32q.34-1.36 1.11-2.55m1.29-22.12q-1 2.53-.48 6.28a4 4 0 0 1 0 .98l-.94 6.78a1.68.96 74.9 0 1-.05.19q-.88 2.19-2.19 4.67-.71 1.33-2.11 1.38-1.92.06-2.52 1.43" vector-effect="non-scaling-stroke"/><path stroke="#91d8a6" d="M277.58 354.8q-.89-1.72-.76-3.6" vector-effect="non-scaling-stroke"/><path stroke="#7bc291" d="m278.62 344.82-.81.01a.72.71-88.7 0 0-.7.68l-.29 5.69" vector-effect="non-scaling-stroke"/><path stroke="#e9e9ea" d="m276.82 351.2-.85.39m-63.9 8.07q2.43 2.63 7.34 3.3.55.07.81-.89m13.12 2.88q1.89 2.96 5.17 4.36a.8.8 0 0 1 .48.7l.06 1.9" vector-effect="non-scaling-stroke"/><path stroke="#828784" d="M485.88 321.46q2.17 2 5.59 2.12 7.3.25 11.89 1.28a1.29 1.25-55.1 0 0 .99-.19l7.49-5.16a1.44 1.44 0 0 0-.68-2.62q-10.88-1.06-20.49 3.06a5.4 5.31-60.2 0 1-1.39.39l-3.2.47a.38.38 0 0 0-.2.65m-279.2 28.34-.39.47a.66.66 0 0 0 .4 1.07q.81.13 5.07.39c4.51.28 8.24 2.03 11.04 5.37 2.11 2.51 3.9 4.5 5.61 5.95q1.79 1.51 4.51.95a.68.68 0 0 0 .42-1.04q-6.18-9.4-16.67-12.48a4.09 3.78-34.3 0 0-1.01-.15l-8.02-.19a.2.2-6.2 0 1-.18-.14q-.25-1.02-.66-.37a1.04.9-14.1 0 1-.12.17" vector-effect="non-scaling-stroke"/><path stroke="#828784" d="m219.66 360.82 4.91.52a.05.05 0 0 0 .04-.08l-1.07-1.2a.4.4 0 0 0-.44-.13l-3.44.87a.01.01 0 0 0 0 .02m277.79 9.47-2.68.97" vector-effect="non-scaling-stroke"/><path stroke="#6c716f" d="m494.77 371.26-2.59.93" vector-effect="non-scaling-stroke"/><path stroke="#828784" d="m492.18 372.19-2.72 1.04" vector-effect="non-scaling-stroke"/><path stroke="#6c716f" d="m489.46 373.23-21.34 7.61" vector-effect="non-scaling-stroke"/><path stroke="#828784" d="M468.12 380.84q-1.37-.01-2.25.71a.37.37 0 0 0 .07.62q12.06 6.18 28.73 13.24 3.81 1.61 6.01-1.71 4.57-6.89 9.03-15.24 1.95-3.67 3.2-7.12a.42.42 0 0 0-.32-.56l-10.26-1.98" vector-effect="non-scaling-stroke"/><path stroke="#6c716f" d="M502.33 368.8q-1.71-.08-4.88 1.49" vector-effect="non-scaling-stroke"/><path stroke="#e9e9ea" d="m502.33 368.8 4.51 3.84a1.19 1.11-18.9 0 0 .56.25q1.57.25 2.73 1.16a.42.42 0 0 1-.36.74l-11.24-2.99a1.33 1.32-89.7 0 1-.94-.96l-.14-.55m-29.33 10.55q2.56 1.43 6.95 3.07 2.52.95 3.25.82a.6.6-17.1 0 1 .62.32q.37.81 1.36.58a.93.92 66.1 0 1 .98.38q.17.24.73.48 3.39 1.4 14.59 5.51a.5.5 0 0 0 .34 0q.25-.1.47-.49a.26.26 0 0 0-.23-.39l-.94.01a2.1 1.99-29.7 0 1-.95-.23l-19.93-10.25a.67.66-80.1 0 1-.36-.52v-.03a.53.52 21.3 0 1 .67-.29l19.89 7.47a.54.54 0 0 0 .66-.25l.12-.25a.2.2 28.4 0 0-.09-.28l-14.95-7.69a.27.26 26.6 0 1-.12-.35l.29-.56a.4.4 0 0 1 .48-.18l14.73 5.77a.48.48 0 0 0 .65-.4l.04-.31a1.1 1.1 0 0 0-.71-1.18q-4.65-1.86-6.44-3.1-2.59-1.79-3.53-1.59a.13.12-82.4 0 1-.13-.18l.4-.78a.3.3 0 0 1 .38-.15q4.87 1.66 10.73 3.85c1.88.7 4.78.34 6.36 2.11a.22.22 0 0 0 .38-.18q-.12-.8-.95-1.21-7.14-3.52-14.4-7.14m2.72-1.04q-.1.49.02.91.11.41.59.59 5.98 2.2 11.31 3.46a1.34 1.32 79.5 0 1 .79.55l.1.16a.88.87 66.5 0 0 1.03.41q.71-.24 1.56.11.18.07.38-.09.29-.25.17-.67a.36.33 7.2 0 0-.18-.21l-13.18-6.15" vector-effect="non-scaling-stroke"/><path stroke="#6c716f" d="M257.38 377.56q-.99.6-2.78-.19l-.01.01-.6.57a.19.19 0 0 0 .08.33l2.51.67a.62.61 31.2 0 0 .58-.14q.57-.54.68-.9a.31.31 0 0 0-.46-.35" vector-effect="non-scaling-stroke"/><path stroke="#828784" d="M363.19 391.79c.47.33 1.44.33 2.33.86q3.34 1.97 10.7 6.64 12.06 7.64 26.56 8.65a.4.4 0 0 0 .42-.5 12.8 12.8 0 0 0-4.32-6.68q-3.63-3.14-5.59-6.61a3.8 3.8 74.8 0 0-3.38-1.94q-7.28.07-15.12-1.9c-2.51-.63-8.55-1.19-11.57.69a.48.47-43.2 0 0-.03.79" vector-effect="non-scaling-stroke"/><path stroke="#e9e9ea" d="M556.49 340.86q1.83.41 3.78 0 1.13-.24 6.26-2.02a.23.22 67.1 0 1 .28.12l.14.28a.2.2 0 0 1-.12.27l-8.25 2.61a.65.64 76 0 0-.44.74l.01.03a.62.61-8.8 0 0 .67.48c8.6-1.01 16.04-3.36 23.56-5.24a2.33 2.2 20.1 0 0 .65-.28q.91-.59 1.77-.76 3.17-.61 8.2-2.35a.31.3-11.9 0 0 .2-.3l-.01-.29a.35.35 0 0 0-.43-.33l-24.89 5.45a.1.09 66.4 0 1-.11-.05l-.11-.22a.38.37 67.2 0 1 .2-.51l27.86-10.38a.74.73 73.7 0 0 .46-.85l-.08-.38a.15.15 0 0 0-.2-.11l-31.18 10.03a.16.16 0 0 1-.13-.3q2.28-1.28 5.13-1.97a1.55 1.47 24.7 0 0 .38-.13l30.4-14.75a.46.46 0 0 0-.11-.87q-.27-.05-.55.15-1.62 1.17-3.07 1.22a.58.54-56.5 0 0-.25.06l-4.49 2.06a1.79 1.68-57.2 0 1-.6.15q-1.28.12-3.15 1.07-3.5 1.77-20.27 8.53a.22.21-22 0 1-.27-.11l.02-.07 30.58-16.83a.42.41-46 0 0-.01-.73l-.7-.36a.71.7 41.5 0 0-.73.04q-2.21 1.47-4.44 2.45-3.9 1.72-4.62 2.1-7.12 3.8-12.96 6.6c-2.33 1.12-4.46 1.49-6.35 2.54l-.03-.01-.11-.22a.2.2 0 0 1 .1-.26q4.76-1.89 6.26-2.92 4.51-3.12 6.62-4.37 7.35-4.32 11.67-7.39l8.16-5.42a.2.2 0 0 0 .08-.24l-.15-.4a.3.3 0 0 0-.44-.15q-5.43 3.33-11.29 6.14-2.82 1.36-4.36 2.42c-1.98 1.37-5.02 2.22-6.93 3.85a3 2.87 11.6 0 1-.81.51q-2.88 1.27-5.14 2.93-.54.39-.88.4-.63.03-.94.33-.49.49-.79.67c-4.33 2.53-7.82 4.19-11.19 6.61q-5 3.59-6.14 4.3a.32.32 0 0 0 .18.59l2.95-.14a.19.19 0 0 1 .1.36l-1.53.84a.55.54 26.1 0 0 .35 1.01q2.64-.4 5.61-1.42a.22.22 0 0 1 .29.15v.01a.23.23 0 0 1-.16.28q-2.64.66-4.9 2.32a.29.29 0 0 0 .1.51c1.81.45 5.29-1.09 7.76-1.67a.19.18 75.2 0 1 .22.13v.01a.2.2 0 0 1-.12.21l-6.6 2.85a.21.21-49.8 0 0 .03.39m2.82 4.2q.14 1.04 5.03.43 14.49-1.81 28.89-4.45.46-.09.41-.52-.05-.36-.52-.32-14.59 1.2-29.06 3.24-4.88.69-4.75 1.62m-1.26 2.25.09 1.64a.25.25 0 0 0 .26.23l5.67-.3a28.05 1.07-3.1 0 0 27.96-2.59 28.05 1.07-3.1 0 0-28.07.45l-5.67.31a.25.25 0 0 0-.24.26m.42 3.86q-.06.92 4.76 1.29 14.29 1.1 28.65 1.37.47.01.49-.34.03-.43-.43-.49-14.26-1.69-28.57-2.56-4.83-.29-4.9.73m-1.26 2.07q-.18 1.01 5.07 1.98 15.56 2.88 31.29 4.86.51.07.58-.32.08-.47-.42-.58-15.46-3.53-31.06-6.17-5.26-.88-5.46.23m-53.16-34.09q.01.19 5.5.14.46-.01.45-.32t-.47-.29q-5.49.28-5.48.47m-126.32 6.03a1.54 1.54 0 0 0-1.27-1.77l-.9-.15a1.54 1.54 0 0 0-1.78 1.26l-.25 1.52a1.54 1.54 0 0 0 1.27 1.77l.9.15a1.54 1.54 0 0 0 1.78-1.26l.25-1.52m-32.54-1.72a2.32 2.18-97.8 0 0-1.85 2.6 2.32 2.18-97.8 0 0 2.47 2 2.32 2.18-97.8 0 0 1.85-2.6 2.32 2.18-97.8 0 0-2.47-2m7.39 2.31a2.49 2.13-91 0 0-2.09 2.53 2.49 2.13-91 0 0 2.17 2.45 2.49 2.13-91 0 0 2.09-2.53 2.49 2.13-91 0 0-2.17-2.45m60.22.31a2.48 2.24-100.9 0 0-1.73 2.86 2.48 2.24-100.9 0 0 2.67 2.02 2.48 2.24-100.9 0 0 1.73-2.86 2.48 2.24-100.9 0 0-2.67-2.02m-108.44.7a2.44 2.07-102.3 0 0-1.5 2.82 2.44 2.07-102.3 0 0 2.54 1.94 2.44 2.07-102.3 0 0 1.5-2.82 2.44 2.07-102.3 0 0-2.54-1.94m90.21 1.85.19 2.95a.77.77 0 0 0 .82.72l.64-.05a2.31 2.08-3.8 0 0 2.17-2.22l-.03-.34a2.31 2.08-3.8 0 0-2.44-1.93l-.64.05a.77.77 0 0 0-.71.82m-8.46 1.01a1.33 1.33 0 0 0-1.27-1.38l-1.46-.06a1.33 1.33 0 0 0-1.38 1.28l-.07 1.7a1.33 1.33 0 0 0 1.27 1.38l1.46.06a1.33 1.33 0 0 0 1.38-1.28l.07-1.7m55.55.87-2.32.02a.83.83 0 0 0-.83.83l.01 1.03a2.68 1.89 89.7 0 0 1.9 2.67h.2a2.68 1.89 89.7 0 0 1.88-2.69l-.01-1.03a.83.83 0 0 0-.83-.83m-13.57.33a2.47 2.23-87.9 0 0-2.32 2.39 2.47 2.23-87.9 0 0 2.14 2.55 2.47 2.23-87.9 0 0 2.32-2.39 2.47 2.23-87.9 0 0-2.14-2.55m-93.54 1.48a1.4 1.4 0 0 0-1.4-1.37h-.88a1.4 1.4 0 0 0-1.38 1.4l.02 1.27a1.4 1.4 0 0 0 1.4 1.37h.88a1.4 1.4 0 0 0 1.38-1.4l-.02-1.27m33.53.35a1.4 1.4 0 0 0-1.27-1.52l-1.13-.1a1.4 1.4 0 0 0-1.52 1.26l-.14 1.52a1.4 1.4 0 0 0 1.27 1.52l1.13.1a1.4 1.4 0 0 0 1.52-1.26l.14-1.52m45.72 1.66a2.24 2.24 0 0 0-2.24-2.24 2.24 2.24 0 0 0-2.24 2.24 2.24 2.24 0 0 0 2.24 2.24 2.24 2.24 0 0 0 2.24-2.24m49.38-2.17a2.46 2.08-89 0 0-2.12 2.42 2.46 2.08-89 0 0 2.04 2.5 2.46 2.08-89 0 0 2.12-2.42 2.46 2.08-89 0 0-2.04-2.5m-182.63.79-2.4.02a.85.85 0 0 0-.84.86l.01 1.27a2.38 1.97 89.5 0 0 1.99 2.36h.16a2.38 1.97 89.5 0 0 1.95-2.4l-.01-1.27a.85.85 0 0 0-.86-.84m20.78.43a2.31 2.12-86.6 0 0-2.26 2.18 2.31 2.12-86.6 0 0 1.98 2.44 2.31 2.12-86.6 0 0 2.26-2.18 2.31 2.12-86.6 0 0-1.98-2.44m15.49 1.63a1.53 1.53 0 0 0-1.54-1.52h-.96a1.53 1.53 0 0 0-1.52 1.54v1.18a1.53 1.53 0 0 0 1.54 1.52h.96a1.53 1.53 0 0 0 1.52-1.54v-1.18m131.8-1.18a2.37 2.09-94.7 0 0-1.9 2.53 2.37 2.09-94.7 0 0 2.28 2.2 2.37 2.09-94.7 0 0 1.9-2.54 2.37 2.09-94.7 0 0-2.28-2.2m-158.48.47a2.49 2.18-89.9 0 0-2.18 2.49 2.49 2.18-89.9 0 0 2.18 2.49 2.49 2.18-89.9 0 0 2.18-2.49 2.49 2.18-89.9 0 0-2.18-2.49m-30.12 2.98-2.11 1.74a.26.26 0 0 0-.04.37l.09.11a1.82 1.49 50.5 0 0 2.31.46l.21-.18a1.82 1.49 50.5 0 0 0-2.35l-.09-.11a.26.26 0 0 0-.37-.04" vector-effect="non-scaling-stroke"/><path stroke="#e9e9ea" d="M257.38 347.93h.22a1 1 0 0 1 .96.74q.55 2.04 2.91 3.02a.57.57 0 0 0 .75-.73l-.36-.98a.83.81 88.2 0 0-.51-.49q-2.17-.69-2.13-1.93a.8.8 0 0 1 .41-.69c3.25-1.9 7.88-5.18 4.73-9.38a.71.71 0 0 0-1.24.68l.7 1.87a.33.33 0 0 1-.46.41l-.96-.49a1.06 1.04-49.6 0 0-1.11.1q-.94.72-.49 2.23.09.31.52.42l.51.12a.47.47 0 0 1 .2.81l-2.57 2.3a.52.52 0 0 1-.83-.59q.98-2.25-.83-3.48a.77.76-56.3 0 0-1.08.22q-.53.81-.61 2.27a.7.7 0 0 0 .35.61l1.14.59a.7.69 46 0 1-.02 1.25q-.35.16-.54.36a.46.45 21.4 0 0 .34.76m105.3-7.61a2.33 2.03-71.1 0 0-2.67 1.54 2.33 2.03-71.1 0 0 1.17 2.86 2.33 2.03-71.1 0 0 2.67-1.54 2.33 2.03-71.1 0 0-1.17-2.86m43.93.24-2.32-.3a.8.8 0 0 0-.92.71l-.22 1.68a1.82 1.71-82.7 0 0 1.47 2.03l.55.07a1.82 1.71-82.7 0 0 1.93-1.59l.22-1.69a.8.8 0 0 0-.71-.91" vector-effect="non-scaling-stroke"/><path stroke="#e9e9ea" d="M269.56 341.15q-.03.61-.12 1.09-.09.47-.78.43-.31-.02-1-.36a.78.77-53.5 0 0-.89.14q-.82.81-.79 1.93a.9.9 0 0 0 1.01.89q.74-.08 1.14-.35a.33.33 0 0 1 .51.27v1.14a.58.58 0 0 1-.71.56q-.67-.16-1.67.09a.8.8 0 0 0-.61.77v2.01a.54.53-20.9 0 1-.18.4l-6.56 5.89a.25.24-42.6 0 0-.02.35l.2.23a.44.44 0 0 0 .59.06q3.42-2.59 6.49-4.75c.92-.64 1.61-.49 2.67-.68q.81-.15.82-1.76 0-.99.74-2.95.7-1.89.18-4.8-.09-.5-.4-.83a.36.36 0 0 0-.62.23m83.33 2.17a1.5 1.5 0 0 0-1.2-1.72l-.78-.15a1.5 1.5 0 0 0-1.72 1.2l-.22 1.17a1.5 1.5 0 0 0 1.2 1.73l.78.14a1.5 1.5 0 0 0 1.72-1.2l.22-1.17m-13.37-1.08a2.49 2.21-69.1 0 0-2.95 1.54 2.49 2.21-69.1 0 0 1.17 3.12 2.49 2.21-69.1 0 0 2.95-1.54 2.49 2.21-69.1 0 0-1.17-3.12m79.75-.02a2.36 2.16-81.7 0 0-2.48 2.03 2.36 2.16-81.7 0 0 1.8 2.65 2.36 2.16-81.7 0 0 2.48-2.03 2.36 2.16-81.7 0 0-1.8-2.65m-43.04 3.96-.51-2.55a.75.75 0 0 0-.88-.59l-.44.09a2.4 1.94-11.3 0 0-1.98 2.37l.05.22a2.4 1.94-11.3 0 0 2.73 1.43l.44-.09a.75.75 0 0 0 .59-.88m-137.27 4.05q1.39.63 2.54-1.29.89-1.48.23-3.08-1.2-2.88-2.97-.87" vector-effect="non-scaling-stroke"/><path stroke="#828784" d="M238.76 344.99c-5.32-4.87-11.82 2.26-6.77 7 2.26 2.12 5.72.82 6.97-1.76" vector-effect="non-scaling-stroke"/><path stroke="#6c716f" d="M238.76 344.99q1.28 2.93.2 5.24" vector-effect="non-scaling-stroke"/><path stroke="#e9e9ea" d="M388.67 346.38a2.3 2.3 0 0 0-2.28-2.28 2.3 2.3 0 0 0-2.28 2.28 2.3 2.3 0 0 0 2.28 2.28 2.3 2.3 0 0 0 2.28-2.28m-143.44-.61a1.13 1.13 0 0 0-1.13-1.13 1.13 1.13 0 0 0-1.13 1.13 1.13 1.13 0 0 0 1.13 1.13 1.13 1.13 0 0 0 1.13-1.13m169.99 2.72a2.24 2.24 0 0 0-2.24-2.24 2.24 2.24 0 0 0-2.24 2.24 2.24 2.24 0 0 0 2.24 2.24 2.24 2.24 0 0 0 2.24-2.24m21.09-2.04a2.41 2.13-87.3 0 0-2.24 2.31 2.41 2.13-87.3 0 0 2.02 2.5 2.41 2.13-87.3 0 0 2.24-2.3 2.41 2.13-87.3 0 0-2.02-2.5m-42.81.45-2.1.55a.8.8 0 0 0-.57.97l.4 1.49a2.13 1.73 75.2 0 0 2.21 1.61l.29-.07a2.13 1.73 75.2 0 0 1.13-2.5l-.39-1.49a.8.8 0 0 0-.97-.56m12.51.39a2.37 2.2-84.4 0 0-2.42 2.15 2.37 2.2-84.4 0 0 1.96 2.57 2.37 2.2-84.4 0 0 2.42-2.15 2.37 2.2-84.4 0 0-1.96-2.57m-160.41 3.72q-.08.1-.19.53a.54.54 0 0 0 .44.67q.73.12 1.32-.16a.58.57 76.4 0 0 .33-.55l-.18-3.73a.36.36 0 0 0-.63-.23q-1.19 1.34-2.18 1.21-1.18-.16-1.47.16-.56.63-.38 1.45a.78.78 0 0 0 1.05.56q.45-.19 1-.66a.6.57-3.3 0 1 .89.75m70.26-3.38a2.28 2.13-128.3 0 0-.26 3.11 2.28 2.13-128.3 0 0 3.08.47 2.28 2.13-128.3 0 0 .26-3.11 2.28 2.13-128.3 0 0-3.08-.47m-60.09.72q-1.06.5-.95 1.49a.89.72 56.2 0 0 1.51.46q.25-.75.1-1.61a.47.47 0 0 0-.66-.34m216.45-.04a2.32 1.94-92.7 0 0-1.83 2.41 2.32 1.94-92.7 0 0 2.05 2.23 2.32 1.94-92.7 0 0 1.83-2.41 2.32 1.94-92.7 0 0-2.05-2.23m-93.74 1.08a2.29 1.93-73.3 0 0-2.5 1.64 2.29 1.93-73.3 0 0 1.18 2.74 2.29 1.93-73.3 0 0 2.5-1.64 2.29 1.93-73.3 0 0-1.18-2.74m72.13.27a2.33 2.03-81 0 0-2.37 1.98 2.33 2.03-81 0 0 1.65 2.62 2.33 2.03-81 0 0 2.37-1.98 2.33 2.03-81 0 0-1.65-2.62m-159.46 1.71a1.87 1.87 0 0 0-2.3-1.29l-.47.13a1.87 1.87 0 0 0-1.29 2.3l.22.76a1.87 1.87 0 0 0 2.3 1.29l.47-.13a1.87 1.87 0 0 0 1.29-2.3l-.22-.76m229.97-.66a2.37 2.15-97.9 0 0-1.8 2.65 2.37 2.15-97.9 0 0 2.46 2.05 2.37 2.15-97.9 0 0 1.8-2.65 2.37 2.15-97.9 0 0-2.46-2.05m-19.1.21a2.48 1.97-89.3 0 0-2 2.46 2.48 1.97-89.3 0 0 1.94 2.5 2.48 1.97-89.3 0 0 2-2.46 2.48 1.97-89.3 0 0-1.94-2.5" vector-effect="non-scaling-stroke"/><path stroke="#e9e9ea" d="M242.17 352.65a1.12 1-155 0 0 .6 1.38 1.12 1-155 0 0 1.44-.44 1.12 1-155 0 0-.6-1.38 1.12 1-155 0 0-1.44.44m91.96 2.37a1.5 1.5 0 0 0-1.5-1.48h-1.1a1.5 1.5 0 0 0-1.48 1.5l.02 1.48a1.5 1.5 0 0 0 1.5 1.48h1.1a1.5 1.5 0 0 0 1.48-1.5l-.02-1.48m7.37-1.77a2.28 1.93-85.2 0 0-2.12 2.1 2.28 1.93-85.2 0 0 1.73 2.44 2.28 1.93-85.2 0 0 2.11-2.1 2.28 1.93-85.2 0 0-1.73-2.44m29.02.67a2.14 1.94-62.9 0 0-2.7 1.03 2.14 1.94-62.9 0 0 .76 2.79 2.14 1.94-62.9 0 0 2.7-1.03 2.14 1.94-62.9 0 0-.76-2.79M302.12 357a2.2 2.2 0 0 0-2.22-2.22 2.2 2.2 0 0 0-2.22 2.22 2.2 2.2 0 0 0 2.22 2.22 2.2 2.2 0 0 0 2.22-2.22m185.42-1.7a2.38 2.11-74.3 0 0-2.67 1.72 2.38 2.11-74.3 0 0 1.39 2.86 2.38 2.11-74.3 0 0 2.67-1.72 2.38 2.11-74.3 0 0-1.39-2.86m-73.12.38a2.21 1.84-94.1 0 0-1.68 2.33 2.21 1.84-94.1 0 0 2 2.07 2.21 1.84-94.1 0 0 1.68-2.33 2.21 1.84-94.1 0 0-2-2.07m11.35 1.05a2.14 1.83-82.5 0 0-2.1 1.88 2.14 1.83-82.5 0 0 1.54 2.36 2.14 1.83-82.5 0 0 2.1-1.88 2.14 1.83-82.5 0 0-1.54-2.36m18.5 1.79a1.4 1.4 0 0 0-1.32-1.48l-.83-.05a1.4 1.4 0 0 0-1.48 1.31l-.09 1.42a1.4 1.4 0 0 0 1.32 1.48l.83.05a1.4 1.4 0 0 0 1.48-1.31l.09-1.42m-128.68 1a1.3 1.3 0 0 0-1.38-1.22l-1.3.08a1.3 1.3 0 0 0-1.22 1.38l.12 1.92a1.3 1.3 0 0 0 1.38 1.22l1.3-.08a1.3 1.3 0 0 0 1.21-1.38l-.11-1.92m72.25 2.21a1.56 1.56 0 0 0-1.42-1.69l-.56-.05a1.56 1.56 0 0 0-1.68 1.43l-.1 1.15a1.56 1.56 0 0 0 1.42 1.69l.56.05a1.56 1.56 0 0 0 1.68-1.43l.1-1.15m-104.17-.81a2.37 2.21-87.8 0 0-2.3 2.29 2.37 2.21-87.8 0 0 2.12 2.45 2.37 2.21-87.8 0 0 2.3-2.29 2.37 2.21-87.8 0 0-2.12-2.45m72.96.88-1.86-.63a.45.45 0 0 0-.57.28l-.11.34a2.45 1.31-71.3 0 0 .45 2.75l.23.07a2.45 1.31-71.3 0 0 2.03-1.9l.11-.34a.45.45 0 0 0-.28-.57m96.42 1.17a2.21 1.85-88 0 0-1.93 2.15 2.21 1.85-88 0 0 1.77 2.27 2.21 1.85-88 0 0 1.93-2.15 2.21 1.85-88 0 0-1.77-2.27" vector-effect="non-scaling-stroke"/><path stroke="#828784" d="m278.56 374.23 8.56 7.98a3.91 3.86-13.6 0 0 1.38.83q7.55 2.58 16.56 2.61a2.16 2.11-56.9 0 0 .9-.2c6.04-2.77 15.02-9.02 15.8-16.21a1.3 1.3 0 0 0-.87-1.38q-1.59-.56-3.64-.64c-12.44-.42-26.68.84-38.38 5.37a.98.98 0 0 0-.31 1.64m-42.08-29.61a3.87 3.51-64.7 0 0-4.82 2 3.87 3.51-64.7 0 0 1.52 5 3.87 3.51-64.7 0 0 4.82-2 3.87 3.51-64.7 0 0-1.52-5" vector-effect="non-scaling-stroke"/><path stroke="#828784" d="M233.24 347.05q.87.36.92 1.03a.69.56 29.8 0 1-1.19.2q-.18-.24-.11-.77a.39.38-85.1 0 0-.36-.44h-.1a.35.35 0 0 0-.38.36q.05 2.72 2.37 3.36a1.65 1.6-45.9 0 0 .98-.03q2.78-.97 1.76-4.09a1.47 1.43-85.2 0 0-.66-.8q-1.67-.93-3.33.2a.56.56 0 0 0 .1.98" vector-effect="non-scaling-stroke"/><path stroke="#e9e9ea" d="M209.6 359.81q1.55.63 2.04.5a.22.22 0 0 0-.01-.43q-1.04-.24-1.83-.56t-1.7-.88a.22.22 0 0 0-.31.31q.26.43 1.81 1.06" vector-effect="non-scaling-stroke"/><path stroke="#828784" d="M302.32 368.72q-11.51.69-21.98 4.5a.37.37 0 0 0-.14.6l2.3 2.54" vector-effect="non-scaling-stroke"/><path stroke="#6c716f" d="m282.5 376.36 5.92 5.3a2.47 2.29 73.8 0 0 .83.5l1.88.65" vector-effect="non-scaling-stroke"/><path stroke="#828784" d="M291.13 382.81q5.58 1.53 11.42 1.62" vector-effect="non-scaling-stroke"/><path stroke="#6c716f" d="M302.55 384.43q2.31.58 3.77-.39" vector-effect="non-scaling-stroke"/><path stroke="#828784" d="M306.32 384.04c5.92-2.99 12.56-7.78 14.45-14.47a.57.57 0 0 0-.43-.72l-3.11-.66" vector-effect="non-scaling-stroke"/><path stroke="#6c716f" d="M317.23 368.19q-7.74-.48-14.91.53" vector-effect="non-scaling-stroke"/><path stroke="#e9e9ea" d="M317.23 368.19q-1.33-.01-1.06.93a.35.31-81.8 0 0 .13.2l1.42 1.04a.29.29 0 0 1-.15.52l-17.47.84a1.59 1.46 31.5 0 0-.46.09q-3.11 1.06-5.77.83a1.7 1.7 0 0 0-1.02.24q-.58.36-2.13.52-5.22.54-7.44 1.46-.59.25-1.26-.26a.42.42 0 0 1 .13-.73q.35-.11.51-.38a.9.87-74.3 0 1 .76-.44q1.11-.01 7.59-1.81c1.71-.48 2.91-.14 4.53-1q1.45-.77 3.36-.03a1.68 1.67-41.3 0 0 .98.06q1.96-.48 2.44-1.55m4 15.32q-2.66-2.76-7.31-2.92-5.93-.2-9.5-.36a.1.1 0 0 1-.07-.07v-.27a.3.3 0 0 1 .28-.29q8.65-.39 18.03.94.93.13 1.6-.58a.24.24 0 0 0-.21-.4q-1.25.18-2.87-.85a.57.53 59.6 0 0-.3-.09l-6.2-.28a.2.2 0 0 1-.2-.22v-.01a.23.22 87.3 0 1 .2-.23l6.28-.61a.89.81 47.5 0 1 .34.03q3.11.87 6.2.01a.3.3 0 0 0-.03-.59l-6.71-1.18a1.04 1.02 41.1 0 0-.51.03q-.75.24-1.06.21-6.29-.67-10.16 0a.16.16 0 0 1-.15-.25q.07-.08.25-.14 1.18-.4 3.35-.38 2.98.04 6.06-.08.8-.03 1.38-.32c1.07-.54 2.31.13 3.6-.01q1.96-.22 7.35-.25a.31.31 0 0 0 .17-.56q-1.67-1.1-2.51-.87a4.09 3.98 39.6 0 1-1.49.12q-7.65-.83-12.06-.23-8.38 1.13-11.93 1.66-.09.02-.71-.08l-.59-.09a1.13 1.1 21.7 0 0-1.01.42q-.49.64-1.59.32-.32-.09-.86.34-.44.35-.88.45" vector-effect="non-scaling-stroke"/><path stroke="#e9e9ea" d="M302.55 384.43q.33-.31.33-.55-.01-.4-.34-.48-5.29-1.28-10.77-1.53a.62.61-85.4 0 0-.63.54q-.03.2-.01.4m101.82 14.92q-.62-.39-.84-.33a.28.28 0 0 0-.03.53l.74.26a.25.25 0 0 0 .13-.46" vector-effect="non-scaling-stroke"/></g><path fill="#050f09" d="M798 0v532H0V0zM1.9 103.13l.18 27.14.02 26.99-.07 27.72-.01 344.78a.77.76 90 0 0 .76.77h793.15a1.27 1.27 0 0 0 1.27-1.27l.01-343.75-.02-27.91.03-26.8-.08-28.03.28-101.34a.54.54 0 0 0-.54-.54H1.84a.16.15-90 0 0-.15.16z"/><path fill="#23b14d" d="M797.14 102.77q-2.57-.35-4.53-1.48c-10.06-5.78-18.44-12.09-30.06-13.14-8.58-.77-15.95-.29-23.74 2.32-6.44 2.15-12.44 6.78-18.25 10.1q-9.27 5.29-19.79 5.68-7.72.28-12.55-.4c-9.15-1.28-16.32-5.72-24.54-10.81q-10.58-6.55-21.71-7.09c-9.49-.46-19.34.28-27.99 5.06q-2.49 1.39-12.78 7.61c-8.23 4.98-17.54 5.94-27.44 5.63q-10.4-.33-19.26-5.53c-10.45-6.13-16.84-10.71-26.32-12.2q-5.84-.91-14.4-.54-11.93.51-23 7.55-8.26 5.25-11.82 6.92-8.21 3.85-20.22 3.96-14.94.13-26.52-7.39c-8.98-5.83-17-10.41-27.71-10.97-10.97-.59-20.29.47-29.78 6.2-9.7 5.85-17.78 11.35-29.43 11.98-6.9.37-13.8.17-20.1-1.91s-10.66-4.9-17.52-9.18c-10.28-6.39-21.17-8.2-33.57-7.03-11.09 1.05-19.02 6.43-28.76 12.26-10.01 5.99-20.36 6.71-32.31 5.44-10.74-1.14-19.47-7.89-27.47-12.57-8.59-5.02-20.44-6.06-30.48-5.1-11.23 1.08-18.74 6.43-29.63 12.82q-8.15 4.79-19.2 5.28-10.38.46-15-.77-8.96-2.39-13.67-5.37-9.73-6.14-12.41-7.53-8.03-4.16-18.93-4.63c-11-.48-19.94 1.34-29.11 7.06q-9.46 5.91-15.24 8.13L1.69 1.05a.16.15 90 0 1 .15-.16h795.04a.54.54 0 0 1 .54.54z"/><path fill="#fff" d="m797.14 102.77.08 28.03q-6.98-3.08-13.34-7.06-4.93-3.08-7.34-4.24-4.53-2.19-7.92-3.01-13.71-3.33-28.06.54c-5.68 1.53-10.45 4.73-15.5 7.84-9.35 5.77-17.05 8.72-28.05 8.89q-11.06.16-20-3.81c-5.66-2.52-12.54-7.52-17.31-9.9q-7.71-3.85-16.56-4.86-5.66-.65-15.04.45c-10.52 1.24-20.02 8.34-27.09 12.35-11.88 6.75-26.88 7.38-39.56 3.27-5.85-1.9-10.02-4.98-16.63-9.05-16.78-10.32-38.18-9.75-54.78 1.09q-6.76 4.41-10.88 6.32c-13.92 6.45-32.87 5.55-45.79-2.71-5.8-3.7-13.33-8.63-21.08-10.43q-21.23-4.92-39.04 5.75c-3.43 2.06-7 4.7-9.88 6.15q-16.06 8.1-34.3 4.15-4.23-.92-8.51-2.87-6.28-2.87-8.06-4.19-17.18-12.66-38.43-10.24c-10.47 1.19-18.41 5.62-26.88 11.25-6.72 4.46-14.61 6.61-22.56 7.16q-15.8 1.11-28.55-6.97c-2.81-1.78-8.96-5.81-13.05-7.51q-18.17-7.53-37.81-1.8-1.71.5-3.11 1.25c-2.77 1.48-5.21 2.58-7.45 4.01-5.35 3.42-10.69 6.97-16.28 8.7q-16.36 5.07-32.43-.06c-5.83-1.86-10.39-5.01-16.23-8.71-13.87-8.77-33.42-10.34-47.59-3.17q-7.76 3.93-12.36 7.12-3.83 2.66-7.69 3.77l-.18-27.14q5.78-2.22 15.24-8.13c9.17-5.72 18.11-7.54 29.11-7.06q10.9.47 18.93 4.63 2.68 1.39 12.41 7.53 4.71 2.98 13.67 5.37 4.62 1.23 15 .77 11.05-.49 19.2-5.28c10.89-6.39 18.4-11.74 29.63-12.82 10.04-.96 21.89.08 30.48 5.1 8 4.68 16.73 11.43 27.47 12.57 11.95 1.27 22.3.55 32.31-5.44 9.74-5.83 17.67-11.21 28.76-12.26 12.4-1.17 23.29.64 33.57 7.03 6.86 4.28 11.21 7.09 17.52 9.18s13.2 2.28 20.1 1.91c11.65-.63 19.73-6.13 29.43-11.98 9.49-5.73 18.81-6.79 29.78-6.2 10.71.56 18.73 5.14 27.71 10.97q11.58 7.52 26.52 7.39 12.01-.11 20.22-3.96 3.56-1.67 11.82-6.92 11.07-7.04 23-7.55 8.56-.37 14.4.54c9.48 1.49 15.87 6.07 26.32 12.2q8.86 5.2 19.26 5.53c9.9.31 19.21-.65 27.44-5.63q10.29-6.22 12.78-7.61c8.65-4.78 18.5-5.52 27.99-5.06q11.13.54 21.71 7.09c8.22 5.09 15.39 9.53 24.54 10.81q4.83.68 12.55.4 10.52-.39 19.79-5.68c5.81-3.32 11.81-7.95 18.25-10.1 7.79-2.61 15.16-3.09 23.74-2.32 11.62 1.05 20 7.36 30.06 13.14q1.96 1.13 4.53 1.48"/><path fill="#00adef" d="m797.22 130.8-.03 26.8q-6.38-2.73-17.62-9.69c-11.26-6.97-30.21-7.73-42.81-2.64-5.67 2.28-11.57 6.68-16.18 9.31-14.91 8.52-34.55 8.36-49.26-.68q-9.64-5.92-14.65-8.3c-7.57-3.58-18.94-4.16-27.05-3.14q-9.83 1.25-16.88 5.51c-9.67 5.85-15.6 10.15-24.84 11.87q-13.97 2.61-26.67-1.74c-5.86-2.01-11.89-6.18-16.88-9.18-11.41-6.85-23.87-8.03-36.68-5.98-8.12 1.3-14.85 5.53-22.12 10.05q-5.2 3.24-8.83 4.61c-13.71 5.17-29.67 4.39-42.54-3.28-7.28-4.34-14.9-9.62-23.9-11.31-7.66-1.43-17.5-1.45-25.31.87-6.29 1.87-11.88 5.28-17.57 9-13.06 8.58-29.15 10.25-43.79 5.05-10.38-3.69-18.28-12.03-29.32-14.42q-10.68-2.3-22.78-.81c-9.4 1.17-17.21 6.11-24.02 10.49-15.36 9.9-35.9 10.28-51.34.44-5.32-3.4-13.43-8.54-20.37-10.11-11.91-2.7-26.76-2.23-37.84 4.19q-6.24 3.62-11.57 6.87c-14.17 8.64-34.88 8.24-48.83-.37-9.42-5.82-16.83-10.46-26.83-11.69q-7.9-.97-15.44-.03-8.57 1.08-16.82 5.72c-5.12 2.89-10.43 7.17-16.35 9.05l-.02-26.99q3.86-1.11 7.69-3.77 4.6-3.19 12.36-7.12c14.17-7.17 33.72-5.6 47.59 3.17 5.84 3.7 10.4 6.85 16.23 8.71q16.07 5.13 32.43.06c5.59-1.73 10.93-5.28 16.28-8.7 2.24-1.43 4.68-2.53 7.45-4.01q1.4-.75 3.11-1.25 19.64-5.73 37.81 1.8c4.09 1.7 10.24 5.73 13.05 7.51q12.75 8.08 28.55 6.97c7.95-.55 15.84-2.7 22.56-7.16 8.47-5.63 16.41-10.06 26.88-11.25q21.25-2.42 38.43 10.24 1.78 1.32 8.06 4.19 4.28 1.95 8.51 2.87 18.24 3.95 34.3-4.15c2.88-1.45 6.45-4.09 9.88-6.15q17.81-10.67 39.04-5.75c7.75 1.8 15.28 6.73 21.08 10.43 12.92 8.26 31.87 9.16 45.79 2.71q4.12-1.91 10.88-6.32c16.6-10.84 38-11.41 54.78-1.09 6.61 4.07 10.78 7.15 16.63 9.05 12.68 4.11 27.68 3.48 39.56-3.27 7.07-4.01 16.57-11.11 27.09-12.35q9.38-1.1 15.04-.45 8.85 1.01 16.56 4.86c4.77 2.38 11.65 7.38 17.31 9.9q8.94 3.97 20 3.81c11-.17 18.7-3.12 28.05-8.89 5.05-3.11 9.82-6.31 15.5-7.84q14.35-3.87 28.06-.54 3.39.82 7.92 3.01 2.41 1.16 7.34 4.24 6.36 3.98 13.34 7.06"/><path fill="#fff" d="m797.19 157.6.02 27.91q-6.59-3.02-12.76-6.73-8.51-5.12-10.4-5.84c-11.65-4.43-25.65-4.55-36.8-.03-6.21 2.52-13.38 7.8-18.52 10.33-9.88 4.87-19.85 5.75-30.63 4.46-8.03-.95-14.54-4.36-22.05-9.24-9-5.86-17.1-8.64-28.61-8.83q-13.14-.22-23.63 5.73-7.09 4.01-9.44 5.55c-7.95 5.17-15.66 7.1-25.86 7.33q-15.31.34-26.49-6.76-3.3-2.1-10.49-6.24c-13.86-7.99-34.15-7.46-47.78.52q-2.77 1.63-9.75 5.97c-9.27 5.78-20.94 7.3-31.73 6.24-11.21-1.11-18.46-6.05-28.89-12.34-10.51-6.33-25.62-7.56-37-4.55-7.84 2.07-12.16 5.45-21.19 10.83-12.9 7.68-30.21 8.3-44.39 2.64-5.08-2.03-9.94-5.71-15.06-8.75-12.66-7.5-30.84-8.36-44.28-2.27-6.26 2.83-13.05 8.06-18.64 10.54-9.01 4.01-18.48 4.71-27.94 3.89-9.75-.85-16.83-4.74-24.86-9.83q-4.71-2.99-7.17-4.07c-13.81-6.04-32.27-6.58-45.78 1.85-9.14 5.69-17.18 10.9-27.9 12.04-11.05 1.17-21.95-.17-31.74-5.96-8.84-5.22-16.06-10.36-26.39-11.79-8.4-1.16-17.51-.8-25.38 2.25-8.16 3.17-14.59 9.04-23.63 12.53l.07-27.72c5.92-1.88 11.23-6.16 16.35-9.05q8.25-4.64 16.82-5.72 7.54-.94 15.44.03c10 1.23 17.41 5.87 26.83 11.69 13.95 8.61 34.66 9.01 48.83.37q5.33-3.25 11.57-6.87c11.08-6.42 25.93-6.89 37.84-4.19 6.94 1.57 15.05 6.71 20.37 10.11 15.44 9.84 35.98 9.46 51.34-.44 6.81-4.38 14.62-9.32 24.02-10.49q12.1-1.49 22.78.81c11.04 2.39 18.94 10.73 29.32 14.42 14.64 5.2 30.73 3.53 43.79-5.05 5.69-3.72 11.28-7.13 17.57-9 7.81-2.32 17.65-2.3 25.31-.87 9 1.69 16.62 6.97 23.9 11.31 12.87 7.67 28.83 8.45 42.54 3.28q3.63-1.37 8.83-4.61c7.27-4.52 14-8.75 22.12-10.05 12.81-2.05 25.27-.87 36.68 5.98 4.99 3 11.02 7.17 16.88 9.18q12.7 4.35 26.67 1.74c9.24-1.72 15.17-6.02 24.84-11.87q7.05-4.26 16.88-5.51c8.11-1.02 19.48-.44 27.05 3.14q5.01 2.38 14.65 8.3c14.71 9.04 34.35 9.2 49.26.68 4.61-2.63 10.51-7.03 16.18-9.31 12.6-5.09 31.55-4.33 42.81 2.64q11.24 6.96 17.62 9.69"/><path fill="#00adef" d="m797.21 185.51-.01 343.75a1.27 1.27 0 0 1-1.27 1.27H2.78a.77.76-90 0 1-.76-.77l.01-344.78c9.04-3.49 15.47-9.36 23.63-12.53 7.87-3.05 16.98-3.41 25.38-2.25 10.33 1.43 17.55 6.57 26.39 11.79 9.79 5.79 20.69 7.13 31.74 5.96 10.72-1.14 18.76-6.35 27.9-12.04 13.51-8.43 31.97-7.89 45.78-1.85q2.46 1.08 7.17 4.07c8.03 5.09 15.11 8.98 24.86 9.83 9.46.82 18.93.12 27.94-3.89 5.59-2.48 12.38-7.71 18.64-10.54 13.44-6.09 31.62-5.23 44.28 2.27 5.12 3.04 9.98 6.72 15.06 8.75 14.18 5.66 31.49 5.04 44.39-2.64 9.03-5.38 13.35-8.76 21.19-10.83 11.38-3.01 26.49-1.78 37 4.55 10.43 6.29 17.68 11.23 28.89 12.34 10.79 1.06 22.46-.46 31.73-6.24q6.98-4.34 9.75-5.97c13.63-7.98 33.92-8.51 47.78-.52q7.19 4.14 10.49 6.24 11.18 7.1 26.49 6.76c10.2-.23 17.91-2.16 25.86-7.33q2.35-1.54 9.44-5.55 10.49-5.95 23.63-5.73c11.51.19 19.61 2.97 28.61 8.83 7.51 4.88 14.02 8.29 22.05 9.24 10.78 1.29 20.75.41 30.63-4.46 5.14-2.53 12.31-7.81 18.52-10.33 11.15-4.52 25.15-4.4 36.8.03q1.89.72 10.4 5.84 6.17 3.71 12.76 6.73M506.72 324.62q1.73-1.99 4.24-3.2a1.21.89-72 0 0 .21-.15l2.03-1.82a1.96 1.95-61.7 0 0-1.01-3.39q-9.95-1.49-19.2 1.96c-3.84 1.44-7.57 2.46-10.52 1.82q-33.77-7.33-68.71-10.58-4.2-.39-7.63.04a.46.46 0 0 1-.33-.82q.7-.53 1.17-.51a1.27 1.27 0 0 0 .98-2.13q-10.7-11.65-22.1-21.68-2.35-2.06-6.16-4.97a2.4 2.4 0 0 0-2.58-.18q-6.07 3.38-10.72 7.57a.66.6 16.9 0 1-.34.16l-.24.08a.43.32 8 0 0-.09.05l-23.8 21.34a1.07 1.04-68.1 0 1-.63.28q-14.72 1.31-27.39 3.17-44.17 6.46-84.08 23.68-5.5 2.37-9.9 4.71c-4.73 2.51-10.21 4.92-14.25 9.05a1.63 1.61 70.5 0 0-.45.96c-.17 1.79 1.18 2.59 3.03 2.61q3.3.04 7.11.72a4.05 3.99-24.1 0 1 1.31.49l2.58 1.54a2.4 2.32 89.4 0 1 .79.8q.62 1.04 1.56 1.68a.69.69-32.8 0 1-.27 1.24c-5.08.88-9.26-1.32-13.49-3.25a2.27 2.07-78.6 0 0-2.94 2.16c-.04 6.15 21.39 13.42 25.88 14.86q8.45 2.7 21.47 6.03l21.89 5.6q7.12 1.69 26.39 5.01 4.5.77 10.97 1.47 2.61.29 11 1.38 5.08.65 30.74 2.4c4 .27 8.37.08 12.89.12a4.72 4.7-26.5 0 1 2.71.9q2.18 1.6 8.17 5.15 11.89 7.04 26.08 8a.83.82-84.9 0 0 .87-.73c.33-3.02-2.03-5.82-4.32-8.13q-1.93-1.95-3.34-3.64a.5.5 0 0 1 .24-.79c3.3-.89 6.71-.65 9.96-1.01q27.63-3.06 54.28-11.72a6.55 6.5 45.6 0 1 4.19.06q2.47.89 6.06 2.74 11.91 6.15 24.32 10.89 3.58 1.37 6.09-2.34 7.36-10.91 12.46-22.43a1.42 1.41 19.5 0 0-.93-1.94l-7.24-1.93a.33.33 0 0 1-.01-.64q8.92-2.71 18.27-3.01c3.54-.11 6.54.35 10.03.34 4.91-.03 10.98 1.76 15.47 2.49a3.73 3.47-27.1 0 1 .88.25q8.87 3.89 18.65 10.62c11.97 8.24 23.44 14.76 37.64 15.76a.49.48-85.3 0 0 .52-.45q.25-3.76-.75-7.55-2.21-8.38-5.74-18.54a1.09 1.05 17.4 0 0-.18-.33c-.7-.91-.46-2.11-.89-3.29q-2.3-6.28-3.55-13.07a6.58 6.55-42.4 0 1 .14-2.99c1.56-5.47 2.73-9.64 4.83-14.87q3.5-8.67 5.9-15.23 1.05-2.88.96-5.49a2.9 2.77 53.2 0 1 .1-.82q1.57-5.38-.59-10.92a.7.7 0 0 0-.74-.43c-3.88.54-7.74 2.17-11.57 3.57q-3.89 1.42-17.2 7.9c-1.31.63-2.55 1.74-4.2 2.31a3.12 3.01 17.4 0 0-.78.39q-2.42 1.65-10.95 6.79c-5 3.02-9.11 6.11-14.7 10.27a7.34 7.28-65.8 0 1-3.69 1.42c-3.98.39-7.19.2-11.72-.82q-10.57-2.39-24.85-6.08a.6.6 0 0 1-.29-.96"/><path fill="#050f09" d="M506.72 324.62a.6.6 0 0 0 .29.96q14.28 3.69 24.85 6.08a34 34 0 0 0 11.72.82 7.34 7.28-65.8 0 0 3.69-1.42c5.59-4.16 9.7-7.25 14.7-10.27q8.53-5.14 10.95-6.79a3.12 3.01 17.4 0 1 .78-.39c1.65-.57 2.89-1.68 4.2-2.31q13.31-6.48 17.2-7.9c3.83-1.4 7.69-3.03 11.57-3.57a.7.7 0 0 1 .74.43q2.16 5.54.59 10.92a2.9 2.77 53.2 0 0-.1.82q.09 2.61-.96 5.49-2.4 6.56-5.9 15.23c-2.1 5.23-3.27 9.4-4.83 14.87a6.58 6.55-42.4 0 0-.14 2.99q1.25 6.79 3.55 13.07c.43 1.18.19 2.38.89 3.29a1.09 1.05 17.4 0 1 .18.33q3.53 10.16 5.74 18.54 1 3.79.75 7.55a.49.48-85.3 0 1-.52.45c-14.2-1-25.67-7.52-37.64-15.76q-9.78-6.73-18.65-10.62a3.73 3.47-27.1 0 0-.88-.25c-4.49-.73-10.56-2.52-15.47-2.49-3.49.01-6.49-.45-10.03-.34q-9.35.3-18.27 3.01a.33.33 0 0 0 .01.64l7.24 1.93a1.42 1.41 19.5 0 1 .93 1.94q-5.1 11.52-12.46 22.43-2.51 3.71-6.09 2.34-12.41-4.74-24.32-10.89-3.59-1.85-6.06-2.74a6.55 6.5 45.6 0 0-4.19-.06q-26.65 8.66-54.28 11.72c-3.25.36-6.66.12-9.96 1.01a.5.5 0 0 0-.24.79q1.41 1.69 3.34 3.64c2.29 2.31 4.65 5.11 4.32 8.13a.83.82-84.9 0 1-.87.73q-14.19-.96-26.08-8-5.99-3.55-8.17-5.15a4.72 4.7-26.5 0 0-2.71-.9c-4.52-.04-8.89.15-12.89-.12q-25.66-1.75-30.74-2.4-8.39-1.09-11-1.38-6.47-.7-10.97-1.47-19.27-3.32-26.39-5.01l-21.89-5.6q-13.02-3.33-21.47-6.03c-4.49-1.44-25.92-8.71-25.88-14.86a2.27 2.07-78.6 0 1 2.94-2.16c4.23 1.93 8.41 4.13 13.49 3.25a.69.69-32.8 0 0 .27-1.24q-.94-.64-1.56-1.68a2.4 2.32 89.4 0 0-.79-.8l-2.58-1.54a4.05 3.99-24.1 0 0-1.31-.49q-3.81-.68-7.11-.72c-1.85-.02-3.2-.82-3.03-2.61a1.63 1.61 70.5 0 1 .45-.96c4.04-4.13 9.52-6.54 14.25-9.05q4.4-2.34 9.9-4.71 39.91-17.22 84.08-23.68 12.67-1.86 27.39-3.17a1.07 1.04-68.1 0 0 .63-.28l23.8-21.34a.43.32 8 0 1 .09-.05l.24-.08a.66.6 16.9 0 0 .34-.16q4.65-4.19 10.72-7.57a2.4 2.4 0 0 1 2.58.18q3.81 2.91 6.16 4.97 11.4 10.03 22.1 21.68a1.27 1.27 0 0 1-.98 2.13q-.47-.02-1.17.51a.46.46 0 0 0 .33.82q3.43-.43 7.63-.04 34.94 3.25 68.71 10.58c2.95.64 6.68-.38 10.52-1.82q9.25-3.45 19.2-1.96a1.96 1.95-61.7 0 1 1.01 3.39l-2.03 1.82a1.21.89-72 0 1-.21.15q-2.51 1.21-4.24 3.2m-160.15-16.6q2.06.34 2.89-.3 1.36.45 2.05.07l38.5-.11q4.27.21 7.75.54 4.78.45 9.04-1.55a.3.3 0 0 0 .1-.5q-13.32-14.38-27.18-25.83a2.3 2.3 0 0 0-2.6-.2c-12.7 7.51-23.38 19.69-33.64 27.88a.22.22 0 0 0 .17.39zm201.21 26.43q4.99 3.27 6.51 8.53 3.4 11.8-5.79 19.66l-3.8 2.03a.23.22 35.9 0 0 .07.42c9.52 1.91 17.56 7.27 25.72 12.74 7 4.68 12.82 8.21 18.68 10.75q7.68 3.32 16.42 4.2a.78.78 0 0 0 .85-.86q-.59-5.69-2.34-11.03-3.86-11.77-6.88-21.33c-.81-2.58-2.52-9.03-2.04-11.17q2.2-9.72 6.19-19.26 3.12-7.47 4.17-12.28 2.67-5.72 2-12.53l-1.03-3.12a.57.57-17.4 0 0-.7-.36c-15.23 4.54-29.97 12.07-43.04 20.68l-6.71 4.41q-3.49 2.29-5.11 3.73-2.36 2.1-5.26 3.4a.33.32-46.3 0 0 .01.6zm-329.35 15.26q11.52 4.46 17.05 14.38a1.33 1.31 87.5 0 0 .6.56l6.33 2.97q5.61 1.32 8-2.38 1.22-1.87 1.78-7.24.45-4.29.59-7.5.12-2.57-2.08-4.59l-1.42-1.35a.27.26-59.5 0 1-.07-.3l.12-.29a.54.54 0 0 1 .82-.25q3.64 2.6 3.63 7.09-.01 3-.99 11.45-.41 3.49-3.38 5.77-4.09 1.94-7.18.71-4.36-1.74-8.89-3.79-4.28 1.37-7.56-2.48a.37.36-24.6 0 0-.37-.13q-.32.06-.46.25a.23.22-68.8 0 1-.22.1l-4.51-.62-8.15-2.41q-1.96-1.79-4.74-2.87a1.13 1.13 0 0 0-1.49 1.39q.58 1.89 2.31 3.16 9.6 7.02 21.59 9.88 3.49.83 9.31.69l9.25-1.33 3.1.32c8.34 1.03 15.53 1.36 20.29-6.69q2.42-4.09 2.92-9.49l.23-12.3q.74-4.03-3.48-6.82-2.81-1.66-6.55-2.27a.78.36-20.3 0 0-.13-.01l-5 .1a.17.17 0 0 1-.03-.34l5.93-1.05q1.56.74 3.02 1.17 2.42.7 3.02 1.08 2.62 1.64 4.06 4.38a1.97 1.96 30.8 0 1 .24.94l.05 11.99q.5 7.86-3.36 13.8-4.09 6.3-13.28 7.26-2.06.21-4.36.18a4.46 3.92 48.6 0 1-.86-.11q-6.49-1.53-13.12.38a1.66 1.65-50.9 0 1-.57.06l-4.25-.24a.04.04 0 0 0-.04.04v.34a.31.3 88.3 0 0 .32.31q2.35-.13 4.84 1.11a4.55 4.24-24.4 0 0 1.01.34l10.63 2.08a1.1 1.1 0 0 0 1-.32q.53-.58 1.1-.36.8.3 1.91-.04 4.33-1.29 7.24-3.77a.3.29-42.7 0 1 .4.01l.01.02a.43.42-47.5 0 1 .02.59q-2.33 2.71-5.79 3.93a.39.38-54.3 0 0 .12.75q6.96.04 7.08.03l.58-.1q2.74-.51 6.85-4.66 4.24-4.28 4.25-9.47.01-4.52-.12-8.95.28-.22.69-.2t.58.31q.15.24.24.64c-.01 5.32-.05 9.24-1.24 13.86a2.3 2.3 0 0 1-.69 1.15q-.65.61-2.32 2.94-1.03 1.44-2.51 2.63-4.26 3.4-8.58 3.44-2.26.02-2.48-.07-1.34-.52-2.05-.31a.19.19 0 0 0 0 .36q27.14 7.68 55.55 10.87 25.32 2.85 50.05 3.64a.22.22 0 0 0 .09-.43l-2.95-1.15a1.17 1.17 0 0 1-.2-2.08q3.13-2.01 7.31-1.8 4.91.25 5.44.39 7.8 2.1 14.96 1.94 1.85-.04 3.63 1.25c.81.59 1.41 2.24 2.7 2.18a.1.1 0 0 1 .1.13q-.05.17-.04.29a.1.1 0 0 0 .16.08q1.53-.79 3.23-.86 9.04-.39 17.91-1.87 24.3-3.65 47.55-11.39 16.92-5.63 33.97-12.42l19.33-4.87q12.56-.45 24.86.93 8.61-3.65 10.7-11.06 1.22-4.32-.3-9.23-1.31-5.7-6.05-8.69a3.54 3.4 65.3 0 0-1.2-.47q-1.84-.35-3.14-1.14a1.82 1.79-31.1 0 0-1.14-.27q-4.45.43-9.12-.64-5.93-1.36-26.05-6.39-4.86-1.21-16.46-2.05-1.59-.12-4.91-2.1a.96.95 10.1 0 1-.45-.64q-.18-.89-.98-.79-.75.09-1.53-.08-33.07-7.22-66.49-10.35-5.82-.54-10.5-.58a.4.34 49.7 0 1-.12-.02l-.5-.27a.99.86 56.1 0 0-.37-.1q-16.28-.7-20.26-.68-7.17.04-8.51-.07-4.39-.39-8.49-.26-14.71.47-19.49.72-57.49 3.02-110.6 24.17-9.93 3.95-23.33 11.16c-1.96 1.06-3.54 2.5-5.45 3.73a.36.36 0 0 0 .17.66zm267.45-28.25q2.17 2 5.59 2.12 7.3.25 11.89 1.28a1.29 1.25-55.1 0 0 .99-.19l7.49-5.16a1.44 1.44 0 0 0-.68-2.62q-10.88-1.06-20.49 3.06a5.4 5.31-60.2 0 1-1.39.39l-3.2.47a.38.38 0 0 0-.2.65m-279.2 28.34-.39.47a.66.66 0 0 0 .4 1.07q.81.13 5.07.39c4.51.28 8.24 2.03 11.04 5.37 2.11 2.51 3.9 4.5 5.61 5.95q1.79 1.51 4.51.95a.68.68 0 0 0 .42-1.04q-6.18-9.4-16.67-12.48a4.09 3.78-34.3 0 0-1.01-.15l-8.02-.19a.2.2-6.2 0 1-.18-.14q-.25-1.02-.66-.37a1.04.9-14.1 0 1-.12.17m12.98 11.02 4.91.52a.05.05 0 0 0 .04-.08l-1.07-1.2a.4.4 0 0 0-.44-.13l-3.44.87a.01.01 0 0 0 0 .02m277.79 9.47-2.68.97-2.59.93-2.72 1.04-21.34 7.61q-1.37-.01-2.25.71a.37.37 0 0 0 .07.62q12.06 6.18 28.73 13.24 3.81 1.61 6.01-1.71 4.57-6.89 9.03-15.24 1.95-3.67 3.2-7.12a.42.42 0 0 0-.32-.56l-10.26-1.98q-1.71-.08-4.88 1.49m-240.07 7.27q-.99.6-2.78-.19l-.01.01-.6.57a.19.19 0 0 0 .08.33l2.51.67a.62.61 31.2 0 0 .58-.14q.57-.54.68-.9a.31.31 0 0 0-.46-.35m105.81 14.23c.47.33 1.44.33 2.33.86q3.34 1.97 10.7 6.64 12.06 7.64 26.56 8.65a.4.4 0 0 0 .42-.5 12.8 12.8 0 0 0-4.32-6.68q-3.63-3.14-5.59-6.61a3.8 3.8 74.8 0 0-3.38-1.94q-7.28.07-15.12-1.9c-2.51-.63-8.55-1.19-11.57.69a.48.47-43.2 0 0-.03.79"/><path fill="#fff" d="M390.01 307.68q2.83-.61 8.7-1.42.71-.1 1.25-.95a.3.3 0 0 0-.32-.46l-7.53 1.65a.45.45 0 0 1-.34-.82q1.84-1.13 5.77-1.96a.28.28 0 0 0 .19-.4l-.44-.93a.07.06 63.3 0 0-.08-.03l-11.6 4.6a.1.1 0 0 1-.13-.04l-.16-.24a.56.55 59.8 0 1 .21-.82l7.56-3.67a.6.6 0 0 0 .32-.65l-.08-.36a.35.35-18.7 0 0-.48-.23l-10.25 4.98a.16.16 0 0 1-.23-.11l-.1-.44a.31.3 68.8 0 1 .14-.33l10.42-6.3a.46.44 72.9 0 0 .21-.42l-.01-.02a.43.43 0 0 0-.54-.22q-7.23 2.84-14.8 7.62a.19.18-4 0 1-.27-.23q.39-.87 1.15-1.4 5.83-4.05 10.14-6.46a.42.41 65.3 0 0 .18-.5l-.1-.27a.36.36 0 0 0-.5-.19l-5.49 2.72a1.48 1.44 8.9 0 0-.31.22q-2.02 1.88-3.36 2.35c-2.43.86-3.91 2.55-6.48 3.41a.4.4 0 0 1-.35-.72l15.63-10.32a.1.1 0 0 0 .04-.13l-.14-.28a.22.22 0 0 0-.31-.09l-20.14 11.62a.2.2 0 0 1-.28-.06l-.16-.21a.12.12 0 0 1 .03-.17l17.54-12.17a5.46 4.04-75.3 0 0 .56-.45l1.38-1.33a.33.33 0 0 0 .02-.46h-.01a.25.25 0 0 0-.36 0q-.91.97-2.85 1.97-7.39 3.85-16.22 10.53a5.74 5.47-76.1 0 1-.8.51q-2.31 1.21-3.78 2.34a.04.03-38 0 1-.05 0l-.38-.27a.34.34 0 0 1-.01-.55l20.06-14.62a.17.16 68.4 0 0 .07-.17l-.1-.44a.37.37 0 0 0-.57-.23l-23.3 15.89a.41.38 30.4 0 1-.27.06q-.62-.11-.86-.51a.31.31 0 0 1 .27-.47q.6.01 1.16-.41 6.58-4.91 9.38-7.16c3.49-2.81 8.36-5.57 11.37-8.51.61-.6 1.77-.9 2.8-1.56a.04.04 0 0 0 .02-.06l-.3-.82a.24.24 0 0 0-.36-.11l-26.6 18.33a.82.3-19.9 0 0-.12.1l-3.15 3.36q-.69.38-2.05-.07l4.7-4.08a1.35 1.34 11.6 0 1 .26-.17q2.79-1.33 5.87-4.16 6.57-6.03 16.69-12.71a.12.12 0 0 0 .04-.17l-.13-.24a.5.49 59.7 0 0-.67-.18q-7.09 4.07-11.74 7.99-2.56 2.15-6.25 4.24-1.94 1.1-8.48 6.47a.13.12 49.6 0 0-.01.18l.2.23a.24.24 0 0 0 .35.01q.61-.61 1.29-.79a.24.24 0 0 1 .24.4q-1.08 1.12-2.31.75a1.07 1.05-55.5 0 0-.97.19q-1.18.94-1.97 2.34l-2.92.39a.22.22 0 0 1-.17-.39c10.26-8.19 20.94-20.37 33.64-27.88a2.3 2.3 0 0 1 2.6.2q13.86 11.45 27.18 25.83a.3.3 0 0 1-.1.5q-4.26 2-9.04 1.55-3.48-.33-7.75-.54"/><path fill="#d2d2d4" d="M349.46 307.72q-.83.64-2.89.3.79-1.4 1.97-2.34a1.07 1.05-55.5 0 1 .97-.19q1.23.37 2.31-.75a.24.24 0 0 0-.24-.4q-.68.18-1.29.79a.24.24 0 0 1-.35-.01l-.2-.23a.13.12 49.6 0 1 .01-.18q6.54-5.37 8.48-6.47 3.69-2.09 6.25-4.24 4.65-3.92 11.74-7.99a.5.49 59.7 0 1 .67.18l.13.24a.12.12 0 0 1-.04.17q-10.12 6.68-16.69 12.71-3.08 2.83-5.87 4.16a1.35 1.34 11.6 0 0-.26.17zm40.55-.04-38.5.11 3.15-3.36a.82.3-19.9 0 1 .12-.1l26.6-18.33a.24.24 0 0 1 .36.11l.3.82a.04.04 0 0 1-.02.06c-1.03.66-2.19.96-2.8 1.56-3.01 2.94-7.88 5.7-11.37 8.51q-2.8 2.25-9.38 7.16-.56.42-1.16.41a.31.31 0 0 0-.27.47q.24.4.86.51a.41.38 30.4 0 0 .27-.06l23.3-15.89a.37.37 0 0 1 .57.23l.1.44a.17.16 68.4 0 1-.07.17l-20.06 14.62a.34.34 0 0 0 .01.55l.38.27a.04.03-38 0 0 .05 0q1.47-1.13 3.78-2.34a5.74 5.47-76.1 0 0 .8-.51q8.83-6.68 16.22-10.53 1.94-1 2.85-1.97a.25.25 0 0 1 .36 0h.01a.33.33 0 0 1-.02.46l-1.38 1.33a5.46 4.04-75.3 0 1-.56.45L366.97 305a.12.12 0 0 0-.03.17l.16.21a.2.2 0 0 0 .28.06l20.14-11.62a.22.22 0 0 1 .31.09l.14.28a.1.1 0 0 1-.04.13l-15.63 10.32a.4.4 0 0 0 .35.72c2.57-.86 4.05-2.55 6.48-3.41q1.34-.47 3.36-2.35a1.48 1.44 8.9 0 1 .31-.22l5.49-2.72a.36.36 0 0 1 .5.19l.1.27a.42.41 65.3 0 1-.18.5q-4.31 2.41-10.14 6.46-.76.53-1.15 1.4a.19.18-4 0 0 .27.23q7.57-4.78 14.8-7.62a.43.43 0 0 1 .54.22l.01.02a.46.44 72.9 0 1-.21.42l-10.42 6.3a.31.3 68.8 0 0-.14.33l.1.44a.16.16 0 0 0 .23.11l10.25-4.98a.35.35-18.7 0 1 .48.23l.08.36a.6.6 0 0 1-.32.65l-7.56 3.67a.56.55 59.8 0 0-.21.82l.16.24a.1.1 0 0 0 .13.04l11.6-4.6a.07.06 63.3 0 1 .08.03l.44.93a.28.28 0 0 1-.19.4q-3.93.83-5.77 1.96a.45.45 0 0 0 .34.82l7.53-1.65a.3.3 0 0 1 .32.46q-.54.85-1.25.95-5.87.81-8.7 1.42m217.53-3.36q-3.64-.49-5.19 2.7a.2.2 0 0 1-.29.09h-.01a.25.24 31.1 0 1-.09-.34q.63-1.03.58-1.71a.98.98 0 0 0-1.27-.88q-7.28 2.29-14.34 6.25-11.8 6.64-23.39 14.64a1.75 1.73-60.6 0 1-1.08.31q-.68-.04-.93.04a.24.24 0 0 0-.1.38q.22.27.2.42a.33.32-89.8 0 1-.26.27q-1.19.22-4.89 3.23-2.97 2.42-8.7 4.73l-2.08-.79a.33.32-46.3 0 1-.01-.6q2.9-1.3 5.26-3.4 1.62-1.44 5.11-3.73l6.71-4.41c13.07-8.61 27.81-16.14 43.04-20.68a.57.57-17.4 0 1 .7.36z"/><path fill="#fff" d="M607.54 304.32q.67 6.81-2 12.53-5.82 10.34-10.08 21.23c-1.19 3.04-1.59 5.21-2.34 8.44a11.09 11.05-44.9 0 0-.02 4.96q1.03 4.56 3.8 14.14.29.98.62 1.43.63.83.21 1.63a1.03.99 52.6 0 0-.08.7l4.2 16.48a1.33 1.32-3.2 0 1-1.47 1.64q-1.87-.26-4.67-1.66-2.6-1.29-13.36-6.98a.33.33 0 0 1-.14-.44l.21-.41a.46.46 0 0 1 .62-.2l16.2 8.34a.4.4 0 0 0 .52-.17l.17-.33a.4.4 0 0 0-.19-.57c-4.9-2.42-8.72-5.32-13.83-7.74q-3.1-1.46-8.01-4.42-1.94-1.17-3.42-2.58a.29.29 0 0 1 .31-.47l20.11 8.48a.36.36 0 0 0 .46-.17l.13-.24a.53.53 0 0 0-.23-.71q-9.17-4.79-20.83-10.22c-2.26-1.05-4.61-1.58-6.71-2.98a.25.25 0 0 1 .21-.45l24.14 7.77a.42.4-72 0 0 .51-.27l.16-.5a.31.3 20.3 0 0-.18-.38l-28.73-11.25a.05.05 0 0 1 .03-.09q2.13.33 4.26 1.01 2.92.94 4.21 1.19 2.91.55 13.87 3.41c2.5.66 5.23.54 7.31 1.73a.6.59 17.4 0 0 .89-.46q.02-.23-.2-.66a.66.65 67.9 0 0-.75-.32q-.37.1-2.16-.47c-13.56-4.28-20.15-6.48-32.19-9.24a2.21 2.02 47.6 0 0-.54-.05l-2.01.06a.46.46 0 0 0-.29.8q2.2 1.97 4.77 1.75a.3.3 0 0 1 .3.37l-.11.32a.2.2 0 0 1-.27.15l-4.77-1.27a.61.6 87.1 0 0-.72.8l.13.28a.67.67 0 0 1-.38.94l-.14.04a.9.9 0 0 0-.72.93q.07.99-1.06 1.74a.64.64 0 0 0 .06 1.1l5.9 3.03a.55.55 0 0 1 .03.96q-1.44.89-2.11-.48a.91.9-12.2 0 0-.8-.51q-1.39-.02-3.79-1.19a1.73 1.72 53.5 0 0-1.05-.16q-.35.05-1.25.08-1.6.05-1.78-2.1 9.19-7.86 5.79-19.66-1.52-5.26-6.51-8.53 5.73-2.31 8.7-4.73 3.7-3.01 4.89-3.23a.33.32-89.8 0 0 .26-.27q.02-.15-.2-.42a.24.24 0 0 1 .1-.38q.25-.08.93-.04a1.75 1.73-60.6 0 0 1.08-.31q11.59-8 23.39-14.64 7.06-3.96 14.34-6.25a.98.98 0 0 1 1.27.88q.05.68-.58 1.71a.25.24 31.1 0 0 .09.34h.01a.2.2 0 0 0 .29-.09q1.55-3.19 5.19-2.7m-51.05 36.54q1.83.41 3.78 0 1.13-.24 6.26-2.02a.23.22 67.1 0 1 .28.12l.14.28a.2.2 0 0 1-.12.27l-8.25 2.61a.65.64 76 0 0-.44.74l.01.03a.62.61-8.8 0 0 .67.48c8.6-1.01 16.04-3.36 23.56-5.24a2.33 2.2 20.1 0 0 .65-.28q.91-.59 1.77-.76 3.17-.61 8.2-2.35a.31.3-11.9 0 0 .2-.3l-.01-.29a.35.35 0 0 0-.43-.33l-24.89 5.45a.1.09 66.4 0 1-.11-.05l-.11-.22a.38.37 67.2 0 1 .2-.51l27.86-10.38a.74.73 73.7 0 0 .46-.85l-.08-.38a.15.15 0 0 0-.2-.11l-31.18 10.03a.16.16 0 0 1-.13-.3q2.28-1.28 5.13-1.97a1.55 1.47 24.7 0 0 .38-.13l30.4-14.75a.46.46 0 0 0-.11-.87q-.27-.05-.55.15-1.62 1.17-3.07 1.22a.58.54-56.5 0 0-.25.06l-4.49 2.06a1.79 1.68-57.2 0 1-.6.15q-1.28.12-3.15 1.07-3.5 1.77-20.27 8.53a.22.21-22 0 1-.27-.11l.02-.07 30.58-16.83a.42.41-46 0 0-.01-.73l-.7-.36a.71.7 41.5 0 0-.73.04q-2.21 1.47-4.44 2.45-3.9 1.72-4.62 2.1-7.12 3.8-12.96 6.6c-2.33 1.12-4.46 1.49-6.35 2.54l-.03-.01-.11-.22a.2.2 0 0 1 .1-.26q4.76-1.89 6.26-2.92 4.51-3.12 6.62-4.37 7.35-4.32 11.67-7.39l8.16-5.42a.2.2 0 0 0 .08-.24l-.15-.4a.3.3 0 0 0-.44-.15q-5.43 3.33-11.29 6.14-2.82 1.36-4.36 2.42c-1.98 1.37-5.02 2.22-6.93 3.85a3 2.87 11.6 0 1-.81.51q-2.88 1.27-5.14 2.93-.54.39-.88.4-.63.03-.94.33-.49.49-.79.67c-4.33 2.53-7.82 4.19-11.19 6.61q-5 3.59-6.14 4.3a.32.32 0 0 0 .18.59l2.95-.14a.19.19 0 0 1 .1.36l-1.53.84a.55.54 26.1 0 0 .35 1.01q2.64-.4 5.61-1.42a.22.22 0 0 1 .29.15v.01a.23.23 0 0 1-.16.28q-2.64.66-4.9 2.32a.29.29 0 0 0 .1.51c1.81.45 5.29-1.09 7.76-1.67a.19.18 75.2 0 1 .22.13v.01a.2.2 0 0 1-.12.21l-6.6 2.85a.21.21-49.8 0 0 .03.39m2.82 4.2q.14 1.04 5.03.43 14.49-1.81 28.89-4.45.46-.09.41-.52-.05-.36-.52-.32-14.59 1.2-29.06 3.24-4.88.69-4.75 1.62m-1.26 2.25.09 1.64a.25.25 0 0 0 .26.23l5.67-.3a28.05 1.07-3.1 0 0 27.96-2.59 28.05 1.07-3.1 0 0-28.07.45l-5.67.31a.25.25 0 0 0-.24.26m.42 3.86q-.06.92 4.76 1.29 14.29 1.1 28.65 1.37.47.01.49-.34.03-.43-.43-.49-14.26-1.69-28.57-2.56-4.83-.29-4.9.73m-1.26 2.07q-.18 1.01 5.07 1.98 15.56 2.88 31.29 4.86.51.07.58-.32.08-.47-.42-.58-15.46-3.53-31.06-6.17-5.26-.88-5.46.23"/><path fill="#d2d2d4" d="m556.46 340.47 6.6-2.85a.2.2 0 0 0 .12-.21v-.01a.19.18 75.2 0 0-.22-.13c-2.47.58-5.95 2.12-7.76 1.67a.29.29 0 0 1-.1-.51q2.26-1.66 4.9-2.32a.23.23 0 0 0 .16-.28v-.01a.22.22 0 0 0-.29-.15q-2.97 1.02-5.61 1.42a.55.54 26.1 0 1-.35-1.01l1.53-.84a.19.19 0 0 0-.1-.36l-2.95.14a.32.32 0 0 1-.18-.59q1.14-.71 6.14-4.3c3.37-2.42 6.86-4.08 11.19-6.61q.3-.18.79-.67.31-.3.94-.33.34-.01.88-.4 2.26-1.66 5.14-2.93a3 2.87 11.6 0 0 .81-.51c1.91-1.63 4.95-2.48 6.93-3.85q1.54-1.06 4.36-2.42 5.86-2.81 11.29-6.14a.3.3 0 0 1 .44.15l.15.4a.2.2 0 0 1-.08.24l-8.16 5.42q-4.32 3.07-11.67 7.39-2.11 1.25-6.62 4.37-1.5 1.03-6.26 2.92a.2.2 0 0 0-.1.26l.11.22.03.01c1.89-1.05 4.02-1.42 6.35-2.54q5.84-2.8 12.96-6.6.72-.38 4.62-2.1 2.23-.98 4.44-2.45a.71.7 41.5 0 1 .73-.04l.7.36a.42.41-46 0 1 .01.73l-30.58 16.83-.02.07a.22.21-22 0 0 .27.11q16.77-6.76 20.27-8.53 1.87-.95 3.15-1.07a1.79 1.68-57.2 0 0 .6-.15l4.49-2.06a.58.54-56.5 0 1 .25-.06q1.45-.05 3.07-1.22.28-.2.55-.15a.46.46 0 0 1 .11.87l-30.4 14.75a1.55 1.47 24.7 0 1-.38.13q-2.85.69-5.13 1.97a.16.16 0 0 0 .13.3l31.18-10.03a.15.15 0 0 1 .2.11l.08.38a.74.73 73.7 0 1-.46.85l-27.86 10.38a.38.37 67.2 0 0-.2.51l.11.22a.1.09 66.4 0 0 .11.05l24.89-5.45a.35.35 0 0 1 .43.33l.01.29a.31.3-11.9 0 1-.2.3q-5.03 1.74-8.2 2.35-.86.17-1.77.76a2.33 2.2 20.1 0 1-.65.28c-7.52 1.88-14.96 4.23-23.56 5.24a.62.61-8.8 0 1-.67-.48l-.01-.03a.65.64 76 0 1 .44-.74l8.25-2.61a.2.2 0 0 0 .12-.27l-.14-.28a.23.22 67.1 0 0-.28-.12q-5.13 1.78-6.26 2.02-1.95.41-3.78 0a.21.21-49.8 0 1-.03-.39m-3.19 3.62q-4.23-5.49-9.4-7.19-3.57-1.17-8.78.47a.77.76 82.5 0 0-.53.7c-.07 2.02-.7 4.4-3.33 3.55a1.07 1.06-88.4 0 1-.69-.73q-.33-1.19-1.31-1.88a1.42 1.38-29 0 0-.92-.25q-4.39.4-5.06.31-8.36-1.08-18.99-1.52-3.59-.15-9.48-2.96a6.12 5.87-27.1 0 0-1.73-.52c-5.82-.8-11.04-1.67-16.1-4.44a3.63 3.31 62.9 0 0-.83-.31c-3.71-.83-7.79-.48-13.86-.51q-.85-.01-1.95-.88c-1.51-1.21-3.94-2.04-5.31-1.98q-7.82.4-13.44-.71a.92.9 32.1 0 0-.69.15l-1.18.86a1.07 1.06 33.2 0 1-.89.18q-2.21-.53-2.07-2.6a1.39 1.38 89.7 0 0-1.49-1.48l-7.46.77q-.64.06-4.02-.56a1 1 0 0 0-.94.3q-1.44 1.47-3.13.73a.93.89 87.6 0 1-.45-.43l-.96-1.97a.8.8 0 0 0-.74-.45c-4.32.19-7.79 1.96-11.95 1.13a1.8 1.77-51.8 0 0-1.1.14q-.63.3-1.29.85a1.82 1.76-31.9 0 1-2.78-.6q-.23-.51-.41-1.49a.7.7-6.7 0 0-.71-.55l-7.17.34a1.7 1.7 0 0 0-1.27.69q-1.65 2.28-3.9.06a2.66 2.63 73 0 0-1.3-.7q-10.41-2.24-18.25-.09a2.64 2.57 39.4 0 1-.96.08l-7.65-.89a.7.7 0 0 0-.75.85q.56 2.32-.47 3.42a2.09 1.99-26 0 1-3.57-1.14q-.07-1.17-.12-1.46a.6.6 0 0 0-.7-.51l-8.18 1.36a2 2 0 0 1-.66 0q-8.27-1.52-11.16-1.43-1.88.06-8.04 1.36a.81.8 87.5 0 0-.63.69l-.28 2.43a1 1-14.8 0 1-.38.64l-3.75 2.74a1.3 1.3 0 0 1-1.15.18q-1.38-.44-1.83-2.54-.43-1.95 3.1-2.81a.63.63 0 0 0-.02-1.22q-6.45-1.37-11.73 1.39c-2.84 1.49-6.94.96-10.25 1.66a2.51 2.47 17.5 0 0-1.14.58q-.5.45-.87 1.02c-1.14 1.76-2.8.84-4.46 1.16q-4.71.91-6.1.37-5.9-2.3-10.39 2.57a1.06 1 1.7 0 1-.18.16q-1.36.94-3.26.08-1.69-.76-3.81-1.1c-2.27-.37-4.55.6-7.24.95a3.98 3.76-58.8 0 0-1.01.28q-2.36 1.01-5.03 2.67-.89.55-1.64 1.26-.97.93-1.82.98-4.83.33-9.09 2.98a2.53 2.44-64.6 0 1-.9.34q-3.95.65-7.51.46-.33-.01-1.91.75a.99.96-45.7 0 1-.8.02q-.89-.4-1.81.65-1.03 1.17-1.39 1.74a1.4 1.4 0 0 0-.19.95l.5 3.45a.84.84 0 0 1-1.09.92l-2.01-.64a2 2 0 0 0-1.12 0l-5.53 1.79-10.13-.77a.36.36 0 0 1-.17-.66c1.91-1.23 3.49-2.67 5.45-3.73q13.4-7.21 23.33-11.16 53.11-21.15 110.6-24.17 4.78-.25 19.49-.72 4.1-.13 8.49.26 1.34.11 8.51.07 3.98-.02 20.26.68a.99.86 56.1 0 1 .37.1l.5.27a.4.34 49.7 0 0 .12.02q4.68.04 10.5.58 33.42 3.13 66.49 10.35.78.17 1.53.08.8-.1.98.79a.96.95 10.1 0 0 .45.64q3.32 1.98 4.91 2.1 11.6.84 16.46 2.05 20.12 5.03 26.05 6.39 4.67 1.07 9.12.64a1.82 1.79-31.1 0 1 1.14.27q1.3.79 3.14 1.14a3.54 3.4 65.3 0 1 1.2.47q4.74 2.99 6.05 8.69"/><path fill="#fff" d="m486.08 320.81 3.2-.47a5.4 5.31-60.2 0 0 1.39-.39q9.61-4.12 20.49-3.06a1.44 1.44 0 0 1 .68 2.62l-7.49 5.16a1.29 1.25-55.1 0 1-.99.19q-4.59-1.03-11.89-1.28-3.42-.12-5.59-2.12a.38.38 0 0 1 .2-.65m17.97-1.66q.01.19 5.5.14.46-.01.45-.32t-.47-.29q-5.49.28-5.48.47"/><path fill="#d2d2d4" d="M605.54 316.85q-1.05 4.81-4.17 12.28-3.99 9.54-6.19 19.26c-.48 2.14 1.23 8.59 2.04 11.17q3.02 9.56 6.88 21.33 1.75 5.34 2.34 11.03a.78.78 0 0 1-.85.86q-8.74-.88-16.42-4.2c-5.86-2.54-11.68-6.07-18.68-10.75-8.16-5.47-16.2-10.83-25.72-12.74a.23.22 35.9 0 1-.07-.42l3.8-2.03q.18 2.15 1.78 2.1.9-.03 1.25-.08a1.73 1.72 53.5 0 1 1.05.16q2.4 1.17 3.79 1.19a.91.9-12.2 0 1 .8.51q.67 1.37 2.11.48a.55.55 0 0 0-.03-.96l-5.9-3.03a.64.64 0 0 1-.06-1.1q1.13-.75 1.06-1.74a.9.9 0 0 1 .72-.93l.14-.04a.67.67 0 0 0 .38-.94l-.13-.28a.61.6 87.1 0 1 .72-.8l4.77 1.27a.2.2 0 0 0 .27-.15l.11-.32a.3.3 0 0 0-.3-.37q-2.57.22-4.77-1.75a.46.46 0 0 1 .29-.8l2.01-.06a2.21 2.02 47.6 0 1 .54.05c12.04 2.76 18.63 4.96 32.19 9.24q1.79.57 2.16.47a.66.65 67.9 0 1 .75.32q.22.43.2.66a.6.59 17.4 0 1-.89.46c-2.08-1.19-4.81-1.07-7.31-1.73q-10.96-2.86-13.87-3.41-1.29-.25-4.21-1.19-2.13-.68-4.26-1.01a.05.05 0 0 0-.03.09l28.73 11.25a.31.3 20.3 0 1 .18.38l-.16.5a.42.4-72 0 1-.51.27l-24.14-7.77a.25.25 0 0 0-.21.45c2.1 1.4 4.45 1.93 6.71 2.98q11.66 5.43 20.83 10.22a.53.53 0 0 1 .23.71l-.13.24a.36.36 0 0 1-.46.17l-20.11-8.48a.29.29 0 0 0-.31.47q1.48 1.41 3.42 2.58 4.91 2.96 8.01 4.42c5.11 2.42 8.93 5.32 13.83 7.74a.4.4 0 0 1 .19.57l-.17.33a.4.4 0 0 1-.52.17l-16.2-8.34a.46.46 0 0 0-.62.2l-.21.41a.33.33 0 0 0 .14.44q10.76 5.69 13.36 6.98 2.8 1.4 4.67 1.66a1.33 1.32-3.2 0 0 1.47-1.64l-4.2-16.48a1.03.99 52.6 0 1 .08-.7q.42-.8-.21-1.63-.33-.45-.62-1.43-2.77-9.58-3.8-14.14a11.09 11.05-44.9 0 1 .02-4.96c.75-3.23 1.15-5.4 2.34-8.44q4.26-10.89 10.08-21.23M510 318.97q.01.31-.45.32-5.49.05-5.5-.14t5.48-.47q.46-.02.47.29"/><path fill="#fff" d="M553.27 344.09q1.52 4.91.3 9.23-2.09 7.41-10.7 11.06l-4.51-1.85a5.79 5.74-30.8 0 0-1.73-.43q-6.33-.61-10.26-.29-2.77.23-8.36 1.64l-19.33 4.87q-7.29.88-14.16 3.64-7.59 3.04-9.35 3.54-4 1.13-10.18 3.21-5.88 1.97-16.34 4.47-6.47 1.55-8.51 2.19-6.44 2.05-8.55 2.08-.86.01-5.64 1.58-2.2.72-5.75 1.13-3 .35-3.04 1.97-8.87 1.48-17.91 1.87-1.7.07-3.23.86a.1.1 0 0 1-.16-.08q-.01-.12.04-.29a.1.1 0 0 0-.1-.13c-1.29.06-1.89-1.59-2.7-2.18q-1.78-1.29-3.63-1.25-7.16.16-14.96-1.94-.53-.14-5.44-.39-4.18-.21-7.31 1.8a1.17 1.17 0 0 0 .2 2.08l2.95 1.15a.22.22 0 0 1-.09.43q-24.73-.79-50.05-3.64-28.41-3.19-55.55-10.87a.19.19 0 0 1 0-.36q.71-.21 2.05.31.22.09 2.48.07 4.32-.04 8.58-3.44 1.48-1.19 2.51-2.63 1.67-2.33 2.32-2.94a2.3 2.3 0 0 0 .69-1.15c1.19-4.62 1.23-8.54 1.24-13.86l-.47-10.73q-.2-.78-.05-1.23.16-.48 1.01-.47 3.78.05 6.41-.21a1.18 1.02-2.1 0 1 1.3 1.05q-.07 1.22 1.05 1.9a1.39 1.37-34.7 0 0 .97.17q2.23-.43 1.82-2.1a.8.8 0 0 1 .72-.99q6.37-.39 9.64-.99 5.3-.97 9.56-1.06 11-.24 17.17.02a5.52 5.18-46.9 0 0 1.08-.07q10.56-1.85 12.94-1.92 9.8-.31 34.47.8 7.99.36 11.08-.15 4.68-.78 11.02-1.64a7.92 7.58-46.3 0 1 1.36-.06q9.86.52 17.65 1.42c8.05.94 14.44.65 20.93.09a1.24 1.23 81.7 0 1 1.32.99q.49 2.42 2.89 1.94a.9.9 0 0 0 .7-.76l.06-.53a1.16 1.16 0 0 1 1.28-1.01l12.69 1.47a.7.69 8.6 0 1 .6.81q-.27 1.57-.11 2.02a2.07 2 51.4 0 0 3.65.47q.45-.75-.06-2.03a.37.36-10.9 0 1 .34-.5h7.04a.9.89 0 0 1 .9.89v2.36a1.19 1.18 90 0 0 1.18 1.19h1.06a1.46 1.45-86.7 0 0 1.44-1.29l.22-1.85a.63.62-86.9 0 1 .62-.56q14.16.07 27.54 1.49c6.87.72 12.79.54 19.64.21q7.52-.36 14.87.86 1.79.3 3.3-.41a.23.23 0 0 0-.06-.43q-12.48-2.1-24.84-1.02-4.22.37-18.8-.93c-3.81-.34-7.49-.05-10.88-.82a.25.25 0 0 1 .05-.5h.65a.86.85 11.4 0 0 .79-.52q.64-1.54.04-2.52a2.05 1.93 44.1 0 0-3.45-.05q-.87 1.64.43 3.22a.44.44 0 0 1-.38.72q-10.82-.87-16.57-1.13-4.94-.22-11.03-1.02-9.92-1.3-11.03-1.19a1.3 1.3 0 0 1-1.14-.51c-.96-1.29-2.3-.31-3.64-.22q-11.84.73-13.04.7-4.07-.1-12.83-1.24-4.59-.6-5.03-.49-.61.15-5.08-.23c-5.48-.46-12.28.81-17.39 1.62q-2.92.46-5.2.32-18.37-1.13-38.83-.69c-3.6.08-7.6.84-10.48 1.42q-2.88.57-7.9.38-10.96-.4-16.8-.08-1.77.1-7.21 1.11-5.23.96-10.44.46a3.91 3.66-46.9 0 0-1.22.08q-2.73.63-9.88.73a.9.9 0 0 1-.91-.77c-.42-2.82-1.61-6.56-4.11-8.45a3.71 3.44 71.9 0 0-.88-.49q-4.03-1.52-7.25-.57l-5.93 1.05a.17.17 0 0 0 .03.34l5-.1a.78.36-20.3 0 1 .13.01q3.74.61 6.55 2.27 1.17 3.75 2.59 6.98.25.56.8.29.18-.08.09-.45l-.23 12.3q-6.12 16.49-21.69 15.23a1.13 1.11 24.7 0 0-.87.31l-.65.64-3.1-.32q.34-1.36 1.11-2.55 2.97-2.28 3.38-5.77.98-8.45.99-11.45.01-4.49-3.63-7.09a.54.54 0 0 0-.82.25l-.12.29a.27.26-59.5 0 0 .07.3l1.42 1.35q-1 2.53-.48 6.28a4 4 0 0 1 0 .98l-.94 6.78a1.68.96 74.9 0 1-.05.19q-.88 2.19-2.19 4.67-.71 1.33-2.11 1.38-1.92.06-2.52 1.43l-6.33-2.97a1.33 1.31 87.5 0 1-.6-.56q-5.53-9.92-17.05-14.38l5.53-1.79a2 2 0 0 1 1.12 0l2.01.64a.84.84 0 0 0 1.09-.92l-.5-3.45a1.4 1.4 0 0 1 .19-.95q.36-.57 1.39-1.74.92-1.05 1.81-.65a.99.96-45.7 0 0 .8-.02q1.58-.76 1.91-.75 3.56.19 7.51-.46a2.53 2.44-64.6 0 0 .9-.34q4.26-2.65 9.09-2.98.85-.05 1.82-.98.75-.71 1.64-1.26 2.67-1.66 5.03-2.67a3.98 3.76-58.8 0 1 1.01-.28c2.69-.35 4.97-1.32 7.24-.95q2.12.34 3.81 1.1 1.9.86 3.26-.08a1.06 1 1.7 0 0 .18-.16q4.49-4.87 10.39-2.57 1.39.54 6.1-.37c1.66-.32 3.32.6 4.46-1.16q.37-.57.87-1.02a2.51 2.47 17.5 0 1 1.14-.58c3.31-.7 7.41-.17 10.25-1.66q5.28-2.76 11.73-1.39a.63.63 0 0 1 .02 1.22q-3.53.86-3.1 2.81.45 2.1 1.83 2.54a1.3 1.3 0 0 0 1.15-.18l3.75-2.74a1 1-14.8 0 0 .38-.64l.28-2.43a.81.8 87.5 0 1 .63-.69q6.16-1.3 8.04-1.36 2.89-.09 11.16 1.43a2 2 0 0 0 .66 0l8.18-1.36a.6.6 0 0 1 .7.51q.05.29.12 1.46a2.09 1.99-26 0 0 3.57 1.14q1.03-1.1.47-3.42a.7.7 0 0 1 .75-.85l7.65.89a2.64 2.57 39.4 0 0 .96-.08q7.84-2.15 18.25.09a2.66 2.63 73 0 1 1.3.7q2.25 2.22 3.9-.06a1.7 1.7 0 0 1 1.27-.69l7.17-.34a.7.7-6.7 0 1 .71.55q.18.98.41 1.49a1.82 1.76-31.9 0 0 2.78.6q.66-.55 1.29-.85a1.8 1.77-51.8 0 1 1.1-.14c4.16.83 7.63-.94 11.95-1.13a.8.8 0 0 1 .74.45l.96 1.97a.93.89 87.6 0 0 .45.43q1.69.74 3.13-.73a1 1 0 0 1 .94-.3q3.38.62 4.02.56l7.46-.77a1.39 1.38 89.7 0 1 1.49 1.48q-.14 2.07 2.07 2.6a1.07 1.06 33.2 0 0 .89-.18l1.18-.86a.92.9 32.1 0 1 .69-.15q5.62 1.11 13.44.71c1.37-.06 3.8.77 5.31 1.98q1.1.87 1.95.88c6.07.03 10.15-.32 13.86.51a3.63 3.31 62.9 0 1 .83.31c5.06 2.77 10.28 3.64 16.1 4.44a6.12 5.87-27.1 0 1 1.73.52q5.89 2.81 9.48 2.96 10.63.44 18.99 1.52.67.09 5.06-.31a1.42 1.38-29 0 1 .92.25q.98.69 1.31 1.88a1.07 1.06-88.4 0 0 .69.73c2.63.85 3.26-1.53 3.33-3.55a.77.76 82.5 0 1 .53-.7q5.21-1.64 8.78-.47 5.17 1.7 9.4 7.19m-175.54-18.91a1.54 1.54 0 0 0-1.27-1.77l-.9-.15a1.54 1.54 0 0 0-1.78 1.26l-.25 1.52a1.54 1.54 0 0 0 1.27 1.77l.9.15a1.54 1.54 0 0 0 1.78-1.26zm-32.54-1.72a2.32 2.18-97.8 0 0-1.85 2.6 2.32 2.18-97.8 0 0 2.47 2 2.32 2.18-97.8 0 0 1.85-2.6 2.32 2.18-97.8 0 0-2.47-2m7.39 2.31a2.49 2.13-91 0 0-2.09 2.53 2.49 2.13-91 0 0 2.17 2.45 2.49 2.13-91 0 0 2.09-2.53 2.49 2.13-91 0 0-2.17-2.45m60.22.31a2.48 2.24-100.9 0 0-1.73 2.86 2.48 2.24-100.9 0 0 2.67 2.02 2.48 2.24-100.9 0 0 1.73-2.86 2.48 2.24-100.9 0 0-2.67-2.02m-108.44.7a2.44 2.07-102.3 0 0-1.5 2.82 2.44 2.07-102.3 0 0 2.54 1.94 2.44 2.07-102.3 0 0 1.5-2.82 2.44 2.07-102.3 0 0-2.54-1.94m90.21 1.85.19 2.95a.77.77 0 0 0 .82.72l.64-.05a2.31 2.08-3.8 0 0 2.17-2.22l-.03-.34a2.31 2.08-3.8 0 0-2.44-1.93l-.64.05a.77.77 0 0 0-.71.82m-8.46 1.01a1.33 1.33 0 0 0-1.27-1.38l-1.46-.06a1.33 1.33 0 0 0-1.38 1.28l-.07 1.7a1.33 1.33 0 0 0 1.27 1.38l1.46.06a1.33 1.33 0 0 0 1.38-1.28zm55.55.87-2.32.02a.83.83 0 0 0-.83.83l.01 1.03a2.68 1.89 89.7 0 0 1.9 2.67h.2a2.68 1.89 89.7 0 0 1.88-2.69l-.01-1.03a.83.83 0 0 0-.83-.83m-13.57.33a2.47 2.23-87.9 0 0-2.32 2.39 2.47 2.23-87.9 0 0 2.14 2.55 2.47 2.23-87.9 0 0 2.32-2.39 2.47 2.23-87.9 0 0-2.14-2.55m-93.54 1.48a1.4 1.4 0 0 0-1.4-1.37h-.88a1.4 1.4 0 0 0-1.38 1.4l.02 1.27a1.4 1.4 0 0 0 1.4 1.37h.88a1.4 1.4 0 0 0 1.38-1.4zm33.53.35a1.4 1.4 0 0 0-1.27-1.52l-1.13-.1a1.4 1.4 0 0 0-1.52 1.26l-.14 1.52a1.4 1.4 0 0 0 1.27 1.52l1.13.1a1.4 1.4 0 0 0 1.52-1.26zm45.72 1.66a2.24 2.24 0 0 0-2.24-2.24 2.24 2.24 0 0 0-2.24 2.24 2.24 2.24 0 0 0 2.24 2.24 2.24 2.24 0 0 0 2.24-2.24m49.38-2.17a2.46 2.08-89 0 0-2.12 2.42 2.46 2.08-89 0 0 2.04 2.5 2.46 2.08-89 0 0 2.12-2.42 2.46 2.08-89 0 0-2.04-2.5m-182.63.79-2.4.02a.85.85 0 0 0-.84.86l.01 1.27a2.38 1.97 89.5 0 0 1.99 2.36h.16a2.38 1.97 89.5 0 0 1.95-2.4l-.01-1.27a.85.85 0 0 0-.86-.84m20.78.43a2.31 2.12-86.6 0 0-2.26 2.18 2.31 2.12-86.6 0 0 1.98 2.44 2.31 2.12-86.6 0 0 2.26-2.18 2.31 2.12-86.6 0 0-1.98-2.44m15.49 1.63a1.53 1.53 0 0 0-1.54-1.52h-.96a1.53 1.53 0 0 0-1.52 1.54v1.18a1.53 1.53 0 0 0 1.54 1.52h.96a1.53 1.53 0 0 0 1.52-1.54zm131.8-1.18a2.37 2.09-94.7 0 0-1.9 2.53 2.37 2.09-94.7 0 0 2.28 2.2 2.37 2.09-94.7 0 0 1.9-2.54 2.37 2.09-94.7 0 0-2.28-2.2m-158.48.46a2.49 2.18-89.9 0 0-2.18 2.49 2.49 2.18-89.9 0 0 2.18 2.49 2.49 2.18-89.9 0 0 2.18-2.49 2.49 2.18-89.9 0 0-2.18-2.49m-30.12 2.98-2.11 1.74a.26.26 0 0 0-.04.37l.09.11a1.82 1.49 50.5 0 0 2.31.46l.21-.18a1.82 1.49 50.5 0 0 0-2.35l-.09-.11a.26.26 0 0 0-.37-.04m-2.64 10.66h.22a1 1 0 0 1 .96.74q.55 2.04 2.91 3.02a.57.57 0 0 0 .75-.73l-.36-.98a.83.81 88.2 0 0-.51-.49q-2.17-.69-2.13-1.93a.8.8 0 0 1 .41-.69c3.25-1.9 7.88-5.18 4.73-9.38a.71.71 0 0 0-1.24.68l.7 1.87a.33.33 0 0 1-.46.41l-.96-.49a1.06 1.04-49.6 0 0-1.11.1q-.94.72-.49 2.23.09.31.52.42l.51.12a.47.47 0 0 1 .2.81l-2.57 2.3a.52.52 0 0 1-.83-.59q.98-2.25-.83-3.48a.77.76-56.3 0 0-1.08.22q-.53.81-.61 2.27a.7.7 0 0 0 .35.61l1.14.59a.7.69 46 0 1-.02 1.25q-.35.16-.54.36a.46.45 21.4 0 0 .34.76m105.3-7.61a2.33 2.03-71.1 0 0-2.67 1.54 2.33 2.03-71.1 0 0 1.17 2.86 2.33 2.03-71.1 0 0 2.67-1.54 2.33 2.03-71.1 0 0-1.17-2.86m43.93.24-2.32-.3a.8.8 0 0 0-.92.71l-.22 1.68a1.82 1.71-82.7 0 0 1.47 2.03l.55.07a1.82 1.71-82.7 0 0 1.93-1.59l.22-1.69a.8.8 0 0 0-.71-.91m-137.05.59q-.03.61-.12 1.09-.09.47-.78.43-.31-.02-1-.36a.78.77-53.5 0 0-.89.14q-.82.81-.79 1.93a.9.9 0 0 0 1.01.89q.74-.08 1.14-.35a.33.33 0 0 1 .51.27v1.14a.58.58 0 0 1-.71.56q-.67-.16-1.67.09a.8.8 0 0 0-.61.77v2.01a.54.53-20.9 0 1-.18.4l-6.56 5.89a.25.24-42.6 0 0-.02.35l.2.23a.44.44 0 0 0 .59.06q3.42-2.59 6.49-4.75c.92-.64 1.61-.49 2.67-.68q.81-.15.82-1.76 0-.99.74-2.95.7-1.89.18-4.8-.09-.5-.4-.83a.36.36 0 0 0-.62.23m83.33 2.17a1.5 1.5 0 0 0-1.2-1.72l-.78-.15a1.5 1.5 0 0 0-1.72 1.2l-.22 1.17a1.5 1.5 0 0 0 1.2 1.73l.78.14a1.5 1.5 0 0 0 1.72-1.2zm-13.37-1.08a2.49 2.21-69.1 0 0-2.95 1.54 2.49 2.21-69.1 0 0 1.17 3.12 2.49 2.21-69.1 0 0 2.95-1.54 2.49 2.21-69.1 0 0-1.17-3.12m79.75-.02a2.36 2.16-81.7 0 0-2.48 2.03 2.36 2.16-81.7 0 0 1.8 2.65 2.36 2.16-81.7 0 0 2.48-2.03 2.36 2.16-81.7 0 0-1.8-2.65m-43.04 3.96-.51-2.55a.75.75 0 0 0-.88-.59l-.44.09a2.4 1.94-11.3 0 0-1.98 2.37l.05.22a2.4 1.94-11.3 0 0 2.73 1.43l.44-.09a.75.75 0 0 0 .59-.88m-137.27 4.05q1.39.63 2.54-1.29.89-1.48.23-3.08-1.2-2.88-2.97-.87c-5.32-4.87-11.82 2.26-6.77 7 2.26 2.12 5.72.82 6.97-1.76m149.71-3.85a2.3 2.3 0 0 0-2.28-2.28 2.3 2.3 0 0 0-2.28 2.28 2.3 2.3 0 0 0 2.28 2.28 2.3 2.3 0 0 0 2.28-2.28m-143.44-.61a1.13 1.13 0 0 0-1.13-1.13 1.13 1.13 0 0 0-1.13 1.13 1.13 1.13 0 0 0 1.13 1.13 1.13 1.13 0 0 0 1.13-1.13m169.99 2.72a2.24 2.24 0 0 0-2.24-2.24 2.24 2.24 0 0 0-2.24 2.24 2.24 2.24 0 0 0 2.24 2.24 2.24 2.24 0 0 0 2.24-2.24m21.1-2.04a2.41 2.13-87.3 0 0-2.25 2.31 2.41 2.13-87.3 0 0 2.02 2.5 2.41 2.13-87.3 0 0 2.24-2.3 2.41 2.13-87.3 0 0-2.02-2.5m-42.82.46-2.1.55a.8.8 0 0 0-.57.97l.4 1.49a2.13 1.73 75.2 0 0 2.21 1.61l.29-.07a2.13 1.73 75.2 0 0 1.13-2.5l-.39-1.49a.8.8 0 0 0-.97-.56m12.51.4a2.37 2.2-84.4 0 0-2.42 2.14 2.37 2.2-84.4 0 0 1.96 2.57 2.37 2.2-84.4 0 0 2.42-2.15 2.37 2.2-84.4 0 0-1.96-2.57m-160.41 3.71q-.08.1-.19.53a.54.54 0 0 0 .44.67q.73.12 1.32-.16a.58.57 76.4 0 0 .33-.55l-.18-3.73a.36.36 0 0 0-.63-.23q-1.19 1.34-2.18 1.21-1.18-.16-1.47.16-.56.63-.38 1.45a.78.78 0 0 0 1.05.56q.45-.19 1-.66a.6.57-3.3 0 1 .89.75m70.26-3.38a2.28 2.13-128.3 0 0-.26 3.11 2.28 2.13-128.3 0 0 3.08.47 2.28 2.13-128.3 0 0 .26-3.11 2.28 2.13-128.3 0 0-3.08-.47m-60.09.72q-1.06.5-.95 1.49a.89.72 56.2 0 0 1.51.46q.25-.75.1-1.61a.47.47 0 0 0-.66-.34m216.45-.04a2.32 1.94-92.7 0 0-1.83 2.41 2.32 1.94-92.7 0 0 2.05 2.23 2.32 1.94-92.7 0 0 1.83-2.41 2.32 1.94-92.7 0 0-2.05-2.23m-93.74 1.08a2.29 1.93-73.3 0 0-2.5 1.64 2.29 1.93-73.3 0 0 1.18 2.74 2.29 1.93-73.3 0 0 2.5-1.64 2.29 1.93-73.3 0 0-1.18-2.74m72.13.27a2.33 2.03-81 0 0-2.37 1.98 2.33 2.03-81 0 0 1.65 2.62 2.33 2.03-81 0 0 2.37-1.98 2.33 2.03-81 0 0-1.65-2.62m-159.46 1.71a1.87 1.87 0 0 0-2.3-1.29l-.47.13a1.87 1.87 0 0 0-1.29 2.3l.22.76a1.87 1.87 0 0 0 2.3 1.29l.47-.13a1.87 1.87 0 0 0 1.29-2.3zm229.97-.66a2.37 2.15-97.9 0 0-1.8 2.65 2.37 2.15-97.9 0 0 2.46 2.05 2.37 2.15-97.9 0 0 1.8-2.65 2.37 2.15-97.9 0 0-2.46-2.05m-19.1.21a2.48 1.97-89.3 0 0-2 2.46 2.48 1.97-89.3 0 0 1.94 2.5 2.48 1.97-89.3 0 0 2-2.46 2.48 1.97-89.3 0 0-1.94-2.5m-259.85 1.72a1.12 1-155 0 0 .6 1.38 1.12 1-155 0 0 1.44-.44 1.12 1-155 0 0-.6-1.38 1.12 1-155 0 0-1.44.44m91.96 2.37a1.5 1.5 0 0 0-1.5-1.48h-1.1a1.5 1.5 0 0 0-1.48 1.5l.02 1.48a1.5 1.5 0 0 0 1.5 1.48h1.1a1.5 1.5 0 0 0 1.48-1.5zm7.36-1.77a2.28 1.93-85.2 0 0-2.11 2.1 2.28 1.93-85.2 0 0 1.73 2.44 2.28 1.93-85.2 0 0 2.11-2.1 2.28 1.93-85.2 0 0-1.73-2.44m29.02.67a2.14 1.94-62.9 0 0-2.7 1.03 2.14 1.94-62.9 0 0 .76 2.79 2.14 1.94-62.9 0 0 2.7-1.03 2.14 1.94-62.9 0 0-.76-2.79M302.12 357a2.2 2.2 0 0 0-2.22-2.22 2.2 2.2 0 0 0-2.22 2.22 2.2 2.2 0 0 0 2.22 2.22 2.2 2.2 0 0 0 2.22-2.22m185.42-1.7a2.38 2.11-74.3 0 0-2.67 1.72 2.38 2.11-74.3 0 0 1.39 2.86 2.38 2.11-74.3 0 0 2.67-1.72 2.38 2.11-74.3 0 0-1.39-2.86m-73.12.38a2.21 1.84-94.1 0 0-1.68 2.33 2.21 1.84-94.1 0 0 2 2.07 2.21 1.84-94.1 0 0 1.68-2.33 2.21 1.84-94.1 0 0-2-2.07m11.35 1.05a2.14 1.83-82.5 0 0-2.1 1.88 2.14 1.83-82.5 0 0 1.54 2.36 2.14 1.83-82.5 0 0 2.1-1.88 2.14 1.83-82.5 0 0-1.54-2.36m18.5 1.79a1.4 1.4 0 0 0-1.32-1.48l-.83-.05a1.4 1.4 0 0 0-1.48 1.31l-.09 1.42a1.4 1.4 0 0 0 1.32 1.48l.83.05a1.4 1.4 0 0 0 1.48-1.31zm-128.68 1a1.3 1.3 0 0 0-1.38-1.22l-1.3.08a1.3 1.3 0 0 0-1.22 1.38l.12 1.92a1.3 1.3 0 0 0 1.38 1.22l1.3-.08a1.3 1.3 0 0 0 1.21-1.38zm72.25 2.2a1.56 1.56 0 0 0-1.42-1.68l-.56-.05a1.56 1.56 0 0 0-1.68 1.43l-.1 1.15a1.56 1.56 0 0 0 1.42 1.69l.56.05a1.56 1.56 0 0 0 1.68-1.43zm-104.17-.8a2.37 2.21-87.8 0 0-2.3 2.29 2.37 2.21-87.8 0 0 2.12 2.45 2.37 2.21-87.8 0 0 2.3-2.29 2.37 2.21-87.8 0 0-2.12-2.45m72.96.88-1.86-.63a.45.45 0 0 0-.57.28l-.11.34a2.45 1.31-71.3 0 0 .45 2.75l.23.07a2.45 1.31-71.3 0 0 2.03-1.9l.11-.34a.45.45 0 0 0-.28-.57m96.42 1.17a2.21 1.85-88 0 0-1.93 2.15 2.21 1.85-88 0 0 1.77 2.27 2.21 1.85-88 0 0 1.93-2.15 2.21 1.85-88 0 0-1.77-2.27m-174.49 11.26 8.56 7.98a3.91 3.86-13.6 0 0 1.38.83q7.55 2.58 16.56 2.61a2.16 2.11-56.9 0 0 .9-.2c6.04-2.77 15.02-9.02 15.8-16.21a1.3 1.3 0 0 0-.87-1.38q-1.59-.56-3.64-.64c-12.44-.42-26.68.84-38.38 5.37a.98.98 0 0 0-.31 1.64"/><rect width="4" height="4.62" x="-2" y="-2.31" fill="#d2d2d4" rx="1.54" transform="rotate(9.4 -1792.42 2447.24)"/><ellipse fill="#d2d2d4" rx="2.32" ry="2.18" transform="rotate(-97.8 314.84 12.18)"/><ellipse fill="#d2d2d4" rx="2.49" ry="2.13" transform="rotate(-91 337.6 -9.13)"/><ellipse fill="#d2d2d4" rx="2.48" ry="2.24" transform="rotate(259.1 342.28 -6.38)"/><ellipse fill="#d2d2d4" rx="2.44" ry="2.07" transform="rotate(257.7 285 41.8)"/><path fill="#d2d2d4" d="M394.57 328.63a.77.77 0 0 1 .71-.82l.64-.05a2.31 2.08-3.8 0 1 2.44 1.93l.03.34a2.31 2.08-3.8 0 1-2.17 2.22l-.64.05a.77.77 0 0 1-.82-.72z"/><rect width="4.12" height="4.36" x="-2.06" y="-2.18" fill="#d2d2d4" rx="1.33" transform="rotate(2.3 -8037.8 9730.32)"/><path fill="#d2d2d4" d="M441.66 330.51a.83.83 0 0 1 .83.83l.01 1.03a2.68 1.89 89.7 0 1-1.88 2.69h-.2a2.68 1.89 89.7 0 1-1.9-2.67l-.01-1.03a.83.83 0 0 1 .83-.83z"/><ellipse fill="#d2d2d4" rx="2.47" ry="2.23" transform="rotate(-87.9 386.88 -55.34)"/><rect width="3.66" height="4.04" x="-1.83" y="-2.02" fill="#d2d2d4" rx="1.39" transform="rotate(-.6 31962.37 -31606.6)"/><rect width="3.94" height="4.32" x="-1.97" y="-2.16" fill="#d2d2d4" rx="1.4" transform="rotate(5.2 -3486.34 4197.15)"/><path fill="#d2d2d4" d="m278.62 344.82-.81.01a.72.71-88.7 0 0-.7.68l-.29 5.69-.85.39-.05-11.99a1.97 1.96 30.8 0 0-.24-.94q-1.44-2.74-4.06-4.38-.6-.38-3.02-1.08-1.46-.43-3.02-1.17 3.22-.95 7.25.57a3.71 3.44 71.9 0 1 .88.49c2.5 1.89 3.69 5.63 4.11 8.45a.9.9 0 0 0 .91.77q7.15-.1 9.88-.73a3.91 3.66-46.9 0 1 1.22-.08q5.21.5 10.44-.46 5.44-1.01 7.21-1.11 5.84-.32 16.8.08 5.02.19 7.9-.38c2.88-.58 6.88-1.34 10.48-1.42q20.46-.44 38.83.69 2.28.14 5.2-.32c5.11-.81 11.91-2.08 17.39-1.62q4.47.38 5.08.23.44-.11 5.03.49 8.76 1.14 12.83 1.24 1.2.03 13.04-.7c1.34-.09 2.68-1.07 3.64.22a1.3 1.3 0 0 0 1.14.51q1.11-.11 11.03 1.19 6.09.8 11.03 1.02 5.75.26 16.57 1.13a.44.44 0 0 0 .38-.72q-1.3-1.58-.43-3.22a2.05 1.93 44.1 0 1 3.45.05q.6.98-.04 2.52a.86.85 11.4 0 1-.79.52h-.65a.25.25 0 0 0-.05.5c3.39.77 7.07.48 10.88.82q14.58 1.3 18.8.93 12.36-1.08 24.84 1.02a.23.23 0 0 1 .06.43q-1.51.71-3.3.41-7.35-1.22-14.87-.86c-6.85.33-12.77.51-19.64-.21q-13.38-1.42-27.54-1.49a.63.62-86.9 0 0-.62.56l-.22 1.85a1.46 1.45-86.7 0 1-1.44 1.29h-1.06a1.19 1.18 90 0 1-1.18-1.19v-2.36a.9.89 0 0 0-.9-.89h-7.04a.37.36-10.9 0 0-.34.5q.51 1.28.06 2.03a2.07 2 51.4 0 1-3.65-.47q-.16-.45.11-2.02a.7.69 8.6 0 0-.6-.81L445 340.01a1.16 1.16 0 0 0-1.28 1.01l-.06.53a.9.9 0 0 1-.7.76q-2.4.48-2.89-1.94a1.24 1.23 81.7 0 0-1.32-.99c-6.49.56-12.88.85-20.93-.09q-7.79-.9-17.65-1.42a7.92 7.58-46.3 0 0-1.36.06q-6.34.86-11.02 1.64-3.09.51-11.08.15-24.67-1.11-34.47-.8-2.38.07-12.94 1.92a5.52 5.18-46.9 0 1-1.08.07q-6.17-.26-17.17-.02-4.26.09-9.56 1.06-3.27.6-9.64.99a.8.8 0 0 0-.72.99q.41 1.67-1.82 2.1a1.39 1.37-34.7 0 1-.97-.17q-1.12-.68-1.05-1.9a1.18 1.02-2.1 0 0-1.3-1.05q-2.63.26-6.41.21-.85-.01-1.01.47-.15.45.05 1.23"/><circle cx="411.56" cy="334.33" r="2.24" fill="#d2d2d4"/><ellipse fill="#d2d2d4" rx="2.46" ry="2.08" transform="rotate(-89 401.83 -68.34)"/><path fill="#d2d2d4" d="M280.55 332.95a.85.85 0 0 1 .86.84l.01 1.27a2.38 1.97 89.5 0 1-1.95 2.4h-.16a2.38 1.97 89.5 0 1-1.99-2.36l-.01-1.27a.85.85 0 0 1 .84-.86z"/><ellipse fill="#d2d2d4" rx="2.31" ry="2.12" transform="rotate(-86.6 328.7 8.04)"/><rect width="4.02" height="4.24" x="-2.01" y="-2.12" fill="#d2d2d4" rx="1.53" transform="rotate(-.3 64254.05 -59956.34)"/><ellipse fill="#d2d2d4" rx="2.37" ry="2.09" transform="rotate(-94.7 379.25 -38.62)"/><ellipse fill="#d2d2d4" rx="2.49" ry="2.18" transform="rotate(-89.9 313.75 23.07)"/><path fill="#d2d2d4" d="M274.84 342.42q.09.37-.09.45-.55.27-.8-.29-1.42-3.23-2.59-6.98 4.22 2.79 3.48 6.82m-14.82-5.15a.26.26 0 0 1 .37.04l.09.11a1.82 1.49 50.5 0 1 0 2.35l-.21.18a1.82 1.49 50.5 0 1-2.31-.46l-.09-.11a.26.26 0 0 1 .04-.37z"/><path fill="#d2d2d4" d="M257.04 347.17q.19-.2.54-.36a.7.69 46 0 0 .02-1.25l-1.14-.59a.7.7 0 0 1-.35-.61q.08-1.46.61-2.27a.77.76-56.3 0 1 1.08-.22q1.81 1.23.83 3.48a.52.52 0 0 0 .83.59l2.57-2.3a.47.47 0 0 0-.2-.81l-.51-.12q-.43-.11-.52-.42-.45-1.51.49-2.23a1.06 1.04-49.6 0 1 1.11-.1l.96.49a.33.33 0 0 0 .46-.41l-.7-1.87a.71.71 0 0 1 1.24-.68c3.15 4.2-1.48 7.48-4.73 9.38a.8.8 0 0 0-.41.69q-.04 1.24 2.13 1.93a.83.81 88.2 0 1 .51.49l.36.98a.57.57 0 0 1-.75.73q-2.36-.98-2.91-3.02a1 1 0 0 0-.96-.74h-.22a.46.45 21.4 0 1-.34-.76m302.27-2.11q-.13-.93 4.75-1.62 14.47-2.04 29.06-3.24.47-.04.52.32.05.43-.41.52-14.4 2.64-28.89 4.45-4.89.61-5.03-.43"/><ellipse fill="#d2d2d4" rx="2.33" ry="2.03" transform="rotate(-71.1 420.62 -81.98)"/><path fill="#d2d2d4" d="M406.61 340.56a.8.8 0 0 1 .71.91l-.22 1.69a1.82 1.71-82.7 0 1-1.93 1.59l-.55-.07a1.82 1.71-82.7 0 1-1.47-2.03l.22-1.68a.8.8 0 0 1 .92-.71zm-136.43.36q.31.33.4.83.52 2.91-.18 4.8-.74 1.96-.74 2.95-.01 1.61-.82 1.76c-1.06.19-1.75.04-2.67.68q-3.07 2.16-6.49 4.75a.44.44 0 0 1-.59-.06l-.2-.23a.25.24-42.6 0 1 .02-.35l6.56-5.89a.54.53-20.9 0 0 .18-.4v-2.01a.8.8 0 0 1 .61-.77q1-.25 1.67-.09a.58.58 0 0 0 .71-.56v-1.14a.33.33 0 0 0-.51-.27q-.4.27-1.14.35a.9.9 0 0 1-1.01-.89q-.03-1.12.79-1.93a.78.77-53.5 0 1 .89-.14q.69.34 1 .36.69.04.78-.43.09-.48.12-1.09a.36.36 0 0 1 .62-.23"/><rect width="3.76" height="4.16" x="-1.88" y="-2.08" fill="#d2d2d4" rx="1.48" transform="rotate(10.3 -1730.56 2118.64)"/><ellipse fill="#d2d2d4" rx="2.49" ry="2.21" transform="rotate(-69.1 419.52 -73.61)"/><ellipse fill="#d2d2d4" rx="2.36" ry="2.16" transform="rotate(-81.7 408.7 -69.96)"/><path fill="#d2d2d4" d="M376.23 346.18a.75.75 0 0 1-.59.88l-.44.09a2.4 1.94-11.3 0 1-2.73-1.43l-.05-.22a2.4 1.94-11.3 0 1 1.98-2.37l.44-.09a.75.75 0 0 1 .88.59z"/><path fill="#050f09" d="M238.76 344.99q1.28 2.93.2 5.24c-1.25 2.58-4.71 3.88-6.97 1.76-5.05-4.74 1.45-11.87 6.77-7m-2.28-.37a3.87 3.51-64.7 0 0-4.82 2 3.87 3.51-64.7 0 0 1.52 5 3.87 3.51-64.7 0 0 4.82-2 3.87 3.51-64.7 0 0-1.52-5"/><path fill="#d2d2d4" d="M238.96 350.23q1.08-2.31-.2-5.24 1.77-2.01 2.97.87.66 1.6-.23 3.08-1.15 1.92-2.54 1.29"/><path fill="#fff" d="M236.48 344.62a3.87 3.51-64.7 0 1 1.52 5 3.87 3.51-64.7 0 1-4.82 2 3.87 3.51-64.7 0 1-1.52-5 3.87 3.51-64.7 0 1 4.82-2m-3.24 2.43q.87.36.92 1.03a.69.56 29.8 0 1-1.19.2q-.18-.24-.11-.77a.39.38-85.1 0 0-.36-.44h-.1a.35.35 0 0 0-.38.36q.05 2.72 2.37 3.36a1.65 1.6-45.9 0 0 .98-.03q2.78-.97 1.76-4.09a1.47 1.43-85.2 0 0-.66-.8q-1.67-.93-3.33.2a.56.56 0 0 0 .1.98"/><circle cx="386.39" cy="346.38" r="2.28" fill="#d2d2d4"/><circle cx="244.1" cy="345.77" r="1.13" fill="#d2d2d4"/><path fill="#23b14d" d="m278.62 344.82.47 10.73q-.09-.4-.24-.64-.18-.29-.58-.31-.41-.02-.69.2-.89-1.72-.76-3.6l.29-5.69a.72.71-88.7 0 1 .7-.68z"/><path fill="#050f09" d="M233.24 347.05a.56.56 0 0 1-.1-.98q1.66-1.13 3.33-.2a1.47 1.43-85.2 0 1 .66.8q1.02 3.12-1.76 4.09a1.65 1.6-45.9 0 1-.98.03q-2.32-.64-2.37-3.36a.35.35 0 0 1 .38-.36h.1a.39.38-85.1 0 1 .36.44q-.07.53.11.77a.69.56 29.8 0 0 1.19-.2q-.05-.67-.92-1.03"/><path fill="#d2d2d4" d="M558.05 347.31a.25.25 0 0 1 .24-.26l5.67-.31a28.05 1.07-3.1 0 1 28.07-.45 28.05 1.07-3.1 0 1-27.96 2.59l-5.67.3a.25.25 0 0 1-.26-.23zm-307.35-1.4q2.2 2.02 2.08 4.59-.14 3.21-.59 7.5-.56 5.37-1.78 7.24-2.39 3.7-8 2.38.6-1.37 2.52-1.43 1.4-.05 2.11-1.38 1.31-2.48 2.19-4.67a1.68.96 74.9 0 0 .05-.19l.94-6.78a4 4 0 0 0 0-.98q-.52-3.75.48-6.28"/><circle cx="412.98" cy="348.49" r="2.24" fill="#d2d2d4"/><ellipse fill="#d2d2d4" rx="2.41" ry="2.13" transform="rotate(-87.3 400.95 -54.2)"/><path fill="#d2d2d4" d="M393.5 346.91a.8.8 0 0 1 .97.56l.39 1.49a2.13 1.73 75.2 0 1-1.13 2.5l-.29.07a2.13 1.73 75.2 0 1-2.21-1.61l-.4-1.49a.8.8 0 0 1 .57-.97z"/><ellipse fill="#d2d2d4" rx="2.37" ry="2.2" transform="rotate(-84.4 395.7 -48.93)"/><path fill="#d2d2d4" d="M245.6 351.02a.6.57-3.3 0 0-.89-.75q-.55.47-1 .66a.78.78 0 0 1-1.05-.56q-.18-.82.38-1.45.29-.32 1.47-.16.99.13 2.18-1.21a.36.36 0 0 1 .63.23l.18 3.73a.58.57 76.4 0 1-.33.55q-.59.28-1.32.16a.54.54 0 0 1-.44-.67q.11-.43.19-.53"/><ellipse fill="#d2d2d4" rx="2.28" ry="2.13" transform="rotate(231.7 243.28 97.86)"/><path fill="#d2d2d4" d="M256.43 348.7q.15.86-.1 1.61a.89.72 56.2 0 1-1.51-.46q-.11-.99.95-1.49a.47.47 0 0 1 .66.34"/><ellipse fill="#d2d2d4" rx="2.32" ry="1.94" transform="rotate(-92.7 403.41 -49.97)"/><path fill="#fff" d="M206.8 349.63q.41-.65.66.37a.2.2-6.2 0 0 .18.14l8.02.19a4.09 3.78-34.3 0 1 1.01.15q10.49 3.08 16.67 12.48a.68.68 0 0 1-.42 1.04q-2.72.56-4.51-.95a51 51 0 0 1-5.61-5.95c-2.8-3.34-6.53-5.09-11.04-5.37q-4.26-.26-5.07-.39a.66.66 0 0 1-.4-1.07l.39-.47a1.04.9-14.1 0 0 .12-.17"/><ellipse fill="#d2d2d4" rx="2.29" ry="1.93" transform="rotate(-73.3 425.19 -78.1)"/><ellipse fill="#d2d2d4" rx="2.33" ry="2.03" transform="rotate(-81 431.18 -87.6)"/><rect width="4.22" height="4.52" x="-2.11" y="-2.26" fill="#d2d2d4" rx="1.87" transform="rotate(-15.8 1414.17 -866.02)"/><path fill="#d2d2d4" d="M558.47 351.17q.07-1.02 4.9-.73 14.31.87 28.57 2.56.46.06.43.49-.02.35-.49.34-14.36-.27-28.65-1.37-4.82-.37-4.76-1.29"/><ellipse fill="#d2d2d4" rx="2.37" ry="2.15" transform="rotate(-97.9 414.46 -50.51)"/><ellipse fill="#d2d2d4" rx="2.48" ry="1.97" transform="rotate(-89.3 429.87 -77.38)"/><path fill="#fff" d="M276.82 351.2q-.13 1.88.76 3.6.13 4.43.12 8.95-.01 5.19-4.25 9.47-4.11 4.15-6.85 4.66l-.58.1q-.12.01-7.08-.03a.39.38-54.3 0 1-.12-.75q3.46-1.22 5.79-3.93a.43.42-47.5 0 0-.02-.59l-.01-.02a.3.29-42.7 0 0-.4-.01q-2.91 2.48-7.24 3.77-1.11.34-1.91.04-.57-.22-1.1.36a1.1 1.1 0 0 1-1 .32l-10.63-2.08a4.55 4.24-24.4 0 1-1.01-.34q-2.49-1.24-4.84-1.11a.31.3 88.3 0 1-.32-.31v-.34a.04.04 0 0 1 .04-.04l4.25.24a1.66 1.65-50.9 0 0 .57-.06q6.63-1.91 13.12-.38a4.46 3.92 48.6 0 0 .86.11q2.3.03 4.36-.18 9.19-.96 13.28-7.26 3.86-5.94 3.36-13.8z"/><ellipse fill="#d2d2d4" rx="1.12" ry="1" transform="rotate(205 160.74 149.6)"/><path fill="#d2d2d4" d="M594.15 359.76q-.07.39-.58.32-15.73-1.98-31.29-4.86-5.25-.97-5.07-1.98.2-1.11 5.46-.23 15.6 2.64 31.06 6.17.5.11.42.58"/><rect width="4.08" height="4.46" x="-2.04" y="-2.23" fill="#d2d2d4" rx="1.49" transform="rotate(-.4 51126.14 -47391.74)"/><ellipse fill="#d2d2d4" rx="2.28" ry="1.93" transform="rotate(-85.2 363.96 -7.82)"/><ellipse fill="#d2d2d4" rx="2.14" ry="1.94" transform="rotate(-62.9 475.67 -124.2)"/><circle cx="299.9" cy="357" r="2.22" fill="#d2d2d4"/><ellipse fill="#d2d2d4" rx="2.38" ry="2.11" transform="rotate(-74.3 479.43 -142.52)"/><path fill="#d2d2d4" d="M274.61 354.72q-.5 5.4-2.92 9.49c-4.76 8.05-11.95 7.72-20.29 6.69l.65-.64a1.13 1.11 24.7 0 1 .87-.31q15.57 1.26 21.69-15.23"/><ellipse fill="#d2d2d4" rx="2.21" ry="1.84" transform="rotate(-94.1 373.86 -14.02)"/><path fill="#fff" d="M212.07 359.66q2.43 2.63 7.34 3.3.55.07.81-.89l4.51.62a.23.22-68.8 0 0 .22-.1q.14-.19.46-.25a.37.36-24.6 0 1 .37.13q3.28 3.85 7.56 2.48 1.89 2.96 5.17 4.36a.8.8 0 0 1 .48.7l.06 1.9q-5.82.14-9.31-.69-11.99-2.86-21.59-9.88-1.73-1.27-2.31-3.16a1.13 1.13 0 0 1 1.49-1.39q2.78 1.08 4.74 2.87m-2.47.15q1.55.63 2.04.5a.22.22 0 0 0-.01-.43q-1.04-.24-1.83-.56t-1.7-.88a.22.22 0 0 0-.31.31q.26.43 1.81 1.06"/><ellipse fill="#d2d2d4" rx="2.14" ry="1.83" transform="rotate(-82.5 417.34 -63.16)"/><rect width="3.64" height="4.22" x="-1.82" y="-2.11" fill="#d2d2d4" rx="1.4" transform="rotate(3.4 -5828.8 7632.73)"/><rect width="3.9" height="4.52" x="-1.95" y="-2.26" fill="#d2d2d4" rx="1.3" transform="rotate(-3.5 6058.12 -4953.44)"/><path fill="#d2d2d4" d="M209.8 359.32q.79.32 1.83.56a.22.22 0 0 1 .01.43q-.49.13-2.04-.5t-1.81-1.06a.22.22 0 0 1 .31-.31q.91.56 1.7.88m10.42 2.75q-.26.96-.81.89-4.91-.67-7.34-3.3z"/><path fill="#fff" d="m219.66 360.8 3.44-.87a.4.4 0 0 1 .44.13l1.07 1.2a.05.05 0 0 1-.04.08l-4.91-.52a.01.01 0 0 1 0-.02"/><rect width="3.68" height="4.28" x="-1.84" y="-2.14" fill="#d2d2d4" rx="1.56" transform="rotate(4.9 -4039.06 4691.36)"/><ellipse fill="#d2d2d4" rx="2.37" ry="2.21" transform="rotate(-87.8 330.55 34.3)"/><path fill="#d2d2d4" d="M356.63 361.8a.45.45 0 0 1 .28.57l-.11.34a2.45 1.31-71.3 0 1-2.03 1.9l-.23-.07a2.45 1.31-71.3 0 1-.45-2.75l.11-.34a.45.45 0 0 1 .57-.28zm186.24 2.58q-12.3-1.38-24.86-.93 5.59-1.41 8.36-1.64 3.93-.32 10.26.29a5.79 5.74-30.8 0 1 1.73.43z"/><ellipse fill="#d2d2d4" rx="2.21" ry="1.85" transform="rotate(-88 415.56 -51.94)"/><path fill="#d2d2d4" d="M249.41 368.03q-.77 1.19-1.11 2.55l-9.25 1.33-.06-1.9a.8.8 0 0 0-.48-.7q-3.28-1.4-5.17-4.36 4.53 2.05 8.89 3.79 3.09 1.23 7.18-.71"/><path fill="#050f09" d="M278.56 374.23a.98.98 0 0 1 .31-1.64c11.7-4.53 25.94-5.79 38.38-5.37q2.05.08 3.64.64a1.3 1.3 0 0 1 .87 1.38c-.78 7.19-9.76 13.44-15.8 16.21a2.16 2.11-56.9 0 1-.9.2q-9.01-.03-16.56-2.61a3.91 3.86-13.6 0 1-1.38-.83zm23.76-5.51q-11.51.69-21.98 4.5a.37.37 0 0 0-.14.6l2.3 2.54 5.92 5.3a2.47 2.29 73.8 0 0 .83.5l1.88.65q5.58 1.53 11.42 1.62 2.31.58 3.77-.39c5.92-2.99 12.56-7.78 14.45-14.47a.57.57 0 0 0-.43-.72l-3.11-.66q-7.74-.48-14.91.53"/><path fill="#d2d2d4" d="M317.23 368.19q-1.33-.01-1.06.93a.35.31-81.8 0 0 .13.2l1.42 1.04a.29.29 0 0 1-.15.52l-17.47.84a1.59 1.46 31.5 0 0-.46.09q-3.11 1.06-5.77.83a1.7 1.7 0 0 0-1.02.24q-.58.36-2.13.52-5.22.54-7.44 1.46-.59.25-1.26-.26a.42.42 0 0 1 .13-.73q.35-.11.51-.38a.9.87-74.3 0 1 .76-.44q1.11-.01 7.59-1.81c1.71-.48 2.91-.14 4.53-1q1.45-.77 3.36-.03a1.68 1.67-41.3 0 0 .98.06q1.96-.48 2.44-1.55 7.17-1.01 14.91-.53m181.45.13q-17.05 6.79-33.97 12.42-23.25 7.74-47.55 11.39.04-1.62 3.04-1.97 3.55-.41 5.75-1.13 4.78-1.57 5.64-1.58 2.11-.03 8.55-2.08 2.04-.64 8.51-2.19 10.46-2.5 16.34-4.47 6.18-2.08 10.18-3.21 1.76-.5 9.35-3.54 6.87-2.76 14.16-3.64"/><path fill="#fff" d="m317.23 368.19 3.11.66a.57.57 0 0 1 .43.72c-1.89 6.69-8.53 11.48-14.45 14.47q-2.66-2.76-7.31-2.92-5.93-.2-9.5-.36a.1.1 0 0 1-.07-.07v-.27a.3.3 0 0 1 .28-.29q8.65-.39 18.03.94.93.13 1.6-.58a.24.24 0 0 0-.21-.4q-1.25.18-2.87-.85a.57.53 59.6 0 0-.3-.09l-6.2-.28a.2.2 0 0 1-.2-.22v-.01a.23.22 87.3 0 1 .2-.23l6.28-.61a.89.81 47.5 0 1 .34.03q3.11.87 6.2.01a.3.3 0 0 0-.03-.59l-6.71-1.18a1.04 1.02 41.1 0 0-.51.03q-.75.24-1.06.21-6.29-.67-10.16 0a.16.16 0 0 1-.15-.25q.07-.08.25-.14 1.18-.4 3.35-.38 2.98.04 6.06-.08.8-.03 1.38-.32c1.07-.54 2.31.13 3.6-.01q1.96-.22 7.35-.25a.31.31 0 0 0 .17-.56q-1.67-1.1-2.51-.87a4.09 3.98 39.6 0 1-1.49.12q-7.65-.83-12.06-.23-8.38 1.13-11.93 1.66-.09.02-.71-.08l-.59-.09a1.13 1.1 21.7 0 0-1.01.42q-.49.64-1.59.32-.32-.09-.86.34-.44.35-.88.45l-2.3-2.54a.37.37 0 0 1 .14-.6q10.47-3.81 21.98-4.5-.48 1.07-2.44 1.55a1.68 1.67-41.3 0 1-.98-.06q-1.91-.74-3.36.03c-1.62.86-2.82.52-4.53 1q-6.48 1.8-7.59 1.81a.9.87-74.3 0 0-.76.44q-.16.27-.51.38a.42.42 0 0 0-.13.73q.67.51 1.26.26 2.22-.92 7.44-1.46 1.55-.16 2.13-.52a1.7 1.7 0 0 1 1.02-.24q2.66.23 5.77-.83a1.59 1.46 31.5 0 1 .46-.09l17.47-.84a.29.29 0 0 0 .15-.52l-1.42-1.04a.35.31-81.8 0 1-.13-.2q-.27-.94 1.06-.93"/><path fill="#d2d2d4" d="m502.33 368.8 4.51 3.84a1.19 1.11-18.9 0 0 .56.25q1.57.25 2.73 1.16a.42.42 0 0 1-.36.74l-11.24-2.99a1.33 1.32-89.7 0 1-.94-.96l-.14-.55q3.17-1.57 4.88-1.49"/><path fill="#fff" d="M468.12 380.84q2.56 1.43 6.95 3.07 2.52.95 3.25.82a.6.6-17.1 0 1 .62.32q.37.81 1.36.58a.93.92 66.1 0 1 .98.38q.17.24.73.48 3.39 1.4 14.59 5.51a.5.5 0 0 0 .34 0q.25-.1.47-.49a.26.26 0 0 0-.23-.39l-.94.01a2.1 1.99-29.7 0 1-.95-.23l-19.93-10.25a.67.66-80.1 0 1-.36-.52v-.03a.53.52 21.3 0 1 .67-.29l19.89 7.47a.54.54 0 0 0 .66-.25l.12-.25a.2.2 28.4 0 0-.09-.28l-14.95-7.69a.27.26 26.6 0 1-.12-.35l.29-.56a.4.4 0 0 1 .48-.18l14.73 5.77a.48.48 0 0 0 .65-.4l.04-.31a1.1 1.1 0 0 0-.71-1.18q-4.65-1.86-6.44-3.1-2.59-1.79-3.53-1.59a.13.12-82.4 0 1-.13-.18l.4-.78a.3.3 0 0 1 .38-.15q4.87 1.66 10.73 3.85c1.88.7 4.78.34 6.36 2.11a.22.22 0 0 0 .38-.18q-.12-.8-.95-1.21-7.14-3.52-14.4-7.14l2.72-1.04q-.1.49.02.91.11.41.59.59 5.98 2.2 11.31 3.46a1.34 1.32 79.5 0 1 .79.55l.1.16a.88.87 66.5 0 0 1.03.41q.71-.24 1.56.11.18.07.38-.09.29-.25.17-.67a.36.33 7.2 0 0-.18-.21l-13.18-6.15 2.68-.97.14.55a1.33 1.32-89.7 0 0 .94.96l11.24 2.99a.42.42 0 0 0 .36-.74q-1.16-.91-2.73-1.16a1.19 1.11-18.9 0 1-.56-.25l-4.51-3.84 10.26 1.98a.42.42 0 0 1 .32.56q-1.25 3.45-3.2 7.12-4.46 8.35-9.03 15.24-2.2 3.32-6.01 1.71-16.67-7.06-28.73-13.24a.37.37 0 0 1-.07-.62q.88-.72 2.25-.71"/><path fill="#d2d2d4" d="m494.77 371.26 13.18 6.15a.36.33 7.2 0 1 .18.21q.12.42-.17.67-.2.16-.38.09-.85-.35-1.56-.11a.88.87 66.5 0 1-1.03-.41l-.1-.16a1.34 1.32 79.5 0 0-.79-.55q-5.33-1.26-11.31-3.46-.48-.18-.59-.59-.12-.42-.02-.91zm-188.45 12.78q-1.46.97-3.77.39.33-.31.33-.55-.01-.4-.34-.48-5.29-1.28-10.77-1.53a.62.61-85.4 0 0-.63.54q-.03.2-.01.4l-1.88-.65a2.47 2.29 73.8 0 1-.83-.5l-5.92-5.3q.44-.1.88-.45.54-.43.86-.34 1.1.32 1.59-.32a1.13 1.1 21.7 0 1 1.01-.42l.59.09q.62.1.71.08 3.55-.53 11.93-1.66 4.41-.6 12.06.23a4.09 3.98 39.6 0 0 1.49-.12q.84-.23 2.51.87a.31.31 0 0 1-.17.56q-5.39.03-7.35.25c-1.29.14-2.53-.53-3.6.01q-.58.29-1.38.32-3.08.12-6.06.08-2.17-.02-3.35.38-.18.06-.25.14a.16.16 0 0 0 .15.25q3.87-.67 10.16 0 .31.03 1.06-.21a1.04 1.02 41.1 0 1 .51-.03l6.71 1.18a.3.3 0 0 1 .03.59q-3.09.86-6.2-.01a.89.81 47.5 0 0-.34-.03l-6.28.61a.23.22 87.3 0 0-.2.23v.01a.2.2 0 0 0 .2.22l6.2.28a.57.53 59.6 0 1 .3.09q1.62 1.03 2.87.85a.24.24 0 0 1 .21.4q-.67.71-1.6.58-9.38-1.33-18.03-.94a.3.3 0 0 0-.28.29v.27a.1.1 0 0 0 .07.07q3.57.16 9.5.36 4.65.16 7.31 2.92m183.14-10.81q7.26 3.62 14.4 7.14.83.41.95 1.21a.22.22 0 0 1-.38.18c-1.58-1.77-4.48-1.41-6.36-2.11q-5.86-2.19-10.73-3.85a.3.3 0 0 0-.38.15l-.4.78a.13.12-82.4 0 0 .13.18q.94-.2 3.53 1.59 1.79 1.24 6.44 3.1a1.1 1.1 0 0 1 .71 1.18l-.04.31a.48.48 0 0 1-.65.4l-14.73-5.77a.4.4 0 0 0-.48.18l-.29.56a.27.26 26.6 0 0 .12.35l14.95 7.69a.2.2 28.4 0 1 .09.28l-.12.25a.54.54 0 0 1-.66.25l-19.89-7.47a.53.52 21.3 0 0-.67.29v.03a.67.66-80.1 0 0 .36.52l19.93 10.25a2.1 1.99-29.7 0 0 .95.23l.94-.01a.26.26 0 0 1 .23.39q-.22.39-.47.49a.5.5 0 0 1-.34 0q-11.2-4.11-14.59-5.51-.56-.24-.73-.48a.93.92 66.1 0 0-.98-.38q-.99.23-1.36-.58a.6.6-17.1 0 0-.62-.32q-.73.13-3.25-.82-4.39-1.64-6.95-3.07zm-231.62 4.68q-.11.36-.68.9a.62.61 31.2 0 1-.58.14l-2.51-.67a.19.19 0 0 1-.08-.33l.6-.57.01-.01q1.79.79 2.78.19a.31.31 0 0 1 .46.35"/><path fill="#fff" d="M302.55 384.43q-5.84-.09-11.42-1.62-.02-.2.01-.4a.62.61-85.4 0 1 .63-.54q5.48.25 10.77 1.53.33.08.34.48 0 .24-.33.55m60.67 6.57c3.02-1.88 9.06-1.32 11.57-.69q7.84 1.97 15.12 1.9a3.8 3.8 74.8 0 1 3.38 1.94q1.96 3.47 5.59 6.61a12.8 12.8 0 0 1 4.32 6.68.4.4 0 0 1-.42.5q-14.5-1.01-26.56-8.65-7.36-4.67-10.7-6.64c-.89-.53-1.86-.53-2.33-.86a.48.47-43.2 0 1 .03-.79m29.73 6.73q-.62-.39-.84-.33a.28.28 0 0 0-.03.53l.74.26a.25.25 0 0 0 .13-.46"/><path fill="#d2d2d4" d="m392.82 398.19-.74-.26a.28.28 0 0 1 .03-.53q.22-.06.84.33a.25.25 0 0 1-.13.46"/></svg>