<svg xmlns="http://www.w3.org/2000/svg" viewBox="0 0 852 568"><g fill="none" stroke-width="2"><path stroke="#233854" d="M339.81 284q.31.53.31.73-.02 75.01-.17 83.02c-.12 6.12 2.63 11.46 9.35 11.91q4.63.31 13.46.28 41.17-.11 49.74.12c5.62.15 10.55 1.88 13.12 7.2a.44.44 0 0 0 .8 0c2.68-5.68 8.36-7.25 14.23-7.27q22.8-.08 56.85-.06 4.48.01 7.97-.73a3.21 3.14-64 0 0 .84-.3c6.12-3.1 5.62-8.18 5.62-15.24q0-13.56.06-78.67 0-.47.23-.99" vector-effect="non-scaling-stroke"/><path stroke="#93aac8" d="M512.22 284h338.8a.54.54 0 0 0 .54-.54V.9a.47.47 0 0 0-.47-.47H.88a.45.45 0 0 0-.45.45v282.79a.33.33 0 0 0 .33.33h339.05" vector-effect="non-scaling-stroke"/><path stroke="#8f8d8b" d="m512.22 284-.28-104.36a.54.54 0 0 0-.54-.54H340.67a.6.6 0 0 0-.59.59L339.81 284" vector-effect="non-scaling-stroke"/><path stroke="#7d201a" d="M426.02 386.08q.14 0 .24-.15c3.87-6.05 9.35-6.84 16.79-6.83q43.09.08 56.2-.03c9.39-.08 12.16-3.86 12.14-13.01q-.3-120.48-.19-185.32a.91.9 90 0 0-.91-.91l-84.24.07-84.25-.09a.91.9-90 0 0-.91.91q.1 64.84-.23 185.32c-.03 9.15 2.74 12.93 12.13 13.01q13.11.11 56.2.05c7.44-.01 12.92.78 16.79 6.83q.1.15.24.15" vector-effect="non-scaling-stroke"/><path stroke="#ec870f" d="M420.18 211.57q-1.05.36-.83 2.12a.76.7-42.6 0 1-.02.24l-10.55 42.05" vector-effect="non-scaling-stroke"/><path stroke="#7d201a" d="m408.78 255.98-3.14 11.37a.78.77-73 0 1-.98.53l-5.83-1.84a.6.6 0 0 1-.35-.89l3.91-6.76a.39.39 0 0 0-.53-.53l-7.1 4.1a.6.6 0 0 1-.87-.37l-2.03-8.02a.22.22 0 0 0-.43-.01l-2.6 8.21a.47.47-65.4 0 1-.69.26l-4.9-3.05a.34.34 0 0 0-.51.19q-.02.09.2.43" vector-effect="non-scaling-stroke"/><path stroke="#ec870f" d="M382.93 259.6q-.62.13-.24.81" vector-effect="non-scaling-stroke"/><path stroke="#7d201a" d="M382.69 260.41q-.67-.71-.47-1.43a.4.4-54.1 0 0-.05-.35q-1.04-1.64-1.06-.13a.7.68 33.1 0 0 .08.36l3.38 6.63a.64.63 68 0 1-.38.9l-6.35 1.86a.39.34 34.6 0 1-.17.02q-1.01-.08-1.09-.03a.43.43 0 0 0 .1.77l7.77 2.56a.52.52 0 0 1 .29.76l-4.05 7.03a.38.38 0 0 0 .51.52l6.91-3.99a.79.77 67.8 0 1 1.14.49l1.28 5.06a.72.72 0 0 1-.7.89h-31.29a1.98 1.97-89.4 0 0-1.97 1.94q-.08 3.97 4.36 4.96a.8.79 11.7 0 1 .61.92q-.85 4.69 4.16 6.5a.8.8 0 0 1 .5.79q-.51 5.73 6 6.65a.54.53 6.7 0 1 .46.58c-.64 6.07 5.07 7.1 9.73 6.6a.27.27 0 0 1 .25.42l-34.02 48.03" vector-effect="non-scaling-stroke"/><path stroke="#ec870f" d="M348.62 359.72q-.2.6-.98 1.38" vector-effect="non-scaling-stroke"/><path stroke="#7d201a" d="m347.64 361.1-3.92 5.22a.34.33 13.9 0 0 .32.53q1.68-.25 2.05-1.54a.31.3-55.2 0 1 .54-.1q.62.89 2.31-.05a.12.12 0 0 0-.06-.23h-.49a.32.31 30 0 1-.16-.59q.87-.51 1.85.17a.98.97 53.3 0 0 .86.13l74.22-23.47a2.5 2.5 0 0 1 1.44 0l81.58 25.76a.32.32 0 0 0 .34-.5l-5.74-7.37" vector-effect="non-scaling-stroke"/><path stroke="#ec870f" d="m502.78 359.06-9.09-12.65" vector-effect="non-scaling-stroke"/><path stroke="#7d201a" d="m493.69 346.41-24.27-34.51a.4.4 0 0 1 .34-.63q4.25.2 7.93-.05 6.43-.43 6.12-6.54a.6.6 0 0 1 .51-.63q6.45-.97 5.87-6.67a.7.7 0 0 1 .48-.73q4.9-1.57 4.22-6.41a.93.93 0 0 1 .75-1.05q3.81-.68 4.27-4.34a2.24 2.24 0 0 0-2.22-2.51h-34.21a.68.67-82.9 0 1-.65-.84l1.23-5.1a.44.43 21.3 0 1 .64-.28l7 4.05a.44.44 0 0 0 .6-.6l-3.81-6.6a.96.96 0 0 1 .6-1.41l7.46-1.88a.32.32 0 0 0 .02-.62l-7.92-2.5a.6.6 0 0 1-.35-.89l4.09-7.1a.29.29 0 0 0-.39-.39l-7.33 4.23a.6.59-22 0 1-.88-.37l-1.42-5.64a.2.2 77.4 0 0-.23-.15q-.31.05-.32.57" vector-effect="non-scaling-stroke"/><path stroke="#ec870f" d="m461.82 256.82-.15-.56" vector-effect="non-scaling-stroke"/><path stroke="#7d201a" d="M461.67 256.26q.45-1.02.06-1.82a.33.32 40.8 0 0-.6.04l-2.38 7.53a.64.63 23.3 0 1-.92.36l-6.73-3.89a.38.38 0 0 0-.52.51l4.03 6.97a.7.7 0 0 1-.43 1.01l-6.5 1.64a1 1 0 0 1-1.21-.69l-2.48-8.64" vector-effect="non-scaling-stroke"/><path stroke="#ec870f" d="M443.99 259.28q-1.04-3.57-2.07-7.78-.12-.5-.87-.5" vector-effect="non-scaling-stroke"/><path stroke="#7d201a" d="m441.05 251-.02-.59" vector-effect="non-scaling-stroke"/><path stroke="#ec870f" d="M441.03 250.41q.68.08.5-.69-3.2-14.05-9.19-38.03" vector-effect="non-scaling-stroke"/><path stroke="#7d201a" d="m432.34 211.69-6.11-28.74a.26.25 44.8 0 0-.5 0l-5.55 28.62" vector-effect="non-scaling-stroke"/><path stroke="#8f810b" d="M432.34 211.69q-.44.62-.26 2.06" vector-effect="non-scaling-stroke"/><path stroke="#233854" d="m432.08 213.75-1.18-5.91q-1.91-9.66-4.25-20.56a.7.7 0 0 0-1.01-.47q-.19.1-.27.44-1.61 7.05-3.65 17.95c-.57 3.04-1.3 4.74-1.4 7.16q-.07 1.38-.81 5.38-3.07 16.41-6.19 31.57a.47.47 88.5 0 0 .57.55l5.56-1.4a.58.58 0 0 0 .36-.85l-3.72-6.44a.53.53 0 0 1 .64-.77q1.89.68.29 1.22" vector-effect="non-scaling-stroke"/><path stroke="#8f810b" d="m417.02 241.62 3.54 6.13a.8.8 0 0 1-.5 1.17l-6.31 1.59a.41.41 0 0 0 .01.8l6.44 1.55a.73.73 0 0 1 .46 1.07l-3.31 5.73a.34.34 0 0 0 .47.47l5.81-3.35a.7.69-21.9 0 1 1.02.43l1.64 6.48a.39.39 0 0 0 .75 0l1.61-6.7a.59.58 21.6 0 1 .86-.37l5.72 3.3a.38.38 0 0 0 .52-.52l-3.16-5.49a.87.86-22 0 1 .54-1.27l5.42-1.37a.59.59 0 0 0-.01-1.15l-5.69-1.37a.74.74 0 0 1-.47-1.09l2.94-5.1a.53.53 0 0 0-.72-.72l-5.06 2.92a.8.8 0 0 1-1.19-.5l-1.54-6.1a.44.44 0 0 0-.86.01l-1.56 6.47a.52.51 21.6 0 1-.75.32l-5.77-3.24" vector-effect="non-scaling-stroke"/><path stroke="#233854" d="M417.87 241.72q-.07-.16-.03-.32a.25.25 0 0 1 .37-.15l4.76 2.75a.6.6 0 0 0 .87-.33l2.74-8.69a.03.03 0 0 1 .05 0l2.12 8.39a.84.84 0 0 0 1.24.53l5.81-3.36a1.81 1.79 71.3 0 0 .88-1.8l-.94-6.83" vector-effect="non-scaling-stroke"/><path stroke="#8f810b" d="m435.74 231.91 3.64 18.33a.5.5 0 0 0 .61.4l1.04-.23m.02.59q-1.39.4-1.04 2.25 5.83 30.3 6.95 35.69a3 3 0 0 0 .53 1.21l1.74 2.46a.5.5 0 0 0 .84-.04l1.84-3.2a.76.74-52.1 0 0-.1-.89q-1.16-1.22-1.32-1.75-1.89-6.56-6.5-27.45m17.68-3.02q-.5.03-.62.44-1.08 3.74-2.02 6.59a.36.35-65.9 0 1-.51.2l-6.19-3.57a.25.25 0 0 0-.35.34l3.68 6.39a.48.47-22.6 0 1-.29.7l-6.51 1.64a.32.32 0 0 0-.02.61l6.59 2.08a.46.45 23.6 0 1 .26.66l-3.51 6.08a.27.27 0 0 0 .37.36l6.14-3.54a.58.57 67.7 0 1 .85.36l1.64 6.48a.28.27-43.7 0 0 .53.01l2.15-6.79a.35.35-66.5 0 1 .5-.2l6.18 3.57a.26.26 0 0 0 .36-.35l-3.68-6.38a.47.47 0 0 1 .29-.69l6.51-1.65a.32.32 0 0 0 .02-.61l-6.59-2.08a.47.47-66.6 0 1-.26-.67l3.51-6.07a.27.27 0 0 0-.37-.36l-6.19 3.58a.57.57 68.1 0 1-.83-.36l-1.49-6.21m31.87 89.59-24.98-34.44a1.72 1.7-17.7 0 0-1.39-.71h-2.39a.45.45 0 0 0-.36.72l8.89 11.45" vector-effect="non-scaling-stroke"/><path stroke="#233854" d="m473.46 323.43-9.95-11.81a1.02 1-19.8 0 0-.77-.35h-21.57a1.7 1.7 0 0 0-1.69 1.59c-.22 3.88-1.94 25.74-10.53 20.82a1.24 1.21 50.7 0 0-1-.11q-4.91 1.52-7.88-2.66c-4.28-6.01-4.76-11.87-5.85-19.07a.7.7 0 0 0-.67-.57l-24.42-.01a.8.79-70.4 0 0-.62.3q-13.99 17.74-37.92 48.02-.9 1.14-3.18 3.32a.3.29-61.1 0 0 .14.5q1.29.27 1.44.21 60.38-22.68 76.65-28.7a1.25 1.2 44.5 0 1 .87.01l72.59 27.27a.2.2-73.9 0 1 .11.21l-.07.27" vector-effect="non-scaling-stroke"/><path stroke="#8f810b" d="m499.14 362.67-72.59-27.1a1.6 1.6 0 0 0-1.08 0l-75.01 27.95a.26.26 0 0 0-.15.33l.1.29a.1.1 0 0 0 .08.04l74.99-23.71a2 2 0 0 1 1.1 0l74.96 23.78.03-.01.15-.26a.23.22 26.5 0 0-.11-.32l-2.47-.99" vector-effect="non-scaling-stroke"/><path stroke="#233854" d="M499.14 362.67q2.02-.21 4.01 1.07a1.1 1.1 0 0 0 1.11.02l.43-.25a.4.4 0 0 0 .06-.63q-4.37-3.78-7.47-9.05" vector-effect="non-scaling-stroke"/><path stroke="#8f810b" d="m497.28 353.83 4.79 5.87a.33.33 0 0 0 .58-.13l.13-.51m-155.14 2.04q1.83-.85 3.6-3.11l36.22-46.16a.35.35-70.9 0 0-.27-.56h-2.56a1.46 1.43 17.5 0 0-1.18.6l-34.83 47.85m34.07-99.31 2.99 5.68a.54.53 69.2 0 1-.34.77l-6.17 1.56a.37.37 0 0 0-.02.71l6.41 2.03a.46.46 0 0 1 .26.67l-3.41 5.9a.32.32 0 0 0 .44.44l6.12-3.54a.46.46 0 0 1 .68.29l1.7 6.71a.26.25-43.6 0 0 .49.01l2.17-6.88a.37.37 0 0 1 .54-.21l5.65 3.26a.4.4 0 0 0 .55-.54l-3.34-5.78a.55.55 0 0 1 .34-.81l6.28-1.58a.38.37-43.5 0 0 .02-.72l-6.33-2a.53.52 23.8 0 1-.3-.76l3.38-5.86a.32.31.2 0 0-.43-.43l-6.17 3.57a.44.43 68.2 0 1-.64-.28l-1.71-6.74a.25.25 0 0 0-.48-.01l-2.19 6.91a.42.42 0 0 1-.62.23l-5.63-3.41m25.85-3.62-2.63 11.35a.87.85-58.8 0 0 .17.73q.56.68-.3 1.26a1.11 1.1-10.5 0 0-.45.65l-3.71 15.41a1 1 0 0 0 .18.87l2.75 3.63" vector-effect="non-scaling-stroke"/><path stroke="#233854" d="M404.79 289.88c2.14 3.62 5.54 9.07 9.36 11.05a.5.5 0 0 0 .73-.39q.57-5.24 2.7-10.22c1.79-4.18 3.96-6.92 8.62-7.34a1.36 1.34-71.2 0 0 .86-.43q.22-.24.85-1.23c1.51-2.41 4.93-2.21 6.46-.16q2.46 3.3 3.5 8.19 1.29 6.05 1.68 12.04a.75.75 0 0 0 1.12.6q5.2-2.99 8.1-7.87a1.27 1.26-50.2 0 0-.13-1.48c-1.49-1.73-2.07-2.36-2.54-4.79q-5.82-30.25-6.78-35.38a.7.7 0 0 0-.83-.54l-4.71 1.19a.75.74 67.9 0 0-.46 1.1l4.01 6.95a.33.32.2 0 1-.45.44l-6.85-3.95a.55.54 23.6 0 0-.8.31l-2.47 7.8a.31.31 0 0 1-.6-.02l-1.88-7.46a.82.82 67.8 0 0-1.2-.51l-6.65 3.84a.41.41 0 0 1-.56-.55l3.94-6.81a.48.48 0 0 0-.27-.7l-5.82-1.84a.6.6 0 0 0-.75.44l-7.88 37.72" vector-effect="non-scaling-stroke"/><path stroke="#8f810b" d="m405.09 289.88 15.09-78.31" vector-effect="non-scaling-stroke"/><path stroke="#929f49" d="M405.09 289.88h-.3m68.67 33.55 23.82 30.4m-65.2-140.08 3.66 18.16m-17.87 9.81q-.31-.15-.85-.1" vector-effect="non-scaling-stroke"/><path stroke="#ec870f" d="M380.51 216.41q-.6.01-.85.38" vector-effect="non-scaling-stroke"/><path stroke="#7d201a" d="M379.66 216.79q-.05-.31-.29-.29a.16.15-.2 0 0-.15.14c-.55 3.95 6.92 5.41 4.85 9.96a.47.47 0 0 1-.73.16l-7.03-6.24" vector-effect="non-scaling-stroke"/><path stroke="#ec870f" d="m376.31 220.52.34 1.33" vector-effect="non-scaling-stroke"/><path stroke="#7d201a" d="M376.65 221.85q-.86 1.1-.08 2.82a1.47 1.41-80.6 0 0 .3.44l6.43 6.44a.33.31 9.7 0 1 .09.12q1.35 2.94 4.21 1.58l.21-.16 7.4-8.25a2.09 2.05-21.9 0 0 .53-1.21l.29-2.96a.38.37-19.6 0 0-.64-.3l-5.9 5.87q-.85.84-1.76.98" vector-effect="non-scaling-stroke"/><path stroke="#ec870f" d="m387.73 227.22.09-.06" vector-effect="non-scaling-stroke"/><path stroke="#7d201a" d="m387.82 227.16.17-3.27a1.6 1.6 0 0 1 .47-1.06l3.59-3.59a2.43 2.41-20 0 0 .7-1.49l.26-2.64a.34.33-19.6 0 0-.57-.27l-3.89 3.89a.43.42-27.1 0 1-.72-.23q-.51-3.13 1.64-4.7a3 3-15.5 0 0 1.16-2.04l.19-1.88a.54.54 0 0 0-.97-.37q-.87 1.14-2.59 1.97" vector-effect="non-scaling-stroke"/><path stroke="#ec870f" d="M387.26 211.48q-.28-.83-.06-.83" vector-effect="non-scaling-stroke"/><path stroke="#7d201a" d="M387.2 210.65q.54-2.37-.3-4.53" vector-effect="non-scaling-stroke"/><path stroke="#ec870f" d="m386.9 206.12-.48-3.15" vector-effect="non-scaling-stroke"/><path stroke="#7d201a" d="m386.42 202.97-.01-1.65a.2.19-86.8 0 0-.17-.2l-.34-.03a.2.19-84.1 0 0-.21.18l-.95 9.74a.38.38 0 0 1-.65.23l-2.01-2.01a.42.42 0 0 0-.71.25c-.31 2.79.28 3.78 2.4 5.49a2.27 2.26 22.2 0 1 .84 1.99l-.12 1.37a.57.57 0 0 1-.97.35l-3.66-3.66a.43.43 0 0 0-.73.34l.05.35a.58.56 2.9 0 0 .39.42l.94.28" vector-effect="non-scaling-stroke"/><path stroke="#8f810b" d="m386.42 202.97-1.28 9.46a.32.32 0 0 1-.54.18l-2.16-2.16a.31.3 25.8 0 0-.52.18l-.06.66a1.87 1.84-65.2 0 0 .53 1.48l2.3 2.31a1.89 1.87-65.4 0 1 .55 1.51l-.32 3.27a.47.47 0 0 1-.81.28l-3.6-3.73m6.39-10.29q-.36 2.24.3 4.53m.06.83q-.32.49-.33.87a.38.37 67.7 0 0 .64.27l1.99-1.99a.37.36-19.7 0 1 .62.29l-.08.85a1.92 1.89 71.1 0 1-.56 1.17l-1.69 1.7a2.3 2.3 0 0 0-.68 1.64v3.87a.34.34 0 0 0 .58.24l4.16-4.17a.28.28 0 0 1 .48.21c-.13 2.74-2.7 4.36-4.45 6.11a1.76 1.74 75 0 0-.48.84q-.47 1.87.36 3.78" vector-effect="non-scaling-stroke"/><path stroke="#8f810b" d="M387.73 227.22q-.44.66-.14 1.19.26.45 6.98-6.51a.5.5 0 0 1 .85.4l-.12 1.26a2.2 2.2 70.5 0 1-.64 1.35l-7.6 7.6a1.62 1.61-42.5 0 1-2.38-.1q-3.16-3.75-7.21-7.41-.71-.63-.82-3.15" vector-effect="non-scaling-stroke"/><path stroke="#8f810b" d="m376.31 220.52 7.7 7.61a.33.32-64.7 0 0 .55-.2l.36-3.74a1.6 1.6 0 0 0-.44-1.28c-1.98-2.05-4.49-3.76-4.82-6.12" vector-effect="non-scaling-stroke"/><path stroke="#7d201a" d="M467.14 204.37a.1.1-83.3 0 0 .09-.08l.27-2.78a.33.32-79.7 0 0-.24-.35q-.18-.06-.48-.04a.42.41-11.6 0 0-.37.55q.36 1.08.21 2.44a.2.2 0 0 0 .19.23l.33.03m-1.35 7.02-2.15-.93" vector-effect="non-scaling-stroke"/><path stroke="#ec870f" d="m463.64 210.46-.07-.21" vector-effect="non-scaling-stroke"/><path stroke="#7d201a" d="M463.57 210.25q-1.87-3.28-.99 2.23a1.52 1.48-72.6 0 0 .4.79l1.81 1.8a1.99 1.98 22.9 0 1 .57 1.39v1.96a.51.51 0 0 1-.87.36l-3.79-3.79a.33.33 0 0 0-.56.23v1.98a2.98 2.93-67.8 0 0 .86 2.09l3.47 3.46a2.76 2.73-67.7 0 1 .8 1.94v1.49a.75.75 0 0 1-1.28.53l-6.24-6.25a.34.34 0 0 0-.53.08q-.38.73.9 1.18" vector-effect="non-scaling-stroke"/><path stroke="#ec870f" d="M458.12 221.72q-.35.3-.38.5" vector-effect="non-scaling-stroke"/><path stroke="#7d201a" d="M457.74 222.22q-.11-.14-.24-.19a.22.22 0 0 0-.29.16q-.34 1.86.46 2.68c2.42 2.49 5.39 5.01 7.14 7.7q1.03 1.58 3.24.87a.79.75-75.8 0 0 .33-.21l7.85-8.42a2.29 2.24-23.9 0 0 .62-1.55v-2.71a.34.34 0 0 0-.58-.24l-6.68 6.68a.39.39 0 0 1-.66-.28v-2.9a1.14 1.08 68.6 0 1 .32-.79l3.81-3.81a2.6 2.6 0 0 0 .77-1.86v-2.27a.31.3 67.7 0 0-.52-.22l-3.73 3.73a.6.6 0 0 1-1.02-.42v-1.49a2.66 2.65 74 0 1 1.24-2.25q2.67-1.7 1.75-5.18a.3.3 58.3 0 0-.49-.12q-1.21 1.37-2.9 2.34" vector-effect="non-scaling-stroke"/><path stroke="#ec870f" d="m468.16 211.47-.77-3.99a1.37 1.27-71.2 0 0-.23-.52l-.38-.48a.23.23 0 0 0-.41.16q.18 2.37-.58 4.75" vector-effect="non-scaling-stroke"/><path stroke="#8f810b" d="M468.16 211.47q-1.58 3.5 2.57-1.25a.2.2 0 0 1 .36.13v1.46a1.7 1.67 74.5 0 1-.8 1.44q-3.43 2.12-2.06 6.8a.36.36 0 0 0 .6.16l3.93-3.94a.37.37 0 0 1 .63.3l-.07.8a2.3 2.27 70.8 0 1-.67 1.41l-3.89 3.89a1.45 1.42-23.2 0 0-.41 1v4.44a.39.39 0 0 0 .67.27l6.67-6.67a.39.39 0 0 1 .66.31l-.14 1.47a2.24 2.21-19.5 0 1-.67 1.38q-2.61 2.5-5.97 6.01c-.99 1.04-1.14 2.49-3.11 2.15a1.24 1.22-11.9 0 1-.8-.51q-1.5-2.13-6.95-7.24-1.23-1.16-.97-3.06" vector-effect="non-scaling-stroke"/><path stroke="#8f810b" d="m458.12 221.72 6.8 6.57a.3.29 25.1 0 0 .5-.18l.38-3.92a1.8 1.8 0 0 0-.51-1.42l-4.01-4.02a.57.5 14.9 0 1-.12-.18l-.64-1.73a.46.46 0 0 1 .76-.49l3.79 3.78a.38.38 0 0 0 .63-.15q1.38-4.48-1.9-6.68a1.86 1.83-86.4 0 1-.64-.74q-.81-1.71.41-2.31" vector-effect="non-scaling-stroke"/><path stroke="#8f810b" d="M463.64 210.46q3.35 4.45 2.15.93" vector-effect="non-scaling-stroke"/><path stroke="#233854" d="m435.96 242.73-2.66 4.41a.81.8-67.9 0 0 .5 1.2l4.17 1.01a.57.57 0 0 0 .68-.72q-.7-2.19-.99-4.92-.18-1.69-1.71-2.36a.27.27 0 0 0-.38.21q-.02.23.16.32a.61.57-61.8 0 1 .23.85" vector-effect="non-scaling-stroke"/><path stroke="#7d201a" d="M402.43 278.9a.19.18-53.2 0 0 .34-.05l2.1-8.7a.33.33 0 0 0-.41-.4l-5.18 1.31a.93.93 0 0 0-.58 1.37l3.73 6.47m48.24.67 4-6.93a.34.34 0 0 0-.19-.5l-7.17-2.26a.2.2 0 0 0-.25.24l4.28 16.96a1.22 1.22 0 0 0 2.03.59c2.03-1.94 2.98-4.09 6.24-4.84a1 1 0 0 0 .73-1.2l-1.24-4.91a.68.68 0 0 0-.99-.42l-6.78 3.92a.48.48 0 0 1-.66-.65m-49.07-.06-6.19-3.57a.8.8 0 0 0-1.15.44l-1.56 4.93a.78.78 0 0 0 .74 1.01q4.49.03 6.8 2.4a.6.6 0 0 0 1-.24l1.03-3.25a1.5 1.5 0 0 0-.67-1.72" vector-effect="non-scaling-stroke"/><path stroke="#8f810b" d="M438.27 302.93c-.1-4.06-1.55-21.21-6.57-21.98a2.94 2.88-71 0 0-2.97 1.49q-2.76 5.02-3.66 10.89-2.17 14.03-.15 26.32c.65 3.97 1.71 10.12 4.9 12.99a2.45 2.19-49 0 0 3.31-.42c4.07-4.8 4.85-14.06 5.11-20.55a.54.53 1 0 0-.54-.55h-.27a.76.76 0 0 0-.76.81q.31 4.74-1.25 11.25-.73 3.09-2.25 5.48a2.29 2.28-52.6 0 1-3.47.47q-1.32-1.2-1.98-3.66-4.3-16.18-.91-33.46c.46-2.33 1.85-9.17 5.59-7.44a2 2 0 0 1 .72.58q1.42 1.94 2.41 6.36 1.63 7.2 1.11 11.41a.6.6 0 0 0 .61.68h.36a.66.65-.8 0 0 .66-.67m-23.76.17a.47.45-71.5 0 0-.21-.44c-4.93-3.02-7.35-7.33-10.29-11.32-3.24-4.38-5.18-7.6-9.75-7.62q-17.87-.05-35.15-.04a1.35 1.34 70 0 0-1.03 2.21q2.07 2.47 5.43 2.46 24.9-.05 28.99.1c4.27.15 6.35 3.45 8.6 7.23 3.45 5.81 7.08 12 12.58 14.17a.14.14 0 0 0 .19-.12l.64-6.63" vector-effect="non-scaling-stroke"/><path stroke="#8f810b" d="M498.32 285.72a1.28 1.28 0 0 0-1.04-2.03q-19.8-.02-30.01-.01c-6.34 0-9.03-.25-12.56 4.53-5.6 7.57-11.44 19.09-22.78 15.52a1.83 1.83 0 0 0-2.38 1.74v2.46a2.66 2.65-.1 0 0 2.67 2.65q6.06-.04 8.07-.27c8.14-.94 13.06-11.49 16.93-17.57 2.41-3.8 4.99-4.4 9.26-4.4q26.31.02 27.56-.07a4.65 4.64 18.2 0 0 3.83-1.93l.45-.62m-72.26-1.54c-4.49.53-6.87 4.76-8.14 8.72q-5.17 16.19.5 32.66c1.28 3.72 4.47 8.06 8.82 6.92a.47.47 68.5 0 0 .29-.67q-1.84-3.55-2.95-10.06-3.23-19.02 1.78-37.23a.27.27 0 0 0-.3-.34" vector-effect="non-scaling-stroke"/><path stroke="#8f810b" d="M436.21 302.51q.19-4.1-.57-7.82c-.83-4.08-1.16-6.58-2.9-9.19a1.8 1.8 0 0 0-2.79-.25q-1.15 1.2-1.66 3.08-4.89 18.07-.07 37.17.46 1.82 1.7 3.22a1.72 1.72 0 0 0 2.65-.11q1.18-1.55 1.82-3.73 1.86-6.34 1.93-13.03a.7.7 0 0 0-.68-.68h-4.12a2.42 2.4 81.8 0 1-2.31-1.74q-.95-3.28.76-6.34a.7.7 25.3 0 1 .85-.3q2.07.78 4.85.92.6.03.81-.62.03-.1-.12-.23a.44.43 22.2 0 1-.15-.35m-40.68-12.18a.44.4-15 0 0-.36-.19h-30.96a1.57 1.57 0 0 0-1.36 2.36l.41.72a4.8 4.8 74.9 0 0 4.15 2.39h31.25a.12.12 0 0 0 .1-.19l-3.23-5.09m65.37 0-3.23 5.09a.12.12 0 0 0 .1.19h31.26a4.8 4.8-74.9 0 0 4.15-2.39l.41-.72a1.57 1.57 0 0 0-1.36-2.36h-30.97a.44.4 15 0 0-.36.19m-61.11 7.09a.43.4-15 0 0-.35-.19l-30.52.01a1.55 1.55 0 0 0-1.34 2.33l.4.71a4.7 4.7 74.9 0 0 4.09 2.35h30.81a.12.12 0 0 0 .1-.19l-3.19-5.02m56.83 0-3.19 5.02a.12.12 0 0 0 .1.19l30.83.01a4.7 4.7-74.9 0 0 4.1-2.35l.4-.72a1.55 1.55 0 0 0-1.34-2.32l-30.55-.01a.43.4 15 0 0-.35.18m-46.32 12.45a.16.15-32.8 0 0 .07-.3q-3.31-1.4-5.35-4.44a1.54 1.53 72.8 0 0-1.27-.67l-28.4.07a1.55 1.54-13.2 0 0-1.38 2.23l.29.58a4.7 4.7 76.7 0 0 4.21 2.61l31.83-.08m35.63.08h32.05a4.73 4.72-76.9 0 0 4.24-2.64l.29-.58a1.56 1.55 13.1 0 0-1.4-2.24h-28.59a1.55 1.54-72.9 0 0-1.28.68q-2.05 3.06-5.38 4.48a.16.16 0 0 0 .07.3" vector-effect="non-scaling-stroke"/></g><path fill="#265591" d="M852 0v568H0V0zM339.81 284q.31.53.31.73-.02 75.01-.17 83.02c-.12 6.12 2.63 11.46 9.35 11.91q4.63.31 13.46.28 41.17-.11 49.74.12c5.62.15 10.55 1.88 13.12 7.2a.44.44 0 0 0 .8 0c2.68-5.68 8.36-7.25 14.23-7.27q22.8-.08 56.85-.06 4.48.01 7.97-.73a3.21 3.14-64 0 0 .84-.3c6.12-3.1 5.62-8.18 5.62-15.24q0-13.56.06-78.67 0-.47.23-.99h338.8a.54.54 0 0 0 .54-.54V.9a.47.47 0 0 0-.47-.47H.88a.45.45 0 0 0-.45.45v282.79a.33.33 0 0 0 .33.33z"/><path fill="#fff" d="m512.22 284-.28-104.36a.54.54 0 0 0-.54-.54H340.67a.6.6 0 0 0-.59.59L339.81 284H.76a.33.33 0 0 1-.33-.33V.88A.45.45 0 0 1 .88.43h850.21a.47.47 0 0 1 .47.47v282.56a.54.54 0 0 1-.54.54z"/><path fill="#1f1a16" d="M512.22 284q-.23.52-.23.99-.06 65.11-.06 78.67c0 7.06.5 12.14-5.62 15.24a3.21 3.14-64 0 1-.84.3q-3.49.74-7.97.73-34.05-.02-56.85.06c-5.87.02-11.55 1.59-14.23 7.27a.44.44 0 0 1-.8 0c-2.57-5.32-7.5-7.05-13.12-7.2q-8.57-.23-49.74-.12-8.83.03-13.46-.28c-6.72-.45-9.47-5.79-9.35-11.91q.15-8.01.17-83.02 0-.2-.31-.73l.27-104.31a.6.6 0 0 1 .59-.59H511.4a.54.54 0 0 1 .54.54zm-86.2 102.08q.14 0 .24-.15c3.87-6.05 9.35-6.84 16.79-6.83q43.09.08 56.2-.03c9.39-.08 12.16-3.86 12.14-13.01q-.3-120.48-.19-185.32a.91.9 90 0 0-.91-.91l-84.24.07-84.25-.09a.91.9-90 0 0-.91.91q.1 64.84-.23 185.32c-.03 9.15 2.74 12.93 12.13 13.01q13.11.11 56.2.05c7.44-.01 12.92.78 16.79 6.83q.1.15.24.15"/><path fill="#da251d" d="m426.05 179.9 84.24-.07a.91.9 90 0 1 .91.91q-.11 64.84.19 185.32c.02 9.15-2.75 12.93-12.14 13.01q-13.11.11-56.2.03c-7.44-.01-12.92.78-16.79 6.83q-.1.15-.24.15t-.24-.15c-3.87-6.05-9.35-6.84-16.79-6.83q-43.09.06-56.2-.05c-9.39-.08-12.16-3.86-12.13-13.01q.33-120.48.23-185.32a.91.9-90 0 1 .91-.91zm-5.87 31.67q-1.05.36-.83 2.12a.76.7-42.6 0 1-.02.24l-10.55 42.05-3.14 11.37a.78.77-73 0 1-.98.53l-5.83-1.84a.6.6 0 0 1-.35-.89l3.91-6.76a.39.39 0 0 0-.53-.53l-7.1 4.1a.6.6 0 0 1-.87-.37l-2.03-8.02a.22.22 0 0 0-.43-.01l-2.6 8.21a.47.47-65.4 0 1-.69.26l-4.9-3.05a.34.34 0 0 0-.51.19q-.02.09.2.43-.62.13-.24.81-.67-.71-.47-1.43a.4.4-54.1 0 0-.05-.35q-1.04-1.64-1.06-.13a.7.68 33.1 0 0 .08.36l3.38 6.63a.64.63 68 0 1-.38.9l-6.35 1.86a.39.34 34.6 0 1-.17.02q-1.01-.08-1.09-.03a.43.43 0 0 0 .1.77l7.77 2.56a.52.52 0 0 1 .29.76l-4.05 7.03a.38.38 0 0 0 .51.52l6.91-3.99a.79.77 67.8 0 1 1.14.49l1.28 5.06a.72.72 0 0 1-.7.89h-31.29a1.98 1.97-89.4 0 0-1.97 1.94q-.08 3.97 4.36 4.96a.8.79 11.7 0 1 .61.92q-.85 4.69 4.16 6.5a.8.8 0 0 1 .5.79q-.51 5.73 6 6.65a.54.53 6.7 0 1 .46.58c-.64 6.07 5.07 7.1 9.73 6.6a.27.27 0 0 1 .25.42l-34.02 48.03q-.2.6-.98 1.38l-3.92 5.22a.34.33 13.9 0 0 .32.53q1.68-.25 2.05-1.54a.31.3-55.2 0 1 .54-.1q.62.89 2.31-.05a.12.12 0 0 0-.06-.23h-.49a.32.31 30 0 1-.16-.59q.87-.51 1.85.17a.98.97 53.3 0 0 .86.13l74.22-23.47a2.5 2.5 0 0 1 1.44 0l81.58 25.76a.32.32 0 0 0 .34-.5l-5.74-7.37-9.09-12.65-24.27-34.51a.4.4 0 0 1 .34-.63q4.25.2 7.93-.05 6.43-.43 6.12-6.54a.6.6 0 0 1 .51-.63q6.45-.97 5.87-6.67a.7.7 0 0 1 .48-.73q4.9-1.57 4.22-6.41a.93.93 0 0 1 .75-1.05q3.81-.68 4.27-4.34a2.24 2.24 0 0 0-2.22-2.51h-34.21a.68.67-82.9 0 1-.65-.84l1.23-5.1a.44.43 21.3 0 1 .64-.28l7 4.05a.44.44 0 0 0 .6-.6l-3.81-6.6a.96.96 0 0 1 .6-1.41l7.46-1.88a.32.32 0 0 0 .02-.62l-7.92-2.5a.6.6 0 0 1-.35-.89l4.09-7.1a.29.29 0 0 0-.39-.39l-7.33 4.23a.6.59-22 0 1-.88-.37l-1.42-5.64a.2.2 77.4 0 0-.23-.15q-.31.05-.32.57l-.15-.56q.45-1.02.06-1.82a.33.32 40.8 0 0-.6.04l-2.38 7.53a.64.63 23.3 0 1-.92.36l-6.73-3.89a.38.38 0 0 0-.52.51l4.03 6.97a.7.7 0 0 1-.43 1.01l-6.5 1.64a1 1 0 0 1-1.21-.69l-2.48-8.64q-1.04-3.57-2.07-7.78-.12-.5-.87-.5l-.02-.59q.68.08.5-.69-3.2-14.05-9.19-38.03l-6.11-28.74a.26.25 44.8 0 0-.5 0zm-39.67 4.84q-.6.01-.85.38-.05-.31-.29-.29a.16.15-.2 0 0-.15.14c-.55 3.95 6.92 5.41 4.85 9.96a.47.47 0 0 1-.73.16l-7.03-6.24.34 1.33q-.86 1.1-.08 2.82a1.47 1.41-80.6 0 0 .3.44l6.43 6.44a.33.31 9.7 0 1 .09.12q1.35 2.94 4.21 1.58l.21-.16 7.4-8.25a2.09 2.05-21.9 0 0 .53-1.21l.29-2.96a.38.37-19.6 0 0-.64-.3l-5.9 5.87q-.85.84-1.76.98l.09-.06.17-3.27a1.6 1.6 0 0 1 .47-1.06l3.59-3.59a2.43 2.41-20 0 0 .7-1.49l.26-2.64a.34.33-19.6 0 0-.57-.27l-3.89 3.89a.43.42-27.1 0 1-.72-.23q-.51-3.13 1.64-4.7a3 3-15.5 0 0 1.16-2.04l.19-1.88a.54.54 0 0 0-.97-.37q-.87 1.14-2.59 1.97-.28-.83-.06-.83.54-2.37-.3-4.53l-.48-3.15-.01-1.65a.2.19-86.8 0 0-.17-.2l-.34-.03a.2.19-84.1 0 0-.21.18l-.95 9.74a.38.38 0 0 1-.65.23l-2.01-2.01a.42.42 0 0 0-.71.25c-.31 2.79.28 3.78 2.4 5.49a2.27 2.26 22.2 0 1 .84 1.99l-.12 1.37a.57.57 0 0 1-.97.35l-3.66-3.66a.43.43 0 0 0-.73.34l.05.35a.58.56 2.9 0 0 .39.42zm86.63-12.04a.1.1-83.3 0 0 .09-.08l.27-2.78a.33.32-79.7 0 0-.24-.35q-.18-.06-.48-.04a.42.41-11.6 0 0-.37.55q.36 1.08.21 2.44a.2.2 0 0 0 .19.23zm-1.35 7.02-2.15-.93-.07-.21q-1.87-3.28-.99 2.23a1.52 1.48-72.6 0 0 .4.79l1.81 1.8a1.99 1.98 22.9 0 1 .57 1.39v1.96a.51.51 0 0 1-.87.36l-3.79-3.79a.33.33 0 0 0-.56.23v1.98a2.98 2.93-67.8 0 0 .86 2.09l3.47 3.46a2.76 2.73-67.7 0 1 .8 1.94v1.49a.75.75 0 0 1-1.28.53l-6.24-6.25a.34.34 0 0 0-.53.08q-.38.73.9 1.18-.35.3-.38.5-.11-.14-.24-.19a.22.22 0 0 0-.29.16q-.34 1.86.46 2.68c2.42 2.49 5.39 5.01 7.14 7.7q1.03 1.58 3.24.87a.79.75-75.8 0 0 .33-.21l7.85-8.42a2.29 2.24-23.9 0 0 .62-1.55v-2.71a.34.34 0 0 0-.58-.24l-6.68 6.68a.39.39 0 0 1-.66-.28v-2.9a1.14 1.08 68.6 0 1 .32-.79l3.81-3.81a2.6 2.6 0 0 0 .77-1.86v-2.27a.31.3 67.7 0 0-.52-.22l-3.73 3.73a.6.6 0 0 1-1.02-.42v-1.49a2.66 2.65 74 0 1 1.24-2.25q2.67-1.7 1.75-5.18a.3.3 58.3 0 0-.49-.12q-1.21 1.37-2.9 2.34l-.77-3.99a1.37 1.27-71.2 0 0-.23-.52l-.38-.48a.23.23 0 0 0-.41.16q.18 2.37-.58 4.75"/><path fill="#1f1a16" d="M432.34 211.69q-.44.62-.26 2.06l-1.18-5.91q-1.91-9.66-4.25-20.56a.7.7 0 0 0-1.01-.47q-.19.1-.27.44-1.61 7.05-3.65 17.95c-.57 3.04-1.3 4.74-1.4 7.16q-.07 1.38-.81 5.38-3.07 16.41-6.19 31.57a.47.47 88.5 0 0 .57.55l5.56-1.4a.58.58 0 0 0 .36-.85l-3.72-6.44a.53.53 0 0 1 .64-.77q1.89.68.29 1.22l3.54 6.13a.8.8 0 0 1-.5 1.17l-6.31 1.59a.41.41 0 0 0 .01.8l6.44 1.55a.73.73 0 0 1 .46 1.07l-3.31 5.73a.34.34 0 0 0 .47.47l5.81-3.35a.7.69-21.9 0 1 1.02.43l1.64 6.48a.39.39 0 0 0 .75 0l1.61-6.7a.59.58 21.6 0 1 .86-.37l5.72 3.3a.38.38 0 0 0 .52-.52l-3.16-5.49a.87.86-22 0 1 .54-1.27l5.42-1.37a.59.59 0 0 0-.01-1.15l-5.69-1.37a.74.74 0 0 1-.47-1.09l2.94-5.1a.53.53 0 0 0-.72-.72l-5.06 2.92a.8.8 0 0 1-1.19-.5l-1.54-6.1a.44.44 0 0 0-.86.01l-1.56 6.47a.52.51 21.6 0 1-.75.32l-5.77-3.24q-.07-.16-.03-.32a.25.25 0 0 1 .37-.15l4.76 2.75a.6.6 0 0 0 .87-.33l2.74-8.69a.03.03 0 0 1 .05 0l2.12 8.39a.84.84 0 0 0 1.24.53l5.81-3.36a1.81 1.79 71.3 0 0 .88-1.8l-.94-6.83 3.64 18.33a.5.5 0 0 0 .61.4l1.04-.23.02.59q-1.39.4-1.04 2.25 5.83 30.3 6.95 35.69a3 3 0 0 0 .53 1.21l1.74 2.46a.5.5 0 0 0 .84-.04l1.84-3.2a.76.74-52.1 0 0-.1-.89q-1.16-1.22-1.32-1.75-1.89-6.56-6.5-27.45l2.48 8.64a1 1 0 0 0 1.21.69l6.5-1.64a.7.7 0 0 0 .43-1.01l-4.03-6.97a.38.38 0 0 1 .52-.51l6.73 3.89a.64.63 23.3 0 0 .92-.36l2.38-7.53a.33.32 40.8 0 1 .6-.04q.39.8-.06 1.82-.5.03-.62.44-1.08 3.74-2.02 6.59a.36.35-65.9 0 1-.51.2l-6.19-3.57a.25.25 0 0 0-.35.34l3.68 6.39a.48.47-22.6 0 1-.29.7l-6.51 1.64a.32.32 0 0 0-.02.61l6.59 2.08a.46.45 23.6 0 1 .26.66l-3.51 6.08a.27.27 0 0 0 .37.36l6.14-3.54a.58.57 67.7 0 1 .85.36l1.64 6.48a.28.27-43.7 0 0 .53.01l2.15-6.79a.35.35-66.5 0 1 .5-.2l6.18 3.57a.26.26 0 0 0 .36-.35l-3.68-6.38a.47.47 0 0 1 .29-.69l6.51-1.65a.32.32 0 0 0 .02-.61l-6.59-2.08a.47.47-66.6 0 1-.26-.67l3.51-6.07a.27.27 0 0 0-.37-.36l-6.19 3.58a.57.57 68.1 0 1-.83-.36l-1.49-6.21q.01-.52.32-.57a.2.2 77.4 0 1 .23.15l1.42 5.64a.6.59-22 0 0 .88.37l7.33-4.23a.29.29 0 0 1 .39.39l-4.09 7.1a.6.6 0 0 0 .35.89l7.92 2.5a.32.32 0 0 1-.02.62l-7.46 1.88a.96.96 0 0 0-.6 1.41l3.81 6.6a.44.44 0 0 1-.6.6l-7-4.05a.44.43 21.3 0 0-.64.28l-1.23 5.1a.68.67-82.9 0 0 .65.84h34.21a2.24 2.24 0 0 1 2.22 2.51q-.46 3.66-4.27 4.34a.93.93 0 0 0-.75 1.05q.68 4.84-4.22 6.41a.7.7 0 0 0-.48.73q.58 5.7-5.87 6.67a.6.6 0 0 0-.51.63q.31 6.11-6.12 6.54-3.68.25-7.93.05a.4.4 0 0 0-.34.63l24.27 34.51-24.98-34.44a1.72 1.7-17.7 0 0-1.39-.71h-2.39a.45.45 0 0 0-.36.72l8.89 11.45-9.95-11.81a1.02 1-19.8 0 0-.77-.35h-21.57a1.7 1.7 0 0 0-1.69 1.59c-.22 3.88-1.94 25.74-10.53 20.82a1.24 1.21 50.7 0 0-1-.11q-4.91 1.52-7.88-2.66c-4.28-6.01-4.76-11.87-5.85-19.07a.7.7 0 0 0-.67-.57l-24.42-.01a.8.79-70.4 0 0-.62.3q-13.99 17.74-37.92 48.02-.9 1.14-3.18 3.32a.3.29-61.1 0 0 .14.5q1.29.27 1.44.21 60.38-22.68 76.65-28.7a1.25 1.2 44.5 0 1 .87.01l72.59 27.27a.2.2-73.9 0 1 .11.21l-.07.27-72.59-27.1a1.6 1.6 0 0 0-1.08 0l-75.01 27.95a.26.26 0 0 0-.15.33l.1.29a.1.1 0 0 0 .08.04l74.99-23.71a2 2 0 0 1 1.1 0l74.96 23.78.03-.01.15-.26a.23.22 26.5 0 0-.11-.32l-2.47-.99q2.02-.21 4.01 1.07a1.1 1.1 0 0 0 1.11.02l.43-.25a.4.4 0 0 0 .06-.63q-4.37-3.78-7.47-9.05l4.79 5.87a.33.33 0 0 0 .58-.13l.13-.51 5.74 7.37a.32.32 0 0 1-.34.5l-81.58-25.76a2.5 2.5 0 0 0-1.44 0l-74.22 23.47a.98.97 53.3 0 1-.86-.13q-.98-.68-1.85-.17a.32.31 30 0 0 .16.59h.49a.12.12 0 0 1 .06.23q-1.69.94-2.31.05a.31.3-55.2 0 0-.54.1q-.37 1.29-2.05 1.54a.34.33 13.9 0 1-.32-.53l3.92-5.22q1.83-.85 3.6-3.11l36.22-46.16a.35.35-70.9 0 0-.27-.56h-2.56a1.46 1.43 17.5 0 0-1.18.6l-34.83 47.85 34.02-48.03a.27.27 0 0 0-.25-.42c-4.66.5-10.37-.53-9.73-6.6a.54.53 6.7 0 0-.46-.58q-6.51-.92-6-6.65a.8.8 0 0 0-.5-.79q-5.01-1.81-4.16-6.5a.8.79 11.7 0 0-.61-.92q-4.44-.99-4.36-4.96a1.98 1.97-89.4 0 1 1.97-1.94h31.29a.72.72 0 0 0 .7-.89l-1.28-5.06a.79.77 67.8 0 0-1.14-.49l-6.91 3.99a.38.38 0 0 1-.51-.52l4.05-7.03a.52.52 0 0 0-.29-.76l-7.77-2.56a.43.43 0 0 1-.1-.77q.08-.05 1.09.03a.39.34 34.6 0 0 .17-.02l6.35-1.86a.64.63 68 0 0 .38-.9l-3.38-6.63a.7.68 33.1 0 1-.08-.36q.02-1.51 1.06.13a.4.4-54.1 0 1 .05.35q-.2.72.47 1.43l2.99 5.68a.54.53 69.2 0 1-.34.77l-6.17 1.56a.37.37 0 0 0-.02.71l6.41 2.03a.46.46 0 0 1 .26.67l-3.41 5.9a.32.32 0 0 0 .44.44l6.12-3.54a.46.46 0 0 1 .68.29l1.7 6.71a.26.25-43.6 0 0 .49.01l2.17-6.88a.37.37 0 0 1 .54-.21l5.65 3.26a.4.4 0 0 0 .55-.54l-3.34-5.78a.55.55 0 0 1 .34-.81l6.28-1.58a.38.37-43.5 0 0 .02-.72l-6.33-2a.53.52 23.8 0 1-.3-.76l3.38-5.86a.32.31.2 0 0-.43-.43l-6.17 3.57a.44.43 68.2 0 1-.64-.28l-1.71-6.74a.25.25 0 0 0-.48-.01l-2.19 6.91a.42.42 0 0 1-.62.23l-5.63-3.41q-.22-.34-.2-.43a.34.34 0 0 1 .51-.19l4.9 3.05a.47.47-65.4 0 0 .69-.26l2.6-8.21a.22.22 0 0 1 .43.01l2.03 8.02a.6.6 0 0 0 .87.37l7.1-4.1a.39.39 0 0 1 .53.53l-3.91 6.76a.6.6 0 0 0 .35.89l5.83 1.84a.78.77-73 0 0 .98-.53l3.14-11.37-2.63 11.35a.87.85-58.8 0 0 .17.73q.56.68-.3 1.26a1.11 1.1-10.5 0 0-.45.65l-3.71 15.41a1 1 0 0 0 .18.87l2.75 3.63c2.14 3.62 5.54 9.07 9.36 11.05a.5.5 0 0 0 .73-.39q.57-5.24 2.7-10.22c1.79-4.18 3.96-6.92 8.62-7.34a1.36 1.34-71.2 0 0 .86-.43q.22-.24.85-1.23c1.51-2.41 4.93-2.21 6.46-.16q2.46 3.3 3.5 8.19 1.29 6.05 1.68 12.04a.75.75 0 0 0 1.12.6q5.2-2.99 8.1-7.87a1.27 1.26-50.2 0 0-.13-1.48c-1.49-1.73-2.07-2.36-2.54-4.79q-5.82-30.25-6.78-35.38a.7.7 0 0 0-.83-.54l-4.71 1.19a.75.74 67.9 0 0-.46 1.1l4.01 6.95a.33.32.2 0 1-.45.44l-6.85-3.95a.55.54 23.6 0 0-.8.31l-2.47 7.8a.31.31 0 0 1-.6-.02l-1.88-7.46a.82.82 67.8 0 0-1.2-.51l-6.65 3.84a.41.41 0 0 1-.56-.55l3.94-6.81a.48.48 0 0 0-.27-.7l-5.82-1.84a.6.6 0 0 0-.75.44l-7.88 37.72 15.09-78.31 5.55-28.62a.26.25 44.8 0 1 .5 0zm3.62 31.04-2.66 4.41a.81.8-67.9 0 0 .5 1.2l4.17 1.01a.57.57 0 0 0 .68-.72q-.7-2.19-.99-4.92-.18-1.69-1.71-2.36a.27.27 0 0 0-.38.21q-.02.23.16.32a.61.57-61.8 0 1 .23.85m-33.53 36.17a.19.18-53.2 0 0 .34-.05l2.1-8.7a.33.33 0 0 0-.41-.4l-5.18 1.31a.93.93 0 0 0-.58 1.37zm48.24.67 4-6.93a.34.34 0 0 0-.19-.5l-7.17-2.26a.2.2 0 0 0-.25.24l4.28 16.96a1.22 1.22 0 0 0 2.03.59c2.03-1.94 2.98-4.09 6.24-4.84a1 1 0 0 0 .73-1.2l-1.24-4.91a.68.68 0 0 0-.99-.42l-6.78 3.92a.48.48 0 0 1-.66-.65m-49.07-.06-6.19-3.57a.8.8 0 0 0-1.15.44l-1.56 4.93a.78.78 0 0 0 .74 1.01q4.49.03 6.8 2.4a.6.6 0 0 0 1-.24l1.03-3.25a1.5 1.5 0 0 0-.67-1.72m36.67 23.42c-.1-4.06-1.55-21.21-6.57-21.98a2.94 2.88-71 0 0-2.97 1.49q-2.76 5.02-3.66 10.89-2.17 14.03-.15 26.32c.65 3.97 1.71 10.12 4.9 12.99a2.45 2.19-49 0 0 3.31-.42c4.07-4.8 4.85-14.06 5.11-20.55a.54.53 1 0 0-.54-.55h-.27a.76.76 0 0 0-.76.81q.31 4.74-1.25 11.25-.73 3.09-2.25 5.48a2.29 2.28-52.6 0 1-3.47.47q-1.32-1.2-1.98-3.66-4.3-16.18-.91-33.46c.46-2.33 1.85-9.17 5.59-7.44a2 2 0 0 1 .72.58q1.42 1.94 2.41 6.36 1.63 7.2 1.11 11.41a.6.6 0 0 0 .61.68h.36a.66.65-.8 0 0 .66-.67m-23.76.17a.47.45-71.5 0 0-.21-.44c-4.93-3.02-7.35-7.33-10.29-11.32-3.24-4.38-5.18-7.6-9.75-7.62q-17.87-.05-35.15-.04a1.35 1.34 70 0 0-1.03 2.21q2.07 2.47 5.43 2.46 24.9-.05 28.99.1c4.27.15 6.35 3.45 8.6 7.23 3.45 5.81 7.08 12 12.58 14.17a.14.14 0 0 0 .19-.12zm83.81-17.38a1.28 1.28 0 0 0-1.04-2.03q-19.8-.02-30.01-.01c-6.34 0-9.03-.25-12.56 4.53-5.6 7.57-11.44 19.09-22.78 15.52a1.83 1.83 0 0 0-2.38 1.74v2.46a2.66 2.65-.1 0 0 2.67 2.65q6.06-.04 8.07-.27c8.14-.94 13.06-11.49 16.93-17.57 2.41-3.8 4.99-4.4 9.26-4.4q26.31.02 27.56-.07a4.65 4.64 18.2 0 0 3.83-1.93zm-72.26-1.54c-4.49.53-6.87 4.76-8.14 8.72q-5.17 16.19.5 32.66c1.28 3.72 4.47 8.06 8.82 6.92a.47.47 68.5 0 0 .29-.67q-1.84-3.55-2.95-10.06-3.23-19.02 1.78-37.23a.27.27 0 0 0-.3-.34m10.15 18.33q.19-4.1-.57-7.82c-.83-4.08-1.16-6.58-2.9-9.19a1.8 1.8 0 0 0-2.79-.25q-1.15 1.2-1.66 3.08-4.89 18.07-.07 37.17.46 1.82 1.7 3.22a1.72 1.72 0 0 0 2.65-.11q1.18-1.55 1.82-3.73 1.86-6.34 1.93-13.03a.7.7 0 0 0-.68-.68h-4.12a2.42 2.4 81.8 0 1-2.31-1.74q-.95-3.28.76-6.34a.7.7 25.3 0 1 .85-.3q2.07.78 4.85.92.6.03.81-.62.03-.1-.12-.23a.44.43 22.2 0 1-.15-.35m-40.68-12.18a.44.4-15 0 0-.36-.19h-30.96a1.57 1.57 0 0 0-1.36 2.36l.41.72a4.8 4.8 74.9 0 0 4.15 2.39h31.25a.12.12 0 0 0 .1-.19zm65.37 0-3.23 5.09a.12.12 0 0 0 .1.19h31.26a4.8 4.8-74.9 0 0 4.15-2.39l.41-.72a1.57 1.57 0 0 0-1.36-2.36h-30.97a.44.4 15 0 0-.36.19m-61.11 7.09a.43.4-15 0 0-.35-.19l-30.52.01a1.55 1.55 0 0 0-1.34 2.33l.4.71a4.7 4.7 74.9 0 0 4.09 2.35h30.81a.12.12 0 0 0 .1-.19zm56.83 0-3.19 5.02a.12.12 0 0 0 .1.19l30.83.01a4.7 4.7-74.9 0 0 4.1-2.35l.4-.72a1.55 1.55 0 0 0-1.34-2.32l-30.55-.01a.43.4 15 0 0-.35.18m-46.32 12.45a.16.15-32.8 0 0 .07-.3q-3.31-1.4-5.35-4.44a1.54 1.53 72.8 0 0-1.27-.67l-28.4.07a1.55 1.54-13.2 0 0-1.38 2.23l.29.58a4.7 4.7 76.7 0 0 4.21 2.61zm35.63.08h32.05a4.73 4.72-76.9 0 0 4.24-2.64l.29-.58a1.56 1.55 13.1 0 0-1.4-2.24h-28.59a1.55 1.54-72.9 0 0-1.28.68q-2.05 3.06-5.38 4.48a.16.16 0 0 0 .07.3"/><path fill="#265591" d="m432.08 213.75 3.66 18.16.94 6.83a1.81 1.79 71.3 0 1-.88 1.8l-5.81 3.36a.84.84 0 0 1-1.24-.53l-2.12-8.39a.03.03 0 0 0-.05 0l-2.74 8.69a.6.6 0 0 1-.87.33l-4.76-2.75a.25.25 0 0 0-.37.15q-.04.16.03.32-.31-.15-.85-.1 1.6-.54-.29-1.22a.53.53 0 0 0-.64.77l3.72 6.44a.58.58 0 0 1-.36.85l-5.56 1.4a.47.47 88.5 0 1-.57-.55q3.12-15.16 6.19-31.57.74-4 .81-5.38c.1-2.42.83-4.12 1.4-7.16q2.04-10.9 3.65-17.95.08-.34.27-.44a.7.7 0 0 1 1.01.47q2.34 10.9 4.25 20.56z"/><path fill="#1f1a16" d="m386.42 202.97-1.28 9.46a.32.32 0 0 1-.54.18l-2.16-2.16a.31.3 25.8 0 0-.52.18l-.06.66a1.87 1.84-65.2 0 0 .53 1.48l2.3 2.31a1.89 1.87-65.4 0 1 .55 1.51l-.32 3.27a.47.47 0 0 1-.81.28l-3.6-3.73-.94-.28a.58.56 2.9 0 1-.39-.42l-.05-.35a.43.43 0 0 1 .73-.34l3.66 3.66a.57.57 0 0 0 .97-.35l.12-1.37a2.27 2.26 22.2 0 0-.84-1.99c-2.12-1.71-2.71-2.7-2.4-5.49a.42.42 0 0 1 .71-.25l2.01 2.01a.38.38 0 0 0 .65-.23l.95-9.74a.2.19-84.1 0 1 .21-.18l.34.03a.2.19-86.8 0 1 .17.2zm80.2 1.14q.15-1.36-.21-2.44a.42.41-11.6 0 1 .37-.55q.3-.02.48.04a.33.32-79.7 0 1 .24.35l-.27 2.78a.1.1-83.3 0 1-.09.08l-.33-.03a.2.2 0 0 1-.19-.23"/><path fill="#fee800" d="M386.9 206.12q-.36 2.24.3 4.53-.22 0 .06.83-.32.49-.33.87a.38.37 67.7 0 0 .64.27l1.99-1.99a.37.36-19.7 0 1 .62.29l-.08.85a1.92 1.89 71.1 0 1-.56 1.17l-1.69 1.7a2.3 2.3 0 0 0-.68 1.64v3.87a.34.34 0 0 0 .58.24l4.16-4.17a.28.28 0 0 1 .48.21c-.13 2.74-2.7 4.36-4.45 6.11a1.76 1.74 75 0 0-.48.84q-.47 1.87.36 3.78l-.09.06q-.44.66-.14 1.19.26.45 6.98-6.51a.5.5 0 0 1 .85.4l-.12 1.26a2.2 2.2 70.5 0 1-.64 1.35l-7.6 7.6a1.62 1.61-42.5 0 1-2.38-.1q-3.16-3.75-7.21-7.41-.71-.63-.82-3.15l-.34-1.33 7.7 7.61a.33.32-64.7 0 0 .55-.2l.36-3.74a1.6 1.6 0 0 0-.44-1.28c-1.98-2.05-4.49-3.76-4.82-6.12q.25-.37.85-.38l3.6 3.73a.47.47 0 0 0 .81-.28l.32-3.27a1.89 1.87-65.4 0 0-.55-1.51l-2.3-2.31a1.87 1.84-65.2 0 1-.53-1.48l.06-.66a.31.3 25.8 0 1 .52-.18l2.16 2.16a.32.32 0 0 0 .54-.18l1.28-9.46z"/><path fill="#1f1a16" d="M387.2 210.65q-.66-2.29-.3-4.53.84 2.16.3 4.53"/><path fill="#fee800" d="M468.16 211.47q-1.58 3.5 2.57-1.25a.2.2 0 0 1 .36.13v1.46a1.7 1.67 74.5 0 1-.8 1.44q-3.43 2.12-2.06 6.8a.36.36 0 0 0 .6.16l3.93-3.94a.37.37 0 0 1 .63.3l-.07.8a2.3 2.27 70.8 0 1-.67 1.41l-3.89 3.89a1.45 1.42-23.2 0 0-.41 1v4.44a.39.39 0 0 0 .67.27l6.67-6.67a.39.39 0 0 1 .66.31l-.14 1.47a2.24 2.21-19.5 0 1-.67 1.38q-2.61 2.5-5.97 6.01c-.99 1.04-1.14 2.49-3.11 2.15a1.24 1.22-11.9 0 1-.8-.51q-1.5-2.13-6.95-7.24-1.23-1.16-.97-3.06.03-.2.38-.5l6.8 6.57a.3.29 25.1 0 0 .5-.18l.38-3.92a1.8 1.8 0 0 0-.51-1.42l-4.01-4.02a.57.5 14.9 0 1-.12-.18l-.64-1.73a.46.46 0 0 1 .76-.49l3.79 3.78a.38.38 0 0 0 .63-.15q1.38-4.48-1.9-6.68a1.86 1.83-86.4 0 1-.64-.74q-.81-1.71.41-2.31l.07.21q3.35 4.45 2.15.93.76-2.38.58-4.75a.23.23 0 0 1 .41-.16l.38.48a1.37 1.27-71.2 0 1 .23.52z"/><path fill="#1f1a16" d="M387.82 227.16q-.83-1.91-.36-3.78a1.76 1.74 75 0 1 .48-.84c1.75-1.75 4.32-3.37 4.45-6.11a.28.28 0 0 0-.48-.21l-4.16 4.17a.34.34 0 0 1-.58-.24v-3.87a2.3 2.3 0 0 1 .68-1.64l1.69-1.7a1.92 1.89 71.1 0 0 .56-1.17l.08-.85a.37.36-19.7 0 0-.62-.29l-1.99 1.99a.38.37 67.7 0 1-.64-.27q.01-.38.33-.87 1.72-.83 2.59-1.97a.54.54 0 0 1 .97.37l-.19 1.88a3 3-15.5 0 1-1.16 2.04q-2.15 1.57-1.64 4.7a.43.42-27.1 0 0 .72.23l3.89-3.89a.34.33-19.6 0 1 .57.27l-.26 2.64a2.43 2.41-20 0 1-.7 1.49l-3.59 3.59a1.6 1.6 0 0 0-.47 1.06zm75.75-16.91q-1.22.6-.41 2.31a1.86 1.83-86.4 0 0 .64.74q3.28 2.2 1.9 6.68a.38.38 0 0 1-.63.15l-3.79-3.78a.46.46 0 0 0-.76.49l.64 1.73a.57.5 14.9 0 0 .12.18l4.01 4.02a1.8 1.8 0 0 1 .51 1.42l-.38 3.92a.3.29 25.1 0 1-.5.18l-6.8-6.57q-1.28-.45-.9-1.18a.34.34 0 0 1 .53-.08l6.24 6.25a.75.75 0 0 0 1.28-.53v-1.49a2.76 2.73-67.7 0 0-.8-1.94l-3.47-3.46a2.98 2.93-67.8 0 1-.86-2.09v-1.98a.33.33 0 0 1 .56-.23l3.79 3.79a.51.51 0 0 0 .87-.36v-1.96a1.99 1.98 22.9 0 0-.57-1.39l-1.81-1.8a1.52 1.48-72.6 0 1-.4-.79q-.88-5.51.99-2.23"/><path fill="#1f1a16" d="M457.74 222.22q-.26 1.9.97 3.06 5.45 5.11 6.95 7.24a1.24 1.22-11.9 0 0 .8.51c1.97.34 2.12-1.11 3.11-2.15q3.36-3.51 5.97-6.01a2.24 2.21-19.5 0 0 .67-1.38l.14-1.47a.39.39 0 0 0-.66-.31l-6.67 6.67a.39.39 0 0 1-.67-.27v-4.44a1.45 1.42-23.2 0 1 .41-1l3.89-3.89a2.3 2.27 70.8 0 0 .67-1.41l.07-.8a.37.37 0 0 0-.63-.3l-3.93 3.94a.36.36 0 0 1-.6-.16q-1.37-4.68 2.06-6.8a1.7 1.67 74.5 0 0 .8-1.44v-1.46a.2.2 0 0 0-.36-.13q-4.15 4.75-2.57 1.25 1.69-.97 2.9-2.34a.3.3 58.3 0 1 .49.12q.92 3.48-1.75 5.18a2.66 2.65 74 0 0-1.24 2.25v1.49a.6.6 0 0 0 1.02.42l3.73-3.73a.31.3 67.7 0 1 .52.22v2.27a2.6 2.6 0 0 1-.77 1.86l-3.81 3.81a1.14 1.08 68.6 0 0-.32.79v2.9a.39.39 0 0 0 .66.28l6.68-6.68a.34.34 0 0 1 .58.24v2.71a2.29 2.24-23.9 0 1-.62 1.55l-7.85 8.42a.79.75-75.8 0 1-.33.21q-2.21.71-3.24-.87c-1.75-2.69-4.72-5.21-7.14-7.7q-.8-.82-.46-2.68a.22.22 0 0 1 .29-.16q.13.05.24.19"/><path fill="#1f1a16" d="M465.79 211.39q1.2 3.52-2.15-.93z"/><path fill="#fee800" d="m420.18 211.57-15.09 78.31h-.3l-2.75-3.63a1 1 0 0 1-.18-.87l3.71-15.41a1.11 1.1-10.5 0 1 .45-.65q.86-.58.3-1.26a.87.85-58.8 0 1-.17-.73l2.63-11.35 10.55-42.05a.76.7-42.6 0 0 .02-.24q-.22-1.76.83-2.12m20.85 38.84-1.04.23a.5.5 0 0 1-.61-.4l-3.64-18.33-3.66-18.16q-.18-1.44.26-2.06 5.99 23.98 9.19 38.03.18.77-.5.69"/><path fill="#1f1a16" d="M379.66 216.79c.33 2.36 2.84 4.07 4.82 6.12a1.6 1.6 0 0 1 .44 1.28l-.36 3.74a.33.32-64.7 0 1-.55.2l-7.7-7.61 7.03 6.24a.47.47 0 0 0 .73-.16c2.07-4.55-5.4-6.01-4.85-9.96a.16.15-.2 0 1 .15-.14q.24-.02.29.29"/><path fill="#1f1a16" d="M376.65 221.85q.11 2.52.82 3.15 4.05 3.66 7.21 7.41a1.62 1.61-42.5 0 0 2.38.1l7.6-7.6a2.2 2.2 70.5 0 0 .64-1.35l.12-1.26a.5.5 0 0 0-.85-.4q-6.72 6.96-6.98 6.51-.3-.53.14-1.19.91-.14 1.76-.98l5.9-5.87a.38.37-19.6 0 1 .64.3l-.29 2.96a2.09 2.05-21.9 0 1-.53 1.21l-7.4 8.25-.21.16q-2.86 1.36-4.21-1.58a.33.31 9.7 0 0-.09-.12l-6.43-6.44a1.47 1.41-80.6 0 1-.3-.44q-.78-1.72.08-2.82"/><path fill="#fee800" d="M417.02 241.62q.54-.05.85.1l5.77 3.24a.52.51 21.6 0 0 .75-.32l1.56-6.47a.44.44 0 0 1 .86-.01l1.54 6.1a.8.8 0 0 0 1.19.5l5.06-2.92a.53.53 0 0 1 .72.72l-2.94 5.1a.74.74 0 0 0 .47 1.09l5.69 1.37a.59.59 0 0 1 .01 1.15l-5.42 1.37a.87.86-22 0 0-.54 1.27l3.16 5.49a.38.38 0 0 1-.52.52l-5.72-3.3a.59.58 21.6 0 0-.86.37l-1.61 6.7a.39.39 0 0 1-.75 0l-1.64-6.48a.7.69-21.9 0 0-1.02-.43l-5.81 3.35a.34.34 0 0 1-.47-.47l3.31-5.73a.73.73 0 0 0-.46-1.07l-6.44-1.55a.41.41 0 0 1-.01-.8l6.31-1.59a.8.8 0 0 0 .5-1.17z"/><path fill="#265591" d="M435.73 241.88q-.18-.09-.16-.32a.27.27 0 0 1 .38-.21q1.53.67 1.71 2.36.29 2.73.99 4.92a.57.57 0 0 1-.68.72l-4.17-1.01a.81.8-67.9 0 1-.5-1.2l2.66-4.41a.61.57-61.8 0 0-.23-.85"/><path fill="#fee800" d="M443.99 259.28q4.61 20.89 6.5 27.45.16.53 1.32 1.75a.76.74-52.1 0 1 .1.89l-1.84 3.2a.5.5 0 0 1-.84.04l-1.74-2.46a3 3 0 0 1-.53-1.21q-1.12-5.39-6.95-35.69-.35-1.85 1.04-2.25.75 0 .87.5 1.03 4.21 2.07 7.78"/><path fill="#265591" d="M404.79 289.88h.3l7.88-37.72a.6.6 0 0 1 .75-.44l5.82 1.84a.48.48 0 0 1 .27.7l-3.94 6.81a.41.41 0 0 0 .56.55l6.65-3.84a.82.82 67.8 0 1 1.2.51l1.88 7.46a.31.31 0 0 0 .6.02l2.47-7.8a.55.54 23.6 0 1 .8-.31l6.85 3.95a.33.32.2 0 0 .45-.44l-4.01-6.95a.75.74 67.9 0 1 .46-1.1l4.71-1.19a.7.7 0 0 1 .83.54q.96 5.13 6.78 35.38c.47 2.43 1.05 3.06 2.54 4.79a1.27 1.26-50.2 0 1 .13 1.48q-2.9 4.88-8.1 7.87a.75.75 0 0 1-1.12-.6q-.39-5.99-1.68-12.04-1.04-4.89-3.5-8.19c-1.53-2.05-4.95-2.25-6.46.16q-.63.99-.85 1.23a1.36 1.34-71.2 0 1-.86.43c-4.66.42-6.83 3.16-8.62 7.34q-2.13 4.98-2.7 10.22a.5.5 0 0 1-.73.39c-3.82-1.98-7.22-7.43-9.36-11.05"/><path fill="#fee800" d="M382.69 260.41q-.38-.68.24-.81l5.63 3.41a.42.42 0 0 0 .62-.23l2.19-6.91a.25.25 0 0 1 .48.01l1.71 6.74a.44.43 68.2 0 0 .64.28l6.17-3.57a.32.31.2 0 1 .43.43l-3.38 5.86a.53.52 23.8 0 0 .3.76l6.33 2a.38.37-43.5 0 1-.02.72l-6.28 1.58a.55.55 0 0 0-.34.81l3.34 5.78a.4.4 0 0 1-.55.54l-5.65-3.26a.37.37 0 0 0-.54.21l-2.17 6.88a.26.25-43.6 0 1-.49-.01l-1.7-6.71a.46.46 0 0 0-.68-.29l-6.12 3.54a.32.32 0 0 1-.44-.44l3.41-5.9a.46.46 0 0 0-.26-.67l-6.41-2.03a.37.37 0 0 1 .02-.71l6.17-1.56a.54.53 69.2 0 0 .34-.77zm78.98-4.15.15.56 1.49 6.21a.57.57 68.1 0 0 .83.36l6.19-3.58a.27.27 0 0 1 .37.36l-3.51 6.07a.47.47-66.6 0 0 .26.67l6.59 2.08a.32.32 0 0 1-.02.61l-6.51 1.65a.47.47 0 0 0-.29.69l3.68 6.38a.26.26 0 0 1-.36.35l-6.18-3.57a.35.35-66.5 0 0-.5.2l-2.15 6.79a.28.27-43.7 0 1-.53-.01l-1.64-6.48a.58.57 67.7 0 0-.85-.36l-6.14 3.54a.27.27 0 0 1-.37-.36l3.51-6.08a.46.45 23.6 0 0-.26-.66l-6.59-2.08a.32.32 0 0 1 .02-.61l6.51-1.64a.48.47-22.6 0 0 .29-.7l-3.68-6.39a.25.25 0 0 1 .35-.34l6.19 3.57a.36.35-65.9 0 0 .51-.2q.94-2.85 2.02-6.59.12-.41.62-.44"/><path fill="#da251d" d="m402.43 278.9-3.73-6.47a.93.93 0 0 1 .58-1.37l5.18-1.31a.33.33 0 0 1 .41.4l-2.1 8.7a.19.18-53.2 0 1-.34.05m48.24.67a.48.48 0 0 0 .66.65l6.78-3.92a.68.68 0 0 1 .99.42l1.24 4.91a1 1 0 0 1-.73 1.2c-3.26.75-4.21 2.9-6.24 4.84a1.22 1.22 0 0 1-2.03-.59l-4.28-16.96a.2.2 0 0 1 .25-.24l7.17 2.26a.34.34 0 0 1 .19.5zm-49.07-.06a1.5 1.5 0 0 1 .67 1.72l-1.03 3.25a.6.6 0 0 1-1 .24q-2.31-2.37-6.8-2.4a.78.78 0 0 1-.74-1.01l1.56-4.93a.8.8 0 0 1 1.15-.44z"/><path fill="#fee800" d="M438.27 302.93a.66.65-.8 0 1-.66.67h-.36a.6.6 0 0 1-.61-.68q.52-4.21-1.11-11.41-.99-4.42-2.41-6.36a2 2 0 0 0-.72-.58c-3.74-1.73-5.13 5.11-5.59 7.44q-3.39 17.28.91 33.46.66 2.46 1.98 3.66a2.29 2.28-52.6 0 0 3.47-.47q1.52-2.39 2.25-5.48 1.56-6.51 1.25-11.25a.76.76 0 0 1 .76-.81h.27a.54.53 1 0 1 .54.55c-.26 6.49-1.04 15.75-5.11 20.55a2.45 2.19-49 0 1-3.31.42c-3.19-2.87-4.25-9.02-4.9-12.99q-2.02-12.29.15-26.32.9-5.87 3.66-10.89a2.94 2.88-71 0 1 2.97-1.49c5.02.77 6.47 17.92 6.57 21.98m-24.59 6.92c-5.5-2.17-9.13-8.36-12.58-14.17-2.25-3.78-4.33-7.08-8.6-7.23q-4.09-.15-28.99-.1-3.36.01-5.43-2.46a1.35 1.34 70 0 1 1.03-2.21q17.28-.01 35.15.04c4.57.02 6.51 3.24 9.75 7.62 2.94 3.99 5.36 8.3 10.29 11.32a.47.45-71.5 0 1 .21.44l-.64 6.63a.14.14 0 0 1-.19.12"/><path fill="#fee800" d="m498.32 285.72-.45.62a4.65 4.64 18.2 0 1-3.83 1.93q-1.25.09-27.56.07c-4.27 0-6.85.6-9.26 4.4-3.87 6.08-8.79 16.63-16.93 17.57q-2.01.23-8.07.27a2.66 2.65-.1 0 1-2.67-2.65v-2.46a1.83 1.83 0 0 1 2.38-1.74c11.34 3.57 17.18-7.95 22.78-15.52 3.53-4.78 6.22-4.53 12.56-4.53q10.21-.01 30.01.01a1.28 1.28 0 0 1 1.04 2.03m-72.26-1.54a.27.27 0 0 1 .3.34q-5.01 18.21-1.78 37.23 1.11 6.51 2.95 10.06a.47.47 68.5 0 1-.29.67c-4.35 1.14-7.54-3.2-8.82-6.92q-5.67-16.47-.5-32.66c1.27-3.96 3.65-8.19 8.14-8.72"/><path fill="#fee800" d="M436.36 302.86q.15.13.12.23-.21.65-.81.62-2.78-.14-4.85-.92a.7.7 25.3 0 0-.85.3q-1.71 3.06-.76 6.34a2.42 2.4 81.8 0 0 2.31 1.74h4.12a.7.7 0 0 1 .68.68q-.07 6.69-1.93 13.03-.64 2.18-1.82 3.73a1.72 1.72 0 0 1-2.65.11q-1.24-1.4-1.7-3.22-4.82-19.1.07-37.17.51-1.88 1.66-3.08a1.8 1.8 0 0 1 2.79.25c1.74 2.61 2.07 5.11 2.9 9.19q.76 3.72.57 7.82a.44.43 22.2 0 0 .15.35m-37.7-7.25h-31.25a4.8 4.8 74.9 0 1-4.15-2.39l-.41-.72a1.57 1.57 0 0 1 1.36-2.36h30.96a.44.4-15 0 1 .36.19l3.23 5.09a.12.12 0 0 1-.1.19m62.24-5.28a.44.4 15 0 1 .36-.19h30.97a1.57 1.57 0 0 1 1.36 2.36l-.41.72a4.8 4.8-74.9 0 1-4.15 2.39h-31.26a.12.12 0 0 1-.1-.19zm-61.11 7.09 3.19 5.02a.12.12 0 0 1-.1.19h-30.81a4.7 4.7 74.9 0 1-4.09-2.35l-.4-.71a1.55 1.55 0 0 1 1.34-2.33l30.52-.01a.43.4-15 0 1 .35.19m56.83 0a.43.4 15 0 1 .35-.18l30.55.01a1.55 1.55 0 0 1 1.34 2.32l-.4.72a4.7 4.7-74.9 0 1-4.1 2.35l-30.83-.01a.12.12 0 0 1-.1-.19zm-46.32 12.45-31.83.08a4.7 4.7 76.7 0 1-4.21-2.61l-.29-.58a1.55 1.54-13.2 0 1 1.38-2.23l28.4-.07a1.54 1.53 72.8 0 1 1.27.67q2.04 3.04 5.35 4.44a.16.15-32.8 0 1-.07.3m35.56-.22q3.33-1.42 5.38-4.48a1.55 1.54-72.9 0 1 1.28-.68h28.59a1.56 1.55 13.1 0 1 1.4 2.24l-.29.58a4.73 4.72-76.9 0 1-4.24 2.64h-32.05a.16.16 0 0 1-.07-.3m-98.22 51.45q.78-.78.98-1.38l34.83-47.85a1.46 1.43 17.5 0 1 1.18-.6h2.56a.35.35-70.9 0 1 .27.56l-36.22 46.16q-1.77 2.26-3.6 3.11"/><path fill="#265591" d="m473.46 323.43 23.82 30.4q3.1 5.27 7.47 9.05a.4.4 0 0 1-.06.63l-.43.25a1.1 1.1 0 0 1-1.11-.02q-1.99-1.28-4.01-1.07l.07-.27a.2.2-73.9 0 0-.11-.21l-72.59-27.27a1.25 1.2 44.5 0 0-.87-.01q-16.27 6.02-76.65 28.7-.15.06-1.44-.21a.3.29-61.1 0 1-.14-.5q2.28-2.18 3.18-3.32 23.93-30.28 37.92-48.02a.8.79-70.4 0 1 .62-.3l24.42.01a.7.7 0 0 1 .67.57c1.09 7.2 1.57 13.06 5.85 19.07q2.97 4.18 7.88 2.66a1.24 1.21 50.7 0 1 1 .11c8.59 4.92 10.31-16.94 10.53-20.82a1.7 1.7 0 0 1 1.69-1.59h21.57a1.02 1-19.8 0 1 .77.35z"/><path fill="#fee800" d="m493.69 346.41 9.09 12.65-.13.51a.33.33 0 0 1-.58.13l-4.79-5.87-23.82-30.4-8.89-11.45a.45.45 0 0 1 .36-.72h2.39a1.72 1.7-17.7 0 1 1.39.71zm5.45 16.26 2.47.99a.23.22 26.5 0 1 .11.32l-.15.26-.03.01-74.96-23.78a2 2 0 0 0-1.1 0l-74.99 23.71a.1.1 0 0 1-.08-.04l-.1-.29a.26.26 0 0 1 .15-.33l75.01-27.95a1.6 1.6 0 0 1 1.08 0z"/></svg>