<svg xmlns="http://www.w3.org/2000/svg" viewBox="0 0 800 533"><g fill="none" stroke-width="2"><path stroke="#80ca9f" d="m800 396.55-315.51.01" vector-effect="non-scaling-stroke"/><path stroke="#8e8c8b" d="M484.49 396.56c3.84-9.96-.24-18.03-3.82-28.21q-4.62-13.15-5.62-26.41a1.08 1.07-84.4 0 0-.79-.97l-12.32-3.35a.5.5 0 0 1-.38-.59q2.15-12.39 2.94-19.78c.97-9.14-1.34-18.47-3.89-27.28a.54.53-5.1 0 1 .57-.68q18.5 1.89 37.38 7.4c24.36 7.11 43.78 12.95 66.69 17.32q25.08 4.79 50.1 3.84 40.98-1.56 77.82-21.24 19.56-10.45 26.19-14.27 4.53-2.6 5.94-7.2a1 1 0 0 0-.56-1.22q-4.2-1.87-9.56-3.35-10.06-2.79-16.91-4.35-33.1-7.52-58.78-13.45-28.83-6.65-57.6-5.82c-20.85.6-44.72 3.29-68 6.71q-14.39 2.11-60.14 9.07c-38.45 5.85-78.75 10.61-117.49 7.98q-24.76-1.67-47.29-10.41c-11.29-4.38-21.81-8.44-32.91-10.58-7.72-1.49-14.77-2.15-20.98-6.11-5.05-3.21-6.17-9.05-7.61-14.83q-1.79-7.21-8.04-10.73a.81.8 39 0 0-.91.09c-2.61 2.22-3.15 6.24-3.73 8.13a1 1 0 0 1-1.46.57l-6.44-3.72a.7.7 0 0 0-.86.16c-3.55 4.28-3.9 7.24-3.58 12.14.37 5.57-2.85 8.49-8.03 9.78q-6.99 1.76-12.93 6.55c-4.9 3.94-10.37 10.3-17.23 11.5q-1.53.26-9.05.36-.91.01-4.43 1.07a.7.7 0 0 0-.48.67q.13 4.33 2.68 5.89 4.65 2.86 16.11 8.06c8.8 3.99 22.44 7.09 30.95 10.92q9.27 4.17 11.61 6.22 2.68 2.35 14.09 12.88c4.57 4.22 9.57 9.61 14.68 14.01q2.05 1.77 15.53 11.87.22.17 2.53 2.54a.65.65 0 0 1 .01.89q-3.02 3.31-6.94 6.17-6.36 4.64-14.28 10.22c-2.12 1.5-5.05 3.99-5.1 6.74-.16 8.34 3.46 26.05 15.09 25.64a1.26 1.25 12.9 0 0 1.08-.67c1.95-3.67 1.42-8.14 1.24-13.39-.14-3.73 1.22-6.4 4.08-8.15q8.62-5.28 18.1-7.58 7.16-1.73 12.14 2.43 6.42 5.36 12.86 12.86c6.16 7.16 6.79 14.37 6.47 23.66" vector-effect="non-scaling-stroke"/><path stroke="#80ca9f" d="M303.23 396.56 0 396.55" vector-effect="non-scaling-stroke"/><path stroke="#0f572b" d="M484.49 396.56q-7.08 1.37-14.39.38" vector-effect="non-scaling-stroke"/><path stroke="#8e8c8b" d="m470.1 396.94 2.09-12.5a2.29 2.02 50.9 0 0 .02-.51q-.94-12.47-8.97-21.32a.39.39 0 0 0-.68.28c.21 6.14 1.33 11.05 2.21 18.02.67 5.27-1.57 11.19-2.68 15.79" vector-effect="non-scaling-stroke"/><path stroke="#0f572b" d="m462.09 396.7-8.8-.11" vector-effect="non-scaling-stroke"/><path stroke="#8e8c8b" d="M453.29 396.59q-1.35-6.12-1.04-10.09.55-7.06 1-11.49c.9-8.74-4.94-13.82-12.6-16.18-7.32-2.25-11.59-3.29-16.6-6.31-5.08-3.06-10.39-7.91-13.33-10.22-8.23-6.45-18.09-6.6-28.04-4.87q-13.59 2.35-28.73 7.36c-10.19 3.38-23.4 4.25-31.46 5.68-6.09 1.08-11.74 2.64-16.34 6.18a1.1 1.1 0 0 0-.42.98c.68 6.54 3.53 12.07 7.35 17.54 4.7 6.72 9.93 13.34 6.15 21.39" vector-effect="non-scaling-stroke"/><path stroke="#0f572b" d="M319.23 396.56q-8.14 1.46-16 0" vector-effect="non-scaling-stroke"/><path stroke="#8e8c8b" d="M207.74 273.32c-7.46-2.64-16.17-6-23.16-6.73q-11.32-1.18-22.62 2.63a.53.53 0 0 0-.23.85q4.33 4.96 10.36 7.17c17.52 6.43 36.12 8.66 48.57 21.73q9.45 9.93 19.68 19.58c6.35 5.99 14.4 12.55 22.8 15.02a.56.55 14.2 0 0 .71-.42q.33-1.58-.47-5.75c-3.93-20.44-23.31-33.23-38.64-44.87" vector-effect="non-scaling-stroke"/><path stroke="#800d13" d="M224.74 282.53c2.55-.69 4.51 1.85 6.77 2.97q4.07 2.03 11.04 8.26 6.59 5.9 8.04 7.43c4.9 5.16 9.81 11.42 12.41 18.35 2.69 7.14 4.41 14.48.31 20.8q-3.22 4.96-10.3 9.05-5.48 3.15-9.78 5.9c-3.84 2.45-7 5.98-6.81 10.05.28 6.09 2.42 12.58 7.98 15.62a.8.8 0 0 0 1.18-.83l-2.18-14.52a.1.1-18.6 0 1 .06-.1c17.91-7.06 32.03-13.24 48.22-17.83 4.37-1.24 5.26-4.32 6.49-7.92a2.4 2.4 0 0 1 2-1.6q11.72-1.26 17.74-2.23c16.69-2.7 31.33-6.64 49.55-11.02 2.45-.59 5.1-.69 7.24-1.27 2.42-.65 5.98.04 8.28-.41a3 2.97-45.3 0 1 1-.01c3.67.64 10.06 1.41 12.41 3.95 7.5 8.07 15.28 12.56 25.81 17.6q13.94 6.68 32.47 8.61 5.93.62 9.36 3.73 1.6 1.46 5.38 7.65c3.64 5.96 6.34 13.58 8.08 19.63a2.83 2.82-41 0 1-.14 1.95l-1.86 4.14a.44.44 0 0 0 .46.62q2.56-.34 3.4-1.27c1.71-1.9.26-7.97-.44-9.76q-4.93-12.63-5.85-24.54l-.07-1.58q-.08-2.26-1.18-5.88-1.18-3.92-4.3-5.03-9.04-3.22-9.97-3.64c-2.44-1.1-2.55-2.32-1.4-4.74q2.1-4.4 3.81-8.35 1.52-3.52 2.01-8.93 1.14-12.56-5.02-23.96c-.79-1.47-1.92-4.32-1.99-6.03a1.26 1.25-7.3 0 1 1-1.28q2.07-.41 4.53-.04 14.01 2.14 30.78 6.38l55.14 13.9q20.48 5.17 37.38 7.53c6.04.84 14.31 1.48 19.97 1.65q44.74 1.32 85.44-19.06 4.88-2.44 6.85-6.89 2.16-4.85 2.68-6.07c1.55-3.66 1.66-5.92 1.16-9.68a2.56 2.54-80.8 0 0-1.39-1.95q-3.67-1.82-5.81-2.52-16.01-5.22-36.37-10.11c-9.02-2.17-17.05-3.37-26.4-4.95-3.69-.62-7.09-.78-10.66-1.54q-3.02-.64-8.02-1.08l-15.98-1.39q-.73-.08-1.49-.14-3.88-.31-7.83-.54c-5.25-.32-9.64.14-15.06-.04q-3.41-.12-7.24.1-12.19.67-24.99 2.56a1.57 1.45-40.3 0 1-.49-.02q-1.07-.24-1.96.42a1.04 1.02-54.3 0 1-.91.16q-.68-.21-11.22 2.01-19.17 4.04-26.31 5.29-8.92 1.57-30.49 5.05-17.71 2.85-30.61 4.07-23.48 2.21-43.71 3.66-7.68.55-17.38.6-4.81.02-17.41.22-3.35.06-5.8-.14c-5.51-.46-8.84-.21-14.4-1.16q-.84-.14-8.62-.8-9.01-.77-22.8-3.49-4.74-.93-23.92-7.35a2.48 2.36-17.4 0 1-.63-.31q-1.87-1.24-3.69-1.32a2.68 2.55-28.7 0 1-1.05-.28q-2.64-1.39-5.35-1.8a2.72 2.63-24.2 0 1-1-.36q-1.66-1.02-3.18-1.34-1.57-.33-5.54-1.65-4.88-1.64-14.73-3.66c-6.02-1.24-12.89-1.95-18.85-3.28a.75.72-1.1 0 1-.54-.5c-1.93-6.07-4.14-12.98-8.7-17.47a.53.52 42.2 0 0-.77.03c-4.03 4.83-6.08 6.67-8.28 10.5q-1.3 2.25-2.36 4.54a1.98 1.97 7.7 0 1-1.47 1.11l-12.3 2.06a.86.67-52 0 0-.12.03l-5.88 2.11a1.09.99 13.9 0 0-.24.13q-2.13 1.5-3.15 2.27-.2.15-2.25 2.02-4.16 3.79-5.13 9.56a.86.86 0 0 0 1.09.97l11.98-3.42a1.7 1.64-46 0 1 .86-.03c3.35.72 7.77 5.48 9.3 7.13a1.17.52 66 0 0 .1.09l7.01 5.44" vector-effect="non-scaling-stroke"/><path stroke="#f18087" d="m224.74 282.53-17-9.21" vector-effect="non-scaling-stroke"/><path stroke="#8e8c8b" d="M393.14 332.34a.5.5 0 0 0 .26-.75c-3.87-5.9-10.99-6.81-17.6-6.19-11.74 1.1-23.38 6.2-34.4 8.62q-5.83 1.29-14.53 2.37-14.37 1.78-23.7 4.03a.75.74 82.8 0 0-.57.74c.05 4.06 2.92 6.44 7 6.49q3.77.04 4.45-.03c27.35-3.03 53.72-6.58 79.09-15.28" vector-effect="non-scaling-stroke"/><path stroke="#80ca9f" d="m453.29 396.59-134.06-.03m150.87.38-8.01-.24M800 532.38q-.32.24-.49.62" vector-effect="non-scaling-stroke"/></g><path fill="#fff" d="M800 0v396.55l-315.51.01c3.84-9.96-.24-18.03-3.82-28.21q-4.62-13.15-5.62-26.41a1.08 1.07-84.4 0 0-.79-.97l-12.32-3.35a.5.5 0 0 1-.38-.59q2.15-12.39 2.94-19.78c.97-9.14-1.34-18.47-3.89-27.28a.54.53-5.1 0 1 .57-.68q18.5 1.89 37.38 7.4c24.36 7.11 43.78 12.95 66.69 17.32q25.08 4.79 50.1 3.84 40.98-1.56 77.82-21.24 19.56-10.45 26.19-14.27 4.53-2.6 5.94-7.2a1 1 0 0 0-.56-1.22q-4.2-1.87-9.56-3.35-10.06-2.79-16.91-4.35-33.1-7.52-58.78-13.45-28.83-6.65-57.6-5.82c-20.85.6-44.72 3.29-68 6.71q-14.39 2.11-60.14 9.07c-38.45 5.85-78.75 10.61-117.49 7.98q-24.76-1.67-47.29-10.41c-11.29-4.38-21.81-8.44-32.91-10.58-7.72-1.49-14.77-2.15-20.98-6.11-5.05-3.21-6.17-9.05-7.61-14.83q-1.79-7.21-8.04-10.73a.81.8 39 0 0-.91.09c-2.61 2.22-3.15 6.24-3.73 8.13a1 1 0 0 1-1.46.57l-6.44-3.72a.7.7 0 0 0-.86.16c-3.55 4.28-3.9 7.24-3.58 12.14.37 5.57-2.85 8.49-8.03 9.78q-6.99 1.76-12.93 6.55c-4.9 3.94-10.37 10.3-17.23 11.5q-1.53.26-9.05.36-.91.01-4.43 1.07a.7.7 0 0 0-.48.67q.13 4.33 2.68 5.89 4.65 2.86 16.11 8.06c8.8 3.99 22.44 7.09 30.95 10.92q9.27 4.17 11.61 6.22 2.68 2.35 14.09 12.88c4.57 4.22 9.57 9.61 14.68 14.01q2.05 1.77 15.53 11.87.22.17 2.53 2.54a.65.65 0 0 1 .01.89q-3.02 3.31-6.94 6.17-6.36 4.64-14.28 10.22c-2.12 1.5-5.05 3.99-5.1 6.74-.16 8.34 3.46 26.05 15.09 25.64a1.26 1.25 12.9 0 0 1.08-.67c1.95-3.67 1.42-8.14 1.24-13.39-.14-3.73 1.22-6.4 4.08-8.15q8.62-5.28 18.1-7.58 7.16-1.73 12.14 2.43 6.42 5.36 12.86 12.86c6.16 7.16 6.79 14.37 6.47 23.66L0 396.55V0z"/><path fill="#1d1917" d="M484.49 396.56q-7.08 1.37-14.39.38l2.09-12.5a2.29 2.02 50.9 0 0 .02-.51q-.94-12.47-8.97-21.32a.39.39 0 0 0-.68.28c.21 6.14 1.33 11.05 2.21 18.02.67 5.27-1.57 11.19-2.68 15.79l-8.8-.11q-1.35-6.12-1.04-10.09.55-7.06 1-11.49c.9-8.74-4.94-13.82-12.6-16.18-7.32-2.25-11.59-3.29-16.6-6.31-5.08-3.06-10.39-7.91-13.33-10.22-8.23-6.45-18.09-6.6-28.04-4.87q-13.59 2.35-28.73 7.36c-10.19 3.38-23.4 4.25-31.46 5.68-6.09 1.08-11.74 2.64-16.34 6.18a1.1 1.1 0 0 0-.42.98c.68 6.54 3.53 12.07 7.35 17.54 4.7 6.72 9.93 13.34 6.15 21.39q-8.14 1.46-16 0c.32-9.29-.31-16.5-6.47-23.66q-6.44-7.5-12.86-12.86-4.98-4.16-12.14-2.43-9.48 2.3-18.1 7.58c-2.86 1.75-4.22 4.42-4.08 8.15.18 5.25.71 9.72-1.24 13.39a1.26 1.25 12.9 0 1-1.08.67c-11.63.41-15.25-17.3-15.09-25.64.05-2.75 2.98-5.24 5.1-6.74q7.92-5.58 14.28-10.22 3.92-2.86 6.94-6.17a.65.65 0 0 0-.01-.89q-2.31-2.37-2.53-2.54-13.48-10.1-15.53-11.87c-5.11-4.4-10.11-9.79-14.68-14.01q-11.41-10.53-14.09-12.88-2.34-2.05-11.61-6.22c-8.51-3.83-22.15-6.93-30.95-10.92q-11.46-5.2-16.11-8.06-2.55-1.56-2.68-5.89a.7.7 0 0 1 .48-.67q3.52-1.06 4.43-1.07 7.52-.1 9.05-.36c6.86-1.2 12.33-7.56 17.23-11.5q5.94-4.79 12.93-6.55c5.18-1.29 8.4-4.21 8.03-9.78-.32-4.9.03-7.86 3.58-12.14a.7.7 0 0 1 .86-.16l6.44 3.72a1 1 0 0 0 1.46-.57c.58-1.89 1.12-5.91 3.73-8.13a.81.8 39 0 1 .91-.09q6.25 3.52 8.04 10.73c1.44 5.78 2.56 11.62 7.61 14.83 6.21 3.96 13.26 4.62 20.98 6.11 11.1 2.14 21.62 6.2 32.91 10.58q22.53 8.74 47.29 10.41c38.74 2.63 79.04-2.13 117.49-7.98q45.75-6.96 60.14-9.07c23.28-3.42 47.15-6.11 68-6.71q28.77-.83 57.6 5.82 25.68 5.93 58.78 13.45 6.85 1.56 16.91 4.35 5.36 1.48 9.56 3.35a1 1 0 0 1 .56 1.22q-1.41 4.6-5.94 7.2-6.63 3.82-26.19 14.27-36.84 19.68-77.82 21.24-25.02.95-50.1-3.84c-22.91-4.37-42.33-10.21-66.69-17.32q-18.88-5.51-37.38-7.4a.54.53-5.1 0 0-.57.68c2.55 8.81 4.86 18.14 3.89 27.28q-.79 7.39-2.94 19.78a.5.5 0 0 0 .38.59l12.32 3.35a1.08 1.07-84.4 0 1 .79.97q1 13.26 5.62 26.41c3.58 10.18 7.66 18.25 3.82 28.21M207.74 273.32c-7.46-2.64-16.17-6-23.16-6.73q-11.32-1.18-22.62 2.63a.53.53 0 0 0-.23.85q4.33 4.96 10.36 7.17c17.52 6.43 36.12 8.66 48.57 21.73q9.45 9.93 19.68 19.58c6.35 5.99 14.4 12.55 22.8 15.02a.56.55 14.2 0 0 .71-.42q.33-1.58-.47-5.75c-3.93-20.44-23.31-33.23-38.64-44.87 2.55-.69 4.51 1.85 6.77 2.97q4.07 2.03 11.04 8.26 6.59 5.9 8.04 7.43c4.9 5.16 9.81 11.42 12.41 18.35 2.69 7.14 4.41 14.48.31 20.8q-3.22 4.96-10.3 9.05-5.48 3.15-9.78 5.9c-3.84 2.45-7 5.98-6.81 10.05.28 6.09 2.42 12.58 7.98 15.62a.8.8 0 0 0 1.18-.83l-2.18-14.52a.1.1-18.6 0 1 .06-.1c17.91-7.06 32.03-13.24 48.22-17.83 4.37-1.24 5.26-4.32 6.49-7.92a2.4 2.4 0 0 1 2-1.6q11.72-1.26 17.74-2.23c16.69-2.7 31.33-6.64 49.55-11.02 2.45-.59 5.1-.69 7.24-1.27 2.42-.65 5.98.04 8.28-.41a3 2.97-45.3 0 1 1-.01c3.67.64 10.06 1.41 12.41 3.95 7.5 8.07 15.28 12.56 25.81 17.6q13.94 6.68 32.47 8.61 5.93.62 9.36 3.73 1.6 1.46 5.38 7.65c3.64 5.96 6.34 13.58 8.08 19.63a2.83 2.82-41 0 1-.14 1.95l-1.86 4.14a.44.44 0 0 0 .46.62q2.56-.34 3.4-1.27c1.71-1.9.26-7.97-.44-9.76q-4.93-12.63-5.85-24.54l-.07-1.58q-.08-2.26-1.18-5.88-1.18-3.92-4.3-5.03-9.04-3.22-9.97-3.64c-2.44-1.1-2.55-2.32-1.4-4.74q2.1-4.4 3.81-8.35 1.52-3.52 2.01-8.93 1.14-12.56-5.02-23.96c-.79-1.47-1.92-4.32-1.99-6.03a1.26 1.25-7.3 0 1 1-1.28q2.07-.41 4.53-.04 14.01 2.14 30.78 6.38l55.14 13.9q20.48 5.17 37.38 7.53c6.04.84 14.31 1.48 19.97 1.65q44.74 1.32 85.44-19.06 4.88-2.44 6.85-6.89 2.16-4.85 2.68-6.07c1.55-3.66 1.66-5.92 1.16-9.68a2.56 2.54-80.8 0 0-1.39-1.95q-3.67-1.82-5.81-2.52-16.01-5.22-36.37-10.11c-9.02-2.17-17.05-3.37-26.4-4.95-3.69-.62-7.09-.78-10.66-1.54q-3.02-.64-8.02-1.08l-15.98-1.39q-.73-.08-1.49-.14-3.88-.31-7.83-.54c-5.25-.32-9.64.14-15.06-.04q-3.41-.12-7.24.1-12.19.67-24.99 2.56a1.57 1.45-40.3 0 1-.49-.02q-1.07-.24-1.96.42a1.04 1.02-54.3 0 1-.91.16q-.68-.21-11.22 2.01-19.17 4.04-26.31 5.29-8.92 1.57-30.49 5.05-17.71 2.85-30.61 4.07-23.48 2.21-43.71 3.66-7.68.55-17.38.6-4.81.02-17.41.22-3.35.06-5.8-.14c-5.51-.46-8.84-.21-14.4-1.16q-.84-.14-8.62-.8-9.01-.77-22.8-3.49-4.74-.93-23.92-7.35a2.48 2.36-17.4 0 1-.63-.31q-1.87-1.24-3.69-1.32a2.68 2.55-28.7 0 1-1.05-.28q-2.64-1.39-5.35-1.8a2.72 2.63-24.2 0 1-1-.36q-1.66-1.02-3.18-1.34-1.57-.33-5.54-1.65-4.88-1.64-14.73-3.66c-6.02-1.24-12.89-1.95-18.85-3.28a.75.72-1.1 0 1-.54-.5c-1.93-6.07-4.14-12.98-8.7-17.47a.53.52 42.2 0 0-.77.03c-4.03 4.83-6.08 6.67-8.28 10.5q-1.3 2.25-2.36 4.54a1.98 1.97 7.7 0 1-1.47 1.11l-12.3 2.06a.86.67-52 0 0-.12.03l-5.88 2.11a1.09.99 13.9 0 0-.24.13q-2.13 1.5-3.15 2.27-.2.15-2.25 2.02-4.16 3.79-5.13 9.56a.86.86 0 0 0 1.09.97l11.98-3.42a1.7 1.64-46 0 1 .86-.03c3.35.72 7.77 5.48 9.3 7.13a1.17.52 66 0 0 .1.09zm185.4 59.02a.5.5 0 0 0 .26-.75c-3.87-5.9-10.99-6.81-17.6-6.19-11.74 1.1-23.38 6.2-34.4 8.62q-5.83 1.29-14.53 2.37-14.37 1.78-23.7 4.03a.75.74 82.8 0 0-.57.74c.05 4.06 2.92 6.44 7 6.49q3.77.04 4.45-.03c27.35-3.03 53.72-6.58 79.09-15.28"/><path fill="#e3000f" d="m224.74 282.53-17-9.21-7.01-5.44a1.17.52 66 0 1-.1-.09c-1.53-1.65-5.95-6.41-9.3-7.13a1.7 1.64-46 0 0-.86.03l-11.98 3.42a.86.86 0 0 1-1.09-.97q.97-5.77 5.13-9.56 2.05-1.87 2.25-2.02 1.02-.77 3.15-2.27a1.09.99 13.9 0 1 .24-.13l5.88-2.11a.86.67-52 0 1 .12-.03l12.3-2.06a1.98 1.97 7.7 0 0 1.47-1.11q1.06-2.29 2.36-4.54c2.2-3.83 4.25-5.67 8.28-10.5a.53.52 42.2 0 1 .77-.03c4.56 4.49 6.77 11.4 8.7 17.47a.75.72-1.1 0 0 .54.5c5.96 1.33 12.83 2.04 18.85 3.28q9.85 2.02 14.73 3.66 3.97 1.32 5.54 1.65 1.52.32 3.18 1.34a2.72 2.63-24.2 0 0 1 .36q2.71.41 5.35 1.8a2.68 2.55-28.7 0 0 1.05.28q1.82.08 3.69 1.32a2.48 2.36-17.4 0 0 .63.31q19.18 6.42 23.92 7.35 13.79 2.72 22.8 3.49 7.78.66 8.62.8c5.56.95 8.89.7 14.4 1.16q2.45.2 5.8.14 12.6-.2 17.41-.22 9.7-.05 17.38-.6 20.23-1.45 43.71-3.66 12.9-1.22 30.61-4.07 21.57-3.48 30.49-5.05 7.14-1.25 26.31-5.29 10.54-2.22 11.22-2.01a1.04 1.02-54.3 0 0 .91-.16q.89-.66 1.96-.42a1.57 1.45-40.3 0 0 .49.02q12.8-1.89 24.99-2.56 3.83-.22 7.24-.1c5.42.18 9.81-.28 15.06.04q3.95.23 7.83.54.76.06 1.49.14l15.98 1.39q5 .44 8.02 1.08c3.57.76 6.97.92 10.66 1.54 9.35 1.58 17.38 2.78 26.4 4.95q20.36 4.89 36.37 10.11 2.14.7 5.81 2.52a2.56 2.54-80.8 0 1 1.39 1.95c.5 3.76.39 6.02-1.16 9.68q-.52 1.22-2.68 6.07-1.97 4.45-6.85 6.89-40.7 20.38-85.44 19.06c-5.66-.17-13.93-.81-19.97-1.65q-16.9-2.36-37.38-7.53l-55.14-13.9q-16.77-4.24-30.78-6.38-2.46-.37-4.53.04a1.26 1.25-7.3 0 0-1 1.28c.07 1.71 1.2 4.56 1.99 6.03q6.16 11.4 5.02 23.96-.49 5.41-2.01 8.93-1.71 3.95-3.81 8.35c-1.15 2.42-1.04 3.64 1.4 4.74q.93.42 9.97 3.64 3.12 1.11 4.3 5.03 1.1 3.62 1.18 5.88l.07 1.58q.92 11.91 5.85 24.54c.7 1.79 2.15 7.86.44 9.76q-.84.93-3.4 1.27a.44.44 0 0 1-.46-.62l1.86-4.14a2.83 2.82-41 0 0 .14-1.95c-1.74-6.05-4.44-13.67-8.08-19.63q-3.78-6.19-5.38-7.65-3.43-3.11-9.36-3.73-18.53-1.93-32.47-8.61c-10.53-5.04-18.31-9.53-25.81-17.6-2.35-2.54-8.74-3.31-12.41-3.95a3 2.97-45.3 0 0-1 .01c-2.3.45-5.86-.24-8.28.41-2.14.58-4.79.68-7.24 1.27-18.22 4.38-32.86 8.32-49.55 11.02q-6.02.97-17.74 2.23a2.4 2.4 0 0 0-2 1.6c-1.23 3.6-2.12 6.68-6.49 7.92-16.19 4.59-30.31 10.77-48.22 17.83a.1.1-18.6 0 0-.06.1l2.18 14.52a.8.8 0 0 1-1.18.83c-5.56-3.04-7.7-9.53-7.98-15.62-.19-4.07 2.97-7.6 6.81-10.05q4.3-2.75 9.78-5.9 7.08-4.09 10.3-9.05c4.1-6.32 2.38-13.66-.31-20.8-2.6-6.93-7.51-13.19-12.41-18.35q-1.45-1.53-8.04-7.43-6.97-6.23-11.04-8.26c-2.26-1.12-4.22-3.66-6.77-2.97"/><path fill="#fff" d="m207.74 273.32 17 9.21c15.33 11.64 34.71 24.43 38.64 44.87q.8 4.17.47 5.75a.56.55 14.2 0 1-.71.42c-8.4-2.47-16.45-9.03-22.8-15.02q-10.23-9.65-19.68-19.58c-12.45-13.07-31.05-15.3-48.57-21.73q-6.03-2.21-10.36-7.17a.53.53 0 0 1 .23-.85q11.3-3.81 22.62-2.63c6.99.73 15.7 4.09 23.16 6.73m185.4 59.02c-25.37 8.7-51.74 12.25-79.09 15.28q-.68.07-4.45.03c-4.08-.05-6.95-2.43-7-6.49a.75.74 82.8 0 1 .57-.74q9.33-2.25 23.7-4.03 8.7-1.08 14.53-2.37c11.02-2.42 22.66-7.52 34.4-8.62 6.61-.62 13.73.29 17.6 6.19a.5.5 0 0 1-.26.75m60.15 64.25-134.06-.03c3.78-8.05-1.45-14.67-6.15-21.39-3.82-5.47-6.67-11-7.35-17.54a1.1 1.1 0 0 1 .42-.98c4.6-3.54 10.25-5.1 16.34-6.18 8.06-1.43 21.27-2.3 31.46-5.68q15.14-5.01 28.73-7.36c9.95-1.73 19.81-1.58 28.04 4.87 2.94 2.31 8.25 7.16 13.33 10.22 5.01 3.02 9.28 4.06 16.6 6.31 7.66 2.36 13.5 7.44 12.6 16.18q-.45 4.43-1 11.49-.31 3.97 1.04 10.09m16.81.35-8.01-.24c1.11-4.6 3.35-10.52 2.68-15.79-.88-6.97-2-11.88-2.21-18.02a.39.39 0 0 1 .68-.28q8.03 8.85 8.97 21.32a2.29 2.02 50.9 0 1-.02.51z"/><path fill="#01953f" d="M303.23 396.56q7.86 1.46 16 0l134.06.03 8.8.11 8.01.24q7.31.99 14.39-.38l315.51-.01v135.83q-.32.24-.49.62H0V396.55z"/><path fill="#fff" d="M800 532.38v.62h-.49q.17-.38.49-.62"/></svg>